<svg width="24" height="25" viewBox="0 0 24 25" fill="none" xmlns="http://www.w3.org/2000/svg">
<path fill-rule="evenodd" clip-rule="evenodd" d="M12 23.2461C17.799 23.2461 22.5 18.5451 22.5 12.7461C22.5 6.9471 17.799 2.24609 12 2.24609C6.20101 2.24609 1.5 6.9471 1.5 12.7461C1.5 18.5451 6.20101 23.2461 12 23.2461ZM12 24.7461C5.37258 24.7461 0 19.3735 0 12.7461C0 6.11868 5.37258 0.746094 12 0.746094C18.6274 0.746094 24 6.11868 24 12.7461C24 19.3735 18.6274 24.7461 12 24.7461Z" fill="#2A8981"/>
<path d="M14.3624 7.00817H11.4533L8.58967 8.75817V11.44L11.1351 9.91726H11.2033V18.6445H14.3624V7.00817Z" fill="#2A8981"/>
</svg>
