<svg width="24" height="25" viewBox="0 0 24 25" fill="none" xmlns="http://www.w3.org/2000/svg">
<path fill-rule="evenodd" clip-rule="evenodd" d="M12 23.2461C17.799 23.2461 22.5 18.5451 22.5 12.7461C22.5 6.9471 17.799 2.24609 12 2.24609C6.20101 2.24609 1.5 6.9471 1.5 12.7461C1.5 18.5451 6.20101 23.2461 12 23.2461ZM12 24.7461C5.37258 24.7461 0 19.3735 0 12.7461C0 6.11868 5.37258 0.746094 12 0.746094C18.6274 0.746094 24 6.11868 24 12.7461C24 19.3735 18.6274 24.7461 12 24.7461Z" fill="#2A8981"/>
<path d="M7.53285 18.6445H16.4647V16.1218H11.9192V16.0536L13.0101 15.1445C15.6635 12.9343 16.3397 11.7866 16.3397 10.44C16.3397 8.26953 14.5613 6.84908 11.7715 6.84908C9.06126 6.84908 7.2999 8.35476 7.30558 10.8036H10.3056C10.2999 9.82635 10.8965 9.28089 11.7715 9.28089C12.6408 9.28089 13.2601 9.82067 13.2601 10.7127C13.2601 11.5366 12.7317 12.0707 11.8738 12.7809L7.53285 16.3718V18.6445Z" fill="#2A8981"/>
</svg>
