<svg width="38" height="44" viewBox="0 0 38 44" fill="none" xmlns="http://www.w3.org/2000/svg">
<path d="M5.08551 41.58H2.17551L1.67551 43H0.485508L2.97551 36.04H4.29551L6.78551 43H5.58551L5.08551 41.58ZM4.76551 40.65L3.63551 37.42L2.49551 40.65H4.76551ZM15.2682 37.49L13.5582 43H12.3582L11.2482 38.93L10.1382 43H8.93816L7.21816 37.49H8.37816L9.52816 41.92L10.6982 37.49H11.8882L13.0082 41.9L14.1482 37.49H15.2682ZM15.7401 40.22C15.7401 39.6667 15.8535 39.1767 16.0801 38.75C16.3135 38.3233 16.6268 37.9933 17.0201 37.76C17.4201 37.52 17.8601 37.4 18.3401 37.4C18.7735 37.4 19.1501 37.4867 19.4701 37.66C19.7968 37.8267 20.0568 38.0367 20.2501 38.29V37.49H21.4001V43H20.2501V42.18C20.0568 42.44 19.7935 42.6567 19.4601 42.83C19.1268 43.0033 18.7468 43.09 18.3201 43.09C17.8468 43.09 17.4135 42.97 17.0201 42.73C16.6268 42.4833 16.3135 42.1433 16.0801 41.71C15.8535 41.27 15.7401 40.7733 15.7401 40.22ZM20.2501 40.24C20.2501 39.86 20.1701 39.53 20.0101 39.25C19.8568 38.97 19.6535 38.7567 19.4001 38.61C19.1468 38.4633 18.8735 38.39 18.5801 38.39C18.2868 38.39 18.0135 38.4633 17.7601 38.61C17.5068 38.75 17.3001 38.96 17.1401 39.24C16.9868 39.5133 16.9101 39.84 16.9101 40.22C16.9101 40.6 16.9868 40.9333 17.1401 41.22C17.3001 41.5067 17.5068 41.7267 17.7601 41.88C18.0201 42.0267 18.2935 42.1 18.5801 42.1C18.8735 42.1 19.1468 42.0267 19.4001 41.88C19.6535 41.7333 19.8568 41.52 20.0101 41.24C20.1701 40.9533 20.2501 40.62 20.2501 40.24ZM24.0375 38.29C24.2041 38.01 24.4241 37.7933 24.6975 37.64C24.9775 37.48 25.3075 37.4 25.6875 37.4V38.58H25.3975C24.9508 38.58 24.6108 38.6933 24.3775 38.92C24.1508 39.1467 24.0375 39.54 24.0375 40.1V43H22.8975V37.49H24.0375V38.29ZM26.3554 40.22C26.3554 39.6667 26.4687 39.1767 26.6954 38.75C26.9287 38.3233 27.242 37.9933 27.6354 37.76C28.0354 37.52 28.4787 37.4 28.9654 37.4C29.3254 37.4 29.6787 37.48 30.0254 37.64C30.3787 37.7933 30.6587 38 30.8654 38.26V35.6H32.0154V43H30.8654V42.17C30.6787 42.4367 30.4187 42.6567 30.0854 42.83C29.7587 43.0033 29.382 43.09 28.9554 43.09C28.4754 43.09 28.0354 42.97 27.6354 42.73C27.242 42.4833 26.9287 42.1433 26.6954 41.71C26.4687 41.27 26.3554 40.7733 26.3554 40.22ZM30.8654 40.24C30.8654 39.86 30.7854 39.53 30.6254 39.25C30.472 38.97 30.2687 38.7567 30.0154 38.61C29.762 38.4633 29.4887 38.39 29.1954 38.39C28.902 38.39 28.6287 38.4633 28.3754 38.61C28.122 38.75 27.9154 38.96 27.7554 39.24C27.602 39.5133 27.5254 39.84 27.5254 40.22C27.5254 40.6 27.602 40.9333 27.7554 41.22C27.9154 41.5067 28.122 41.7267 28.3754 41.88C28.6354 42.0267 28.9087 42.1 29.1954 42.1C29.4887 42.1 29.762 42.0267 30.0154 41.88C30.2687 41.7333 30.472 41.52 30.6254 41.24C30.7854 40.9533 30.8654 40.62 30.8654 40.24ZM35.5127 43.09C35.0794 43.09 34.6894 43.0133 34.3427 42.86C34.0027 42.7 33.7327 42.4867 33.5327 42.22C33.3327 41.9467 33.226 41.6433 33.2127 41.31H34.3927C34.4127 41.5433 34.5227 41.74 34.7227 41.9C34.9294 42.0533 35.186 42.13 35.4927 42.13C35.8127 42.13 36.0594 42.07 36.2327 41.95C36.4127 41.8233 36.5027 41.6633 36.5027 41.47C36.5027 41.2633 36.4027 41.11 36.2027 41.01C36.0094 40.91 35.6994 40.8 35.2727 40.68C34.8594 40.5667 34.5227 40.4567 34.2627 40.35C34.0027 40.2433 33.776 40.08 33.5827 39.86C33.396 39.64 33.3027 39.35 33.3027 38.99C33.3027 38.6967 33.3894 38.43 33.5627 38.19C33.736 37.9433 33.9827 37.75 34.3027 37.61C34.6294 37.47 35.0027 37.4 35.4227 37.4C36.0494 37.4 36.5527 37.56 36.9327 37.88C37.3194 38.1933 37.526 38.6233 37.5527 39.17H36.4127C36.3927 38.9233 36.2927 38.7267 36.1127 38.58C35.9327 38.4333 35.6894 38.36 35.3827 38.36C35.0827 38.36 34.8527 38.4167 34.6927 38.53C34.5327 38.6433 34.4527 38.7933 34.4527 38.98C34.4527 39.1267 34.506 39.25 34.6127 39.35C34.7194 39.45 34.8494 39.53 35.0027 39.59C35.156 39.6433 35.3827 39.7133 35.6827 39.8C36.0827 39.9067 36.4094 40.0167 36.6627 40.13C36.9227 40.2367 37.146 40.3967 37.3327 40.61C37.5194 40.8233 37.616 41.1067 37.6227 41.46C37.6227 41.7733 37.536 42.0533 37.3627 42.3C37.1894 42.5467 36.9427 42.74 36.6227 42.88C36.3094 43.02 35.9394 43.09 35.5127 43.09Z" fill="#C4C4C4"/>
<path fill-rule="evenodd" clip-rule="evenodd" d="M18.6302 0.142778C18.363 0.2379 17.9845 0.425995 17.7892 0.560829C17.1628 0.993457 16.7989 1.09503 15.872 1.09559C15.395 1.09587 14.8365 1.14156 14.631 1.19725C14.1346 1.33152 13.5161 1.93879 13.1648 2.63679C12.7894 3.38254 12.5072 3.66856 11.781 4.03923C11.038 4.41851 10.4315 5.0283 10.2948 5.53344C10.2391 5.73901 10.1934 6.30964 10.1931 6.80151C10.1926 7.61211 10.167 7.7432 9.91877 8.20312C9.20433 9.52688 9.125 9.73189 9.125 10.2522C9.125 10.7724 9.20433 10.9775 9.91877 12.3012C10.167 12.7611 10.1926 12.8922 10.1931 13.7028C10.1934 14.1947 10.2391 14.7653 10.2948 14.9709C10.4315 15.476 11.038 16.0858 11.781 16.4651C12.5113 16.8379 12.7663 17.1014 13.228 17.961L13.5793 18.6151L12.4832 21.6052C11.8804 23.2497 11.2775 24.9214 11.1435 25.3201L10.9 26.045L11.1071 26.252L11.3141 26.4591L12.6756 26.0089C13.4245 25.7613 14.0488 25.5732 14.0631 25.5908C14.0774 25.6086 14.3955 26.1277 14.7699 26.7444C15.1443 27.3611 15.4975 27.8966 15.5547 27.9343C15.6925 28.0252 15.9102 28.0213 16.0618 27.9252C16.1292 27.8824 16.7849 26.1955 17.5187 24.1765L18.853 20.5056H19.3487H19.8445L21.1825 24.1783C21.9185 26.1982 22.5745 27.8851 22.6404 27.9269C22.7894 28.0214 23.0077 28.0247 23.1447 27.9343C23.2019 27.8966 23.5551 27.3611 23.9295 26.7444C24.3039 26.1277 24.622 25.6086 24.6363 25.5908C24.6506 25.5732 25.2749 25.7613 26.0238 26.0089L27.3853 26.4591L27.5923 26.252L27.7994 26.045L27.5559 25.3201C27.4219 24.9214 26.819 23.2497 26.2161 21.6052L25.1201 18.6151L25.4714 17.961C25.9331 17.1014 26.1881 16.8379 26.9183 16.4651C27.6614 16.0858 28.2679 15.476 28.4046 14.9709C28.4603 14.7653 28.506 14.1947 28.5063 13.7028C28.5067 12.8922 28.5324 12.7611 28.7806 12.3012C29.4951 10.9775 29.5744 10.7724 29.5744 10.2522C29.5744 9.73189 29.4951 9.52688 28.7806 8.20312C28.5324 7.7432 28.5067 7.61211 28.5063 6.80151C28.506 6.30964 28.4603 5.73901 28.4046 5.53344C28.2703 5.03708 27.6631 4.4186 26.9651 4.06727C26.2193 3.69183 25.9333 3.40963 25.5626 2.68351C25.1834 1.94047 24.5736 1.33395 24.0684 1.19725C23.8629 1.14156 23.2922 1.09587 22.8003 1.09559C21.9898 1.09512 21.8587 1.06943 21.3987 0.821249C19.7858 -0.0492402 19.4213 -0.138571 18.6302 0.142778ZM20.4243 1.36311C21.3249 1.91917 21.4724 1.96131 22.7324 2.02214C23.8622 2.07662 23.9322 2.09166 24.1866 2.33545C24.3336 2.47626 24.5927 2.85395 24.7623 3.17482C25.1696 3.94505 25.675 4.45476 26.4077 4.83432C26.7376 5.00531 27.1235 5.2661 27.2651 5.41383C27.5105 5.66995 27.5252 5.73798 27.5797 6.86944C27.6411 8.14023 27.6804 8.27497 28.2644 9.2162C28.7756 10.0399 28.7756 10.4645 28.2644 11.2881C27.6804 12.2294 27.6411 12.3641 27.5797 13.6349C27.525 14.7706 27.5112 14.8336 27.2616 15.0941C27.1181 15.2438 26.7615 15.4866 26.469 15.6335C25.7313 16.0041 25.1468 16.578 24.7736 17.2985C24.5993 17.6349 24.3358 18.026 24.188 18.1676C23.9319 18.413 23.8639 18.4276 22.7324 18.4822C21.4616 18.5436 21.3269 18.5828 20.3857 19.1669C19.562 19.678 19.1374 19.678 18.3137 19.1669C17.3541 18.5714 17.2387 18.5377 15.9686 18.4811C14.8357 18.4305 14.7715 18.4168 14.5144 18.1705C14.3665 18.0288 14.1067 17.6504 13.9371 17.3295C13.529 16.558 12.9894 16.0136 12.2781 15.6562C11.958 15.4954 11.5793 15.2418 11.4365 15.0927C11.1884 14.8339 11.1743 14.769 11.1197 13.6349C11.0583 12.3641 11.019 12.2294 10.4349 11.2881C9.92382 10.4645 9.92382 10.0399 10.4349 9.2162C11.019 8.27497 11.0583 8.14023 11.1197 6.86944C11.1749 5.72489 11.1865 5.67248 11.4454 5.40225C11.593 5.24816 11.9497 5.00671 12.2381 4.86571C12.9585 4.51326 13.5497 3.93197 13.9258 3.20584C14.1001 2.86946 14.3636 2.47832 14.5114 2.33675C14.7675 2.09138 14.8355 2.07671 15.967 2.02214C17.2187 1.96169 17.3894 1.91394 18.2284 1.38862C19.1519 0.810412 19.5222 0.806112 20.4243 1.36311ZM18.1096 2.87394C15.2495 3.35497 12.9438 5.46943 12.1018 8.38336C11.8571 9.23003 11.8585 11.2579 12.1043 12.121C12.8679 14.8024 14.7968 16.7315 17.4809 17.4981C17.9375 17.6284 18.4012 17.6715 19.3497 17.6715C21.0735 17.6715 22.2063 17.3347 23.5485 16.4233C27.4161 13.7969 27.9285 8.30076 24.6149 4.987C22.9078 3.27994 20.4473 2.48075 18.1096 2.87394ZM21.1768 3.9743C23.5366 4.70874 25.2693 6.60099 25.7454 8.96344C26.0407 10.4289 25.8627 11.731 25.1734 13.1488C24.8125 13.8909 24.6098 14.1683 23.9379 14.8404C23.2659 15.5123 22.9884 15.715 22.2463 16.0758C20.8286 16.7651 19.5264 16.9431 18.061 16.6479C16.482 16.3296 14.8923 15.3011 14.0248 14.0365C12.616 11.9829 12.4373 9.5907 13.5256 7.35552C13.8865 6.61407 14.0901 6.33543 14.7615 5.66397C15.433 4.9926 15.7116 4.789 16.453 4.42804C16.9413 4.19033 17.6351 3.93234 17.9948 3.85469C18.8404 3.67229 20.3943 3.7307 21.1768 3.9743ZM19.1371 5.21518C19.0458 5.26835 18.6802 5.89262 18.3246 6.60258C17.8232 7.60351 17.6296 7.90448 17.4626 7.94289C17.3442 7.97017 16.7007 8.06679 16.0326 8.15771C14.0983 8.42093 14.0641 8.55968 15.5629 10.0639L16.6351 11.1398L16.4046 12.448C16.1088 14.1261 16.1094 14.2452 16.4136 14.3839C16.6314 14.4831 16.7838 14.4269 18.0021 13.7978L19.3497 13.1021L20.6973 13.7978C21.9156 14.4269 22.068 14.4831 22.2858 14.3839C22.59 14.2452 22.5906 14.1261 22.2948 12.448L22.0643 11.1398L23.1364 10.0639C24.6378 8.55707 24.6025 8.41336 22.6668 8.15528C21.9987 8.06614 21.3552 7.97083 21.2368 7.94336C21.0699 7.90458 20.8756 7.60221 20.3738 6.60062C20.0177 5.88963 19.6443 5.26405 19.5441 5.21042C19.3273 5.09436 19.345 5.09417 19.1371 5.21518ZM19.8888 7.71947C20.4323 8.84543 20.3327 8.77198 21.5455 8.93989C22.8913 9.12621 22.855 9.03174 21.935 9.95605C21.4173 10.4761 21.1251 10.8428 21.1251 10.9721C21.1251 11.0833 21.1934 11.5784 21.2767 12.0722C21.3602 12.566 21.4049 12.9935 21.3761 13.0223C21.3474 13.0511 20.9271 12.86 20.442 12.5978C19.957 12.3355 19.4655 12.121 19.3497 12.121C19.2339 12.121 18.7424 12.3355 18.2574 12.5978C17.7723 12.86 17.3519 13.0511 17.3233 13.0223C17.2945 12.9935 17.3392 12.566 17.4227 12.0722C17.506 11.5784 17.5743 11.0833 17.5743 10.9721C17.5743 10.8428 17.282 10.4761 16.7644 9.95605C15.8444 9.03174 15.8081 9.12621 17.1538 8.93989C18.3667 8.77198 18.2671 8.84543 18.8105 7.71947C19.0809 7.15958 19.3234 6.70144 19.3497 6.70144C19.3759 6.70144 19.6185 7.15958 19.8888 7.71947ZM15.799 19.4C16.8855 19.4539 17.0028 19.4785 17.4809 19.7526C17.7719 19.9195 17.9814 20.1014 17.9639 20.1722C17.897 20.4415 15.7669 26.2813 15.7123 26.3449C15.6802 26.3822 15.4492 26.0668 15.1988 25.6441C14.4433 24.3688 14.5188 24.3992 13.2003 24.8386C12.7216 24.998 12.3089 25.1075 12.2831 25.0818C12.2574 25.056 12.7117 23.7265 13.2925 22.1273C14.1406 19.7928 14.3766 19.2317 14.4899 19.2808C14.5674 19.3145 15.1566 19.3681 15.799 19.4ZM25.4073 22.1287C25.988 23.7272 26.442 25.056 26.4163 25.0818C26.3905 25.1075 25.9778 24.998 25.4991 24.8386C24.1805 24.3992 24.256 24.3688 23.5006 25.6441C23.2502 26.0668 23.0192 26.3822 22.9871 26.3449C22.9295 26.2778 20.7951 20.4192 20.7355 20.1646C20.7163 20.0823 20.9284 19.9145 21.2967 19.7207C21.8496 19.43 21.9519 19.4087 22.8385 19.4C23.3608 19.3948 23.8932 19.357 24.0217 19.3159C24.1502 19.2748 24.277 19.2369 24.3034 19.2318C24.33 19.2266 24.8267 20.5302 25.4073 22.1287Z" fill="#C4C4C4"/>
</svg>
