<svg width="1440" height="4141" viewBox="0 0 1440 4141" fill="none" xmlns="http://www.w3.org/2000/svg">
<path d="M-118.138 1152.43C-56.7622 1081.94 64.4437 1173.13 240.065 1133.22C392.174 1098.64 400.925 1006.78 522.457 1011.34C611.246 1014.65 707.998 1065.92 761.171 1155.23C819.811 1253.71 798.494 1353.97 792.511 1378.3C765.798 1487.42 686.513 1544.99 658.543 1564.65C543.303 1645.6 413.988 1631.41 351.95 1624.64C118.915 1599.12 -130.571 1432.74 -141.68 1251.86C-143.156 1228.18 -145.843 1184.26 -118.138 1152.43Z" fill="url(#paint0_linear_0_1)"/>
<g style="mix-blend-mode:multiply">
<path d="M1078 -607C1074.41 -599.276 1070.86 -591.656 1067.31 -584.103C1013.43 -386.493 1401.85 541.506 901.997 726.5C378.62 920.201 255.936 287.447 534.944 35.5217C931.491 -322.533 1000.27 -441.521 1067.31 -584.103C1069.85 -593.405 1073.36 -601.089 1078 -607Z" fill="url(#paint1_linear_0_1)"/>
</g>
<rect x="0.556641" y="-1" width="1440" height="800" fill="#E9E3D7"/>
<g style="mix-blend-mode:multiply">
<path d="M-384.734 42.3626C-379.413 46.661 -374.166 50.9048 -368.971 55.1397C-225.471 135.526 573.084 13.2405 620.08 438.659C669.289 884.103 152.424 856.719 10.3564 590.364C-191.56 211.801 -270.904 135.084 -368.971 55.1397C-375.726 51.3558 -381.029 47.1229 -384.734 42.3626Z" fill="url(#paint2_linear_0_1)"/>
</g>
<g style="mix-blend-mode:multiply">
<path d="M1713.6 -81.1645C1707.63 -75.0827 1701.75 -69.0856 1695.88 -63.1525C1579.09 105.113 1635.24 1109.55 1102.31 1116.97C544.291 1124.74 639.996 487.342 987.125 343.075C1480.49 138.032 1585.06 48.8508 1695.88 -63.1525C1701.37 -71.0729 1707.25 -77.1406 1713.6 -81.1645Z" fill="url(#paint3_linear_0_1)"/>
</g>
<path d="M1736.6 1949.59C1686.74 2028.64 1553 1957.08 1385.56 2023.4C1240.53 2080.86 1245.95 2172.97 1125.15 2187.07C1036.9 2197.39 933.441 2161.54 867.223 2081.42C794.199 1993.07 799.918 1890.73 802.107 1865.77C811.802 1753.85 881.341 1684.83 905.972 1661.12C1007.46 1563.48 1137.42 1557.7 1199.77 1554.9C1433.96 1544.45 1705.98 1670.68 1744.64 1847.73C1749.73 1870.9 1759.1 1913.89 1736.6 1949.59Z" fill="url(#paint4_linear_0_1)"/>
<path d="M-238.138 3663.3C-176.762 3592.81 -55.5563 3684 120.065 3644.09C272.174 3609.51 280.925 3517.65 402.457 3522.21C491.246 3525.52 587.998 3576.79 641.171 3666.1C699.811 3764.58 678.494 3864.84 672.511 3889.17C645.798 3998.29 566.513 4055.86 538.543 4075.52C423.303 4156.47 293.988 4142.28 231.95 4135.51C-1.08527 4109.99 -250.571 3943.61 -261.68 3762.73C-263.156 3739.05 -265.843 3695.13 -238.138 3663.3Z" fill="url(#paint5_linear_0_1)"/>
<path d="M-238.138 2467.34C-176.762 2396.85 -55.5563 2488.04 120.065 2448.14C272.174 2413.55 280.925 2321.7 402.457 2326.25C491.246 2329.56 587.998 2380.83 641.171 2470.15C699.811 2568.62 678.494 2668.88 672.511 2693.21C645.798 2802.34 566.513 2859.9 538.543 2879.56C423.303 2960.51 293.988 2946.33 231.95 2939.55C-1.08527 2914.03 -250.571 2747.66 -261.68 2566.78C-263.156 2543.09 -265.843 2499.17 -238.138 2467.34Z" fill="url(#paint6_linear_0_1)"/>
<defs>
<linearGradient id="paint0_linear_0_1" x1="466.638" y1="865.987" x2="232.398" y2="1571.8" gradientUnits="userSpaceOnUse">
<stop stop-color="#E9E1D3"/>
<stop offset="0.0001" stop-color="#FFF8ED"/>
<stop offset="1" stop-color="white"/>
</linearGradient>
<linearGradient id="paint1_linear_0_1" x1="684.496" y1="-607" x2="1314.88" y2="273.226" gradientUnits="userSpaceOnUse">
<stop stop-color="#FFA2D4"/>
<stop offset="1" stop-color="white" stop-opacity="0"/>
</linearGradient>
<linearGradient id="paint2_linear_0_1" x1="-461.21" y1="348.965" x2="347.147" y2="28.8614" gradientUnits="userSpaceOnUse">
<stop stop-color="#E9CF9F"/>
<stop offset="1" stop-color="white" stop-opacity="0"/>
</linearGradient>
<linearGradient id="paint3_linear_0_1" x1="1342.7" y1="-212.596" x2="1642.88" y2="827.631" gradientUnits="userSpaceOnUse">
<stop stop-color="#FFEABD"/>
<stop offset="1" stop-color="white" stop-opacity="0"/>
</linearGradient>
<linearGradient id="paint4_linear_0_1" x1="1202.56" y1="2322.17" x2="1326" y2="1588.82" gradientUnits="userSpaceOnUse">
<stop stop-color="#E9E1D3"/>
<stop offset="0.0001" stop-color="#FFF8ED"/>
<stop offset="1" stop-color="white"/>
</linearGradient>
<linearGradient id="paint5_linear_0_1" x1="346.638" y1="3376.86" x2="112.398" y2="4082.67" gradientUnits="userSpaceOnUse">
<stop stop-color="#E9E1D3"/>
<stop offset="0.0001" stop-color="#FFF8ED"/>
<stop offset="1" stop-color="white"/>
</linearGradient>
<linearGradient id="paint6_linear_0_1" x1="346.638" y1="2180.9" x2="112.398" y2="2886.71" gradientUnits="userSpaceOnUse">
<stop stop-color="#E9E1D3"/>
<stop offset="0.0001" stop-color="#FFF8ED"/>
<stop offset="1" stop-color="white"/>
</linearGradient>
</defs>
</svg>
