<svg width="15" height="13" viewBox="0 0 15 13" fill="none" xmlns="http://www.w3.org/2000/svg">
<path d="M13.2273 11.4545H14.5V12.7273H0.5V11.4545H1.77273V0.636364C1.77273 0.46759 1.83977 0.305728 1.95911 0.186387C2.07846 0.0670452 2.24032 0 2.40909 0H12.5909C12.7597 0 12.9215 0.0670452 13.0409 0.186387C13.1602 0.305728 13.2273 0.46759 13.2273 0.636364V11.4545ZM4.95455 5.72727V7H6.86364V5.72727H4.95455ZM4.95455 3.18182V4.45455H6.86364V3.18182H4.95455ZM4.95455 8.27273V9.54545H6.86364V8.27273H4.95455ZM8.13636 8.27273V9.54545H10.0455V8.27273H8.13636ZM8.13636 5.72727V7H10.0455V5.72727H8.13636ZM8.13636 3.18182V4.45455H10.0455V3.18182H8.13636Z" fill="#5C5D6F"/>
</svg>
