<svg width="14" height="13" viewBox="0 0 14 13" fill="none" xmlns="http://www.w3.org/2000/svg">
<path d="M0.7 0H13.3C13.4857 0 13.6637 0.0737498 13.795 0.205025C13.9263 0.336301 14 0.514349 14 0.7V11.9C14 12.0857 13.9263 12.2637 13.795 12.395C13.6637 12.5263 13.4857 12.6 13.3 12.6H0.7C0.514348 12.6 0.336301 12.5263 0.205025 12.395C0.0737498 12.2637 0 12.0857 0 11.9V0.7C0 0.514349 0.0737498 0.336301 0.205025 0.205025C0.336301 0.0737498 0.514348 0 0.7 0ZM7.042 6.0781L2.5536 2.2666L1.6471 3.3334L7.0511 7.9219L12.3578 3.3299L11.4422 2.2708L7.0427 6.0781H7.042Z" fill="#5C5D6F"/>
</svg>
