<svg width="476" height="512" viewBox="0 0 476 512" fill="none" xmlns="http://www.w3.org/2000/svg">
<path fill-rule="evenodd" clip-rule="evenodd" d="M2 124C3.10457 124 4 123.105 4 122C4 120.895 3.10457 120 2 120C0.895431 120 0 120.895 0 122C0 123.105 0.895431 124 2 124ZM12 124C13.1046 124 14 123.105 14 122C14 120.895 13.1046 120 12 120C10.8954 120 10 120.895 10 122C10 123.105 10.8954 124 12 124ZM24 122C24 123.105 23.1046 124 22 124C20.8954 124 20 123.105 20 122C20 120.895 20.8954 120 22 120C23.1046 120 24 120.895 24 122ZM32 124C33.1046 124 34 123.105 34 122C34 120.895 33.1046 120 32 120C30.8954 120 30 120.895 30 122C30 123.105 30.8954 124 32 124ZM44 122C44 123.105 43.1046 124 42 124C40.8954 124 40 123.105 40 122C40 120.895 40.8954 120 42 120C43.1046 120 44 120.895 44 122ZM52 124C53.1046 124 54 123.105 54 122C54 120.895 53.1046 120 52 120C50.8954 120 50 120.895 50 122C50 123.105 50.8954 124 52 124ZM64 122C64 123.105 63.1046 124 62 124C60.8954 124 60 123.105 60 122C60 120.895 60.8954 120 62 120C63.1046 120 64 120.895 64 122ZM2 134C3.10457 134 4 133.105 4 132C4 130.895 3.10457 130 2 130C0.895431 130 0 130.895 0 132C0 133.105 0.895431 134 2 134ZM12 134C13.1046 134 14 133.105 14 132C14 130.895 13.1046 130 12 130C10.8954 130 10 130.895 10 132C10 133.105 10.8954 134 12 134ZM24 132C24 133.105 23.1046 134 22 134C20.8954 134 20 133.105 20 132C20 130.895 20.8954 130 22 130C23.1046 130 24 130.895 24 132ZM32 134C33.1046 134 34 133.105 34 132C34 130.895 33.1046 130 32 130C30.8954 130 30 130.895 30 132C30 133.105 30.8954 134 32 134ZM44 132C44 133.105 43.1046 134 42 134C40.8954 134 40 133.105 40 132C40 130.895 40.8954 130 42 130C43.1046 130 44 130.895 44 132ZM52 134C53.1046 134 54 133.105 54 132C54 130.895 53.1046 130 52 130C50.8954 130 50 130.895 50 132C50 133.105 50.8954 134 52 134ZM64 132C64 133.105 63.1046 134 62 134C60.8954 134 60 133.105 60 132C60 130.895 60.8954 130 62 130C63.1046 130 64 130.895 64 132ZM4 142C4 143.105 3.10457 144 2 144C0.895431 144 0 143.105 0 142C0 140.895 0.895431 140 2 140C3.10457 140 4 140.895 4 142ZM14 142C14 143.105 13.1046 144 12 144C10.8954 144 10 143.105 10 142C10 140.895 10.8954 140 12 140C13.1046 140 14 140.895 14 142ZM22 144C23.1046 144 24 143.105 24 142C24 140.895 23.1046 140 22 140C20.8954 140 20 140.895 20 142C20 143.105 20.8954 144 22 144ZM34 142C34 143.105 33.1046 144 32 144C30.8954 144 30 143.105 30 142C30 140.895 30.8954 140 32 140C33.1046 140 34 140.895 34 142ZM42 144C43.1046 144 44 143.105 44 142C44 140.895 43.1046 140 42 140C40.8954 140 40 140.895 40 142C40 143.105 40.8954 144 42 144ZM54 142C54 143.105 53.1046 144 52 144C50.8954 144 50 143.105 50 142C50 140.895 50.8954 140 52 140C53.1046 140 54 140.895 54 142ZM62 144C63.1046 144 64 143.105 64 142C64 140.895 63.1046 140 62 140C60.8954 140 60 140.895 60 142C60 143.105 60.8954 144 62 144ZM2 154C3.10457 154 4 153.105 4 152C4 150.895 3.10457 150 2 150C0.895431 150 0 150.895 0 152C0 153.105 0.895431 154 2 154ZM12 154C13.1046 154 14 153.105 14 152C14 150.895 13.1046 150 12 150C10.8954 150 10 150.895 10 152C10 153.105 10.8954 154 12 154ZM24 152C24 153.105 23.1046 154 22 154C20.8954 154 20 153.105 20 152C20 150.895 20.8954 150 22 150C23.1046 150 24 150.895 24 152ZM32 154C33.1046 154 34 153.105 34 152C34 150.895 33.1046 150 32 150C30.8954 150 30 150.895 30 152C30 153.105 30.8954 154 32 154ZM44 152C44 153.105 43.1046 154 42 154C40.8954 154 40 153.105 40 152C40 150.895 40.8954 150 42 150C43.1046 150 44 150.895 44 152ZM52 154C53.1046 154 54 153.105 54 152C54 150.895 53.1046 150 52 150C50.8954 150 50 150.895 50 152C50 153.105 50.8954 154 52 154ZM64 152C64 153.105 63.1046 154 62 154C60.8954 154 60 153.105 60 152C60 150.895 60.8954 150 62 150C63.1046 150 64 150.895 64 152ZM4 162C4 163.105 3.10457 164 2 164C0.895431 164 0 163.105 0 162C0 160.895 0.895431 160 2 160C3.10457 160 4 160.895 4 162ZM14 162C14 163.105 13.1046 164 12 164C10.8954 164 10 163.105 10 162C10 160.895 10.8954 160 12 160C13.1046 160 14 160.895 14 162ZM22 164C23.1046 164 24 163.105 24 162C24 160.895 23.1046 160 22 160C20.8954 160 20 160.895 20 162C20 163.105 20.8954 164 22 164ZM34 162C34 163.105 33.1046 164 32 164C30.8954 164 30 163.105 30 162C30 160.895 30.8954 160 32 160C33.1046 160 34 160.895 34 162ZM42 164C43.1046 164 44 163.105 44 162C44 160.895 43.1046 160 42 160C40.8954 160 40 160.895 40 162C40 163.105 40.8954 164 42 164ZM54 162C54 163.105 53.1046 164 52 164C50.8954 164 50 163.105 50 162C50 160.895 50.8954 160 52 160C53.1046 160 54 160.895 54 162ZM62 164C63.1046 164 64 163.105 64 162C64 160.895 63.1046 160 62 160C60.8954 160 60 160.895 60 162C60 163.105 60.8954 164 62 164ZM2 174C3.10457 174 4 173.105 4 172C4 170.895 3.10457 170 2 170C0.895431 170 0 170.895 0 172C0 173.105 0.895431 174 2 174ZM12 174C13.1046 174 14 173.105 14 172C14 170.895 13.1046 170 12 170C10.8954 170 10 170.895 10 172C10 173.105 10.8954 174 12 174ZM24 172C24 173.105 23.1046 174 22 174C20.8954 174 20 173.105 20 172C20 170.895 20.8954 170 22 170C23.1046 170 24 170.895 24 172ZM32 174C33.1046 174 34 173.105 34 172C34 170.895 33.1046 170 32 170C30.8954 170 30 170.895 30 172C30 173.105 30.8954 174 32 174ZM44 172C44 173.105 43.1046 174 42 174C40.8954 174 40 173.105 40 172C40 170.895 40.8954 170 42 170C43.1046 170 44 170.895 44 172ZM52 174C53.1046 174 54 173.105 54 172C54 170.895 53.1046 170 52 170C50.8954 170 50 170.895 50 172C50 173.105 50.8954 174 52 174ZM64 172C64 173.105 63.1046 174 62 174C60.8954 174 60 173.105 60 172C60 170.895 60.8954 170 62 170C63.1046 170 64 170.895 64 172ZM4 182C4 183.105 3.10457 184 2 184C0.895431 184 0 183.105 0 182C0 180.895 0.895431 180 2 180C3.10457 180 4 180.895 4 182ZM14 182C14 183.105 13.1046 184 12 184C10.8954 184 10 183.105 10 182C10 180.895 10.8954 180 12 180C13.1046 180 14 180.895 14 182ZM22 184C23.1046 184 24 183.105 24 182C24 180.895 23.1046 180 22 180C20.8954 180 20 180.895 20 182C20 183.105 20.8954 184 22 184ZM34 182C34 183.105 33.1046 184 32 184C30.8954 184 30 183.105 30 182C30 180.895 30.8954 180 32 180C33.1046 180 34 180.895 34 182ZM42 184C43.1046 184 44 183.105 44 182C44 180.895 43.1046 180 42 180C40.8954 180 40 180.895 40 182C40 183.105 40.8954 184 42 184ZM54 182C54 183.105 53.1046 184 52 184C50.8954 184 50 183.105 50 182C50 180.895 50.8954 180 52 180C53.1046 180 54 180.895 54 182ZM62 184C63.1046 184 64 183.105 64 182C64 180.895 63.1046 180 62 180C60.8954 180 60 180.895 60 182C60 183.105 60.8954 184 62 184ZM2 194C3.10457 194 4 193.105 4 192C4 190.895 3.10457 190 2 190C0.895431 190 0 190.895 0 192C0 193.105 0.895431 194 2 194ZM12 194C13.1046 194 14 193.105 14 192C14 190.895 13.1046 190 12 190C10.8954 190 10 190.895 10 192C10 193.105 10.8954 194 12 194ZM24 192C24 193.105 23.1046 194 22 194C20.8954 194 20 193.105 20 192C20 190.895 20.8954 190 22 190C23.1046 190 24 190.895 24 192ZM32 194C33.1046 194 34 193.105 34 192C34 190.895 33.1046 190 32 190C30.8954 190 30 190.895 30 192C30 193.105 30.8954 194 32 194ZM44 192C44 193.105 43.1046 194 42 194C40.8954 194 40 193.105 40 192C40 190.895 40.8954 190 42 190C43.1046 190 44 190.895 44 192ZM52 194C53.1046 194 54 193.105 54 192C54 190.895 53.1046 190 52 190C50.8954 190 50 190.895 50 192C50 193.105 50.8954 194 52 194ZM64 192C64 193.105 63.1046 194 62 194C60.8954 194 60 193.105 60 192C60 190.895 60.8954 190 62 190C63.1046 190 64 190.895 64 192ZM4 202C4 203.105 3.10457 204 2 204C0.895431 204 0 203.105 0 202C0 200.895 0.895431 200 2 200C3.10457 200 4 200.895 4 202ZM14 202C14 203.105 13.1046 204 12 204C10.8954 204 10 203.105 10 202C10 200.895 10.8954 200 12 200C13.1046 200 14 200.895 14 202ZM22 204C23.1046 204 24 203.105 24 202C24 200.895 23.1046 200 22 200C20.8954 200 20 200.895 20 202C20 203.105 20.8954 204 22 204ZM34 202C34 203.105 33.1046 204 32 204C30.8954 204 30 203.105 30 202C30 200.895 30.8954 200 32 200C33.1046 200 34 200.895 34 202ZM42 204C43.1046 204 44 203.105 44 202C44 200.895 43.1046 200 42 200C40.8954 200 40 200.895 40 202C40 203.105 40.8954 204 42 204ZM54 202C54 203.105 53.1046 204 52 204C50.8954 204 50 203.105 50 202C50 200.895 50.8954 200 52 200C53.1046 200 54 200.895 54 202ZM62 204C63.1046 204 64 203.105 64 202C64 200.895 63.1046 200 62 200C60.8954 200 60 200.895 60 202C60 203.105 60.8954 204 62 204ZM2 214C3.10457 214 4 213.105 4 212C4 210.895 3.10457 210 2 210C0.895431 210 0 210.895 0 212C0 213.105 0.895431 214 2 214ZM12 214C13.1046 214 14 213.105 14 212C14 210.895 13.1046 210 12 210C10.8954 210 10 210.895 10 212C10 213.105 10.8954 214 12 214ZM24 212C24 213.105 23.1046 214 22 214C20.8954 214 20 213.105 20 212C20 210.895 20.8954 210 22 210C23.1046 210 24 210.895 24 212ZM32 214C33.1046 214 34 213.105 34 212C34 210.895 33.1046 210 32 210C30.8954 210 30 210.895 30 212C30 213.105 30.8954 214 32 214ZM44 212C44 213.105 43.1046 214 42 214C40.8954 214 40 213.105 40 212C40 210.895 40.8954 210 42 210C43.1046 210 44 210.895 44 212ZM52 214C53.1046 214 54 213.105 54 212C54 210.895 53.1046 210 52 210C50.8954 210 50 210.895 50 212C50 213.105 50.8954 214 52 214ZM64 212C64 213.105 63.1046 214 62 214C60.8954 214 60 213.105 60 212C60 210.895 60.8954 210 62 210C63.1046 210 64 210.895 64 212Z" fill="#FDE047"/>
<rect x="23.5" y="68.5" width="205" height="213" rx="9.5" fill="white" stroke="#01A8FD"/>
<path d="M126.007 174.992V119.994C110.772 119.994 96.9798 126.258 86.9961 136.211L126.007 174.992Z" fill="#C4C4C4" fill-opacity="0.2"/>
<path d="M125.992 175.005H70.9933C70.9933 159.77 77.2581 145.978 87.2109 135.994L125.992 175.005Z" fill="#C4C4C4" fill-opacity="0.2"/>
<path d="M125.988 175.004H70.9894C70.9894 189.989 77.2542 203.555 87.207 213.375L125.988 175.004Z" fill="#C4C4C4" fill-opacity="0.2"/>
<path d="M125.991 175.006V230.005C110.757 230.005 96.9642 223.74 86.9805 213.787L125.991 175.006Z" fill="#01A8FD"/>
<path d="M126.001 174.355V229.354C141.236 229.354 155.028 223.089 165.012 213.136L126.001 174.355Z" fill="#01A8FD"/>
<path d="M126 174.992H180.999C180.999 189.977 174.734 203.543 164.781 213.363L126 174.992Z" fill="#01A8FD"/>
<path d="M126 174.993H180.999C180.999 159.758 174.734 145.966 164.781 135.982L126 174.993Z" fill="#01A8FD"/>
<path d="M125.999 174.993V119.994C141.234 119.994 155.026 126.259 165.01 136.211L125.999 174.993Z" fill="#01A8FD"/>
<circle cx="126.465" cy="175.465" r="20.4647" fill="#FFFBF5"/>
<path d="M121.276 171.272H117.064V174.008C117.248 173.752 117.52 173.544 117.88 173.384C118.24 173.216 118.628 173.132 119.044 173.132C119.708 173.132 120.248 173.272 120.664 173.552C121.08 173.824 121.376 174.18 121.552 174.62C121.736 175.052 121.828 175.512 121.828 176C121.828 176.576 121.72 177.092 121.504 177.548C121.288 178.004 120.956 178.364 120.508 178.628C120.068 178.892 119.52 179.024 118.864 179.024C118.024 179.024 117.344 178.808 116.824 178.376C116.304 177.944 115.988 177.368 115.876 176.648H116.944C117.048 177.104 117.268 177.46 117.604 177.716C117.94 177.972 118.364 178.1 118.876 178.1C119.508 178.1 119.984 177.912 120.304 177.536C120.624 177.152 120.784 176.648 120.784 176.024C120.784 175.4 120.624 174.92 120.304 174.584C119.984 174.24 119.512 174.068 118.888 174.068C118.464 174.068 118.092 174.172 117.772 174.38C117.46 174.58 117.232 174.856 117.088 175.208H116.056V170.312H121.276V171.272ZM122.991 171.32V170.324H125.247V179H124.143V171.32H122.991ZM126.883 172.28C126.883 171.736 127.047 171.304 127.375 170.984C127.703 170.656 128.123 170.492 128.635 170.492C129.147 170.492 129.567 170.656 129.895 170.984C130.223 171.304 130.387 171.736 130.387 172.28C130.387 172.832 130.223 173.272 129.895 173.6C129.567 173.92 129.147 174.08 128.635 174.08C128.123 174.08 127.703 173.92 127.375 173.6C127.047 173.272 126.883 172.832 126.883 172.28ZM133.891 170.624L129.031 179H127.951L132.811 170.624H133.891ZM128.635 171.164C128.363 171.164 128.147 171.26 127.987 171.452C127.835 171.636 127.759 171.912 127.759 172.28C127.759 172.648 127.835 172.928 127.987 173.12C128.147 173.312 128.363 173.408 128.635 173.408C128.907 173.408 129.123 173.312 129.283 173.12C129.443 172.92 129.523 172.64 129.523 172.28C129.523 171.912 129.443 171.636 129.283 171.452C129.123 171.26 128.907 171.164 128.635 171.164ZM131.479 177.344C131.479 176.792 131.643 176.356 131.971 176.036C132.299 175.708 132.719 175.544 133.231 175.544C133.743 175.544 134.159 175.708 134.479 176.036C134.807 176.356 134.971 176.792 134.971 177.344C134.971 177.888 134.807 178.324 134.479 178.652C134.159 178.98 133.743 179.144 133.231 179.144C132.719 179.144 132.299 178.984 131.971 178.664C131.643 178.336 131.479 177.896 131.479 177.344ZM133.219 176.228C132.947 176.228 132.731 176.324 132.571 176.516C132.411 176.7 132.331 176.976 132.331 177.344C132.331 177.704 132.411 177.98 132.571 178.172C132.731 178.356 132.947 178.448 133.219 178.448C133.491 178.448 133.707 178.356 133.867 178.172C134.027 177.98 134.107 177.704 134.107 177.344C134.107 176.976 134.027 176.7 133.867 176.516C133.707 176.324 133.491 176.228 133.219 176.228Z" fill="black"/>
<path fill-rule="evenodd" clip-rule="evenodd" d="M2 354C3.10457 354 4 353.105 4 352C4 350.895 3.10457 350 2 350C0.895431 350 0 350.895 0 352C0 353.105 0.895431 354 2 354ZM12 354C13.1046 354 14 353.105 14 352C14 350.895 13.1046 350 12 350C10.8954 350 10 350.895 10 352C10 353.105 10.8954 354 12 354ZM24 352C24 353.105 23.1046 354 22 354C20.8954 354 20 353.105 20 352C20 350.895 20.8954 350 22 350C23.1046 350 24 350.895 24 352ZM32 354C33.1046 354 34 353.105 34 352C34 350.895 33.1046 350 32 350C30.8954 350 30 350.895 30 352C30 353.105 30.8954 354 32 354ZM44 352C44 353.105 43.1046 354 42 354C40.8954 354 40 353.105 40 352C40 350.895 40.8954 350 42 350C43.1046 350 44 350.895 44 352ZM52 354C53.1046 354 54 353.105 54 352C54 350.895 53.1046 350 52 350C50.8954 350 50 350.895 50 352C50 353.105 50.8954 354 52 354ZM64 352C64 353.105 63.1046 354 62 354C60.8954 354 60 353.105 60 352C60 350.895 60.8954 350 62 350C63.1046 350 64 350.895 64 352ZM2 364C3.10457 364 4 363.105 4 362C4 360.895 3.10457 360 2 360C0.895431 360 0 360.895 0 362C0 363.105 0.895431 364 2 364ZM12 364C13.1046 364 14 363.105 14 362C14 360.895 13.1046 360 12 360C10.8954 360 10 360.895 10 362C10 363.105 10.8954 364 12 364ZM24 362C24 363.105 23.1046 364 22 364C20.8954 364 20 363.105 20 362C20 360.895 20.8954 360 22 360C23.1046 360 24 360.895 24 362ZM32 364C33.1046 364 34 363.105 34 362C34 360.895 33.1046 360 32 360C30.8954 360 30 360.895 30 362C30 363.105 30.8954 364 32 364ZM44 362C44 363.105 43.1046 364 42 364C40.8954 364 40 363.105 40 362C40 360.895 40.8954 360 42 360C43.1046 360 44 360.895 44 362ZM52 364C53.1046 364 54 363.105 54 362C54 360.895 53.1046 360 52 360C50.8954 360 50 360.895 50 362C50 363.105 50.8954 364 52 364ZM64 362C64 363.105 63.1046 364 62 364C60.8954 364 60 363.105 60 362C60 360.895 60.8954 360 62 360C63.1046 360 64 360.895 64 362ZM4 372C4 373.105 3.10457 374 2 374C0.895431 374 0 373.105 0 372C0 370.895 0.895431 370 2 370C3.10457 370 4 370.895 4 372ZM14 372C14 373.105 13.1046 374 12 374C10.8954 374 10 373.105 10 372C10 370.895 10.8954 370 12 370C13.1046 370 14 370.895 14 372ZM22 374C23.1046 374 24 373.105 24 372C24 370.895 23.1046 370 22 370C20.8954 370 20 370.895 20 372C20 373.105 20.8954 374 22 374ZM34 372C34 373.105 33.1046 374 32 374C30.8954 374 30 373.105 30 372C30 370.895 30.8954 370 32 370C33.1046 370 34 370.895 34 372ZM42 374C43.1046 374 44 373.105 44 372C44 370.895 43.1046 370 42 370C40.8954 370 40 370.895 40 372C40 373.105 40.8954 374 42 374ZM54 372C54 373.105 53.1046 374 52 374C50.8954 374 50 373.105 50 372C50 370.895 50.8954 370 52 370C53.1046 370 54 370.895 54 372ZM62 374C63.1046 374 64 373.105 64 372C64 370.895 63.1046 370 62 370C60.8954 370 60 370.895 60 372C60 373.105 60.8954 374 62 374ZM2 384C3.10457 384 4 383.105 4 382C4 380.895 3.10457 380 2 380C0.895431 380 0 380.895 0 382C0 383.105 0.895431 384 2 384ZM12 384C13.1046 384 14 383.105 14 382C14 380.895 13.1046 380 12 380C10.8954 380 10 380.895 10 382C10 383.105 10.8954 384 12 384ZM24 382C24 383.105 23.1046 384 22 384C20.8954 384 20 383.105 20 382C20 380.895 20.8954 380 22 380C23.1046 380 24 380.895 24 382ZM32 384C33.1046 384 34 383.105 34 382C34 380.895 33.1046 380 32 380C30.8954 380 30 380.895 30 382C30 383.105 30.8954 384 32 384ZM44 382C44 383.105 43.1046 384 42 384C40.8954 384 40 383.105 40 382C40 380.895 40.8954 380 42 380C43.1046 380 44 380.895 44 382ZM52 384C53.1046 384 54 383.105 54 382C54 380.895 53.1046 380 52 380C50.8954 380 50 380.895 50 382C50 383.105 50.8954 384 52 384ZM64 382C64 383.105 63.1046 384 62 384C60.8954 384 60 383.105 60 382C60 380.895 60.8954 380 62 380C63.1046 380 64 380.895 64 382ZM4 392C4 393.105 3.10457 394 2 394C0.895431 394 0 393.105 0 392C0 390.895 0.895431 390 2 390C3.10457 390 4 390.895 4 392ZM14 392C14 393.105 13.1046 394 12 394C10.8954 394 10 393.105 10 392C10 390.895 10.8954 390 12 390C13.1046 390 14 390.895 14 392ZM22 394C23.1046 394 24 393.105 24 392C24 390.895 23.1046 390 22 390C20.8954 390 20 390.895 20 392C20 393.105 20.8954 394 22 394ZM34 392C34 393.105 33.1046 394 32 394C30.8954 394 30 393.105 30 392C30 390.895 30.8954 390 32 390C33.1046 390 34 390.895 34 392ZM42 394C43.1046 394 44 393.105 44 392C44 390.895 43.1046 390 42 390C40.8954 390 40 390.895 40 392C40 393.105 40.8954 394 42 394ZM54 392C54 393.105 53.1046 394 52 394C50.8954 394 50 393.105 50 392C50 390.895 50.8954 390 52 390C53.1046 390 54 390.895 54 392ZM62 394C63.1046 394 64 393.105 64 392C64 390.895 63.1046 390 62 390C60.8954 390 60 390.895 60 392C60 393.105 60.8954 394 62 394ZM2 404C3.10457 404 4 403.105 4 402C4 400.895 3.10457 400 2 400C0.895431 400 0 400.895 0 402C0 403.105 0.895431 404 2 404ZM12 404C13.1046 404 14 403.105 14 402C14 400.895 13.1046 400 12 400C10.8954 400 10 400.895 10 402C10 403.105 10.8954 404 12 404ZM24 402C24 403.105 23.1046 404 22 404C20.8954 404 20 403.105 20 402C20 400.895 20.8954 400 22 400C23.1046 400 24 400.895 24 402ZM32 404C33.1046 404 34 403.105 34 402C34 400.895 33.1046 400 32 400C30.8954 400 30 400.895 30 402C30 403.105 30.8954 404 32 404ZM44 402C44 403.105 43.1046 404 42 404C40.8954 404 40 403.105 40 402C40 400.895 40.8954 400 42 400C43.1046 400 44 400.895 44 402ZM52 404C53.1046 404 54 403.105 54 402C54 400.895 53.1046 400 52 400C50.8954 400 50 400.895 50 402C50 403.105 50.8954 404 52 404ZM64 402C64 403.105 63.1046 404 62 404C60.8954 404 60 403.105 60 402C60 400.895 60.8954 400 62 400C63.1046 400 64 400.895 64 402ZM4 412C4 413.105 3.10457 414 2 414C0.895431 414 0 413.105 0 412C0 410.895 0.895431 410 2 410C3.10457 410 4 410.895 4 412ZM14 412C14 413.105 13.1046 414 12 414C10.8954 414 10 413.105 10 412C10 410.895 10.8954 410 12 410C13.1046 410 14 410.895 14 412ZM22 414C23.1046 414 24 413.105 24 412C24 410.895 23.1046 410 22 410C20.8954 410 20 410.895 20 412C20 413.105 20.8954 414 22 414ZM34 412C34 413.105 33.1046 414 32 414C30.8954 414 30 413.105 30 412C30 410.895 30.8954 410 32 410C33.1046 410 34 410.895 34 412ZM42 414C43.1046 414 44 413.105 44 412C44 410.895 43.1046 410 42 410C40.8954 410 40 410.895 40 412C40 413.105 40.8954 414 42 414ZM54 412C54 413.105 53.1046 414 52 414C50.8954 414 50 413.105 50 412C50 410.895 50.8954 410 52 410C53.1046 410 54 410.895 54 412ZM62 414C63.1046 414 64 413.105 64 412C64 410.895 63.1046 410 62 410C60.8954 410 60 410.895 60 412C60 413.105 60.8954 414 62 414ZM2 424C3.10457 424 4 423.105 4 422C4 420.895 3.10457 420 2 420C0.895431 420 0 420.895 0 422C0 423.105 0.895431 424 2 424ZM12 424C13.1046 424 14 423.105 14 422C14 420.895 13.1046 420 12 420C10.8954 420 10 420.895 10 422C10 423.105 10.8954 424 12 424ZM24 422C24 423.105 23.1046 424 22 424C20.8954 424 20 423.105 20 422C20 420.895 20.8954 420 22 420C23.1046 420 24 420.895 24 422ZM32 424C33.1046 424 34 423.105 34 422C34 420.895 33.1046 420 32 420C30.8954 420 30 420.895 30 422C30 423.105 30.8954 424 32 424ZM44 422C44 423.105 43.1046 424 42 424C40.8954 424 40 423.105 40 422C40 420.895 40.8954 420 42 420C43.1046 420 44 420.895 44 422ZM52 424C53.1046 424 54 423.105 54 422C54 420.895 53.1046 420 52 420C50.8954 420 50 420.895 50 422C50 423.105 50.8954 424 52 424ZM64 422C64 423.105 63.1046 424 62 424C60.8954 424 60 423.105 60 422C60 420.895 60.8954 420 62 420C63.1046 420 64 420.895 64 422ZM4 432C4 433.105 3.10457 434 2 434C0.895431 434 0 433.105 0 432C0 430.895 0.895431 430 2 430C3.10457 430 4 430.895 4 432ZM14 432C14 433.105 13.1046 434 12 434C10.8954 434 10 433.105 10 432C10 430.895 10.8954 430 12 430C13.1046 430 14 430.895 14 432ZM22 434C23.1046 434 24 433.105 24 432C24 430.895 23.1046 430 22 430C20.8954 430 20 430.895 20 432C20 433.105 20.8954 434 22 434ZM34 432C34 433.105 33.1046 434 32 434C30.8954 434 30 433.105 30 432C30 430.895 30.8954 430 32 430C33.1046 430 34 430.895 34 432ZM42 434C43.1046 434 44 433.105 44 432C44 430.895 43.1046 430 42 430C40.8954 430 40 430.895 40 432C40 433.105 40.8954 434 42 434ZM54 432C54 433.105 53.1046 434 52 434C50.8954 434 50 433.105 50 432C50 430.895 50.8954 430 52 430C53.1046 430 54 430.895 54 432ZM62 434C63.1046 434 64 433.105 64 432C64 430.895 63.1046 430 62 430C60.8954 430 60 430.895 60 432C60 433.105 60.8954 434 62 434ZM2 444C3.10457 444 4 443.105 4 442C4 440.895 3.10457 440 2 440C0.895431 440 0 440.895 0 442C0 443.105 0.895431 444 2 444ZM12 444C13.1046 444 14 443.105 14 442C14 440.895 13.1046 440 12 440C10.8954 440 10 440.895 10 442C10 443.105 10.8954 444 12 444ZM24 442C24 443.105 23.1046 444 22 444C20.8954 444 20 443.105 20 442C20 440.895 20.8954 440 22 440C23.1046 440 24 440.895 24 442ZM32 444C33.1046 444 34 443.105 34 442C34 440.895 33.1046 440 32 440C30.8954 440 30 440.895 30 442C30 443.105 30.8954 444 32 444ZM44 442C44 443.105 43.1046 444 42 444C40.8954 444 40 443.105 40 442C40 440.895 40.8954 440 42 440C43.1046 440 44 440.895 44 442ZM52 444C53.1046 444 54 443.105 54 442C54 440.895 53.1046 440 52 440C50.8954 440 50 440.895 50 442C50 443.105 50.8954 444 52 444ZM64 442C64 443.105 63.1046 444 62 444C60.8954 444 60 443.105 60 442C60 440.895 60.8954 440 62 440C63.1046 440 64 440.895 64 442Z" fill="#FDE047"/>
<rect x="23.5" y="298.5" width="205" height="213" rx="9.5" fill="white" stroke="#FA9EA5"/>
<path d="M125.516 404.5V349.996C110.418 349.996 96.7494 356.205 86.8555 366.068L125.516 404.5Z" fill="#C4C4C4" fill-opacity="0.2"/>
<path d="M125.5 404.506H70.9957C70.9957 389.408 77.2041 375.74 87.0675 365.846L125.5 404.506Z" fill="#C4C4C4" fill-opacity="0.2"/>
<path d="M125.496 404.503H70.9918C70.9918 419.353 77.2002 432.797 87.0635 442.529L125.496 404.503Z" fill="#C4C4C4" fill-opacity="0.2"/>
<path d="M125.5 404.504V459.008C110.402 459.008 96.7338 452.8 86.8398 442.936L125.5 404.504Z" fill="#FA9EA5"/>
<path d="M125.508 403.872V458.376C140.606 458.376 154.274 452.167 164.168 442.304L125.508 403.872Z" fill="#FA9EA5"/>
<path d="M125.512 404.5H180.016C180.016 419.35 173.808 432.794 163.944 442.526L125.512 404.5Z" fill="#FA9EA5"/>
<path d="M125.508 404.502H180.012C180.012 389.405 173.804 375.736 163.94 365.842L125.508 404.502Z" fill="#FA9EA5"/>
<path d="M125.506 404.501V349.997C140.604 349.997 154.272 356.205 164.166 366.068L125.506 404.501Z" fill="#FA9EA5"/>
<circle cx="126.287" cy="404.281" r="20.2807" fill="#FFFBF5"/>
<path d="M118.653 400.321V399.325H120.909V408.001H119.805V400.321H118.653ZM127.045 396.697L123.757 410.041H122.677L125.953 396.697H127.045ZM128.468 401.509C128.524 400.773 128.808 400.197 129.32 399.781C129.832 399.365 130.496 399.157 131.312 399.157C131.856 399.157 132.324 399.257 132.716 399.457C133.116 399.649 133.416 399.913 133.616 400.249C133.824 400.585 133.928 400.965 133.928 401.389C133.928 401.885 133.784 402.313 133.496 402.673C133.216 403.033 132.848 403.265 132.392 403.369V403.429C132.912 403.557 133.324 403.809 133.628 404.185C133.932 404.561 134.084 405.053 134.084 405.661C134.084 406.117 133.98 406.529 133.772 406.897C133.564 407.257 133.252 407.541 132.836 407.749C132.42 407.957 131.92 408.061 131.336 408.061C130.488 408.061 129.792 407.841 129.248 407.401C128.704 406.953 128.4 406.321 128.336 405.505H129.392C129.448 405.985 129.644 406.377 129.98 406.681C130.316 406.985 130.764 407.137 131.324 407.137C131.884 407.137 132.308 406.993 132.596 406.705C132.892 406.409 133.04 406.029 133.04 405.565C133.04 404.965 132.84 404.533 132.44 404.269C132.04 404.005 131.436 403.873 130.628 403.873H130.352V402.961H130.64C131.376 402.953 131.932 402.833 132.308 402.601C132.684 402.361 132.872 401.993 132.872 401.497C132.872 401.073 132.732 400.733 132.452 400.477C132.18 400.221 131.788 400.093 131.276 400.093C130.78 400.093 130.38 400.221 130.076 400.477C129.772 400.733 129.592 401.077 129.536 401.509H128.468Z" fill="black"/>
<path fill-rule="evenodd" clip-rule="evenodd" d="M249 56C250.105 56 251 55.1046 251 54C251 52.8954 250.105 52 249 52C247.895 52 247 52.8954 247 54C247 55.1046 247.895 56 249 56ZM259 56C260.105 56 261 55.1046 261 54C261 52.8954 260.105 52 259 52C257.895 52 257 52.8954 257 54C257 55.1046 257.895 56 259 56ZM271 54C271 55.1046 270.105 56 269 56C267.895 56 267 55.1046 267 54C267 52.8954 267.895 52 269 52C270.105 52 271 52.8954 271 54ZM279 56C280.105 56 281 55.1046 281 54C281 52.8954 280.105 52 279 52C277.895 52 277 52.8954 277 54C277 55.1046 277.895 56 279 56ZM291 54C291 55.1046 290.105 56 289 56C287.895 56 287 55.1046 287 54C287 52.8954 287.895 52 289 52C290.105 52 291 52.8954 291 54ZM299 56C300.105 56 301 55.1046 301 54C301 52.8954 300.105 52 299 52C297.895 52 297 52.8954 297 54C297 55.1046 297.895 56 299 56ZM311 54C311 55.1046 310.105 56 309 56C307.895 56 307 55.1046 307 54C307 52.8954 307.895 52 309 52C310.105 52 311 52.8954 311 54ZM249 66C250.105 66 251 65.1046 251 64C251 62.8954 250.105 62 249 62C247.895 62 247 62.8954 247 64C247 65.1046 247.895 66 249 66ZM259 66C260.105 66 261 65.1046 261 64C261 62.8954 260.105 62 259 62C257.895 62 257 62.8954 257 64C257 65.1046 257.895 66 259 66ZM271 64C271 65.1046 270.105 66 269 66C267.895 66 267 65.1046 267 64C267 62.8954 267.895 62 269 62C270.105 62 271 62.8954 271 64ZM279 66C280.105 66 281 65.1046 281 64C281 62.8954 280.105 62 279 62C277.895 62 277 62.8954 277 64C277 65.1046 277.895 66 279 66ZM291 64C291 65.1046 290.105 66 289 66C287.895 66 287 65.1046 287 64C287 62.8954 287.895 62 289 62C290.105 62 291 62.8954 291 64ZM299 66C300.105 66 301 65.1046 301 64C301 62.8954 300.105 62 299 62C297.895 62 297 62.8954 297 64C297 65.1046 297.895 66 299 66ZM311 64C311 65.1046 310.105 66 309 66C307.895 66 307 65.1046 307 64C307 62.8954 307.895 62 309 62C310.105 62 311 62.8954 311 64ZM251 74C251 75.1046 250.105 76 249 76C247.895 76 247 75.1046 247 74C247 72.8954 247.895 72 249 72C250.105 72 251 72.8954 251 74ZM261 74C261 75.1046 260.105 76 259 76C257.895 76 257 75.1046 257 74C257 72.8954 257.895 72 259 72C260.105 72 261 72.8954 261 74ZM269 76C270.105 76 271 75.1046 271 74C271 72.8954 270.105 72 269 72C267.895 72 267 72.8954 267 74C267 75.1046 267.895 76 269 76ZM281 74C281 75.1046 280.105 76 279 76C277.895 76 277 75.1046 277 74C277 72.8954 277.895 72 279 72C280.105 72 281 72.8954 281 74ZM289 76C290.105 76 291 75.1046 291 74C291 72.8954 290.105 72 289 72C287.895 72 287 72.8954 287 74C287 75.1046 287.895 76 289 76ZM301 74C301 75.1046 300.105 76 299 76C297.895 76 297 75.1046 297 74C297 72.8954 297.895 72 299 72C300.105 72 301 72.8954 301 74ZM309 76C310.105 76 311 75.1046 311 74C311 72.8954 310.105 72 309 72C307.895 72 307 72.8954 307 74C307 75.1046 307.895 76 309 76ZM249 86C250.105 86 251 85.1046 251 84C251 82.8954 250.105 82 249 82C247.895 82 247 82.8954 247 84C247 85.1046 247.895 86 249 86ZM259 86C260.105 86 261 85.1046 261 84C261 82.8954 260.105 82 259 82C257.895 82 257 82.8954 257 84C257 85.1046 257.895 86 259 86ZM271 84C271 85.1046 270.105 86 269 86C267.895 86 267 85.1046 267 84C267 82.8954 267.895 82 269 82C270.105 82 271 82.8954 271 84ZM279 86C280.105 86 281 85.1046 281 84C281 82.8954 280.105 82 279 82C277.895 82 277 82.8954 277 84C277 85.1046 277.895 86 279 86ZM291 84C291 85.1046 290.105 86 289 86C287.895 86 287 85.1046 287 84C287 82.8954 287.895 82 289 82C290.105 82 291 82.8954 291 84ZM299 86C300.105 86 301 85.1046 301 84C301 82.8954 300.105 82 299 82C297.895 82 297 82.8954 297 84C297 85.1046 297.895 86 299 86ZM311 84C311 85.1046 310.105 86 309 86C307.895 86 307 85.1046 307 84C307 82.8954 307.895 82 309 82C310.105 82 311 82.8954 311 84ZM251 94C251 95.1046 250.105 96 249 96C247.895 96 247 95.1046 247 94C247 92.8954 247.895 92 249 92C250.105 92 251 92.8954 251 94ZM261 94C261 95.1046 260.105 96 259 96C257.895 96 257 95.1046 257 94C257 92.8954 257.895 92 259 92C260.105 92 261 92.8954 261 94ZM269 96C270.105 96 271 95.1046 271 94C271 92.8954 270.105 92 269 92C267.895 92 267 92.8954 267 94C267 95.1046 267.895 96 269 96ZM281 94C281 95.1046 280.105 96 279 96C277.895 96 277 95.1046 277 94C277 92.8954 277.895 92 279 92C280.105 92 281 92.8954 281 94ZM289 96C290.105 96 291 95.1046 291 94C291 92.8954 290.105 92 289 92C287.895 92 287 92.8954 287 94C287 95.1046 287.895 96 289 96ZM301 94C301 95.1046 300.105 96 299 96C297.895 96 297 95.1046 297 94C297 92.8954 297.895 92 299 92C300.105 92 301 92.8954 301 94ZM309 96C310.105 96 311 95.1046 311 94C311 92.8954 310.105 92 309 92C307.895 92 307 92.8954 307 94C307 95.1046 307.895 96 309 96ZM249 106C250.105 106 251 105.105 251 104C251 102.895 250.105 102 249 102C247.895 102 247 102.895 247 104C247 105.105 247.895 106 249 106ZM259 106C260.105 106 261 105.105 261 104C261 102.895 260.105 102 259 102C257.895 102 257 102.895 257 104C257 105.105 257.895 106 259 106ZM271 104C271 105.105 270.105 106 269 106C267.895 106 267 105.105 267 104C267 102.895 267.895 102 269 102C270.105 102 271 102.895 271 104ZM279 106C280.105 106 281 105.105 281 104C281 102.895 280.105 102 279 102C277.895 102 277 102.895 277 104C277 105.105 277.895 106 279 106ZM291 104C291 105.105 290.105 106 289 106C287.895 106 287 105.105 287 104C287 102.895 287.895 102 289 102C290.105 102 291 102.895 291 104ZM299 106C300.105 106 301 105.105 301 104C301 102.895 300.105 102 299 102C297.895 102 297 102.895 297 104C297 105.105 297.895 106 299 106ZM311 104C311 105.105 310.105 106 309 106C307.895 106 307 105.105 307 104C307 102.895 307.895 102 309 102C310.105 102 311 102.895 311 104ZM251 114C251 115.105 250.105 116 249 116C247.895 116 247 115.105 247 114C247 112.895 247.895 112 249 112C250.105 112 251 112.895 251 114ZM261 114C261 115.105 260.105 116 259 116C257.895 116 257 115.105 257 114C257 112.895 257.895 112 259 112C260.105 112 261 112.895 261 114ZM269 116C270.105 116 271 115.105 271 114C271 112.895 270.105 112 269 112C267.895 112 267 112.895 267 114C267 115.105 267.895 116 269 116ZM281 114C281 115.105 280.105 116 279 116C277.895 116 277 115.105 277 114C277 112.895 277.895 112 279 112C280.105 112 281 112.895 281 114ZM289 116C290.105 116 291 115.105 291 114C291 112.895 290.105 112 289 112C287.895 112 287 112.895 287 114C287 115.105 287.895 116 289 116ZM301 114C301 115.105 300.105 116 299 116C297.895 116 297 115.105 297 114C297 112.895 297.895 112 299 112C300.105 112 301 112.895 301 114ZM309 116C310.105 116 311 115.105 311 114C311 112.895 310.105 112 309 112C307.895 112 307 112.895 307 114C307 115.105 307.895 116 309 116ZM249 126C250.105 126 251 125.105 251 124C251 122.895 250.105 122 249 122C247.895 122 247 122.895 247 124C247 125.105 247.895 126 249 126ZM259 126C260.105 126 261 125.105 261 124C261 122.895 260.105 122 259 122C257.895 122 257 122.895 257 124C257 125.105 257.895 126 259 126ZM271 124C271 125.105 270.105 126 269 126C267.895 126 267 125.105 267 124C267 122.895 267.895 122 269 122C270.105 122 271 122.895 271 124ZM279 126C280.105 126 281 125.105 281 124C281 122.895 280.105 122 279 122C277.895 122 277 122.895 277 124C277 125.105 277.895 126 279 126ZM291 124C291 125.105 290.105 126 289 126C287.895 126 287 125.105 287 124C287 122.895 287.895 122 289 122C290.105 122 291 122.895 291 124ZM299 126C300.105 126 301 125.105 301 124C301 122.895 300.105 122 299 122C297.895 122 297 122.895 297 124C297 125.105 297.895 126 299 126ZM311 124C311 125.105 310.105 126 309 126C307.895 126 307 125.105 307 124C307 122.895 307.895 122 309 122C310.105 122 311 122.895 311 124ZM251 134C251 135.105 250.105 136 249 136C247.895 136 247 135.105 247 134C247 132.895 247.895 132 249 132C250.105 132 251 132.895 251 134ZM261 134C261 135.105 260.105 136 259 136C257.895 136 257 135.105 257 134C257 132.895 257.895 132 259 132C260.105 132 261 132.895 261 134ZM269 136C270.105 136 271 135.105 271 134C271 132.895 270.105 132 269 132C267.895 132 267 132.895 267 134C267 135.105 267.895 136 269 136ZM281 134C281 135.105 280.105 136 279 136C277.895 136 277 135.105 277 134C277 132.895 277.895 132 279 132C280.105 132 281 132.895 281 134ZM289 136C290.105 136 291 135.105 291 134C291 132.895 290.105 132 289 132C287.895 132 287 132.895 287 134C287 135.105 287.895 136 289 136ZM301 134C301 135.105 300.105 136 299 136C297.895 136 297 135.105 297 134C297 132.895 297.895 132 299 132C300.105 132 301 132.895 301 134ZM309 136C310.105 136 311 135.105 311 134C311 132.895 310.105 132 309 132C307.895 132 307 132.895 307 134C307 135.105 307.895 136 309 136ZM249 146C250.105 146 251 145.105 251 144C251 142.895 250.105 142 249 142C247.895 142 247 142.895 247 144C247 145.105 247.895 146 249 146ZM259 146C260.105 146 261 145.105 261 144C261 142.895 260.105 142 259 142C257.895 142 257 142.895 257 144C257 145.105 257.895 146 259 146ZM271 144C271 145.105 270.105 146 269 146C267.895 146 267 145.105 267 144C267 142.895 267.895 142 269 142C270.105 142 271 142.895 271 144ZM279 146C280.105 146 281 145.105 281 144C281 142.895 280.105 142 279 142C277.895 142 277 142.895 277 144C277 145.105 277.895 146 279 146ZM291 144C291 145.105 290.105 146 289 146C287.895 146 287 145.105 287 144C287 142.895 287.895 142 289 142C290.105 142 291 142.895 291 144ZM299 146C300.105 146 301 145.105 301 144C301 142.895 300.105 142 299 142C297.895 142 297 142.895 297 144C297 145.105 297.895 146 299 146ZM311 144C311 145.105 310.105 146 309 146C307.895 146 307 145.105 307 144C307 142.895 307.895 142 309 142C310.105 142 311 142.895 311 144Z" fill="#FDE047"/>
<rect x="270.5" y="0.5" width="205" height="213" rx="9.5" fill="white" stroke="#BC6A94"/>
<path d="M373.005 106.991V51.9923C357.77 51.9923 343.978 58.2571 333.994 68.2099L373.005 106.991Z" fill="#C4C4C4" fill-opacity="0.2"/>
<path d="M372.99 107.004H317.991C317.991 91.7698 324.256 77.9774 334.209 67.9937L372.99 107.004Z" fill="#C4C4C4" fill-opacity="0.2"/>
<path d="M372.992 107.003H317.993C317.993 121.988 324.258 135.554 334.211 145.375L372.992 107.003Z" fill="#C4C4C4" fill-opacity="0.2"/>
<path d="M372.989 107.005V162.004C357.755 162.004 343.962 155.739 333.979 145.787L372.989 107.005Z" fill="#BC6A94"/>
<path d="M373.003 106.354V161.352C388.238 161.352 402.03 155.088 412.014 145.135L373.003 106.354Z" fill="#BC6A94"/>
<path d="M372.996 106.989H427.995C427.995 121.974 421.73 135.541 411.777 145.361L372.996 106.989Z" fill="#BC6A94"/>
<path d="M372.996 106.991H427.995C427.995 91.7559 421.73 77.9635 411.777 67.9797L372.996 106.991Z" fill="#BC6A94"/>
<path d="M372.999 106.992V51.9934C388.234 51.9934 402.026 58.2582 412.01 68.211L372.999 106.992Z" fill="#BC6A94"/>
<circle cx="373.467" cy="106.471" r="20.4647" fill="#FFFBF5"/>
<path d="M369.278 102.278H365.066V105.014C365.25 104.758 365.522 104.55 365.882 104.39C366.242 104.222 366.63 104.138 367.046 104.138C367.71 104.138 368.25 104.278 368.666 104.558C369.082 104.83 369.378 105.186 369.554 105.626C369.738 106.058 369.83 106.518 369.83 107.006C369.83 107.582 369.722 108.098 369.506 108.554C369.29 109.01 368.958 109.37 368.51 109.634C368.07 109.898 367.522 110.03 366.866 110.03C366.026 110.03 365.346 109.814 364.826 109.382C364.306 108.95 363.99 108.374 363.878 107.654H364.946C365.05 108.11 365.27 108.466 365.606 108.722C365.942 108.978 366.366 109.106 366.878 109.106C367.51 109.106 367.986 108.918 368.306 108.542C368.626 108.158 368.786 107.654 368.786 107.03C368.786 106.406 368.626 105.926 368.306 105.59C367.986 105.246 367.514 105.074 366.89 105.074C366.466 105.074 366.094 105.178 365.774 105.386C365.462 105.586 365.234 105.862 365.09 106.214H364.058V101.318H369.278V102.278ZM370.993 102.326V101.33H373.249V110.006H372.145V102.326H370.993ZM374.885 103.286C374.885 102.742 375.049 102.31 375.377 101.99C375.705 101.662 376.125 101.498 376.637 101.498C377.149 101.498 377.569 101.662 377.897 101.99C378.225 102.31 378.389 102.742 378.389 103.286C378.389 103.838 378.225 104.278 377.897 104.606C377.569 104.926 377.149 105.086 376.637 105.086C376.125 105.086 375.705 104.926 375.377 104.606C375.049 104.278 374.885 103.838 374.885 103.286ZM381.893 101.63L377.033 110.006H375.953L380.813 101.63H381.893ZM376.637 102.17C376.365 102.17 376.149 102.266 375.989 102.458C375.837 102.642 375.761 102.918 375.761 103.286C375.761 103.654 375.837 103.934 375.989 104.126C376.149 104.318 376.365 104.414 376.637 104.414C376.909 104.414 377.125 104.318 377.285 104.126C377.445 103.926 377.525 103.646 377.525 103.286C377.525 102.918 377.445 102.642 377.285 102.458C377.125 102.266 376.909 102.17 376.637 102.17ZM379.481 108.35C379.481 107.798 379.645 107.362 379.973 107.042C380.301 106.714 380.721 106.55 381.233 106.55C381.745 106.55 382.161 106.714 382.481 107.042C382.809 107.362 382.973 107.798 382.973 108.35C382.973 108.894 382.809 109.33 382.481 109.658C382.161 109.986 381.745 110.15 381.233 110.15C380.721 110.15 380.301 109.99 379.973 109.67C379.645 109.342 379.481 108.902 379.481 108.35ZM381.221 107.234C380.949 107.234 380.733 107.33 380.573 107.522C380.413 107.706 380.333 107.982 380.333 108.35C380.333 108.71 380.413 108.986 380.573 109.178C380.733 109.362 380.949 109.454 381.221 109.454C381.493 109.454 381.709 109.362 381.869 109.178C382.029 108.986 382.109 108.71 382.109 108.35C382.109 107.982 382.029 107.706 381.869 107.522C381.709 107.33 381.493 107.234 381.221 107.234Z" fill="black"/>
<path fill-rule="evenodd" clip-rule="evenodd" d="M249 285C250.105 285 251 284.105 251 283C251 281.895 250.105 281 249 281C247.895 281 247 281.895 247 283C247 284.105 247.895 285 249 285ZM259 285C260.105 285 261 284.105 261 283C261 281.895 260.105 281 259 281C257.895 281 257 281.895 257 283C257 284.105 257.895 285 259 285ZM271 283C271 284.105 270.105 285 269 285C267.895 285 267 284.105 267 283C267 281.895 267.895 281 269 281C270.105 281 271 281.895 271 283ZM279 285C280.105 285 281 284.105 281 283C281 281.895 280.105 281 279 281C277.895 281 277 281.895 277 283C277 284.105 277.895 285 279 285ZM291 283C291 284.105 290.105 285 289 285C287.895 285 287 284.105 287 283C287 281.895 287.895 281 289 281C290.105 281 291 281.895 291 283ZM299 285C300.105 285 301 284.105 301 283C301 281.895 300.105 281 299 281C297.895 281 297 281.895 297 283C297 284.105 297.895 285 299 285ZM311 283C311 284.105 310.105 285 309 285C307.895 285 307 284.105 307 283C307 281.895 307.895 281 309 281C310.105 281 311 281.895 311 283ZM249 295C250.105 295 251 294.105 251 293C251 291.895 250.105 291 249 291C247.895 291 247 291.895 247 293C247 294.105 247.895 295 249 295ZM259 295C260.105 295 261 294.105 261 293C261 291.895 260.105 291 259 291C257.895 291 257 291.895 257 293C257 294.105 257.895 295 259 295ZM271 293C271 294.105 270.105 295 269 295C267.895 295 267 294.105 267 293C267 291.895 267.895 291 269 291C270.105 291 271 291.895 271 293ZM279 295C280.105 295 281 294.105 281 293C281 291.895 280.105 291 279 291C277.895 291 277 291.895 277 293C277 294.105 277.895 295 279 295ZM291 293C291 294.105 290.105 295 289 295C287.895 295 287 294.105 287 293C287 291.895 287.895 291 289 291C290.105 291 291 291.895 291 293ZM299 295C300.105 295 301 294.105 301 293C301 291.895 300.105 291 299 291C297.895 291 297 291.895 297 293C297 294.105 297.895 295 299 295ZM311 293C311 294.105 310.105 295 309 295C307.895 295 307 294.105 307 293C307 291.895 307.895 291 309 291C310.105 291 311 291.895 311 293ZM251 303C251 304.105 250.105 305 249 305C247.895 305 247 304.105 247 303C247 301.895 247.895 301 249 301C250.105 301 251 301.895 251 303ZM261 303C261 304.105 260.105 305 259 305C257.895 305 257 304.105 257 303C257 301.895 257.895 301 259 301C260.105 301 261 301.895 261 303ZM269 305C270.105 305 271 304.105 271 303C271 301.895 270.105 301 269 301C267.895 301 267 301.895 267 303C267 304.105 267.895 305 269 305ZM281 303C281 304.105 280.105 305 279 305C277.895 305 277 304.105 277 303C277 301.895 277.895 301 279 301C280.105 301 281 301.895 281 303ZM289 305C290.105 305 291 304.105 291 303C291 301.895 290.105 301 289 301C287.895 301 287 301.895 287 303C287 304.105 287.895 305 289 305ZM301 303C301 304.105 300.105 305 299 305C297.895 305 297 304.105 297 303C297 301.895 297.895 301 299 301C300.105 301 301 301.895 301 303ZM309 305C310.105 305 311 304.105 311 303C311 301.895 310.105 301 309 301C307.895 301 307 301.895 307 303C307 304.105 307.895 305 309 305ZM249 315C250.105 315 251 314.105 251 313C251 311.895 250.105 311 249 311C247.895 311 247 311.895 247 313C247 314.105 247.895 315 249 315ZM259 315C260.105 315 261 314.105 261 313C261 311.895 260.105 311 259 311C257.895 311 257 311.895 257 313C257 314.105 257.895 315 259 315ZM271 313C271 314.105 270.105 315 269 315C267.895 315 267 314.105 267 313C267 311.895 267.895 311 269 311C270.105 311 271 311.895 271 313ZM279 315C280.105 315 281 314.105 281 313C281 311.895 280.105 311 279 311C277.895 311 277 311.895 277 313C277 314.105 277.895 315 279 315ZM291 313C291 314.105 290.105 315 289 315C287.895 315 287 314.105 287 313C287 311.895 287.895 311 289 311C290.105 311 291 311.895 291 313ZM299 315C300.105 315 301 314.105 301 313C301 311.895 300.105 311 299 311C297.895 311 297 311.895 297 313C297 314.105 297.895 315 299 315ZM311 313C311 314.105 310.105 315 309 315C307.895 315 307 314.105 307 313C307 311.895 307.895 311 309 311C310.105 311 311 311.895 311 313ZM251 323C251 324.105 250.105 325 249 325C247.895 325 247 324.105 247 323C247 321.895 247.895 321 249 321C250.105 321 251 321.895 251 323ZM261 323C261 324.105 260.105 325 259 325C257.895 325 257 324.105 257 323C257 321.895 257.895 321 259 321C260.105 321 261 321.895 261 323ZM269 325C270.105 325 271 324.105 271 323C271 321.895 270.105 321 269 321C267.895 321 267 321.895 267 323C267 324.105 267.895 325 269 325ZM281 323C281 324.105 280.105 325 279 325C277.895 325 277 324.105 277 323C277 321.895 277.895 321 279 321C280.105 321 281 321.895 281 323ZM289 325C290.105 325 291 324.105 291 323C291 321.895 290.105 321 289 321C287.895 321 287 321.895 287 323C287 324.105 287.895 325 289 325ZM301 323C301 324.105 300.105 325 299 325C297.895 325 297 324.105 297 323C297 321.895 297.895 321 299 321C300.105 321 301 321.895 301 323ZM309 325C310.105 325 311 324.105 311 323C311 321.895 310.105 321 309 321C307.895 321 307 321.895 307 323C307 324.105 307.895 325 309 325ZM249 335C250.105 335 251 334.105 251 333C251 331.895 250.105 331 249 331C247.895 331 247 331.895 247 333C247 334.105 247.895 335 249 335ZM259 335C260.105 335 261 334.105 261 333C261 331.895 260.105 331 259 331C257.895 331 257 331.895 257 333C257 334.105 257.895 335 259 335ZM271 333C271 334.105 270.105 335 269 335C267.895 335 267 334.105 267 333C267 331.895 267.895 331 269 331C270.105 331 271 331.895 271 333ZM279 335C280.105 335 281 334.105 281 333C281 331.895 280.105 331 279 331C277.895 331 277 331.895 277 333C277 334.105 277.895 335 279 335ZM291 333C291 334.105 290.105 335 289 335C287.895 335 287 334.105 287 333C287 331.895 287.895 331 289 331C290.105 331 291 331.895 291 333ZM299 335C300.105 335 301 334.105 301 333C301 331.895 300.105 331 299 331C297.895 331 297 331.895 297 333C297 334.105 297.895 335 299 335ZM311 333C311 334.105 310.105 335 309 335C307.895 335 307 334.105 307 333C307 331.895 307.895 331 309 331C310.105 331 311 331.895 311 333ZM251 343C251 344.105 250.105 345 249 345C247.895 345 247 344.105 247 343C247 341.895 247.895 341 249 341C250.105 341 251 341.895 251 343ZM261 343C261 344.105 260.105 345 259 345C257.895 345 257 344.105 257 343C257 341.895 257.895 341 259 341C260.105 341 261 341.895 261 343ZM269 345C270.105 345 271 344.105 271 343C271 341.895 270.105 341 269 341C267.895 341 267 341.895 267 343C267 344.105 267.895 345 269 345ZM281 343C281 344.105 280.105 345 279 345C277.895 345 277 344.105 277 343C277 341.895 277.895 341 279 341C280.105 341 281 341.895 281 343ZM289 345C290.105 345 291 344.105 291 343C291 341.895 290.105 341 289 341C287.895 341 287 341.895 287 343C287 344.105 287.895 345 289 345ZM301 343C301 344.105 300.105 345 299 345C297.895 345 297 344.105 297 343C297 341.895 297.895 341 299 341C300.105 341 301 341.895 301 343ZM309 345C310.105 345 311 344.105 311 343C311 341.895 310.105 341 309 341C307.895 341 307 341.895 307 343C307 344.105 307.895 345 309 345ZM249 355C250.105 355 251 354.105 251 353C251 351.895 250.105 351 249 351C247.895 351 247 351.895 247 353C247 354.105 247.895 355 249 355ZM259 355C260.105 355 261 354.105 261 353C261 351.895 260.105 351 259 351C257.895 351 257 351.895 257 353C257 354.105 257.895 355 259 355ZM271 353C271 354.105 270.105 355 269 355C267.895 355 267 354.105 267 353C267 351.895 267.895 351 269 351C270.105 351 271 351.895 271 353ZM279 355C280.105 355 281 354.105 281 353C281 351.895 280.105 351 279 351C277.895 351 277 351.895 277 353C277 354.105 277.895 355 279 355ZM291 353C291 354.105 290.105 355 289 355C287.895 355 287 354.105 287 353C287 351.895 287.895 351 289 351C290.105 351 291 351.895 291 353ZM299 355C300.105 355 301 354.105 301 353C301 351.895 300.105 351 299 351C297.895 351 297 351.895 297 353C297 354.105 297.895 355 299 355ZM311 353C311 354.105 310.105 355 309 355C307.895 355 307 354.105 307 353C307 351.895 307.895 351 309 351C310.105 351 311 351.895 311 353ZM251 363C251 364.105 250.105 365 249 365C247.895 365 247 364.105 247 363C247 361.895 247.895 361 249 361C250.105 361 251 361.895 251 363ZM261 363C261 364.105 260.105 365 259 365C257.895 365 257 364.105 257 363C257 361.895 257.895 361 259 361C260.105 361 261 361.895 261 363ZM269 365C270.105 365 271 364.105 271 363C271 361.895 270.105 361 269 361C267.895 361 267 361.895 267 363C267 364.105 267.895 365 269 365ZM281 363C281 364.105 280.105 365 279 365C277.895 365 277 364.105 277 363C277 361.895 277.895 361 279 361C280.105 361 281 361.895 281 363ZM289 365C290.105 365 291 364.105 291 363C291 361.895 290.105 361 289 361C287.895 361 287 361.895 287 363C287 364.105 287.895 365 289 365ZM301 363C301 364.105 300.105 365 299 365C297.895 365 297 364.105 297 363C297 361.895 297.895 361 299 361C300.105 361 301 361.895 301 363ZM309 365C310.105 365 311 364.105 311 363C311 361.895 310.105 361 309 361C307.895 361 307 361.895 307 363C307 364.105 307.895 365 309 365ZM249 375C250.105 375 251 374.105 251 373C251 371.895 250.105 371 249 371C247.895 371 247 371.895 247 373C247 374.105 247.895 375 249 375ZM259 375C260.105 375 261 374.105 261 373C261 371.895 260.105 371 259 371C257.895 371 257 371.895 257 373C257 374.105 257.895 375 259 375ZM271 373C271 374.105 270.105 375 269 375C267.895 375 267 374.105 267 373C267 371.895 267.895 371 269 371C270.105 371 271 371.895 271 373ZM279 375C280.105 375 281 374.105 281 373C281 371.895 280.105 371 279 371C277.895 371 277 371.895 277 373C277 374.105 277.895 375 279 375ZM291 373C291 374.105 290.105 375 289 375C287.895 375 287 374.105 287 373C287 371.895 287.895 371 289 371C290.105 371 291 371.895 291 373ZM299 375C300.105 375 301 374.105 301 373C301 371.895 300.105 371 299 371C297.895 371 297 371.895 297 373C297 374.105 297.895 375 299 375ZM311 373C311 374.105 310.105 375 309 375C307.895 375 307 374.105 307 373C307 371.895 307.895 371 309 371C310.105 371 311 371.895 311 373Z" fill="#FDE047"/>
<rect x="270.5" y="229.5" width="205" height="213" rx="9.5" fill="white" stroke="#B34EFB"/>
<path d="M373.007 335.992V280.993C357.772 280.993 343.98 287.257 333.996 297.21L373.007 335.992Z" fill="#C4C4C4" fill-opacity="0.2"/>
<path d="M372.99 336.006H317.991C317.991 320.771 324.256 306.979 334.209 296.995L372.99 336.006Z" fill="#C4C4C4" fill-opacity="0.2"/>
<path d="M372.992 336.004H317.993C317.993 350.989 324.258 364.556 334.211 374.376L372.992 336.004Z" fill="#C4C4C4" fill-opacity="0.2"/>
<path d="M372.991 336.007V391.005C357.757 391.005 343.964 384.741 333.98 374.788L372.991 336.007Z" fill="#C4C4C4" fill-opacity="0.2"/>
<path d="M373.003 335.355V390.354C388.238 390.354 402.03 384.089 412.014 374.136L373.003 335.355Z" fill="#B34EFB"/>
<path d="M372.996 335.99H427.995C427.995 350.975 421.73 364.542 411.777 374.362L372.996 335.99Z" fill="#B34EFB"/>
<path d="M372.996 335.993H427.995C427.995 320.758 421.73 306.965 411.777 296.982L372.996 335.993Z" fill="#B34EFB"/>
<path d="M372.999 335.993V280.994C388.234 280.994 402.026 287.259 412.01 297.212L372.999 335.993Z" fill="#B34EFB"/>
<circle cx="373.465" cy="335.471" r="20.4647" fill="#FFFBF5"/>
<path d="M367.276 331.279H363.064V334.015C363.248 333.759 363.52 333.551 363.88 333.391C364.24 333.223 364.628 333.139 365.044 333.139C365.708 333.139 366.248 333.279 366.664 333.559C367.08 333.831 367.376 334.187 367.552 334.627C367.736 335.059 367.828 335.519 367.828 336.007C367.828 336.583 367.72 337.099 367.504 337.555C367.288 338.011 366.956 338.371 366.508 338.635C366.068 338.899 365.52 339.031 364.864 339.031C364.024 339.031 363.344 338.815 362.824 338.383C362.304 337.951 361.988 337.375 361.876 336.655H362.944C363.048 337.111 363.268 337.467 363.604 337.723C363.94 337.979 364.364 338.107 364.876 338.107C365.508 338.107 365.984 337.919 366.304 337.543C366.624 337.159 366.784 336.655 366.784 336.031C366.784 335.407 366.624 334.927 366.304 334.591C365.984 334.247 365.512 334.075 364.888 334.075C364.464 334.075 364.092 334.179 363.772 334.387C363.46 334.587 363.232 334.863 363.088 335.215H362.056V330.319H367.276V331.279ZM369.279 334.579C369.279 333.203 369.503 332.131 369.951 331.363C370.399 330.587 371.183 330.199 372.303 330.199C373.415 330.199 374.195 330.587 374.643 331.363C375.091 332.131 375.315 333.203 375.315 334.579C375.315 335.979 375.091 337.067 374.643 337.843C374.195 338.619 373.415 339.007 372.303 339.007C371.183 339.007 370.399 338.619 369.951 337.843C369.503 337.067 369.279 335.979 369.279 334.579ZM374.235 334.579C374.235 333.883 374.187 333.295 374.091 332.815C374.003 332.327 373.815 331.935 373.527 331.639C373.247 331.343 372.839 331.195 372.303 331.195C371.759 331.195 371.343 331.343 371.055 331.639C370.775 331.935 370.587 332.327 370.491 332.815C370.403 333.295 370.359 333.883 370.359 334.579C370.359 335.299 370.403 335.903 370.491 336.391C370.587 336.879 370.775 337.271 371.055 337.567C371.343 337.863 371.759 338.011 372.303 338.011C372.839 338.011 373.247 337.863 373.527 337.567C373.815 337.271 374.003 336.879 374.091 336.391C374.187 335.903 374.235 335.299 374.235 334.579ZM376.574 332.287C376.574 331.743 376.738 331.311 377.066 330.991C377.394 330.663 377.814 330.499 378.326 330.499C378.838 330.499 379.258 330.663 379.586 330.991C379.914 331.311 380.078 331.743 380.078 332.287C380.078 332.839 379.914 333.279 379.586 333.607C379.258 333.927 378.838 334.087 378.326 334.087C377.814 334.087 377.394 333.927 377.066 333.607C376.738 333.279 376.574 332.839 376.574 332.287ZM383.582 330.631L378.722 339.007H377.642L382.502 330.631H383.582ZM378.326 331.171C378.054 331.171 377.838 331.267 377.678 331.459C377.526 331.643 377.45 331.919 377.45 332.287C377.45 332.655 377.526 332.935 377.678 333.127C377.838 333.319 378.054 333.415 378.326 333.415C378.598 333.415 378.814 333.319 378.974 333.127C379.134 332.927 379.214 332.647 379.214 332.287C379.214 331.919 379.134 331.643 378.974 331.459C378.814 331.267 378.598 331.171 378.326 331.171ZM381.17 337.351C381.17 336.799 381.334 336.363 381.662 336.043C381.99 335.715 382.41 335.551 382.922 335.551C383.434 335.551 383.85 335.715 384.17 336.043C384.498 336.363 384.662 336.799 384.662 337.351C384.662 337.895 384.498 338.331 384.17 338.659C383.85 338.987 383.434 339.151 382.922 339.151C382.41 339.151 381.99 338.991 381.662 338.671C381.334 338.343 381.17 337.903 381.17 337.351ZM382.91 336.235C382.638 336.235 382.422 336.331 382.262 336.523C382.102 336.707 382.022 336.983 382.022 337.351C382.022 337.711 382.102 337.987 382.262 338.179C382.422 338.363 382.638 338.455 382.91 338.455C383.182 338.455 383.398 338.363 383.558 338.179C383.718 337.987 383.798 337.711 383.798 337.351C383.798 336.983 383.718 336.707 383.558 336.523C383.398 336.331 383.182 336.235 382.91 336.235Z" fill="black"/>
</svg>
