<svg width="51" height="45" viewBox="0 0 51 45" fill="none" xmlns="http://www.w3.org/2000/svg">
<path d="M16.5549 36.05V43H15.4149V39.96H12.1449V43H11.0049V36.05H12.1449V39.03H15.4149V36.05H16.5549ZM20.4457 43.09C19.9257 43.09 19.4557 42.9733 19.0357 42.74C18.6157 42.5 18.2857 42.1667 18.0457 41.74C17.8057 41.3067 17.6857 40.8067 17.6857 40.24C17.6857 39.68 17.809 39.1833 18.0557 38.75C18.3023 38.3167 18.639 37.9833 19.0657 37.75C19.4923 37.5167 19.969 37.4 20.4957 37.4C21.0223 37.4 21.499 37.5167 21.9257 37.75C22.3523 37.9833 22.689 38.3167 22.9357 38.75C23.1823 39.1833 23.3057 39.68 23.3057 40.24C23.3057 40.8 23.179 41.2967 22.9257 41.73C22.6723 42.1633 22.3257 42.5 21.8857 42.74C21.4523 42.9733 20.9723 43.09 20.4457 43.09ZM20.4457 42.1C20.739 42.1 21.0123 42.03 21.2657 41.89C21.5257 41.75 21.7357 41.54 21.8957 41.26C22.0557 40.98 22.1357 40.64 22.1357 40.24C22.1357 39.84 22.059 39.5033 21.9057 39.23C21.7523 38.95 21.549 38.74 21.2957 38.6C21.0423 38.46 20.769 38.39 20.4757 38.39C20.1823 38.39 19.909 38.46 19.6557 38.6C19.409 38.74 19.2123 38.95 19.0657 39.23C18.919 39.5033 18.8457 39.84 18.8457 40.24C18.8457 40.8333 18.9957 41.2933 19.2957 41.62C19.6023 41.94 19.9857 42.1 20.4457 42.1ZM31.1026 37.4C31.536 37.4 31.9226 37.49 32.2626 37.67C32.6093 37.85 32.8793 38.1167 33.0726 38.47C33.2726 38.8233 33.3726 39.25 33.3726 39.75V43H32.2426V39.92C32.2426 39.4267 32.1193 39.05 31.8726 38.79C31.626 38.5233 31.2893 38.39 30.8626 38.39C30.436 38.39 30.096 38.5233 29.8426 38.79C29.596 39.05 29.4726 39.4267 29.4726 39.92V43H28.3426V39.92C28.3426 39.4267 28.2193 39.05 27.9726 38.79C27.726 38.5233 27.3893 38.39 26.9626 38.39C26.536 38.39 26.196 38.5233 25.9426 38.79C25.696 39.05 25.5726 39.4267 25.5726 39.92V43H24.4326V37.49H25.5726V38.12C25.7593 37.8933 25.996 37.7167 26.2826 37.59C26.5693 37.4633 26.876 37.4 27.2026 37.4C27.6426 37.4 28.036 37.4933 28.3826 37.68C28.7293 37.8667 28.996 38.1367 29.1826 38.49C29.3493 38.1567 29.6093 37.8933 29.9626 37.7C30.316 37.5 30.696 37.4 31.1026 37.4ZM39.8732 40.11C39.8732 40.3167 39.8599 40.5033 39.8332 40.67H35.6232C35.6566 41.11 35.8199 41.4633 36.1132 41.73C36.4066 41.9967 36.7666 42.13 37.1932 42.13C37.8066 42.13 38.2399 41.8733 38.4932 41.36H39.7232C39.5566 41.8667 39.2532 42.2833 38.8132 42.61C38.3799 42.93 37.8399 43.09 37.1932 43.09C36.6666 43.09 36.1932 42.9733 35.7732 42.74C35.3599 42.5 35.0332 42.1667 34.7932 41.74C34.5599 41.3067 34.4432 40.8067 34.4432 40.24C34.4432 39.6733 34.5566 39.1767 34.7832 38.75C35.0166 38.3167 35.3399 37.9833 35.7532 37.75C36.1732 37.5167 36.6532 37.4 37.1932 37.4C37.7132 37.4 38.1766 37.5133 38.5832 37.74C38.9899 37.9667 39.3066 38.2867 39.5332 38.7C39.7599 39.1067 39.8732 39.5767 39.8732 40.11ZM38.6832 39.75C38.6766 39.33 38.5266 38.9933 38.2332 38.74C37.9399 38.4867 37.5766 38.36 37.1432 38.36C36.7499 38.36 36.4132 38.4867 36.1332 38.74C35.8532 38.9867 35.6866 39.3233 35.6332 39.75H38.6832Z" fill="#C4C4C4"/>
<path d="M38.9763 11.9536L34.7561 7.91278V1.79884C34.7561 1.56146 34.6612 1.32935 34.4923 1.16054C34.3235 0.991735 34.0914 0.896782 33.8541 0.896782H31.1532C30.9158 0.896782 30.6837 0.991735 30.5149 1.16054C30.3461 1.32935 30.2511 1.56146 30.2511 1.79884V3.60295L26.9858 0.474767C26.9014 0.390364 26.8064 0.321786 26.7114 0.258484C26.5532 0.163531 26.3897 0.100229 26.2314 0.0580271C26.0732 0.0158256 25.9096 0 25.7514 0C25.5404 0 25.3241 0.0316511 25.1131 0.105504C25.0076 0.14243 24.8968 0.189907 24.7913 0.258484C24.6858 0.321786 24.5803 0.400914 24.4853 0.501143L12.5265 11.9536C12.1678 12.2965 12.1572 12.8662 12.5001 13.2249C12.843 13.5836 13.4127 13.5942 13.7714 13.2513L14.9478 12.1277V23.406C14.9478 23.6539 15.0005 23.8913 15.0902 24.1076C15.2274 24.4294 15.4542 24.7037 15.7391 24.8989C15.8815 24.9938 16.0397 25.073 16.2138 25.1257C16.3826 25.1785 16.562 25.2048 16.7466 25.2048H22.1484C22.3858 25.2048 22.6179 25.1099 22.7867 24.9411C22.9555 24.7723 23.0505 24.5402 23.0505 24.3028V16.6538C23.0505 16.5905 23.061 16.5324 23.0874 16.4797C23.119 16.4006 23.1771 16.332 23.2509 16.2792C23.2879 16.2528 23.3248 16.237 23.367 16.2212C23.4092 16.2106 23.4514 16.2001 23.4989 16.2001H27.9986C28.0619 16.2001 28.1199 16.2106 28.1727 16.237C28.2518 16.2687 28.3204 16.3267 28.3731 16.4006C28.3995 16.4375 28.4153 16.4744 28.4312 16.5166C28.4417 16.5588 28.4523 16.601 28.4523 16.6485V24.3028C28.4523 24.5402 28.5472 24.7723 28.716 24.9411C28.8848 25.1099 29.1169 25.2048 29.3543 25.2048H34.7561C35.004 25.2048 35.2414 25.1521 35.4577 25.0624C35.7795 24.9253 36.0538 24.6984 36.249 24.4136C36.3439 24.2711 36.4231 24.1129 36.4758 23.9388C36.5286 23.77 36.5549 23.5906 36.5549 23.406V12.1277L37.726 13.2513C38.0848 13.5942 38.6545 13.5836 38.9974 13.2249C39.3402 12.8662 39.335 12.2965 38.9763 11.9536ZM32.0552 2.7009H32.9573V6.19307L32.0552 5.32794V2.7009ZM34.7508 23.406H30.2511V16.6538C30.2511 16.3478 30.1878 16.0471 30.0717 15.7781C29.8977 15.3719 29.6181 15.029 29.2594 14.7863C29.08 14.665 28.8795 14.5701 28.6685 14.5015C28.4575 14.4329 28.2307 14.4013 27.9986 14.4013H23.4989C23.1929 14.4013 22.8922 14.4646 22.6232 14.5806C22.217 14.7547 21.8741 15.0343 21.6314 15.393C21.5101 15.5724 21.4152 15.7728 21.3466 15.9838C21.278 16.1948 21.2464 16.4217 21.2464 16.6538V23.406H16.7466V10.4027L25.725 1.80411C25.7303 1.80411 25.7355 1.80411 25.7461 1.80411C25.7514 1.80411 25.7619 1.80411 25.7672 1.80411L34.7508 10.4027V23.406Z" fill="#C4C4C4"/>
</svg>
