<svg width="30" height="44" viewBox="0 0 30 44" fill="none" xmlns="http://www.w3.org/2000/svg">
<path d="M6.42988 36.05V43H5.28988V39.96H2.01988V43H0.879883V36.05H2.01988V39.03H5.28988V36.05H6.42988ZM10.3207 43.09C9.80066 43.09 9.33066 42.9733 8.91066 42.74C8.49066 42.5 8.16066 42.1667 7.92066 41.74C7.68066 41.3067 7.56066 40.8067 7.56066 40.24C7.56066 39.68 7.684 39.1833 7.93066 38.75C8.17733 38.3167 8.514 37.9833 8.94066 37.75C9.36733 37.5167 9.844 37.4 10.3707 37.4C10.8973 37.4 11.374 37.5167 11.8007 37.75C12.2273 37.9833 12.564 38.3167 12.8107 38.75C13.0573 39.1833 13.1807 39.68 13.1807 40.24C13.1807 40.8 13.054 41.2967 12.8007 41.73C12.5473 42.1633 12.2007 42.5 11.7607 42.74C11.3273 42.9733 10.8473 43.09 10.3207 43.09ZM10.3207 42.1C10.614 42.1 10.8873 42.03 11.1407 41.89C11.4007 41.75 11.6107 41.54 11.7707 41.26C11.9307 40.98 12.0107 40.64 12.0107 40.24C12.0107 39.84 11.934 39.5033 11.7807 39.23C11.6273 38.95 11.424 38.74 11.1707 38.6C10.9173 38.46 10.644 38.39 10.3507 38.39C10.0573 38.39 9.784 38.46 9.53066 38.6C9.284 38.74 9.08733 38.95 8.94066 39.23C8.794 39.5033 8.72066 39.84 8.72066 40.24C8.72066 40.8333 8.87066 41.2933 9.17066 41.62C9.47733 41.94 9.86066 42.1 10.3207 42.1ZM20.9776 37.4C21.411 37.4 21.7976 37.49 22.1376 37.67C22.4843 37.85 22.7543 38.1167 22.9476 38.47C23.1476 38.8233 23.2476 39.25 23.2476 39.75V43H22.1176V39.92C22.1176 39.4267 21.9943 39.05 21.7476 38.79C21.501 38.5233 21.1643 38.39 20.7376 38.39C20.311 38.39 19.971 38.5233 19.7176 38.79C19.471 39.05 19.3476 39.4267 19.3476 39.92V43H18.2176V39.92C18.2176 39.4267 18.0943 39.05 17.8476 38.79C17.601 38.5233 17.2643 38.39 16.8376 38.39C16.411 38.39 16.071 38.5233 15.8176 38.79C15.571 39.05 15.4476 39.4267 15.4476 39.92V43H14.3076V37.49H15.4476V38.12C15.6343 37.8933 15.871 37.7167 16.1576 37.59C16.4443 37.4633 16.751 37.4 17.0776 37.4C17.5176 37.4 17.911 37.4933 18.2576 37.68C18.6043 37.8667 18.871 38.1367 19.0576 38.49C19.2243 38.1567 19.4843 37.8933 19.8376 37.7C20.191 37.5 20.571 37.4 20.9776 37.4ZM29.7482 40.11C29.7482 40.3167 29.7349 40.5033 29.7082 40.67H25.4982C25.5316 41.11 25.6949 41.4633 25.9882 41.73C26.2816 41.9967 26.6416 42.13 27.0682 42.13C27.6816 42.13 28.1149 41.8733 28.3682 41.36H29.5982C29.4316 41.8667 29.1282 42.2833 28.6882 42.61C28.2549 42.93 27.7149 43.09 27.0682 43.09C26.5416 43.09 26.0682 42.9733 25.6482 42.74C25.2349 42.5 24.9082 42.1667 24.6682 41.74C24.4349 41.3067 24.3182 40.8067 24.3182 40.24C24.3182 39.6733 24.4316 39.1767 24.6582 38.75C24.8916 38.3167 25.2149 37.9833 25.6282 37.75C26.0482 37.5167 26.5282 37.4 27.0682 37.4C27.5882 37.4 28.0516 37.5133 28.4582 37.74C28.8649 37.9667 29.1816 38.2867 29.4082 38.7C29.6349 39.1067 29.7482 39.5767 29.7482 40.11ZM28.5582 39.75C28.5516 39.33 28.4016 38.9933 28.1082 38.74C27.8149 38.4867 27.4516 38.36 27.0182 38.36C26.6249 38.36 26.2882 38.4867 26.0082 38.74C25.7282 38.9867 25.5616 39.3233 25.5082 39.75H28.5582Z" fill="#2A8981"/>
<path d="M28.8513 11.9536L24.6311 7.91278V1.79884C24.6311 1.56146 24.5362 1.32935 24.3673 1.16054C24.1985 0.991735 23.9664 0.896782 23.729 0.896782H21.0282C20.7908 0.896782 20.5587 0.991735 20.3899 1.16054C20.221 1.32935 20.1261 1.56146 20.1261 1.79884V3.60295L16.8608 0.474767C16.7764 0.390364 16.6814 0.321786 16.5864 0.258484C16.4282 0.163531 16.2647 0.100229 16.1064 0.0580271C15.9481 0.0158256 15.7846 0 15.6264 0C15.4154 0 15.1991 0.0316511 14.9881 0.105504C14.8826 0.14243 14.7718 0.189907 14.6663 0.258484C14.5608 0.321786 14.4553 0.400914 14.3603 0.501143L2.40147 11.9536C2.04276 12.2965 2.03221 12.8662 2.37509 13.2249C2.71798 13.5836 3.2877 13.5942 3.64641 13.2513L4.82278 12.1277V23.406C4.82278 23.6539 4.87553 23.8913 4.96521 24.1076C5.10237 24.4294 5.3292 24.7037 5.61406 24.8989C5.75649 24.9938 5.91474 25.073 6.08883 25.1257C6.25763 25.1785 6.43699 25.2048 6.62162 25.2048H12.0234C12.2608 25.2048 12.4929 25.1099 12.6617 24.9411C12.8305 24.7723 12.9255 24.5402 12.9255 24.3028V16.6538C12.9255 16.5905 12.936 16.5324 12.9624 16.4797C12.994 16.4006 13.0521 16.332 13.1259 16.2792C13.1629 16.2529 13.1998 16.237 13.242 16.2212C13.2842 16.2106 13.3264 16.2001 13.3739 16.2001H17.8736C17.9369 16.2001 17.9949 16.2106 18.0477 16.237C18.1268 16.2687 18.1954 16.3267 18.2481 16.4006C18.2745 16.4375 18.2903 16.4744 18.3062 16.5166C18.3167 16.5588 18.3273 16.601 18.3273 16.6485V24.3028C18.3273 24.5402 18.4222 24.7723 18.591 24.9411C18.7598 25.1099 18.9919 25.2048 19.2293 25.2048H24.6311C24.879 25.2048 25.1164 25.1521 25.3327 25.0624C25.6545 24.9253 25.9288 24.6984 26.124 24.4136C26.2189 24.2711 26.2981 24.1129 26.3508 23.9388C26.4036 23.77 26.4299 23.5906 26.4299 23.406V12.1277L27.601 13.2513C27.9597 13.5942 28.5295 13.5836 28.8724 13.2249C29.2152 12.8662 29.21 12.2965 28.8513 11.9536ZM21.9302 2.7009H22.8323V6.19307L21.9302 5.32794V2.7009ZM24.6258 23.406H20.1261V16.6538C20.1261 16.3478 20.0628 16.0471 19.9467 15.7781C19.7727 15.3719 19.4931 15.029 19.1344 14.7863C18.955 14.665 18.7545 14.5701 18.5435 14.5015C18.3325 14.4329 18.1057 14.4013 17.8736 14.4013H13.3739C13.0679 14.4013 12.7672 14.4646 12.4982 14.5806C12.092 14.7547 11.7491 15.0343 11.5064 15.393C11.3851 15.5724 11.2902 15.7728 11.2216 15.9838C11.153 16.1948 11.1214 16.4217 11.1214 16.6538V23.406H6.62162V10.4027L15.6 1.80411C15.6053 1.80411 15.6105 1.80411 15.6211 1.80411C15.6264 1.80411 15.6369 1.80411 15.6422 1.80411L24.6258 10.4027V23.406Z" fill="#2A8981"/>
</svg>
