<svg width="57" height="44" viewBox="0 0 57 44" fill="none" xmlns="http://www.w3.org/2000/svg">
<path d="M5.93184 36.05V43H4.79184V39.96H1.52184V43H0.381836V36.05H1.52184V39.03H4.79184V36.05H5.93184ZM9.82262 43.09C9.30262 43.09 8.83262 42.9733 8.41262 42.74C7.99262 42.5 7.66262 42.1667 7.42262 41.74C7.18262 41.3067 7.06262 40.8067 7.06262 40.24C7.06262 39.68 7.18595 39.1833 7.43262 38.75C7.67928 38.3167 8.01595 37.9833 8.44262 37.75C8.86928 37.5167 9.34595 37.4 9.87262 37.4C10.3993 37.4 10.876 37.5167 11.3026 37.75C11.7293 37.9833 12.066 38.3167 12.3126 38.75C12.5593 39.1833 12.6826 39.68 12.6826 40.24C12.6826 40.8 12.556 41.2967 12.3026 41.73C12.0493 42.1633 11.7026 42.5 11.2626 42.74C10.8293 42.9733 10.3493 43.09 9.82262 43.09ZM9.82262 42.1C10.116 42.1 10.3893 42.03 10.6426 41.89C10.9026 41.75 11.1126 41.54 11.2726 41.26C11.4326 40.98 11.5126 40.64 11.5126 40.24C11.5126 39.84 11.436 39.5033 11.2826 39.23C11.1293 38.95 10.926 38.74 10.6726 38.6C10.4193 38.46 10.146 38.39 9.85262 38.39C9.55928 38.39 9.28595 38.46 9.03262 38.6C8.78595 38.74 8.58928 38.95 8.44262 39.23C8.29595 39.5033 8.22262 39.84 8.22262 40.24C8.22262 40.8333 8.37262 41.2933 8.67262 41.62C8.97928 41.94 9.36262 42.1 9.82262 42.1ZM21.2096 37.49L19.4996 43H18.2996L17.1896 38.93L16.0796 43H14.8796L13.1596 37.49H14.3196L15.4696 41.92L16.6396 37.49H17.8296L18.9496 41.9L20.0896 37.49H21.2096ZM25.2392 36.76C25.0325 36.76 24.8592 36.69 24.7192 36.55C24.5792 36.41 24.5092 36.2367 24.5092 36.03C24.5092 35.8233 24.5792 35.65 24.7192 35.51C24.8592 35.37 25.0325 35.3 25.2392 35.3C25.4392 35.3 25.6092 35.37 25.7492 35.51C25.8892 35.65 25.9592 35.8233 25.9592 36.03C25.9592 36.2367 25.8892 36.41 25.7492 36.55C25.6092 36.69 25.4392 36.76 25.2392 36.76ZM25.7992 37.49V43H24.6592V37.49H25.7992ZM28.6259 38.42V41.47C28.6259 41.6767 28.6726 41.8267 28.7659 41.92C28.8659 42.0067 29.0326 42.05 29.2659 42.05H29.9659V43H29.0659C28.5526 43 28.1592 42.88 27.8859 42.64C27.6126 42.4 27.4759 42.01 27.4759 41.47V38.42H26.8259V37.49H27.4759V36.12H28.6259V37.49H29.9659V38.42H28.6259ZM41.0143 37.49L39.3043 43H38.1043L36.9943 38.93L35.8843 43H34.6843L32.9643 37.49H34.1243L35.2743 41.92L36.4443 37.49H37.6343L38.7543 41.9L39.8943 37.49H41.0143ZM44.2562 43.09C43.7362 43.09 43.2662 42.9733 42.8462 42.74C42.4262 42.5 42.0962 42.1667 41.8562 41.74C41.6162 41.3067 41.4962 40.8067 41.4962 40.24C41.4962 39.68 41.6195 39.1833 41.8662 38.75C42.1129 38.3167 42.4495 37.9833 42.8762 37.75C43.3029 37.5167 43.7795 37.4 44.3062 37.4C44.8329 37.4 45.3095 37.5167 45.7362 37.75C46.1629 37.9833 46.4995 38.3167 46.7462 38.75C46.9929 39.1833 47.1162 39.68 47.1162 40.24C47.1162 40.8 46.9895 41.2967 46.7362 41.73C46.4829 42.1633 46.1362 42.5 45.6962 42.74C45.2629 42.9733 44.7829 43.09 44.2562 43.09ZM44.2562 42.1C44.5495 42.1 44.8229 42.03 45.0762 41.89C45.3362 41.75 45.5462 41.54 45.7062 41.26C45.8662 40.98 45.9462 40.64 45.9462 40.24C45.9462 39.84 45.8695 39.5033 45.7162 39.23C45.5629 38.95 45.3595 38.74 45.1062 38.6C44.8529 38.46 44.5795 38.39 44.2862 38.39C43.9929 38.39 43.7195 38.46 43.4662 38.6C43.2195 38.74 43.0229 38.95 42.8762 39.23C42.7295 39.5033 42.6562 39.84 42.6562 40.24C42.6562 40.8333 42.8062 41.2933 43.1062 41.62C43.4129 41.94 43.7962 42.1 44.2562 42.1ZM49.3832 38.29C49.5498 38.01 49.7698 37.7933 50.0432 37.64C50.3232 37.48 50.6532 37.4 51.0332 37.4V38.58H50.7432C50.2965 38.58 49.9565 38.6933 49.7232 38.92C49.4965 39.1467 49.3832 39.54 49.3832 40.1V43H48.2432V37.49H49.3832V38.29ZM54.2611 40.25L56.8011 43H55.2611L53.2211 40.63V43H52.0811V35.6H53.2211V39.9L55.2211 37.49H56.8011L54.2611 40.25Z" fill="#2A8981"/>
<path fill-rule="evenodd" clip-rule="evenodd" d="M24.8072 0.976012V1.95202L22.3394 1.96575L19.8717 1.97947L19.8583 8.45894L19.8449 14.9384H27.7632H35.6815L35.6681 8.45894L35.6547 1.97947L33.187 1.96575L30.7192 1.95202V0.976012V0H27.7632H24.8072V0.976012ZM29.8746 1.39883V1.95308H27.7632H25.6518V1.39883V0.844575H27.7632H29.8746V1.39883ZM34.7183 5.26175L34.7045 7.5675L34.2559 7.69012C33.675 7.8489 32.4279 8.10206 31.7173 8.20547C31.0353 8.3047 29.718 8.44575 29.4731 8.44575H29.294V7.54839V6.65103H27.7368H26.1796V7.54839V8.44575H26.0198C25.7039 8.44575 24.2898 8.28243 23.4875 8.15331C23.0375 8.08084 22.224 7.91113 21.6796 7.77616L20.6899 7.5307V5.24338V2.95601H27.711H34.732L34.7183 5.26175ZM15.5169 3.7478V4.17009H15.9391H16.3614V3.7478V3.32551H15.9391H15.5169V3.7478ZM39.165 3.7478V4.17009H39.5872H40.0095V3.7478V3.32551H39.5872H39.165V3.7478ZM25.2823 4.43402V4.8563H25.7309H26.1796V4.43402V4.01173H25.7309H25.2823V4.43402ZM27.3409 4.43402V4.8563H27.7632H28.1855V4.43402V4.01173H27.7632H27.3409V4.43402ZM29.3468 4.43402V4.8563H29.7955H30.2441V4.43402V4.01173H29.7955H29.3468V4.43402ZM15.5169 6.28152V6.70381H15.9391H16.3614V6.28152V5.85924H15.9391H15.5169V6.28152ZM39.165 6.28152V6.70381H39.5872H40.0095V6.28152V5.85924H39.5872H39.165V6.28152ZM28.4999 8.45894C28.4982 9.15989 28.4769 9.47982 28.4215 9.63343C28.332 9.88174 28.3231 9.99559 28.3966 9.95015C28.4257 9.9322 28.4494 9.9427 28.4494 9.97342C28.4494 10.0041 28.4853 10.0293 28.5291 10.0293C28.5729 10.0293 28.6739 10.1234 28.7535 10.2385C28.833 10.3535 28.9128 10.4485 28.9307 10.4496C29.0581 10.4575 29.3996 9.64362 29.3996 9.33202C29.3996 9.25907 29.4421 9.23754 29.5858 9.23754C30.3148 9.23754 32.6549 8.8996 33.8072 8.62796C34.2427 8.5253 34.6643 8.42743 34.7441 8.41054L34.8893 8.37977V11.2368V14.0938H27.7896H20.6899V11.2698C20.6899 9.0455 20.7039 8.44585 20.7559 8.44627C20.7922 8.44654 21.19 8.53939 21.64 8.65262C22.8685 8.96173 24.266 9.17535 25.6583 9.26694L26.2191 9.30383L26.2479 9.58381C26.2834 9.92792 26.4042 10.1912 26.6422 10.4435L26.8238 10.6361L26.9278 10.4251C26.985 10.309 27.1037 10.151 27.1916 10.0739L27.3514 9.93368L27.2274 9.76614C27.1085 9.60545 27.1027 9.5551 27.0871 8.54704L27.0708 7.4956H27.7865H28.5022L28.4999 8.45894ZM15.5169 8.78886V9.23754H15.9391H16.3614V8.78886V8.34018H15.9391H15.5169V8.78886ZM39.165 8.78886V9.23754H39.5872H40.0095V8.78886V8.34018H39.5872H39.165V8.78886ZM15.5169 11.3226V11.7713H15.9391H16.3614V11.3226V10.8739H15.9391H15.5169V11.3226ZM39.165 11.3226V11.7713H39.5872H40.0095V11.3226V10.8739H39.5872H39.165V11.3226ZM14.25 20.112V25.1799L16.7177 25.1662L19.1855 25.1525L19.2007 24.6906L19.216 24.2287H19.7199H20.2238L24.4554 25.6054C28.2777 26.849 28.7305 26.9849 29.1373 27.0109C29.9445 27.0625 30.0849 27.0067 33.3115 25.3498C34.8906 24.5389 37.13 23.392 38.288 22.8011C40.5682 21.6376 40.7944 21.4882 41.0939 20.9475C41.239 20.6855 41.25 20.6268 41.25 20.1114C41.25 19.5803 41.2425 19.5433 41.0689 19.2233C40.8588 18.8356 40.5766 18.5707 40.1679 18.3774C39.9204 18.2602 39.8075 18.2403 39.4025 18.2422C38.9276 18.2445 38.9264 18.2449 35.9204 19.2571C34.2665 19.8141 32.9006 20.2698 32.8852 20.2699C32.8697 20.27 32.865 20.1286 32.8748 19.9559C32.9296 18.9859 32.2395 18.1091 31.2577 17.9009C31.0742 17.862 30.152 17.8416 28.5772 17.8416H26.1764L24.5425 17.0103L22.9085 16.1789L21.0602 16.162L19.2119 16.1452V15.5946V15.044H16.7309H14.25V20.112ZM18.3145 20.1114V24.3343H16.7045H15.0946V20.1114V15.8886H16.7045H18.3145V20.1114ZM24.2793 17.868L25.8365 18.6598L28.4758 18.6862L31.1151 18.7126L31.3502 18.8446C31.8283 19.113 32.0761 19.6451 31.9322 20.0943C31.8105 20.474 31.662 20.6087 31.1663 20.7893L30.7085 20.956H28.7965C26.5997 20.956 26.5669 20.9612 26.1055 21.3828C25.81 21.653 25.6299 21.9846 25.5677 22.3735L25.5327 22.5924H25.9634C26.3275 22.5924 26.3985 22.5781 26.4226 22.5C26.5082 22.2238 26.6189 22.0526 26.7728 21.9588C26.9364 21.859 27.0418 21.8537 28.8717 21.8533C29.9314 21.853 30.9397 21.8296 31.1125 21.8013C31.2853 21.773 31.5941 21.6687 31.7987 21.5694C32.0034 21.4702 33.756 20.8625 35.6935 20.219C39.6089 18.9185 39.4343 18.9577 39.9267 19.27C40.4629 19.6099 40.541 20.3828 40.082 20.8053C39.9469 20.9297 38.1054 21.8942 31.9597 25.0596C30.8809 25.6153 29.9947 26.0385 29.8299 26.0766C29.183 26.2265 29.0741 26.199 24.6422 24.7638L20.5447 23.4369H19.8783H19.2119V20.2786C19.2119 18.5415 19.2289 17.1032 19.2497 17.0824C19.2705 17.0616 20.0603 17.0518 21.0048 17.0604L22.7221 17.0762L24.2793 17.868ZM16.2559 17.7361V18.1584H16.7045H17.1532V17.7361V17.3138H16.7045H16.2559V17.7361ZM16.2559 20.1114V20.5337H16.7045H17.1532V20.1114V19.6891H16.7045H16.2559V20.1114ZM16.2559 22.4604V22.9091H16.7045H17.1532V22.4604V22.0117H16.7045H16.2559V22.4604Z" fill="#2A8981"/>
</svg>
