<svg width="57" height="44" viewBox="0 0 57 44" fill="none" xmlns="http://www.w3.org/2000/svg">
<path d="M5.80684 36.05V43H4.66684V39.96H1.39684V43H0.256836V36.05H1.39684V39.03H4.66684V36.05H5.80684ZM9.69762 43.09C9.17762 43.09 8.70762 42.9733 8.28762 42.74C7.86762 42.5 7.53762 42.1667 7.29762 41.74C7.05762 41.3067 6.93762 40.8067 6.93762 40.24C6.93762 39.68 7.06095 39.1833 7.30762 38.75C7.55428 38.3167 7.89095 37.9833 8.31762 37.75C8.74428 37.5167 9.22095 37.4 9.74762 37.4C10.2743 37.4 10.751 37.5167 11.1776 37.75C11.6043 37.9833 11.941 38.3167 12.1876 38.75C12.4343 39.1833 12.5576 39.68 12.5576 40.24C12.5576 40.8 12.431 41.2967 12.1776 41.73C11.9243 42.1633 11.5776 42.5 11.1376 42.74C10.7043 42.9733 10.2243 43.09 9.69762 43.09ZM9.69762 42.1C9.99095 42.1 10.2643 42.03 10.5176 41.89C10.7776 41.75 10.9876 41.54 11.1476 41.26C11.3076 40.98 11.3876 40.64 11.3876 40.24C11.3876 39.84 11.311 39.5033 11.1576 39.23C11.0043 38.95 10.801 38.74 10.5476 38.6C10.2943 38.46 10.021 38.39 9.72762 38.39C9.43428 38.39 9.16095 38.46 8.90762 38.6C8.66095 38.74 8.46428 38.95 8.31762 39.23C8.17095 39.5033 8.09762 39.84 8.09762 40.24C8.09762 40.8333 8.24762 41.2933 8.54762 41.62C8.85428 41.94 9.23762 42.1 9.69762 42.1ZM21.0846 37.49L19.3746 43H18.1746L17.0646 38.93L15.9546 43H14.7546L13.0346 37.49H14.1946L15.3446 41.92L16.5146 37.49H17.7046L18.8246 41.9L19.9646 37.49H21.0846ZM25.1142 36.76C24.9075 36.76 24.7342 36.69 24.5942 36.55C24.4542 36.41 24.3842 36.2367 24.3842 36.03C24.3842 35.8233 24.4542 35.65 24.5942 35.51C24.7342 35.37 24.9075 35.3 25.1142 35.3C25.3142 35.3 25.4842 35.37 25.6242 35.51C25.7642 35.65 25.8342 35.8233 25.8342 36.03C25.8342 36.2367 25.7642 36.41 25.6242 36.55C25.4842 36.69 25.3142 36.76 25.1142 36.76ZM25.6742 37.49V43H24.5342V37.49H25.6742ZM28.5009 38.42V41.47C28.5009 41.6767 28.5476 41.8267 28.6409 41.92C28.7409 42.0067 28.9076 42.05 29.1409 42.05H29.8409V43H28.9409C28.4276 43 28.0342 42.88 27.7609 42.64C27.4876 42.4 27.3509 42.01 27.3509 41.47V38.42H26.7009V37.49H27.3509V36.12H28.5009V37.49H29.8409V38.42H28.5009ZM40.8893 37.49L39.1793 43H37.9793L36.8693 38.93L35.7593 43H34.5593L32.8393 37.49H33.9993L35.1493 41.92L36.3193 37.49H37.5093L38.6293 41.9L39.7693 37.49H40.8893ZM44.1312 43.09C43.6112 43.09 43.1412 42.9733 42.7212 42.74C42.3012 42.5 41.9712 42.1667 41.7312 41.74C41.4912 41.3067 41.3712 40.8067 41.3712 40.24C41.3712 39.68 41.4945 39.1833 41.7412 38.75C41.9879 38.3167 42.3245 37.9833 42.7512 37.75C43.1779 37.5167 43.6545 37.4 44.1812 37.4C44.7079 37.4 45.1845 37.5167 45.6112 37.75C46.0379 37.9833 46.3745 38.3167 46.6212 38.75C46.8679 39.1833 46.9912 39.68 46.9912 40.24C46.9912 40.8 46.8645 41.2967 46.6112 41.73C46.3579 42.1633 46.0112 42.5 45.5712 42.74C45.1379 42.9733 44.6579 43.09 44.1312 43.09ZM44.1312 42.1C44.4245 42.1 44.6979 42.03 44.9512 41.89C45.2112 41.75 45.4212 41.54 45.5812 41.26C45.7412 40.98 45.8212 40.64 45.8212 40.24C45.8212 39.84 45.7445 39.5033 45.5912 39.23C45.4379 38.95 45.2345 38.74 44.9812 38.6C44.7279 38.46 44.4545 38.39 44.1612 38.39C43.8679 38.39 43.5945 38.46 43.3412 38.6C43.0945 38.74 42.8979 38.95 42.7512 39.23C42.6045 39.5033 42.5312 39.84 42.5312 40.24C42.5312 40.8333 42.6812 41.2933 42.9812 41.62C43.2879 41.94 43.6712 42.1 44.1312 42.1ZM49.2582 38.29C49.4248 38.01 49.6448 37.7933 49.9182 37.64C50.1982 37.48 50.5282 37.4 50.9082 37.4V38.58H50.6182C50.1715 38.58 49.8315 38.6933 49.5982 38.92C49.3715 39.1467 49.2582 39.54 49.2582 40.1V43H48.1182V37.49H49.2582V38.29ZM54.1361 40.25L56.6761 43H55.1361L53.0961 40.63V43H51.9561V35.6H53.0961V39.9L55.0961 37.49H56.6761L54.1361 40.25Z" fill="#C4C4C4"/>
<path fill-rule="evenodd" clip-rule="evenodd" d="M24.6822 0.976012V1.95202L22.2144 1.96575L19.7467 1.97947L19.7333 8.45894L19.7199 14.9384H27.6382H35.5565L35.5431 8.45894L35.5297 1.97947L33.062 1.96575L30.5942 1.95202V0.976012V0H27.6382H24.6822V0.976012ZM29.7496 1.39883V1.95308H27.6382H25.5268V1.39883V0.844575H27.6382H29.7496V1.39883ZM34.5933 5.26175L34.5795 7.5675L34.1309 7.69012C33.55 7.8489 32.3029 8.10206 31.5923 8.20547C30.9103 8.3047 29.593 8.44575 29.3481 8.44575H29.169V7.54839V6.65103H27.6118H26.0546V7.54839V8.44575H25.8948C25.5789 8.44575 24.1648 8.28243 23.3625 8.15331C22.9125 8.08084 22.099 7.91113 21.5546 7.77616L20.5649 7.5307V5.24338V2.95601H27.586H34.607L34.5933 5.26175ZM15.3919 3.7478V4.17009H15.8141H16.2364V3.7478V3.32551H15.8141H15.3919V3.7478ZM39.04 3.7478V4.17009H39.4622H39.8845V3.7478V3.32551H39.4622H39.04V3.7478ZM25.1573 4.43402V4.8563H25.6059H26.0546V4.43402V4.01173H25.6059H25.1573V4.43402ZM27.2159 4.43402V4.8563H27.6382H28.0605V4.43402V4.01173H27.6382H27.2159V4.43402ZM29.2218 4.43402V4.8563H29.6705H30.1191V4.43402V4.01173H29.6705H29.2218V4.43402ZM15.3919 6.28152V6.70381H15.8141H16.2364V6.28152V5.85924H15.8141H15.3919V6.28152ZM39.04 6.28152V6.70381H39.4622H39.8845V6.28152V5.85924H39.4622H39.04V6.28152ZM28.3749 8.45894C28.3732 9.15989 28.3519 9.47982 28.2965 9.63343C28.207 9.88174 28.1981 9.99559 28.2716 9.95015C28.3007 9.9322 28.3244 9.9427 28.3244 9.97342C28.3244 10.0041 28.3603 10.0293 28.4041 10.0293C28.4479 10.0293 28.5489 10.1234 28.6285 10.2385C28.708 10.3535 28.7878 10.4485 28.8057 10.4496C28.9331 10.4575 29.2746 9.64362 29.2746 9.33202C29.2746 9.25907 29.3171 9.23754 29.4608 9.23754C30.1898 9.23754 32.5299 8.8996 33.6822 8.62796C34.1177 8.5253 34.5393 8.42743 34.6191 8.41054L34.7643 8.37977V11.2368V14.0938H27.6646H20.5649V11.2698C20.5649 9.0455 20.5789 8.44585 20.6309 8.44627C20.6672 8.44654 21.065 8.53939 21.515 8.65262C22.7435 8.96173 24.141 9.17535 25.5333 9.26694L26.0941 9.30383L26.1229 9.58381C26.1584 9.92792 26.2792 10.1912 26.5172 10.4435L26.6988 10.6361L26.8028 10.4251C26.86 10.309 26.9787 10.151 27.0666 10.0739L27.2264 9.93368L27.1024 9.76614C26.9835 9.60545 26.9777 9.5551 26.9621 8.54704L26.9458 7.4956H27.6615H28.3772L28.3749 8.45894ZM15.3919 8.78886V9.23754H15.8141H16.2364V8.78886V8.34018H15.8141H15.3919V8.78886ZM39.04 8.78886V9.23754H39.4622H39.8845V8.78886V8.34018H39.4622H39.04V8.78886ZM15.3919 11.3226V11.7713H15.8141H16.2364V11.3226V10.8739H15.8141H15.3919V11.3226ZM39.04 11.3226V11.7713H39.4622H39.8845V11.3226V10.8739H39.4622H39.04V11.3226ZM14.125 20.112V25.1799L16.5927 25.1662L19.0605 25.1525L19.0757 24.6906L19.091 24.2287H19.5949H20.0988L24.3304 25.6054C28.1527 26.849 28.6055 26.9849 29.0123 27.0109C29.8195 27.0625 29.9599 27.0067 33.1865 25.3498C34.7656 24.5389 37.005 23.392 38.163 22.8011C40.4432 21.6376 40.6694 21.4882 40.9689 20.9475C41.114 20.6855 41.125 20.6268 41.125 20.1114C41.125 19.5803 41.1175 19.5433 40.9439 19.2233C40.7338 18.8356 40.4516 18.5707 40.0429 18.3774C39.7954 18.2602 39.6825 18.2403 39.2775 18.2422C38.8026 18.2445 38.8014 18.2449 35.7954 19.2571C34.1415 19.8141 32.7756 20.2698 32.7602 20.2699C32.7447 20.27 32.74 20.1286 32.7498 19.9559C32.8046 18.9859 32.1145 18.1091 31.1327 17.9009C30.9492 17.862 30.027 17.8416 28.4522 17.8416H26.0514L24.4175 17.0103L22.7835 16.1789L20.9352 16.162L19.0869 16.1452V15.5946V15.044H16.6059H14.125V20.112ZM18.1895 20.1114V24.3343H16.5795H14.9696V20.1114V15.8886H16.5795H18.1895V20.1114ZM24.1543 17.868L25.7115 18.6598L28.3508 18.6862L30.9901 18.7126L31.2252 18.8446C31.7033 19.113 31.9511 19.6451 31.8072 20.0943C31.6855 20.474 31.537 20.6087 31.0413 20.7893L30.5835 20.956H28.6715C26.4747 20.956 26.4419 20.9612 25.9805 21.3828C25.685 21.653 25.5049 21.9846 25.4427 22.3735L25.4077 22.5924H25.8384C26.2025 22.5924 26.2735 22.5781 26.2976 22.5C26.3832 22.2238 26.4939 22.0526 26.6478 21.9588C26.8114 21.859 26.9168 21.8537 28.7467 21.8533C29.8064 21.853 30.8147 21.8296 30.9875 21.8013C31.1603 21.773 31.4691 21.6687 31.6737 21.5694C31.8784 21.4702 33.631 20.8625 35.5685 20.219C39.4839 18.9185 39.3093 18.9577 39.8017 19.27C40.3379 19.6099 40.416 20.3828 39.957 20.8053C39.8219 20.9297 37.9804 21.8942 31.8347 25.0596C30.7559 25.6153 29.8697 26.0385 29.7049 26.0766C29.058 26.2265 28.9491 26.199 24.5172 24.7638L20.4197 23.4369H19.7533H19.0869V20.2786C19.0869 18.5415 19.1039 17.1032 19.1247 17.0824C19.1455 17.0616 19.9353 17.0518 20.8798 17.0604L22.5971 17.0762L24.1543 17.868ZM16.1309 17.7361V18.1584H16.5795H17.0282V17.7361V17.3138H16.5795H16.1309V17.7361ZM16.1309 20.1114V20.5337H16.5795H17.0282V20.1114V19.6891H16.5795H16.1309V20.1114ZM16.1309 22.4604V22.9091H16.5795H17.0282V22.4604V22.0117H16.5795H16.1309V22.4604Z" fill="#C4C4C4"/>
</svg>
