<svg width="57" height="50" viewBox="0 0 57 50" fill="none" xmlns="http://www.w3.org/2000/svg">
<circle cx="10.5566" cy="10" r="10" fill="#FDE047"/>
<path fill-rule="evenodd" clip-rule="evenodd" d="M19.3595 0.178681C19.0296 0.273461 18.5295 0.476516 18.2483 0.629982C17.967 0.783348 17.5108 1.10668 17.2344 1.34842C16.9581 1.59027 16.5601 2.04687 16.3502 2.3632C16.1402 2.67953 15.8644 3.22491 15.7372 3.57523C15.6101 3.92555 15.4786 4.53712 15.445 4.93443C15.4102 5.34594 15.4354 5.9544 15.5034 6.34862C15.5692 6.72913 15.7844 7.37789 15.9819 7.7903C16.2351 8.31908 16.5356 8.73509 17.0016 9.20149C17.384 9.5843 17.9145 9.99021 18.261 10.1651C18.5902 10.3312 19.104 10.5398 19.4027 10.6285C19.7184 10.7222 20.3058 10.7896 20.8063 10.7896C21.2797 10.7896 21.9315 10.7208 22.2547 10.6366C22.578 10.5524 23.1161 10.3386 23.4504 10.1617C23.7848 9.98461 24.3428 9.55631 24.6904 9.20968C25.1493 8.75219 25.4297 8.35497 25.7138 7.76001C25.9749 7.21333 26.1428 6.68264 26.2186 6.16596C26.2991 5.61758 26.3024 5.19417 26.2301 4.71628C26.174 4.34496 26.0306 3.78308 25.9115 3.46765C25.7923 3.15232 25.5134 2.62244 25.2915 2.29021C25.0697 1.95799 24.6451 1.48819 24.348 1.24625C24.0509 1.0042 23.5659 0.687869 23.2703 0.543201C22.9745 0.398533 22.491 0.215873 22.1958 0.13729C21.9006 0.0587078 21.2766 -0.00297841 20.8092 0.000320862C20.3213 0.00372011 19.7039 0.0797033 19.3595 0.178681ZM36.6691 0.150588C36.3466 0.22867 35.8074 0.438624 35.471 0.617184C35.1345 0.795745 34.5857 1.21175 34.2512 1.54168C33.9168 1.87161 33.4987 2.39669 33.322 2.70852C33.1454 3.02035 32.9062 3.64971 32.7906 4.10711C32.6262 4.75727 32.5926 5.11409 32.637 5.74235C32.6699 6.20825 32.7952 6.82541 32.9351 7.21103C33.0679 7.57675 33.3225 8.10363 33.501 8.38177C33.6796 8.66001 34.061 9.10271 34.3486 9.36565C34.6363 9.62849 35.1417 9.98761 35.4719 10.1636C35.802 10.3395 36.3384 10.5538 36.6638 10.6397C36.9893 10.7255 37.6155 10.7958 38.0554 10.7958C38.4953 10.7958 39.1215 10.7255 39.447 10.6397C39.7724 10.5538 40.303 10.3425 40.6261 10.1704C40.9493 9.99811 41.4164 9.67878 41.6641 9.46063C41.9119 9.24258 42.284 8.81117 42.4908 8.50214C42.6977 8.19311 42.9623 7.71412 43.0788 7.43768C43.1953 7.16124 43.3443 6.62686 43.4099 6.25014C43.4767 5.86632 43.5012 5.29605 43.4655 4.95313C43.4305 4.6165 43.3364 4.12531 43.2564 3.86147C43.1765 3.59773 42.964 3.10603 42.7842 2.76881C42.6045 2.43158 42.1812 1.87951 41.8437 1.54188C41.4345 1.13277 40.9839 0.808342 40.4925 0.569095C40.0868 0.371739 39.5166 0.161085 39.2252 0.101099C38.9338 0.0411118 38.3714 -0.00427812 37.9755 0.000320862C37.5795 0.00491985 36.9916 0.0726049 36.6691 0.150588ZM20.2593 11.9533C20.0944 11.9738 19.6906 12.0396 19.3619 12.0994C19.0332 12.1593 18.4875 12.3191 18.1493 12.4546L17.5341 12.7008L18.0856 13.2199C18.3888 13.5054 18.8596 14.0314 19.1318 14.3888C19.4039 14.7463 19.7998 15.3986 20.0117 15.8385C20.2235 16.2784 20.4968 17.0208 20.6188 17.4882C20.792 18.1508 20.8404 18.6132 20.8388 19.5877C20.8372 20.533 20.7852 21.034 20.6254 21.6442C20.5093 22.0879 20.2977 22.7144 20.1553 23.0364C20.013 23.3584 19.6953 23.9328 19.4493 24.3129C19.2035 24.6931 18.7092 25.3038 18.3509 25.6701C17.7938 26.2399 17.7234 26.3506 17.8643 26.4362C17.9547 26.4912 18.3732 26.757 18.7941 27.027C19.2151 27.297 20.0126 27.9718 20.5664 28.5267L21.5732 29.5355L21.3438 28.8587C21.2176 28.4865 21.0623 27.8836 20.9989 27.5188C20.9296 27.1209 20.9051 26.3718 20.9378 25.6461C20.9722 24.8806 21.0637 24.1981 21.1873 23.7868C21.2946 23.4293 21.5225 22.8289 21.6938 22.4525C21.8651 22.0759 22.2067 21.4911 22.4529 21.1527C22.6993 20.8143 23.0488 20.3783 23.2297 20.1839C23.4106 19.9893 23.838 19.5991 24.1796 19.3167C24.521 19.0342 25.1958 18.6052 25.6792 18.3634C26.1625 18.1214 26.8729 17.8433 27.2578 17.7452C27.6427 17.6471 28.0138 17.5506 28.0824 17.5307C28.1756 17.5038 28.1531 17.3481 27.9938 16.9165C27.8764 16.5986 27.6039 16.0335 27.3881 15.6608C27.1723 15.288 26.7234 14.692 26.3906 14.3362C26.0577 13.9804 25.4768 13.4841 25.0996 13.2333C24.7222 12.9826 24.1409 12.6665 23.8075 12.5311C23.4742 12.3956 22.9218 12.2226 22.5802 12.1466C22.2385 12.0708 21.644 11.9878 21.2591 11.9623C20.8742 11.9368 20.4243 11.9327 20.2593 11.9533ZM37.5055 11.9573C37.2581 11.9765 36.7182 12.0642 36.3058 12.1521C35.8934 12.2401 35.2798 12.4369 34.9424 12.5892C34.6049 12.7417 34.0645 13.0458 33.7415 13.2652C33.4186 13.4845 32.8623 13.9764 32.5055 14.3583C32.1487 14.7403 31.7048 15.3086 31.5191 15.6214C31.3334 15.9342 31.0782 16.4745 30.9521 16.8221L30.7227 17.454L31.5107 17.6329C31.9441 17.7313 32.628 17.9549 33.0304 18.1298C33.4328 18.3047 34.0271 18.6238 34.351 18.8388C34.6749 19.0538 35.2017 19.4721 35.5217 19.7683C35.8416 20.0644 36.3128 20.5837 36.5687 20.922C36.8248 21.2604 37.2073 21.8972 37.4188 22.3371C37.6304 22.777 37.9018 23.4968 38.0221 23.9367C38.1997 24.5858 38.2403 25.0004 38.2379 26.1362C38.2355 27.2796 38.1947 27.6733 38.0147 28.2858C37.8935 28.6982 37.7688 29.1158 37.7375 29.2138C37.7061 29.3118 37.9898 29.0705 38.3678 28.6775C38.7458 28.2845 39.3154 27.7618 39.6334 27.516C39.9516 27.2702 40.5003 26.9005 40.8529 26.6944L41.4939 26.3198L40.8462 25.6781C40.49 25.3252 39.9918 24.7287 39.7392 24.3524C39.4867 23.9762 39.1312 23.3014 38.9492 22.8528C38.7671 22.4042 38.5424 21.6322 38.4496 21.1373C38.3249 20.4723 38.2958 19.9506 38.3379 19.1378C38.3708 18.5034 38.4813 17.7336 38.599 17.3187C38.7111 16.9231 38.9153 16.345 39.0528 16.0342C39.1902 15.7233 39.5102 15.157 39.7637 14.7757C40.0173 14.3942 40.5109 13.7919 40.8605 13.437C41.4637 12.8248 41.4856 12.786 41.288 12.6803C41.1734 12.6189 40.7708 12.4638 40.3933 12.3354C40.0158 12.2069 39.4927 12.0749 39.231 12.0419C38.9694 12.0089 38.5753 11.9685 38.3553 11.9521C38.1354 11.9358 37.753 11.9381 37.5055 11.9573ZM10.6614 13.2329C10.3865 13.3026 9.93211 13.4492 9.65167 13.5589C9.37123 13.6686 8.88804 13.9268 8.57791 14.1327C8.26768 14.3386 7.7285 14.8152 7.37977 15.192C7.01475 15.5863 6.59025 16.1869 6.37939 16.6075C6.17804 17.0094 5.93759 17.6306 5.84521 17.988C5.74623 18.3708 5.67635 19.0283 5.67525 19.5877C5.67415 20.1914 5.73764 20.7708 5.84971 21.1777C5.94659 21.5299 6.12035 22.0248 6.23583 22.2775C6.3512 22.5302 6.63984 23.0138 6.87708 23.3523C7.11443 23.6907 7.56293 24.1942 7.87376 24.4713C8.18459 24.7483 8.80406 25.1588 9.25026 25.3832C9.69646 25.6078 10.3765 25.857 10.7614 25.9372C11.1463 26.0173 11.7762 26.0828 12.1611 26.0828C12.546 26.0828 13.1759 26.0169 13.5608 25.9364C13.9457 25.8558 14.6392 25.6034 15.1018 25.3753C15.7389 25.0612 16.1292 24.7758 16.7109 24.1988C17.1641 23.7492 17.6251 23.1704 17.8356 22.787C18.0316 22.4296 18.2882 21.8222 18.4056 21.4373C18.5231 21.0524 18.645 20.4 18.6765 19.9876C18.7142 19.4929 18.6793 18.9485 18.5739 18.388C18.4727 17.8497 18.2684 17.2449 18.0165 16.7383C17.7978 16.2984 17.4496 15.7341 17.2428 15.4845C17.036 15.2348 16.6294 14.8298 16.3393 14.5847C16.0492 14.3395 15.4905 13.9724 15.0978 13.769C14.7051 13.5654 14.0773 13.3293 13.7026 13.2441C13.3268 13.1586 12.6045 13.0929 12.0914 13.0976C11.5798 13.1023 10.9364 13.1631 10.6614 13.2329ZM45.32 13.2923C44.9165 13.3981 44.2658 13.6542 43.8742 13.8617C43.4334 14.0952 42.8937 14.5055 42.4577 14.9387C42.0703 15.3236 41.5835 15.931 41.3759 16.2884C41.1682 16.6458 40.8986 17.2532 40.7766 17.6381C40.594 18.2142 40.5552 18.5677 40.5572 19.6377C40.5594 20.7898 40.5898 21.0207 40.8252 21.6707C40.9711 22.074 41.24 22.6521 41.4225 22.9553C41.6052 23.2586 42.0285 23.7884 42.3633 24.1326C42.6982 24.4768 43.283 24.9411 43.6631 25.1644C44.0431 25.3876 44.6689 25.6687 45.0538 25.789C45.4667 25.918 46.145 26.0289 46.7077 26.0594C47.4708 26.1006 47.8272 26.0692 48.4884 25.902C48.9431 25.787 49.5998 25.5527 49.948 25.3813C50.2961 25.2099 50.8559 24.8373 51.1921 24.5532C51.5282 24.2692 51.9857 23.7893 52.2088 23.4868C52.4319 23.1844 52.7454 22.663 52.9056 22.3283C53.0658 21.9935 53.2648 21.4311 53.3479 21.0786C53.431 20.7259 53.4997 20.051 53.5005 19.5787C53.5014 19.0521 53.4272 18.4272 53.3085 17.9636C53.2021 17.5477 53.0045 16.9894 52.8693 16.7229C52.7341 16.4565 52.4176 15.959 52.166 15.6174C51.9143 15.2758 51.4484 14.7895 51.1305 14.5364C50.8127 14.2835 50.2892 13.9412 49.9672 13.776C49.645 13.6106 49.0418 13.3885 48.6265 13.2823C48.1382 13.1574 47.55 13.091 46.9624 13.0946C46.404 13.098 45.7708 13.1742 45.32 13.2923ZM28.0317 19.7888C27.6326 19.8934 27.0987 20.0707 26.8454 20.1828C26.592 20.2948 26.0969 20.592 25.7451 20.843C25.3933 21.094 24.8844 21.5651 24.6142 21.8899C24.3438 22.2146 23.9627 22.808 23.7672 23.2085C23.5716 23.609 23.3434 24.2049 23.2602 24.5326C23.1755 24.8658 23.1087 25.5624 23.1087 26.1129C23.1087 26.6544 23.1586 27.3086 23.2195 27.5666C23.2804 27.8247 23.5312 28.4568 23.7768 28.9714C24.1378 29.7274 24.3706 30.056 24.9908 30.6832C25.6259 31.3257 25.9217 31.5376 26.7079 31.9138C27.2303 32.1636 27.8961 32.4167 28.1875 32.4764C28.4789 32.536 29.1128 32.5848 29.5962 32.5848C30.1441 32.5848 30.7658 32.5104 31.2473 32.3874C31.672 32.2787 32.2833 32.0492 32.6057 31.8774C32.9281 31.7055 33.4819 31.3258 33.8362 31.0335C34.2176 30.7188 34.6883 30.1913 34.99 29.7403C35.3009 29.2754 35.6024 28.6584 35.7636 28.1573C35.9349 27.625 36.0448 27.0193 36.0763 26.4362C36.109 25.8285 36.0736 25.2929 35.9673 24.7865C35.8806 24.3741 35.622 23.6543 35.3926 23.1869C35.0656 22.5204 34.8008 22.1624 34.166 21.5276C33.531 20.8926 33.1732 20.6281 32.5066 20.301C32.0392 20.0717 31.3419 19.8181 30.957 19.7376C30.572 19.6571 29.9197 19.5929 29.5073 19.5949C29.0949 19.597 28.4309 19.6843 28.0317 19.7888ZM10.7614 27.2577C10.5965 27.2807 10.1016 27.3899 9.66167 27.5004C9.22177 27.611 8.49663 27.8722 8.05012 28.0809C7.60372 28.2897 6.95137 28.6542 6.60044 28.8909C6.24962 29.1277 5.58007 29.711 5.11267 30.187C4.60419 30.705 4.076 31.3705 3.79756 31.8438C3.54172 32.2788 3.21799 32.9175 3.07832 33.2631C2.93865 33.6087 2.7228 34.2835 2.59863 34.7627C2.39157 35.5624 2.37258 35.862 2.36808 38.4L2.36328 41.166L2.61323 41.4389C2.7507 41.589 3.23629 41.8884 3.69239 42.1041C4.14849 42.3199 4.94801 42.6046 5.46919 42.7368C5.99038 42.8689 6.8095 43.0437 7.28939 43.1251C7.76929 43.2066 8.81436 43.3262 9.61168 43.391C10.5353 43.4662 11.8233 43.4847 13.1609 43.442C14.3156 43.4052 15.7778 43.298 16.4102 43.2038L17.5599 43.0325L17.6281 42.6826C17.6656 42.4901 17.7456 41.9952 17.8059 41.5828C17.8662 41.1704 18.031 40.4506 18.1723 39.9832C18.3137 39.5158 18.6206 38.7471 18.8544 38.2752C19.0883 37.8031 19.4733 37.1317 19.7099 36.7832C19.9466 36.4347 20.4784 35.7956 20.8917 35.363L21.643 34.5765L21.4639 34.0056C21.3654 33.6916 21.1045 33.0685 20.8843 32.621C20.6639 32.1736 20.2669 31.5181 20.002 31.1642C19.737 30.8104 19.187 30.2043 18.7796 29.8173C18.3721 29.4303 17.6664 28.8845 17.2113 28.6044C16.7561 28.3244 16.004 27.9577 15.5398 27.7898C15.0756 27.6218 14.3108 27.4173 13.8402 27.3352C13.3697 27.2532 12.5519 27.1927 12.023 27.201C11.4942 27.2092 10.9264 27.2347 10.7614 27.2577ZM45.4515 27.2787C45.1752 27.3226 44.6803 27.4364 44.3517 27.5314C44.023 27.6265 43.4497 27.8335 43.0775 27.9913C42.7054 28.1492 42.0755 28.4888 41.6778 28.746C41.2802 29.0032 40.6246 29.5335 40.2211 29.9245C39.8177 30.3154 39.295 30.9052 39.0598 31.2351C38.8245 31.565 38.4744 32.1499 38.2817 32.5348C38.089 32.9197 37.8296 33.5156 37.7053 33.859L37.4791 34.4834L38.1727 35.2135C38.5542 35.6151 39.0705 36.234 39.3199 36.5887C39.5694 36.9436 39.9141 37.4841 40.0858 37.7901C40.2577 38.096 40.5525 38.7484 40.7411 39.2397C40.9297 39.7311 41.1592 40.4755 41.2512 40.8939C41.3432 41.3123 41.449 41.9633 41.4865 42.3407L41.5546 43.0267L42.2545 43.1435C42.6394 43.2078 43.6292 43.317 44.454 43.3862C45.4327 43.4684 46.6656 43.49 48.0032 43.4485C49.2191 43.4107 50.6017 43.3021 51.4024 43.1818C52.1448 43.0701 53.1738 42.8667 53.6889 42.7299C54.2042 42.5929 54.9915 42.3079 55.4385 42.0964C55.8857 41.8849 56.3638 41.5891 56.5013 41.4392L56.7513 41.1664L56.7508 38.5002C56.7503 36.3021 56.7183 35.6849 56.5683 34.9843C56.4683 34.5169 56.2524 33.797 56.0885 33.3846C55.9246 32.9722 55.6135 32.3405 55.3972 31.9806C55.1808 31.6209 54.7533 31.0229 54.4471 30.6517C54.1409 30.2805 53.5219 29.6833 53.0714 29.3244C52.6189 28.964 51.8048 28.4536 51.2525 28.1841C50.7026 27.9156 49.8703 27.5977 49.4029 27.4775C48.7956 27.3215 48.1822 27.2505 47.2534 27.2289C46.5385 27.2123 45.7276 27.2347 45.4515 27.2787ZM28.8574 33.7485C28.6925 33.7671 28.2426 33.8334 27.8576 33.896C27.4727 33.9586 26.7756 34.1443 26.3084 34.3086C25.8412 34.4729 25.1214 34.8023 24.7087 35.0406C24.2961 35.2788 23.6529 35.7261 23.2794 36.0347C22.9058 36.3431 22.3102 36.9622 21.9556 37.4106C21.601 37.859 21.1082 38.6326 20.8606 39.1296C20.6129 39.6266 20.2897 40.4381 20.1423 40.933C19.8839 41.8001 19.8727 41.9384 19.833 44.7389L19.7918 47.6452L20.0639 47.9685C20.2135 48.1464 20.5887 48.4192 20.8975 48.5748C21.2064 48.7304 21.8252 48.9732 22.2727 49.1143C22.7203 49.2553 23.5751 49.4619 24.1723 49.5733C24.7695 49.6846 25.7306 49.8256 26.308 49.8865C26.8854 49.9474 28.37 49.9985 29.6073 50C30.8445 50.0015 32.3292 49.9496 32.9065 49.8847C33.4839 49.8197 34.3387 49.7001 34.8061 49.619C35.2735 49.5378 36.0158 49.366 36.4557 49.2371C36.8956 49.1084 37.4914 48.9089 37.7796 48.7939C38.0678 48.679 38.4874 48.4689 38.712 48.327C38.9643 48.1679 39.1792 47.9285 39.2741 47.7014C39.4041 47.3904 39.4196 46.9315 39.3747 44.7331C39.3375 42.9131 39.2756 41.9376 39.1684 41.4828C39.0842 41.1254 38.9293 40.5855 38.8242 40.2831C38.7191 39.9807 38.4745 39.4183 38.2805 39.0334C38.0867 38.6484 37.7249 38.0635 37.4765 37.7337C37.2282 37.4037 36.717 36.8383 36.3405 36.4771C35.964 36.1159 35.369 35.6266 35.0183 35.3899C34.6675 35.1531 34.0555 34.8092 33.6581 34.6256C33.2607 34.442 32.6028 34.2018 32.1962 34.0918C31.7896 33.9817 31.0756 33.8451 30.6096 33.7882C30.1437 33.7312 29.6264 33.6913 29.4599 33.6996C29.2935 33.7078 29.0224 33.7298 28.8574 33.7485Z" fill="#2A8981"/>
</svg>
