<svg width="55" height="58" viewBox="0 0 55 58" fill="none" xmlns="http://www.w3.org/2000/svg">
<circle cx="10.5566" cy="10" r="10" fill="#FDE047"/>
<path fill-rule="evenodd" clip-rule="evenodd" d="M26.4076 3.05539C25.9806 3.10908 25.1924 3.28046 24.6563 3.4362C24.1201 3.59194 23.3214 3.90042 22.8815 4.12183C22.4415 4.34324 21.782 4.72604 21.416 4.97241C21.0499 5.21878 20.3722 5.79848 19.91 6.2607C19.4478 6.72293 18.855 7.41966 18.5927 7.8089C18.3302 8.19825 17.9207 8.9328 17.6823 9.44128C17.444 9.94988 17.1422 10.7544 17.0115 11.2293C16.8142 11.9465 16.7726 12.4121 16.7655 13.9785C16.7587 15.4829 16.7995 16.0325 16.967 16.6962C17.0826 17.1537 17.3606 17.9572 17.585 18.4815C17.8093 19.006 18.2348 19.799 18.5307 20.2439C18.8264 20.6888 19.4231 21.4122 19.8566 21.8513C20.2901 22.2905 20.855 22.7889 21.1119 22.9589L21.5789 23.2681L22.4395 22.6443C22.9128 22.3013 23.4111 22.0206 23.5468 22.0206C23.7188 22.0206 23.9364 22.2141 24.2642 22.6584C24.523 23.0093 24.7461 23.3139 24.7599 23.3354C24.7737 23.3569 25.1063 23.2676 25.4991 23.1369L26.2133 22.8993L26.2194 22.0482C26.2244 21.3683 26.2649 21.1684 26.421 21.0542C26.5499 20.9599 26.9982 20.9114 27.7387 20.9114C28.5318 20.9114 28.9242 20.9575 29.0764 21.0685C29.2472 21.1933 29.3031 21.4032 29.3472 22.0858L29.4026 22.9461L30.0474 23.1605C30.4019 23.2784 30.7061 23.3572 30.7231 23.3355C30.7402 23.3139 30.9632 23.0093 31.2188 22.6584C31.5466 22.2086 31.7571 22.0206 31.9333 22.0206C32.0705 22.0206 32.57 22.2998 33.0431 22.641C33.5163 22.9822 33.9639 23.2365 34.0379 23.2061C34.1119 23.1757 34.5017 22.8768 34.904 22.542C35.3063 22.2072 35.9558 21.5329 36.3472 21.0436C36.7388 20.5543 37.2654 19.7628 37.5176 19.2847C37.7697 18.8066 38.1009 18.0385 38.2534 17.5777C38.406 17.117 38.5924 16.3581 38.6677 15.8913C38.7543 15.3545 38.7831 14.4803 38.7459 13.5123C38.7039 12.4134 38.6193 11.7472 38.4464 11.1499C38.3138 10.6923 38.0157 9.91272 37.7836 9.41732C37.5517 8.92204 37.1472 8.19825 36.8848 7.8089C36.6224 7.41966 36.0297 6.72293 35.5674 6.2607C35.1052 5.79848 34.4129 5.20857 34.0289 4.94989C33.6449 4.6911 32.9211 4.28312 32.4205 4.0433C31.9199 3.80336 31.036 3.48711 30.4564 3.34047C29.8768 3.19383 28.9034 3.04774 28.2934 3.01579C27.6833 2.98395 26.8347 3.00181 26.4076 3.05539ZM29.1067 9.10917C29.4254 9.26801 29.8137 9.5653 29.9697 9.76973C30.1256 9.97428 30.324 10.3764 30.4103 10.6634C30.4967 10.9503 30.5673 11.302 30.5673 11.4448C30.5673 11.6906 30.5286 11.7045 29.8429 11.7045C29.36 11.7045 29.1041 11.6582 29.0756 11.5658C29.0521 11.4896 29.0017 11.2856 28.9637 11.1126C28.9256 10.9396 28.7739 10.6776 28.6267 10.5302C28.4071 10.3106 28.2467 10.2625 27.7353 10.2625C27.1939 10.2625 27.0688 10.3053 26.7873 10.5867C26.539 10.8351 26.4631 11.013 26.4631 11.3468C26.4631 11.6171 26.5595 11.9258 26.7169 12.1595C26.8708 12.3882 27.4568 12.8416 28.2075 13.3129C28.8878 13.74 29.6035 14.2392 29.7981 14.4222C29.9925 14.6052 30.2697 15.0045 30.4139 15.3096C30.6022 15.7079 30.6764 16.0606 30.6772 16.5611C30.6778 16.9443 30.6008 17.4435 30.5062 17.6703C30.4116 17.8972 30.1745 18.2494 29.9793 18.453C29.7842 18.6566 29.4248 18.9261 29.1808 19.0519C28.9204 19.1861 28.4337 19.3025 28.0032 19.3334C27.4837 19.3707 27.0999 19.3299 26.6897 19.1936C26.3709 19.0877 25.932 18.8447 25.7143 18.6537C25.4967 18.4626 25.2023 18.0562 25.06 17.7507C24.9178 17.4452 24.8009 17.0082 24.8003 16.7794L24.7992 16.3634H25.5007H26.2021L26.3604 16.8882C26.4752 17.2692 26.6248 17.4845 26.9068 17.6745C27.2245 17.8886 27.4005 17.9277 27.8757 17.8895C28.2379 17.8604 28.5462 17.7628 28.6952 17.6301C28.8266 17.513 29.0048 17.2498 29.0915 17.0451C29.1887 16.8152 29.2199 16.54 29.1732 16.3241C29.1317 16.1322 28.9963 15.8317 28.8724 15.6565C28.7485 15.4812 28.218 15.0633 27.6937 14.7278C27.1695 14.3923 26.4863 13.9244 26.1758 13.6879C25.8383 13.4308 25.4819 13.0234 25.2899 12.6753C25.0269 12.1985 24.9691 11.962 24.9712 11.3717C24.973 10.855 25.0403 10.5249 25.2085 10.207C25.3375 9.96297 25.5604 9.65404 25.7036 9.52059C25.8468 9.38715 26.1885 9.17606 26.4631 9.0516C26.8116 8.89364 27.1984 8.82453 27.7447 8.82287C28.3685 8.82087 28.6447 8.879 29.1067 9.10917ZM9.60234 19.1847C9.20578 19.2678 8.56241 19.4435 8.17262 19.5752C7.78283 19.707 7.12814 19.9839 6.71783 20.1906C6.30751 20.3972 5.57707 20.8637 5.09465 21.2273C4.61212 21.5908 3.99205 22.1302 3.71673 22.4258C3.4413 22.7216 2.97962 23.2957 2.69077 23.7018C2.40192 24.108 1.97009 24.8576 1.73105 25.3678C1.49189 25.8779 1.18096 26.6937 1.04009 27.1807C0.812024 27.9682 0.784404 28.2928 0.789618 30.1182C0.795164 32.0247 0.816793 32.2395 1.09544 33.1451C1.26039 33.6814 1.57641 34.48 1.79782 34.92C2.01923 35.36 2.40204 36.0195 2.6484 36.3855C2.89477 36.7516 3.47447 37.4292 3.9367 37.8914C4.39892 38.3537 5.07657 38.9334 5.44262 39.1797C5.80868 39.4261 6.46814 39.8089 6.90818 40.0303C7.34811 40.2517 8.12936 40.5549 8.64428 40.7041C9.1592 40.8533 10.0754 41.0299 10.6805 41.0964C11.4619 41.1824 12.0838 41.1836 12.8268 41.1006C13.4022 41.0363 14.2465 40.882 14.7029 40.7578C15.1594 40.6335 15.9418 40.3402 16.4415 40.106C16.9412 39.8718 17.5911 39.5172 17.8855 39.3179C18.18 39.1188 18.7298 38.688 19.1074 38.3607C19.4848 38.0333 20.0527 37.4401 20.3691 37.0423C20.6856 36.6445 21.1629 35.9359 21.4298 35.4676C21.6967 34.9993 21.9133 34.565 21.9111 34.5024C21.9089 34.44 21.7943 34.2511 21.6564 34.0826L21.4057 33.7763L20.5959 34.0198C20.0126 34.1952 19.736 34.2317 19.6071 34.1504C19.5086 34.0882 19.2601 33.4981 19.0548 32.8389C18.7121 31.7382 18.6962 31.6257 18.8597 31.4616C18.9577 31.3633 19.3483 31.1789 19.7278 31.0516L20.4176 30.8204V30.0693V29.3183L19.6605 29.0804C19.2405 28.9485 18.8542 28.7544 18.793 28.6443C18.7109 28.4969 18.7859 28.1362 19.0862 27.2351C19.3827 26.3453 19.5472 26.006 19.7065 25.9554C19.8257 25.9175 20.2557 25.9972 20.662 26.1323L21.4006 26.3782L21.6573 26.0574C21.7985 25.8809 21.9142 25.6834 21.9146 25.6183C21.9149 25.5532 21.6573 25.0674 21.3422 24.5388C21.027 24.0102 20.5004 23.2538 20.1718 22.8579C19.8431 22.462 19.1685 21.8133 18.6724 21.4165C18.1765 21.0196 17.3179 20.4693 16.7647 20.1937C16.2114 19.9179 15.3095 19.5606 14.7604 19.3997C13.9115 19.1508 13.5047 19.1016 12.0427 19.0704C10.8858 19.0457 10.0875 19.0831 9.60234 19.1847ZM41.5615 19.1906C41.1718 19.2786 40.5978 19.434 40.2859 19.5359C39.974 19.6377 39.4013 19.8634 39.0132 20.0375C38.6253 20.2114 38.0014 20.5624 37.6267 20.8174C37.2521 21.0723 36.7026 21.4848 36.4058 21.734C36.1089 21.9831 35.5741 22.5496 35.2173 22.9929C34.8605 23.436 34.372 24.1349 34.1316 24.5458C33.8913 24.9567 33.6672 25.3928 33.6336 25.5148C33.5954 25.6532 33.6698 25.8563 33.8318 26.055L34.0911 26.3735L34.8227 26.13C35.225 25.9961 35.6497 25.9169 35.7665 25.9539C35.8833 25.991 36.0303 26.1569 36.0932 26.3226C36.1561 26.4884 36.3395 27.0331 36.5005 27.5332C36.7135 28.1945 36.7638 28.4977 36.6848 28.6453C36.622 28.7626 36.2424 28.9558 35.7854 29.103L34.9946 29.3577L35.0272 30.0896L35.0598 30.8216L35.8589 31.0875C36.3576 31.2534 36.681 31.4258 36.7192 31.5458C36.7527 31.6515 36.6176 32.2542 36.419 32.8851C36.2175 33.525 35.9744 34.0847 35.8695 34.1509C35.7281 34.2401 35.4912 34.2086 34.9188 34.0242C34.4997 33.8892 34.1268 33.7788 34.0905 33.7788C34.054 33.7788 33.9164 33.953 33.7848 34.1659L33.5456 34.5531L33.9699 35.3425C34.2033 35.7767 34.7191 36.5381 35.116 37.0345C35.513 37.5309 36.2617 38.2785 36.7798 38.6957C37.332 39.1401 38.1813 39.6781 38.8313 39.9952C39.4414 40.2928 40.3149 40.6374 40.7725 40.7611C41.2301 40.8848 42.0939 41.0365 42.6921 41.0982C43.4429 41.1756 44.1085 41.1737 44.8414 41.092C45.4253 41.0269 46.323 40.8519 46.8363 40.7032C47.3494 40.5546 48.1293 40.2522 48.5693 40.0313C49.0093 39.8105 49.6437 39.4489 49.9791 39.2279C50.3147 39.0068 50.9457 38.4877 51.3816 38.0744C51.8174 37.661 52.4226 36.9622 52.7264 36.5214C53.0304 36.0806 53.4597 35.36 53.6806 34.92C53.9015 34.48 54.2053 33.6948 54.3559 33.1751C54.5066 32.6553 54.6782 31.7578 54.7372 31.1805C54.8045 30.5227 54.8064 29.7272 54.7422 29.0492C54.686 28.4543 54.5366 27.5912 54.4105 27.1314C54.2843 26.6715 53.9908 25.8891 53.7582 25.3926C53.5256 24.8962 53.121 24.1716 52.8593 23.7822C52.5977 23.393 52.0035 22.697 51.5391 22.2358C51.0748 21.7746 50.3775 21.1817 49.9898 20.9184C49.602 20.6551 48.8687 20.2447 48.3602 20.0063C47.8516 19.768 47.047 19.4686 46.5722 19.3411C45.9203 19.1659 45.2875 19.0994 43.9894 19.0698C42.766 19.0418 42.0657 19.0766 41.5615 19.1906ZM14.594 25.6812V26.3467H13.5402H12.4864V30.7889V35.2309L11.7377 35.1982L10.9889 35.1653L10.9692 30.7838L10.9493 26.4022L9.95276 26.3705L8.95609 26.3386L8.91871 25.6769L8.88133 25.0152L11.7377 25.0154L14.594 25.0156V25.6812ZM39.9289 25.2097C39.9612 25.3164 40.2354 26.7266 40.5383 28.3434C40.8413 29.9601 41.1537 31.6947 41.2326 32.1981C41.3115 32.7014 41.4055 33.1132 41.4414 33.1132C41.4772 33.1132 41.5694 32.6765 41.6463 32.1426C41.7232 31.6088 42.0447 29.8242 42.361 28.177L42.9359 25.182L43.7399 25.1494C44.1822 25.1315 44.544 25.1565 44.544 25.2048C44.544 25.2533 44.7883 26.5908 45.0868 28.177C45.3854 29.7632 45.7195 31.5602 45.8294 32.1703L46.0293 33.2796L46.121 32.725C46.1714 32.4199 46.4652 30.7976 46.7738 29.1199C47.0825 27.4421 47.3851 25.8324 47.4463 25.5425L47.5574 25.0156H48.3268C49.073 25.0156 49.0943 25.0233 49.0325 25.2694C48.9974 25.409 48.4829 27.6926 47.889 30.3443L46.8092 35.1653L46.1038 35.1988C45.7159 35.2171 45.3521 35.1858 45.2953 35.1291C45.2386 35.0724 44.946 33.9092 44.6452 32.5444C44.3443 31.1794 44.0113 29.4637 43.9052 28.7316C43.7899 27.9371 43.6993 27.557 43.6802 27.7888C43.6628 28.0023 43.5744 28.6262 43.4838 29.1753C43.3931 29.7244 43.0923 31.2219 42.8153 32.5031C42.5383 33.7843 42.2865 34.92 42.2557 35.0267C42.2093 35.1873 42.068 35.2208 41.4381 35.2208C40.8085 35.2208 40.6667 35.1872 40.6197 35.0267C40.5884 34.92 40.0847 32.6861 39.5003 30.0627C38.9161 27.4393 38.4157 25.2306 38.3885 25.1543C38.3521 25.052 38.5398 25.0156 39.1046 25.0156C39.7374 25.0156 39.8803 25.0493 39.9289 25.2097ZM26.7167 26.3896C26.4595 26.4738 26.0297 26.6715 25.7612 26.8288C25.4929 26.986 25.1093 27.3016 24.9088 27.5299C24.7083 27.7582 24.4219 28.2123 24.2724 28.5389C24.1229 28.8656 23.9745 29.4206 23.9425 29.7722C23.9038 30.199 23.9467 30.6251 24.0715 31.0545C24.1743 31.4082 24.373 31.879 24.5131 32.1009C24.6531 32.3228 24.9784 32.6948 25.2361 32.9275C25.4937 33.1601 25.9375 33.4572 26.2224 33.5874C26.6259 33.7719 26.9611 33.8252 27.7387 33.8283C28.6082 33.8318 28.8177 33.7928 29.3611 33.5266C29.7044 33.3586 30.2177 32.9725 30.5017 32.6689C30.7858 32.3653 31.1247 31.8793 31.255 31.589C31.4332 31.1917 31.4942 30.8277 31.5011 30.1182C31.509 29.3016 31.4674 29.0825 31.1902 28.4824C31.0001 28.0707 30.6702 27.6051 30.3776 27.3354C30.1068 27.0857 29.6164 26.7584 29.2879 26.6081C28.9098 26.4349 28.4142 26.3165 27.9373 26.2855C27.4664 26.2548 27.0088 26.2938 26.7167 26.3896ZM24.3393 37.3925C24.0849 37.7293 23.7903 38.0512 23.6844 38.1079C23.5428 38.1836 23.3785 38.1346 23.064 37.9227C22.8287 37.7643 22.3972 37.4604 22.1052 37.2473L21.5745 36.8599L21.1141 37.1774C20.861 37.3519 20.3088 37.8442 19.8872 38.2712C19.4655 38.6983 18.8517 39.4513 18.5232 39.9443C18.1947 40.4375 17.7983 41.1295 17.6425 41.482C17.4866 41.8345 17.2261 42.5541 17.0634 43.0811C16.7895 43.9693 16.7679 44.1854 16.7689 46.0361C16.7698 47.7396 16.8054 48.1631 17.0116 48.9201C17.1445 49.4082 17.4995 50.3067 17.8004 50.9168C18.1013 51.5269 18.5936 52.3505 18.8944 52.7471C19.1951 53.1436 19.7827 53.7871 20.1999 54.1771C20.6172 54.5672 21.3051 55.1104 21.7287 55.3843C22.1522 55.6583 22.8853 56.05 23.3578 56.2548C23.8304 56.4595 24.6599 56.7364 25.2013 56.8701C25.9909 57.0649 26.5041 57.1123 27.7942 57.1095C29.1555 57.1065 29.5647 57.0629 30.4576 56.8254C31.038 56.6711 31.8454 56.3939 32.2521 56.2095C32.6586 56.0252 33.335 55.652 33.7551 55.3802C34.1752 55.1086 34.8603 54.5672 35.2776 54.1771C35.6948 53.7871 36.2823 53.1436 36.5831 52.7471C36.8839 52.3505 37.3762 51.5269 37.677 50.9168C37.978 50.3067 38.3329 49.4082 38.4658 48.9201C38.672 48.1631 38.7076 47.7396 38.7085 46.0361C38.7095 44.1854 38.688 43.9693 38.414 43.0811C38.2514 42.5541 37.9908 41.8345 37.835 41.482C37.6791 41.1295 37.2719 40.4209 36.9303 39.9073C36.5885 39.3937 35.971 38.639 35.558 38.23C35.1449 37.8211 34.6033 37.3452 34.3542 37.1727L33.9015 36.8589L33.1496 37.4117C32.7359 37.7156 32.2978 38.0141 32.1758 38.075C32.0537 38.1359 31.8911 38.1633 31.8144 38.1358C31.7377 38.1083 31.4503 37.7939 31.1759 37.4373L30.6768 36.7887L30.012 37.0134L29.3472 37.2379V37.9794C29.3472 38.4711 29.2889 38.8041 29.1744 38.9675C29.0134 39.1977 28.918 39.2141 27.746 39.2141C26.8503 39.2141 26.4559 39.1727 26.3705 39.0698C26.3046 38.9904 26.2418 38.5412 26.2308 38.0717L26.2111 37.2179L25.7687 37.0988C25.5253 37.0332 25.2082 36.9347 25.0639 36.8799C24.8302 36.7911 24.751 36.847 24.3393 37.3925ZM28.7829 40.9409C29.1505 41.0501 29.5485 41.2809 29.8527 41.5613C30.1596 41.8442 30.4298 42.2381 30.5896 42.6354C30.8286 43.2295 30.8421 43.4106 30.8433 46.0361C30.8444 48.4135 30.8165 48.8901 30.6468 49.3759C30.5379 49.6876 30.278 50.1423 30.0693 50.3862C29.8492 50.6434 29.4469 50.9342 29.1122 51.0782C28.688 51.2607 28.3227 51.3258 27.7356 51.3235C27.2607 51.3217 26.7639 51.2484 26.5116 51.1429C26.2779 51.0453 25.916 50.835 25.7071 50.6759C25.4773 50.5005 25.1904 50.0969 24.9801 49.6532L24.6328 48.9201L24.6344 46.0915C24.6359 43.4258 24.6502 43.2275 24.8833 42.6483C25.0193 42.3103 25.3266 41.8422 25.5664 41.6081C25.819 41.3613 26.2505 41.0968 26.5932 40.9784C26.9182 40.8661 27.4122 40.7727 27.6908 40.7707C27.9696 40.7687 28.461 40.8453 28.7829 40.9409ZM27.0215 42.3972C26.8101 42.5073 26.5355 42.7721 26.4114 42.9856C26.2012 43.3472 26.1858 43.5599 26.1858 46.0915C26.1858 48.7082 26.195 48.824 26.4326 49.2061C26.5683 49.4244 26.8078 49.6616 26.9647 49.733C27.1216 49.8045 27.47 49.863 27.7387 49.863C28.0075 49.863 28.3558 49.8045 28.5128 49.733C28.6696 49.6616 28.9091 49.4244 29.0449 49.2061C29.2825 48.824 29.2917 48.7082 29.2917 46.0915C29.2917 43.7004 29.2681 43.3307 29.0952 43.0143C28.9872 42.8167 28.7843 42.5798 28.6443 42.4882C28.5043 42.3965 28.1685 42.2934 27.8979 42.2593C27.5436 42.2144 27.2985 42.253 27.0215 42.3972Z" fill="#2A8981"/>
</svg>
