<svg width="60" height="60" viewBox="0 0 60 60" fill="none" xmlns="http://www.w3.org/2000/svg">
<circle cx="10.5566" cy="10" r="10" fill="#FDE047"/>
<path fill-rule="evenodd" clip-rule="evenodd" d="M10.4219 6.44819C10.4148 6.69488 10.1928 8.50987 9.92892 10.4819C9.66502 12.454 9.50439 14.1295 9.57216 14.2055C9.63992 14.2815 10.0634 14.0811 10.5134 13.7598C10.963 13.4389 11.6772 12.9247 12.0996 12.6175C12.8425 12.0775 13.0634 12.2542 18.7328 17.9294C21.9587 21.1582 26.2639 25.1227 28.3001 26.7394C30.3363 28.3558 33.9323 30.9553 36.2905 32.5157C38.649 34.0762 42.3439 36.2558 44.5013 37.3594C46.6588 38.4631 50.5656 40.0852 53.1834 40.9647C55.8012 41.8439 58.306 42.5653 58.7499 42.5678C59.4609 42.5717 59.5563 42.3917 59.5548 41.0486L59.5531 39.5247L56.4175 38.6595C54.6929 38.1837 52.1525 37.3293 50.7721 36.7606C49.3917 36.1923 46.568 34.8277 44.4974 33.7287C42.4268 32.6294 39.5225 30.9159 38.0434 29.9212C36.5644 28.9263 33.7498 26.8882 31.7885 25.3924C29.8272 23.8965 25.9093 20.4307 23.0821 17.6903C20.2549 14.9498 17.432 12.0642 16.8096 11.2783L15.6772 9.84871L17.2653 8.49446L18.8533 7.14056L17.6023 6.93331C16.9139 6.81929 15.0889 6.56257 13.5464 6.36286C12.0035 6.1635 10.6726 6 10.5883 6C10.5037 6 10.4291 6.20187 10.4219 6.44819ZM12.9447 38.5444V59.783H17.0681H21.1914V42.6563V25.5293L17.0681 21.4178L12.9447 17.3063V38.5444ZM25.4941 44.5133V59.783H29.7967H34.0994V47.6764V35.5703L31.3206 33.5441C29.7921 32.4297 27.8562 31.0066 27.0179 30.3809L25.4941 29.2439V44.5133ZM38.402 49.0612V59.783H42.5254H46.6487L46.6415 51.0881L46.6344 42.3932L42.5182 40.3663L38.402 38.339V49.0612ZM50.9514 52.0741V59.783H55.254H59.5566V53.1566V46.5301L58.5706 46.3172C58.0285 46.1999 56.1654 45.713 54.4311 45.2347C52.6968 44.7564 51.2045 44.3652 51.1145 44.3652C51.0249 44.3652 50.9514 47.8342 50.9514 52.0741Z" fill="#2A8981"/>
</svg>
