<svg width="45" height="50" viewBox="0 0 45 50" fill="none" xmlns="http://www.w3.org/2000/svg">
<circle cx="10.5566" cy="11" r="10" fill="#FDE047"/>
<path fill-rule="evenodd" clip-rule="evenodd" d="M26.2863 0.14255C25.9371 0.21757 25.2875 0.458554 24.8428 0.678145C24.2521 0.969729 23.8524 1.25916 23.3592 1.75227C22.8654 2.24615 22.5772 2.64431 22.2856 3.23587C22.0664 3.68062 21.8227 4.35219 21.744 4.72827C21.6653 5.10435 21.6002 5.51101 21.5992 5.63184C21.5977 5.84323 21.5643 5.85163 20.7232 5.85163C20.2423 5.85163 19.616 5.90096 19.3312 5.96133C19.0466 6.02169 18.654 6.15181 18.459 6.25037C18.2639 6.34903 17.9123 6.62215 17.6775 6.85727C17.4427 7.09249 17.1424 7.50091 17.0103 7.76484C16.8173 8.15001 16.762 8.43309 16.7302 9.19727L16.6906 10.1497L14.724 10.1503C13.6048 10.1506 12.5888 10.1969 12.3665 10.2576C12.1143 10.3267 11.8146 10.5307 11.521 10.8334C11.164 11.2012 11.042 11.4146 10.9539 11.8248C10.8709 12.211 10.8493 17.0553 10.8714 30.37L10.9013 48.3925L11.1116 48.7833C11.2272 48.9982 11.4251 49.2702 11.5512 49.3877C11.6773 49.5052 11.9782 49.6911 12.22 49.8007C12.6562 49.9985 12.7707 50 27.5562 50C42.3417 50 42.4562 49.9985 42.8924 49.8007C43.1342 49.6911 43.4352 49.5052 43.5613 49.3877C43.6874 49.2702 43.8852 48.9982 44.0008 48.7833L44.2112 48.3925L44.241 30.37C44.2631 17.0553 44.2415 12.211 44.1585 11.8248C44.0704 11.4146 43.9484 11.2012 43.5914 10.8334C43.2978 10.5307 42.9981 10.3267 42.7459 10.2576C42.5235 10.1969 41.507 10.1506 40.3866 10.1503L38.4179 10.1497L38.3829 9.24611C38.355 8.52277 38.2965 8.23236 38.0901 7.79014C37.9482 7.48625 37.6428 7.05391 37.4113 6.82924C37.1798 6.60457 36.8348 6.34209 36.6446 6.24588C36.4544 6.14976 36.0659 6.02169 35.7812 5.96133C35.4965 5.90096 34.8701 5.85163 34.3892 5.85163C33.5481 5.85163 33.5148 5.84323 33.5132 5.63184C33.5122 5.51101 33.4471 5.10435 33.3684 4.72827C33.2897 4.35219 33.046 3.68062 32.8268 3.23597C32.5301 2.63405 32.2523 2.25318 31.7397 1.74562C31.2429 1.25369 30.8299 0.954783 30.2561 0.672089C29.8188 0.456503 29.1533 0.215812 28.7772 0.13708C28.4012 0.0584449 27.8297 -0.00319305 27.5074 0.000128168C27.185 0.00344939 26.6356 0.0675294 26.2863 0.14255ZM28.5586 3.31158C28.8575 3.42343 29.2538 3.67887 29.4877 3.91028C29.712 4.13231 29.9817 4.4951 30.0871 4.71655C30.1925 4.9379 30.3084 5.28389 30.3448 5.48532L30.4108 5.85163H27.5562H24.7016L24.7677 5.48532C24.804 5.28389 24.9199 4.9379 25.0253 4.71655C25.1307 4.4951 25.4006 4.13221 25.625 3.91008C25.8494 3.68785 26.2549 3.42069 26.526 3.31637C26.7971 3.21204 27.2481 3.12442 27.5281 3.12159C27.8102 3.11875 28.2699 3.20354 28.5586 3.31158ZM16.7134 14.0082V15.2292H27.5562H38.399V14.0082V12.7871H39.9619H41.5249V30.077V47.3669H27.5562H13.5876V30.077V12.7871H15.1505H16.7134V14.0082ZM24.33 17.8312C24.1972 17.9191 23.2694 18.8037 22.2682 19.7969L20.448 21.6028L19.6 20.9557C18.8972 20.4195 18.6882 20.3087 18.3795 20.3087C18.0447 20.3087 17.9414 20.3782 17.3602 20.9943C17.0037 21.3722 16.7065 21.7778 16.698 21.8979C16.6894 22.0178 16.6906 22.2021 16.7005 22.3076C16.7104 22.4131 16.8163 22.6035 16.9357 22.7306C17.0552 22.8578 17.7244 23.4132 18.4229 23.9647C19.1213 24.5161 19.7977 25.0229 19.9262 25.0909C20.0678 25.1658 20.3794 25.1984 20.7182 25.174C21.1601 25.1419 21.3562 25.0702 21.6569 24.8303C21.8661 24.6635 23.0526 23.501 24.2939 22.2469C26.2024 20.3187 26.5609 19.9111 26.6173 19.6057C26.6599 19.3748 26.6349 19.128 26.548 18.9219C26.4732 18.7444 26.1878 18.3905 25.9138 18.1353C25.4789 17.7302 25.362 17.6713 24.9935 17.6713C24.7614 17.6713 24.4628 17.7433 24.33 17.8312ZM29.7109 20.0376C29.4723 20.1598 29.1426 20.4288 28.9783 20.6353C28.7065 20.9767 28.6796 21.0752 28.6796 21.7251C28.6796 22.375 28.7065 22.4735 28.9783 22.8149C29.1426 23.0215 29.4723 23.2904 29.7109 23.4126C30.1447 23.6348 30.1459 23.6349 34.256 23.6079L38.3672 23.5811L38.7565 23.3111C38.9708 23.1626 39.2449 22.8654 39.3656 22.6505C39.5189 22.3776 39.5852 22.0984 39.5852 21.7251C39.5852 21.3518 39.5189 21.0726 39.3656 20.7997C39.2449 20.5848 38.9708 20.2876 38.7565 20.1391L38.3672 19.8691L34.256 19.8423C30.1459 19.8153 30.1447 19.8154 29.7109 20.0376ZM24.6257 26.6316C24.4738 26.6604 23.6409 27.4129 22.4211 28.6234L20.4607 30.5687L19.6497 29.935C19.2035 29.5863 18.7553 29.2747 18.6536 29.2424C18.5519 29.2101 18.325 29.2311 18.1495 29.289C17.9633 29.3505 17.6162 29.6376 17.3161 29.9786C17.0332 30.2999 16.7582 30.6879 16.7049 30.8408C16.6409 31.0245 16.6409 31.205 16.705 31.3736C16.7618 31.5228 17.3871 32.0937 18.2125 32.7497C18.9883 33.3664 19.7575 33.9403 19.9217 34.0252C20.0859 34.1102 20.3777 34.1797 20.5701 34.1797C20.7626 34.1797 21.0615 34.1184 21.2344 34.0437C21.4073 33.9689 22.6761 32.771 24.054 31.3818C25.976 29.444 26.5746 28.7826 26.6254 28.5406C26.6618 28.3672 26.6612 28.1255 26.6241 28.0034C26.5871 27.8814 26.4506 27.6398 26.321 27.4668C26.1914 27.2937 25.9438 27.0458 25.7707 26.9158C25.5977 26.7859 25.3242 26.6583 25.163 26.6324C25.0018 26.6065 24.76 26.6061 24.6257 26.6316ZM30.1588 28.8145C29.9516 28.8648 29.6539 28.9818 29.4972 29.0744C29.3406 29.1669 29.097 29.4091 28.9559 29.6127C28.7965 29.8427 28.6821 30.1627 28.6537 30.458C28.6286 30.7194 28.6596 31.0896 28.7226 31.2805C28.7857 31.4715 28.9301 31.7459 29.0437 31.8903C29.1573 32.0346 29.4735 32.2568 29.7464 32.3839C30.2412 32.6143 30.252 32.6148 34.0521 32.6153C36.4737 32.6155 37.9997 32.5774 38.2405 32.5105C38.4487 32.4526 38.7933 32.2429 39.0061 32.0443C39.2855 31.7837 39.4293 31.5442 39.523 31.1832C39.6169 30.8209 39.6264 30.5666 39.5575 30.2599C39.5053 30.0272 39.3525 29.6925 39.2181 29.5164C39.0838 29.3402 38.7896 29.0975 38.5643 28.9772C38.162 28.7622 38.0874 28.758 34.3452 28.7406C32.2382 28.7308 30.3671 28.7638 30.1588 28.8145ZM22.5279 37.2078C21.4488 38.2824 20.5282 39.1615 20.4824 39.1615C20.4365 39.1615 20.0257 38.8758 19.5697 38.5266C18.9019 38.0154 18.6715 37.8916 18.3874 37.8916C18.0788 37.8916 17.9535 37.976 17.3873 38.565C17.0082 38.9595 16.7177 39.3539 16.686 39.5175C16.6556 39.6737 16.6944 39.9253 16.7742 40.0895C16.8573 40.2604 17.5098 40.8475 18.341 41.4988C19.1716 42.1497 19.9382 42.6719 20.18 42.7515C20.5123 42.8609 20.6796 42.8653 21.0228 42.7735C21.3954 42.674 21.771 42.3409 23.9146 40.2092C25.2696 38.8619 26.4495 37.6091 26.5367 37.4254C26.6457 37.1956 26.6743 36.9797 26.6284 36.7344C26.5806 36.4794 26.4012 36.2172 26 35.8159C25.4706 35.2863 25.4113 35.2542 24.9643 35.2542H24.49L22.5279 37.2078ZM29.7501 37.5868C29.5329 37.6854 29.24 37.9031 29.0991 38.0706C28.9582 38.2381 28.79 38.5352 28.7255 38.7308C28.6609 38.9265 28.6289 39.3029 28.6543 39.5675C28.6871 39.9094 28.7849 40.1531 28.9923 40.4108C29.1528 40.6101 29.4559 40.8722 29.6657 40.9931C30.0469 41.2128 30.0494 41.2129 34.2059 41.1885L38.3647 41.164L38.7707 40.8953C38.9939 40.7475 39.2613 40.4606 39.3647 40.2578C39.4682 40.055 39.5636 39.7583 39.5768 39.5985C39.5899 39.4387 39.5941 39.174 39.586 39.0101C39.5779 38.8463 39.4506 38.5262 39.3032 38.2988C39.127 38.0272 38.8691 37.8025 38.5513 37.6443L38.0676 37.4032L34.1062 37.4054C30.4742 37.4073 30.112 37.4225 29.7501 37.5868Z" fill="#2A8981"/>
</svg>
