<svg width="45" height="53" viewBox="0 0 45 53" fill="none" xmlns="http://www.w3.org/2000/svg">
<circle cx="10.5566" cy="10" r="10" fill="#FDE047"/>
<path fill-rule="evenodd" clip-rule="evenodd" d="M22.4063 4.62436C21.4991 5.5178 20.6194 6.35201 20.4513 6.47818C20.2831 6.60434 20.0194 6.70763 19.865 6.70763C19.6649 6.70763 19.4182 6.53919 19.0054 6.12076C18.5689 5.67839 18.3625 5.54153 18.167 5.56462C17.9379 5.59174 17.802 5.84153 16.9975 7.71398C16.4968 8.87924 16.0053 9.98612 15.9051 10.1737C15.8049 10.3614 15.6341 10.5624 15.5256 10.6204C15.4085 10.6832 15.2035 10.6901 15.0205 10.6377C14.8513 10.5892 14.5133 10.4478 14.2697 10.3234C14.026 10.1992 13.756 10.0975 13.6697 10.0975C13.5832 10.0975 13.4383 10.2034 13.3477 10.3329C13.211 10.528 13.1823 10.9591 13.1802 12.8488C13.1788 14.1031 13.1353 15.3118 13.0836 15.5349C13.0318 15.7579 12.9576 15.9725 12.9188 16.0115C12.88 16.0506 12.416 16.1065 11.8877 16.1356C11.1375 16.177 10.9023 16.228 10.8141 16.3687C10.725 16.5107 10.8837 17.0059 11.5609 18.6993C12.0339 19.8819 12.4826 21.0585 12.5579 21.3138C12.6907 21.7632 12.6859 21.7856 12.4097 22.0232C12.2529 22.1581 11.8586 22.3523 11.5335 22.4548C11.2082 22.5573 10.8947 22.7299 10.8367 22.8382C10.7611 22.9797 10.7745 23.1008 10.884 23.2666C10.968 23.3939 11.7784 24.2692 12.6846 25.2118C13.591 26.1544 14.3837 27.0213 14.4462 27.1381C14.5197 27.2754 14.5254 27.4412 14.4623 27.6071C14.4087 27.7482 14.1227 28.0929 13.8267 28.3731C13.5308 28.6533 13.2886 28.9689 13.2886 29.0745C13.2886 29.18 13.3961 29.3367 13.5272 29.4227C13.6585 29.5086 14.6238 29.9427 15.6723 30.3873C16.721 30.8319 17.7592 31.2967 17.9795 31.4201C18.1999 31.5435 18.4063 31.749 18.4384 31.8768C18.4733 32.0159 18.3626 32.4148 18.1624 32.8709C17.9785 33.2898 17.8542 33.7007 17.8861 33.784C17.9181 33.8673 18.0678 33.9823 18.2186 34.0397C18.3696 34.0971 19.509 34.1441 20.7505 34.1441C21.9921 34.1441 23.1623 34.1749 23.3509 34.2127C23.608 34.2641 23.7304 34.3685 23.8397 34.6302C23.9328 34.8532 23.962 35.1507 23.9203 35.4544C23.8844 35.716 23.885 36.0493 23.9217 36.1951C23.9584 36.3411 24.0757 36.4882 24.1825 36.522C24.2979 36.5587 25.2756 36.2225 26.5921 35.6933C27.8107 35.2036 28.9665 34.7692 29.1607 34.728C29.446 34.6675 29.5629 34.6994 29.7703 34.8943C29.9115 35.0269 30.1073 35.3898 30.2053 35.7006C30.3033 36.0114 30.4686 36.3429 30.5728 36.4371C30.7433 36.5915 30.7859 36.5925 31.0031 36.4467C31.1357 36.3578 32.0422 35.5207 33.0176 34.5864C33.993 33.6521 34.8849 32.8579 34.9998 32.8215C35.1147 32.7851 35.3177 32.8118 35.4509 32.8808C35.5843 32.9499 35.9107 33.2386 36.1764 33.5222C36.4421 33.806 36.7326 34.0381 36.822 34.0381C36.9114 34.0381 37.0553 33.9547 37.1416 33.8528C37.2279 33.7508 37.7134 32.6857 38.2205 31.4859C38.7275 30.2861 39.2381 29.2016 39.3552 29.076C39.4723 28.9503 39.6735 28.8475 39.8023 28.8476C39.9311 28.8476 40.3381 28.9904 40.7068 29.1647C41.2284 29.4114 41.4221 29.4576 41.5807 29.3728C41.6928 29.3128 41.7921 29.2535 41.8016 29.241C41.811 29.2285 41.8467 27.9924 41.881 26.4942C41.9365 24.0682 41.9641 23.7494 42.1329 23.581C42.2806 23.4338 42.5032 23.3905 43.1393 23.3852C43.5885 23.3815 44.0124 23.3695 44.0813 23.3587C44.1502 23.3479 44.2361 23.246 44.2721 23.1323C44.3139 23.0011 44.0306 22.1605 43.4959 20.8283C43.0328 19.6748 42.5936 18.5278 42.5198 18.2793C42.3946 17.8577 42.4019 17.8105 42.6299 17.5678C42.7643 17.4248 43.1176 17.2286 43.4151 17.1318C43.7126 17.0351 44.0395 16.8831 44.1414 16.7942C44.2433 16.7052 44.3268 16.5609 44.3268 16.4736C44.3268 16.3862 43.5727 15.5476 42.651 14.6097C41.7293 13.6719 40.8681 12.7498 40.7371 12.5605C40.5733 12.3237 40.5216 12.1418 40.5717 11.9779C40.6116 11.8467 40.9074 11.4943 41.2287 11.1946C41.7136 10.7425 41.8021 10.606 41.7485 10.3927C41.6938 10.1747 41.3536 9.99417 39.5058 9.20297C38.3077 8.69004 37.1743 8.16737 36.9872 8.04142C36.7999 7.91557 36.6311 7.70434 36.6121 7.57193C36.593 7.43951 36.7241 7.02701 36.9034 6.6553C37.0826 6.28358 37.2293 5.93464 37.2293 5.87977C37.2293 5.825 37.1507 5.71472 37.0545 5.63475C36.9216 5.52426 36.2557 5.47489 34.2738 5.4286C32.8406 5.39523 31.5854 5.33093 31.4846 5.2857C31.3838 5.24047 31.2589 5.04989 31.207 4.86208C31.1552 4.67436 31.1358 4.28083 31.164 3.98771C31.193 3.68581 31.1624 3.35604 31.0935 3.22733C31.0266 3.10233 30.886 3 30.7811 3C30.6763 3 29.6551 3.3785 28.512 3.84121C27.3688 4.30381 26.2546 4.73178 26.0359 4.79216C25.7255 4.87786 25.5874 4.86875 25.4068 4.75032C25.2773 4.66547 25.0511 4.27373 24.8935 3.86144C24.7386 3.45593 24.5391 3.09619 24.4501 3.06208C24.3611 3.02797 24.2359 3 24.172 3C24.108 3 23.3134 3.73093 22.4063 4.62436ZM30.1319 9.98273C30.6271 10.1106 31.4689 10.4261 32.0026 10.6838C32.5363 10.9414 33.3559 11.4408 33.8239 11.7934C34.292 12.1462 34.9321 12.7311 35.2462 13.0934C35.5604 13.4557 35.962 13.9666 36.1386 14.2288C36.3153 14.491 36.6327 15.0493 36.8438 15.4695C37.0551 15.8896 37.3567 16.6523 37.5141 17.1644C37.7786 18.0248 37.8007 18.2399 37.8061 20.0021C37.8113 21.6849 37.7833 22.0085 37.5688 22.7564C37.435 23.2225 37.1176 24.0328 36.8632 24.5572C36.6089 25.0816 36.1652 25.8204 35.8773 26.1992C35.5894 26.5779 35.0246 27.1976 34.6221 27.5763C34.2196 27.955 33.614 28.448 33.276 28.6718C32.9382 28.8958 32.2654 29.2646 31.7811 29.4916C31.2967 29.7186 30.4771 30.0094 29.9599 30.1377C29.2159 30.3224 28.7099 30.3711 27.5365 30.3711C26.3631 30.3711 25.8572 30.3224 25.1131 30.1377C24.596 30.0094 23.7831 29.7218 23.307 29.4986C22.8307 29.2754 22.1741 28.9221 21.8479 28.7133C21.5215 28.5047 20.9091 28.0085 20.487 27.6108C20.0647 27.2131 19.4837 26.5779 19.1957 26.1992C18.9078 25.8204 18.4644 25.0816 18.2103 24.5572C17.9561 24.0328 17.6457 23.2463 17.5205 22.8093C17.3585 22.2442 17.2766 21.593 17.2367 20.5533C17.2017 19.639 17.2288 18.7933 17.3093 18.2945C17.3801 17.8559 17.5463 17.1789 17.6787 16.7899C17.8111 16.401 18.0756 15.7728 18.2664 15.3941C18.4573 15.0154 18.7579 14.491 18.9345 14.2288C19.1112 13.9666 19.5127 13.4557 19.8269 13.0934C20.141 12.7311 20.781 12.1462 21.2491 11.7934C21.7171 11.4408 22.5367 10.9414 23.0704 10.6838C23.6041 10.4261 24.4221 10.1204 24.8882 10.0046C25.3543 9.88867 25.8787 9.77108 26.0535 9.74333C26.2283 9.71547 27.0148 9.70561 27.8014 9.7215C28.8544 9.74269 29.4688 9.81155 30.1319 9.98273ZM26.486 11.3738C26.1413 11.4275 25.5693 11.5454 25.2148 11.636C24.8605 11.7267 24.18 11.9895 23.7028 12.2202C23.2256 12.451 22.4867 12.9215 22.0609 13.2659C21.6349 13.6102 21.108 14.1076 20.8897 14.3713C20.6715 14.635 20.3043 15.1517 20.0738 15.5196C19.8432 15.8875 19.5288 16.5222 19.3751 16.9301C19.2214 17.3379 19.0285 18.0214 18.9464 18.4489C18.8643 18.8765 18.7974 19.5439 18.798 19.932C18.7984 20.3201 18.8473 20.9374 18.9068 21.3036C18.9662 21.6698 19.1316 22.3372 19.2741 22.7867C19.4167 23.2361 19.7507 23.9742 20.0164 24.4268C20.2822 24.8794 20.8145 25.5837 21.1996 25.9917C21.5845 26.3999 22.2432 26.9637 22.6632 27.2446C23.0832 27.5255 23.7968 27.9093 24.2489 28.0976C24.701 28.2858 25.3874 28.5069 25.774 28.5888C26.1608 28.6708 26.9539 28.7378 27.5365 28.7378C28.1192 28.7378 28.9134 28.6706 29.3016 28.5882C29.6898 28.506 30.4251 28.2592 30.9356 28.0399C31.4461 27.8207 32.2249 27.3722 32.6663 27.0436C33.1076 26.715 33.6618 26.2352 33.8979 25.9771C34.1339 25.7192 34.5313 25.2072 34.7811 24.8393C35.0309 24.4715 35.3517 23.9075 35.4938 23.586C35.636 23.2645 35.8435 22.6603 35.955 22.2433C36.0664 21.8263 36.1889 21.1722 36.227 20.7898C36.2651 20.4075 36.243 19.6556 36.1777 19.1192C36.1126 18.5827 35.9418 17.7722 35.7984 17.3181C35.6549 16.8639 35.2965 16.0903 35.0018 15.5989C34.7072 15.1075 34.1464 14.3807 33.7556 13.9838C33.3647 13.5868 32.7193 13.0442 32.3212 12.7781C31.9231 12.5119 31.2732 12.1578 30.8769 11.9914C30.4807 11.8249 29.8284 11.6197 29.4274 11.5354C29.0264 11.451 28.3415 11.3582 27.9055 11.3291C27.4696 11.3001 26.8308 11.3202 26.486 11.3738ZM33.6791 35.1084C32.9225 35.8717 32.0728 36.6821 31.7908 36.9092C31.37 37.248 31.195 37.322 30.8146 37.322C30.4535 37.322 30.2733 37.2537 29.9986 37.0125C29.7669 36.8091 29.5826 36.5015 29.4607 36.1147L29.2752 35.5265L28.585 35.7862C28.2054 35.9291 27.8549 36.0708 27.806 36.101C27.7572 36.1311 29.7486 39.9458 32.2314 44.5779C34.7143 49.2101 36.7711 52.9994 36.8021 52.9987C36.8331 52.998 37.3086 52.0158 37.8586 50.816C38.4086 49.6163 38.9202 48.611 38.9954 48.5822C39.0706 48.5533 40.192 48.699 41.4874 48.906C42.7826 49.113 43.8552 49.2696 43.8709 49.2539C43.8865 49.2382 42.1525 45.9632 40.0175 41.9761C37.5885 37.4404 35.9734 34.5401 35.7025 34.2283C35.4644 33.9541 35.2213 33.7278 35.1622 33.7251C35.1031 33.7225 34.4357 34.3449 33.6791 35.1084ZM15.0117 42.0555C12.9006 45.9987 11.1862 49.2379 11.202 49.2537C11.2178 49.2695 12.2904 49.113 13.5857 48.906C14.881 48.699 16.0034 48.5536 16.0798 48.5829C16.1561 48.6123 16.6677 49.6181 17.2163 50.8181C17.765 52.0181 18.2395 53 18.2706 53C18.3018 53 20.3219 49.2798 22.7597 44.7328C25.1975 40.1859 27.1743 36.4482 27.1525 36.4268C27.1307 36.4054 26.5906 36.5981 25.9522 36.855C25.2818 37.1248 24.6197 37.322 24.3845 37.322C24.1605 37.322 23.8469 37.2546 23.6875 37.1721C23.5281 37.0897 23.3278 36.8911 23.2426 36.7307C23.1431 36.5439 23.0945 36.184 23.1072 35.7288L23.127 35.0185L22.6422 34.952C22.3755 34.9155 21.4132 34.8857 20.5037 34.8858L18.8501 34.886L15.0117 42.0555Z" fill="#2A8981"/>
</svg>
