<svg width="66" height="61" viewBox="0 0 66 61" fill="none" xmlns="http://www.w3.org/2000/svg">
<circle cx="10.5566" cy="13" r="10" fill="#FDE047"/>
<path fill-rule="evenodd" clip-rule="evenodd" d="M48.6675 3.75606C45.0291 7.39649 44.8793 7.56761 44.8146 8.16272C44.7775 8.50327 44.848 9.40082 44.9709 10.157C45.094 10.9134 45.1947 11.8015 45.1947 12.1307V12.7292L37.637 20.2918C31.1646 26.7683 30.0678 27.9245 29.9999 28.3434C29.9359 28.7376 29.9902 28.9077 30.2796 29.22C30.5301 29.4901 30.7784 29.6074 31.1 29.6074C31.5211 29.6074 32.2277 28.9417 39.1942 21.9832C46.7242 14.4616 46.8345 14.359 47.3874 14.3615C47.6957 14.3629 48.5515 14.4571 49.2892 14.5708C50.0269 14.6844 50.9137 14.7786 51.2599 14.78L51.8894 14.7825L55.7386 10.9427C57.8556 8.83083 59.5737 7.09011 59.5565 7.07444C59.5394 7.05876 58.35 6.87931 56.9134 6.67543C55.4768 6.47156 54.1322 6.23718 53.9253 6.15473C53.7183 6.07213 53.483 5.83536 53.4022 5.62837C53.3213 5.42153 53.089 4.07769 52.8859 2.64207C52.6828 1.20646 52.5024 0.0175011 52.4849 0.000134795C52.4675 -0.0173727 50.7497 1.67281 48.6675 3.75606ZM28.0402 7.07698C27.419 7.1792 26.3389 7.40581 25.64 7.58032C24.9411 7.75497 23.8927 8.08549 23.3103 8.31493C22.7279 8.54422 21.6662 9.03881 20.9508 9.41409C20.2355 9.78923 19.1554 10.4452 18.5506 10.8719C17.9458 11.2984 16.8927 12.1701 16.2105 12.8088C15.5283 13.4477 14.4688 14.638 13.856 15.454C13.2432 16.2701 12.3597 17.6775 11.8923 18.5814C11.4251 19.4854 10.8525 20.7952 10.6198 21.4923C10.3871 22.1895 10.0526 23.4269 9.87672 24.2422C9.60577 25.4973 9.55664 26.1472 9.55664 28.4779C9.55664 30.8087 9.60577 31.4586 9.87672 32.7136C10.0526 33.529 10.3809 34.7483 10.6062 35.423C10.8314 36.0979 11.3445 37.3051 11.7462 38.1056C12.1479 38.9063 12.7328 39.9425 13.046 40.4084C13.3593 40.8744 14.0127 41.7321 14.498 42.3145C14.9834 42.8969 15.7193 43.7018 16.1334 44.1032C16.5474 44.5046 17.4898 45.286 18.2275 45.8396C19.0323 46.4436 20.3595 47.2365 21.5455 47.8222C22.7584 48.4209 24.0949 48.957 25.0046 49.2095C25.82 49.4357 26.9636 49.7082 27.546 49.815C28.2119 49.9372 29.5745 50.0065 31.2169 50.0018C33.3757 49.9955 34.0862 49.939 35.3114 49.6757C36.1268 49.5003 37.3464 49.1726 38.0217 48.9472C38.697 48.7218 39.8407 48.2415 40.5631 47.8799C41.2856 47.5183 42.3932 46.8872 43.0243 46.4772C43.6555 46.0673 44.6924 45.2733 45.3286 44.7126C45.9648 44.1519 46.901 43.2084 47.409 42.6157C47.9171 42.0229 48.6536 41.065 49.0457 40.4869C49.4376 39.9088 50.1253 38.6687 50.5739 37.7311C51.0223 36.7936 51.5454 35.4876 51.7362 34.8289C51.9269 34.1703 52.1994 33.0595 52.3417 32.3606C52.5401 31.3866 52.5995 30.4638 52.5966 28.4073C52.5933 26.1899 52.5393 25.4782 52.2848 24.3037C52.1157 23.5222 51.8149 22.3785 51.6166 21.7622C51.4184 21.1461 50.8832 19.8795 50.4276 18.9476C49.972 18.0158 49.23 16.7345 48.7789 16.1003C48.1412 15.2037 47.8639 14.9281 47.5334 14.862C47.1444 14.7842 47.0001 14.8852 45.8346 16.0506C44.8828 17.0025 44.5965 17.3714 44.7014 17.5109C44.7786 17.6137 45.2196 18.2648 45.6813 18.9579C46.1431 19.6512 46.7638 20.778 47.0605 21.4621C47.3573 22.1463 47.757 23.3095 47.9488 24.0473C48.1404 24.7848 48.3646 26.0994 48.4469 26.9685C48.5293 27.8375 48.5588 28.9615 48.5125 29.4662C48.4662 29.971 48.3626 30.8287 48.2822 31.3723C48.2018 31.9159 48.0069 32.8054 47.8491 33.349C47.6914 33.8925 47.3279 34.8773 47.0416 35.5374C46.7551 36.1975 46.1684 37.2811 45.7376 37.9454C45.3067 38.6097 44.5478 39.5914 44.0508 40.127C43.554 40.6627 42.9322 41.2945 42.6691 41.5312C42.4059 41.768 41.8378 42.2271 41.4066 42.5517C40.9753 42.8761 40.2376 43.3697 39.7671 43.6485C39.2967 43.927 38.2665 44.4076 37.478 44.7161C36.6893 45.0248 35.641 45.3697 35.1484 45.4826C34.6556 45.5957 33.5662 45.7609 32.7274 45.85C31.5768 45.9721 30.7859 45.9719 29.5076 45.8485C28.5756 45.7587 27.3241 45.5579 26.7264 45.4026C26.1289 45.2471 25.1068 44.9036 24.4552 44.6392C23.8037 44.3749 22.8471 43.907 22.3298 43.5996C21.8123 43.2922 21.0447 42.782 20.6239 42.4659C20.203 42.1496 19.3712 41.4107 18.775 40.8238C18.1791 40.2369 17.415 39.3786 17.077 38.9163C16.7391 38.4542 16.2305 37.6941 15.9467 37.227C15.6629 36.7601 15.2045 35.8127 14.9279 35.1219C14.6515 34.4309 14.3013 33.3929 14.1501 32.8153C13.9987 32.2375 13.7987 31.0253 13.7055 30.1214C13.5735 28.8409 13.5736 28.1131 13.7063 26.8259C13.8001 25.9172 13.9944 24.7139 14.1381 24.1519C14.2818 23.5898 14.6495 22.5228 14.9549 21.7809C15.2604 21.0388 15.8517 19.8792 16.2689 19.2037C16.7738 18.3864 17.5703 17.4239 18.6511 16.325C19.7363 15.2216 20.6911 14.4053 21.5304 13.8633C22.2209 13.4172 23.1996 12.8646 23.7052 12.6355C24.2108 12.4062 25.1725 12.0395 25.8421 11.8207C26.5118 11.6018 27.5662 11.3434 28.1853 11.2464C28.8043 11.1496 30.1051 11.0688 31.0758 11.0673C32.0464 11.0656 33.3472 11.1449 33.9662 11.2436C34.5853 11.3422 35.6397 11.6018 36.3094 11.8207C36.979 12.0395 37.9499 12.4103 38.4666 12.6446C38.9835 12.879 39.9576 13.44 40.6312 13.8913C41.3048 14.3427 41.9394 14.7748 42.0414 14.8516C42.1795 14.9554 42.5509 14.6687 43.4907 13.7332C44.6566 12.5728 44.7478 12.4418 44.6684 12.0406C44.6211 11.8015 44.4818 11.5228 44.359 11.4212C44.2363 11.3197 43.5957 10.8796 42.9357 10.4431C42.2756 10.0065 41.0367 9.31667 40.1825 8.91018C39.3283 8.5037 38.0576 8.0077 37.3587 7.8082C36.6598 7.60856 35.5797 7.3427 34.9585 7.21732C34.2885 7.0822 32.881 6.96953 31.4993 6.94031C30.006 6.90868 28.7642 6.95781 28.0402 7.07698ZM29.5933 15.715C29.3603 15.7495 28.6932 15.8773 28.1108 15.999C27.5284 16.1207 26.4687 16.4943 25.756 16.8291C25.0433 17.1637 24.1538 17.6467 23.7794 17.9021C23.4049 18.1577 22.6942 18.7515 22.2 19.222C21.7059 19.6923 21.0218 20.4678 20.68 20.9452C20.3383 21.4227 19.7796 22.4075 19.4385 23.1336C19.0974 23.8599 18.7012 24.9623 18.5582 25.5835C18.3777 26.3674 18.2994 27.2531 18.3023 28.4779C18.3052 29.658 18.3914 30.6171 18.5624 31.3723C18.7032 31.9935 19.0974 33.0959 19.4385 33.8222C19.7796 34.5484 20.3383 35.5332 20.68 36.0107C21.0218 36.488 21.7059 37.2636 22.2 37.7339C22.6942 38.2043 23.4049 38.7982 23.7794 39.0537C24.1538 39.3091 25.0433 39.7921 25.756 40.1268C26.4687 40.4615 27.5601 40.8525 28.1814 40.9955C28.9653 41.1759 29.8509 41.2543 31.0758 41.2513C32.2725 41.2484 33.2043 41.1634 33.9701 40.9873C34.5914 40.8444 35.5444 40.5338 36.088 40.2972C36.6316 40.0605 37.5929 39.5291 38.2245 39.1161C38.8686 38.695 39.8292 37.8782 40.4129 37.2554C40.985 36.6449 41.7452 35.6433 42.1021 35.0295C42.4589 34.4158 42.8868 33.5643 43.0529 33.1372C43.2189 32.7101 43.4619 31.9159 43.5929 31.3723C43.7496 30.7218 43.8341 29.7565 43.84 28.5485C43.8464 27.2631 43.7728 26.3745 43.5946 25.5835C43.445 24.9197 43.0253 23.8137 42.5765 22.9009C42.1566 22.0467 41.6809 21.1937 41.5196 21.0052L41.2262 20.6624L39.8219 22.0614C39.0496 22.8309 38.4176 23.5395 38.4176 23.6361C38.4176 23.7328 38.5457 24.0199 38.7023 24.2741C38.8587 24.5284 39.1395 25.2159 39.3262 25.8018C39.5128 26.3879 39.7099 27.3169 39.764 27.8663C39.8345 28.5818 39.7952 29.1973 39.6252 30.0357C39.4949 30.6793 39.2052 31.6095 38.9817 32.1025C38.758 32.5956 38.2802 33.3744 37.9199 33.833C37.5596 34.2917 36.9046 34.9492 36.4645 35.2941C36.0245 35.6392 35.4103 36.0486 35.0997 36.2041C34.789 36.3595 34.0902 36.636 33.5466 36.8183C32.7726 37.0778 32.252 37.1498 31.1464 37.1502C30.0746 37.1506 29.4793 37.0727 28.6755 36.8267C28.0931 36.6486 27.2322 36.2895 26.7623 36.0289C26.2925 35.7682 25.5516 35.2127 25.116 34.794C24.6804 34.3755 24.0634 33.6299 23.7451 33.1373C23.4267 32.6447 22.9972 31.7284 22.7908 31.1009C22.4787 30.1531 22.4159 29.7099 22.4193 28.4779C22.4225 27.2675 22.4914 26.786 22.7947 25.8549C22.999 25.2275 23.42 24.3213 23.7305 23.8411C24.0409 23.3608 24.5808 22.6819 24.9303 22.3325C25.2798 21.9829 25.9586 21.443 26.439 21.1327C26.9191 20.8222 27.8253 20.4012 28.4527 20.1969C29.3794 19.8952 29.8713 19.8241 31.0758 19.8183C32.3383 19.8121 32.7258 19.8689 33.6878 20.2003C34.309 20.4143 35.0274 20.7124 35.2842 20.8627C35.541 21.0131 35.8282 21.1361 35.9222 21.1361C36.0163 21.1361 36.7274 20.4982 37.5026 19.7185L38.9118 18.3008L38.5588 18.0211C38.3647 17.8672 37.5705 17.4242 36.7939 17.0366C36.0174 16.6491 34.8738 16.2033 34.2525 16.0462C33.5861 15.8776 32.4861 15.7382 31.5699 15.7063C30.7157 15.6765 29.8262 15.6805 29.5933 15.715ZM29.7345 24.6244C29.2513 24.7892 28.7817 25.1121 28.2463 25.6479C27.6714 26.2233 27.4003 26.6313 27.2227 27.1882C27.09 27.6047 26.9813 28.1851 26.9813 28.4779C26.9813 28.7707 27.09 29.3512 27.2227 29.7677C27.4003 30.3248 27.6741 30.7365 28.2578 31.3244C28.8646 31.9357 29.2293 32.1765 29.8069 32.3481C30.2223 32.4715 30.7976 32.5724 31.0852 32.5724C31.3728 32.5724 31.949 32.4637 32.3655 32.331C32.922 32.1535 33.331 31.8819 33.9067 31.3074C34.5139 30.7014 34.7485 30.3387 34.9484 29.6975C35.1276 29.1226 35.1827 28.6386 35.1283 28.1128C35.0854 27.6963 35.0058 27.2836 34.9513 27.1956C34.8899 27.0962 34.2696 27.6165 33.3146 28.5686L31.7769 30.1016H31.0827C30.5075 30.1016 30.3143 30.0307 29.9573 29.6886C29.7202 29.4614 29.4877 29.0699 29.4404 28.8185C29.3932 28.567 29.4007 28.2128 29.457 28.0313C29.5132 27.8499 30.2235 27.0254 31.0352 26.1993C32.0034 25.2139 32.4535 24.6614 32.3435 24.5934C32.2513 24.5363 31.7854 24.4659 31.3082 24.4367C30.7352 24.4016 30.2005 24.4655 29.7345 24.6244Z" fill="#2A8981"/>
</svg>
