<svg width="41" height="40" viewBox="0 0 41 40" fill="none" xmlns="http://www.w3.org/2000/svg">
<circle cx="20.0625" cy="20" r="20" fill="#C13584"/>
<path d="M20.0625 10.1622C23.2666 10.1622 23.6462 10.1744 24.9115 10.2321C26.0815 10.2855 26.7169 10.481 27.1398 10.6453C27.6999 10.863 28.0996 11.123 28.5195 11.5429C28.9395 11.9629 29.1995 12.3626 29.4172 12.9227C29.5815 13.3456 29.777 13.981 29.8304 15.1509C29.8881 16.4163 29.9003 16.7958 29.9003 19.9999C29.9003 23.2041 29.8881 23.5836 29.8304 24.849C29.777 26.019 29.5815 26.6543 29.4172 27.0772C29.1995 27.6373 28.9395 28.0371 28.5196 28.457C28.0996 28.8769 27.6999 29.1369 27.1398 29.3546C26.7169 29.519 26.0815 29.7144 24.9115 29.7678C23.6464 29.8255 23.2669 29.8378 20.0625 29.8378C16.8581 29.8378 16.4787 29.8255 15.2135 29.7678C14.0435 29.7144 13.4081 29.519 12.9852 29.3546C12.4251 29.1369 12.0254 28.8769 11.6055 28.457C11.1856 28.0371 10.9255 27.6373 10.7078 27.0772C10.5435 26.6543 10.348 26.019 10.2946 24.849C10.2369 23.5836 10.2247 23.2041 10.2247 19.9999C10.2247 16.7958 10.2369 16.4163 10.2946 15.1509C10.348 13.981 10.5435 13.3456 10.7078 12.9227C10.9255 12.3626 11.1855 11.9629 11.6055 11.543C12.0254 11.123 12.4251 10.863 12.9852 10.6453C13.4081 10.481 14.0435 10.2855 15.2135 10.2321C16.4788 10.1744 16.8584 10.1622 20.0625 10.1622ZM20.0625 8C16.8035 8 16.3948 8.01381 15.1149 8.07221C13.8377 8.13047 12.9653 8.33334 12.202 8.62996C11.4129 8.93663 10.7437 9.34694 10.0766 10.0141C9.40945 10.6812 8.99913 11.3504 8.69251 12.1395C8.39584 12.9028 8.19297 13.7751 8.13471 15.0524C8.07631 16.3323 8.0625 16.741 8.0625 19.9999C8.0625 23.259 8.07631 23.6676 8.13471 24.9475C8.19297 26.2248 8.39584 27.0971 8.69251 27.8604C8.99913 28.6495 9.40945 29.3187 10.0766 29.9859C10.7437 30.653 11.4129 31.0633 12.202 31.3699C12.9653 31.6666 13.8377 31.8694 15.1149 31.9277C16.3948 31.9861 16.8035 31.9999 20.0625 31.9999C23.3215 31.9999 23.7302 31.9861 25.0101 31.9277C26.2873 31.8694 27.1597 31.6666 27.923 31.3699C28.7121 31.0633 29.3813 30.653 30.0484 29.9859C30.7155 29.3187 31.1259 28.6495 31.4325 27.8604C31.7292 27.0971 31.932 26.2248 31.9903 24.9475C32.0487 23.6676 32.0625 23.259 32.0625 19.9999C32.0625 16.741 32.0487 16.3323 31.9903 15.0524C31.932 13.7751 31.7292 12.9028 31.4325 12.1395C31.1259 11.3504 30.7155 10.6812 30.0484 10.0141C29.3813 9.34694 28.7121 8.93663 27.923 8.62996C27.1597 8.33334 26.2873 8.13047 25.0101 8.07221C23.7302 8.01381 23.3215 8 20.0625 8Z" fill="white"/>
<path d="M20.0684 13.8438C16.6651 13.8438 13.9062 16.6026 13.9062 20.0059C13.9062 23.4092 16.6651 26.168 20.0684 26.168C23.4717 26.168 26.2306 23.4092 26.2306 20.0059C26.2306 16.6026 23.4717 13.8438 20.0684 13.8438ZM20.0684 24.0059C17.8593 24.0059 16.0684 22.215 16.0684 20.0059C16.0684 17.7967 17.8593 16.0059 20.0684 16.0059C22.2776 16.0059 24.0684 17.7967 24.0684 20.0059C24.0684 22.215 22.2776 24.0059 20.0684 24.0059Z" fill="white"/>
<path d="M27.9132 13.5963C27.9132 14.3915 27.2685 15.0363 26.4732 15.0363C25.6779 15.0363 25.0332 14.3915 25.0332 13.5963C25.0332 12.801 25.6779 12.1562 26.4732 12.1562C27.2685 12.1562 27.9132 12.801 27.9132 13.5963Z" fill="white"/>
</svg>
