<svg width="38" height="27" viewBox="0 0 38 27" fill="none" xmlns="http://www.w3.org/2000/svg">
<path d="M29.1217 16.2325C29.533 16.2325 29.9278 16.1711 30.3206 16.1152C30.1934 16.5337 30.0624 16.9593 29.8521 17.3417C29.6419 17.8972 29.3135 18.3788 28.9871 18.8639C28.7141 19.3888 28.2327 19.7441 27.8785 20.1932C27.5078 20.6297 27.0024 20.92 26.6021 21.2826C26.2092 21.6613 25.6946 21.8507 25.2851 22.1176C24.8572 22.3575 24.4846 22.6226 24.0862 22.7489L23.092 23.1493L22.2177 23.5046L23.1123 27L24.2135 26.7403C24.5658 26.6537 24.9955 26.5527 25.4843 26.4319C25.9842 26.3417 26.5173 26.0946 27.1112 25.8691C27.6977 25.613 28.3765 25.4399 29.0074 25.0287C29.6419 24.6355 30.3741 24.3072 31.0197 23.7806C31.645 23.2377 32.3994 22.7669 32.9564 22.0762C33.5651 21.4305 34.1664 20.7523 34.6331 19.9804C35.1735 19.2445 35.5406 18.4365 35.928 17.6375C36.2784 16.8385 36.5606 16.0214 36.7912 15.2279C37.2283 13.6371 37.4238 12.1257 37.4995 10.8325C37.5622 9.53748 37.5253 8.46072 37.4478 7.68156C37.4202 7.31363 37.3685 6.95652 37.3316 6.70942L37.2855 6.40642L37.2376 6.41723C36.9095 4.91874 36.1543 3.54169 35.0593 2.44537C33.9642 1.34905 32.5742 0.578255 31.0499 0.222163C29.5256 -0.13393 27.9293 -0.060773 26.4458 0.433169C24.9622 0.927112 23.652 1.82166 22.6666 3.01332C21.6813 4.20499 21.0611 5.64508 20.8778 7.16701C20.6945 8.68893 20.9556 10.2305 21.6309 11.6134C22.3062 12.9963 23.3681 14.164 24.6937 14.9814C26.0193 15.7988 27.5545 16.2326 29.1217 16.2325ZM8.8321 16.2325C9.24343 16.2325 9.63815 16.1711 10.031 16.1152C9.90376 16.5337 9.7728 16.9593 9.56253 17.3417C9.35225 17.8972 9.02393 18.3788 8.69745 18.8639C8.42447 19.3888 7.94305 19.7441 7.5889 20.1932C7.21816 20.6297 6.71276 20.92 6.3125 21.2826C5.91962 21.6613 5.40501 21.8507 4.99552 22.1176C4.5676 22.3575 4.19501 22.6226 3.79659 22.7489L2.8024 23.1493L1.9281 23.5046L2.82269 27L3.92387 26.7403C4.27617 26.6537 4.70593 26.5527 5.19473 26.4319C5.69459 26.3417 6.22766 26.0946 6.82159 25.8691C7.4063 25.6112 8.08692 25.4399 8.71774 25.0269C9.35226 24.6337 10.0845 24.3054 10.7301 23.7788C11.3554 23.2359 12.1098 22.7651 12.6668 22.0762C13.2755 21.4305 13.8768 20.7523 14.3435 19.9804C14.8839 19.2445 15.251 18.4365 15.6383 17.6375C15.9888 16.8385 16.271 16.0214 16.5016 15.2279C16.9387 13.6371 17.1342 12.1257 17.2099 10.8325C17.2726 9.53748 17.2357 8.46072 17.1582 7.68157C17.1306 7.31363 17.0789 6.95652 17.042 6.70942L16.9959 6.40642L16.9479 6.41724C16.6199 4.91874 15.8647 3.54169 14.7696 2.44537C13.6746 1.34905 12.2846 0.578257 10.7603 0.222165C9.23598 -0.133928 7.63973 -0.0607712 6.15617 0.433171C4.67262 0.927114 3.36239 1.82166 2.37704 3.01332C1.3917 4.20499 0.771509 5.64508 0.588217 7.16701C0.404925 8.68893 0.666022 10.2305 1.3413 11.6134C2.01659 12.9963 3.07846 14.164 4.40408 14.9814C5.7297 15.7988 7.2649 16.2326 8.8321 16.2325Z" fill="white"/>
</svg>
