<svg width="24" height="24" viewBox="0 0 24 24" fill="none" xmlns="http://www.w3.org/2000/svg">
<path d="M21 2H3C2.73478 2 2.48043 2.10536 2.29289 2.29289C2.10536 2.48043 2 2.73478 2 3V21C2 21.2652 2.10536 21.5196 2.29289 21.7071C2.48043 21.8946 2.73478 22 3 22H21C21.2652 22 21.5196 21.8946 21.7071 21.7071C21.8946 21.5196 22 21.2652 22 21V3C22 2.73478 21.8946 2.48043 21.7071 2.29289C21.5196 2.10536 21.2652 2 21 2ZM8.078 18.737H5.085V9.737H8.078V18.737ZM6.582 8.5H6.562C6.34592 8.51695 6.12867 8.48868 5.92412 8.417C5.71957 8.34532 5.5322 8.2318 5.37396 8.08368C5.21572 7.93556 5.09008 7.75609 5.00506 7.55671C4.92003 7.35734 4.87749 7.14243 4.88014 6.9257C4.88279 6.70897 4.93058 6.49516 5.02045 6.29793C5.11033 6.10069 5.24031 5.92435 5.40213 5.78014C5.56395 5.63594 5.75404 5.52703 5.96028 5.46038C6.16652 5.39372 6.38439 5.37077 6.6 5.393C6.81604 5.37452 7.03357 5.40128 7.23869 5.47157C7.44381 5.54186 7.63202 5.65414 7.79132 5.80125C7.95062 5.94835 8.0775 6.12705 8.16387 6.32594C8.25024 6.52482 8.2942 6.73953 8.29295 6.95636C8.29169 7.17319 8.24525 7.38737 8.15658 7.58525C8.06791 7.78312 7.93897 7.96034 7.77797 8.10559C7.61698 8.25083 7.42748 8.36093 7.22155 8.42884C7.01563 8.49675 6.79781 8.52098 6.582 8.5ZM18.87 18.737H15.877V13.921C15.877 12.71 15.444 11.885 14.361 11.885C14.0236 11.8869 13.695 11.9931 13.4202 12.1889C13.1455 12.3847 12.9379 12.6607 12.826 12.979C12.7483 13.2145 12.7144 13.4623 12.726 13.71V18.737H9.734C9.734 18.737 9.774 10.577 9.734 9.737H12.726V11.01C12.9968 10.5386 13.3917 10.1506 13.8678 9.88824C14.3439 9.62586 14.8829 9.49918 15.426 9.522C17.395 9.522 18.872 10.809 18.872 13.575L18.87 18.737Z" fill="#0077B5"/>
</svg>
