<svg width="41" height="40" viewBox="0 0 41 40" fill="none" xmlns="http://www.w3.org/2000/svg">
<circle cx="20.0625" cy="20" r="20" fill="#0077B5"/>
<path fill-rule="evenodd" clip-rule="evenodd" d="M14.8372 11.8737C14.8372 13.1188 13.8892 14.1264 12.4067 14.1264C10.9819 14.1264 10.0338 13.1188 10.0632 11.8737C10.0338 10.5681 10.9818 9.58984 12.4351 9.58984C13.8892 9.58984 14.8088 10.5681 14.8372 11.8737ZM10.1824 30.4089V15.9061H14.6896V30.408H10.1824V30.4089Z" fill="white"/>
<path fill-rule="evenodd" clip-rule="evenodd" d="M18.3028 20.534C18.3028 18.725 18.2432 17.1829 18.1836 15.9075H22.0986L22.3067 17.8943H22.3956C22.9888 16.9747 24.4714 15.582 26.8736 15.582C29.8387 15.582 32.063 17.5395 32.063 21.8084V30.4103H27.5557V22.3732C27.5557 20.5037 26.9038 19.2293 25.2727 19.2293C24.0267 19.2293 23.2859 20.0893 22.9898 20.919C22.8706 21.2161 22.8119 21.6305 22.8119 22.0468V30.4103H18.3046V20.534H18.3028Z" fill="white"/>
</svg>
