<svg width="13" height="14" viewBox="0 0 13 14" fill="none" xmlns="http://www.w3.org/2000/svg">
<path d="M8.99675 0L12.3301 3.33333V12.672C12.3299 12.8475 12.2601 13.0157 12.1359 13.1397C12.0118 13.2637 11.8435 13.3333 11.6681 13.3333H0.992078C0.816997 13.3321 0.649423 13.2621 0.525557 13.1383C0.40169 13.0146 0.331475 12.8471 0.330078 12.672V0.661333C0.330078 0.296 0.626745 0 0.992078 0H8.99675ZM7.34941 8.29733L8.82275 9.77067L9.76608 8.82867L8.29275 7.35533C8.62108 6.79605 8.73447 6.13633 8.61169 5.49952C8.48892 4.86271 8.1384 4.29242 7.62567 3.89529C7.11294 3.49816 6.47312 3.30139 5.82584 3.34177C5.17856 3.38214 4.56815 3.6569 4.10875 4.11467C3.64943 4.5736 3.37334 5.18434 3.33225 5.83233C3.29117 6.48032 3.48791 7.12105 3.88558 7.63431C4.28325 8.14758 4.85453 8.49812 5.49224 8.62019C6.12996 8.74225 6.79031 8.62746 7.34941 8.29733ZM6.93741 6.94267C6.81442 7.07001 6.66729 7.17159 6.50462 7.24147C6.34195 7.31135 6.16699 7.34813 5.98995 7.34967C5.81291 7.35121 5.63733 7.31747 5.47347 7.25043C5.30961 7.18339 5.16074 7.08438 5.03555 6.95919C4.91036 6.834 4.81136 6.68513 4.74432 6.52127C4.67728 6.35741 4.64354 6.18184 4.64508 6.0048C4.64662 5.82776 4.6834 5.6528 4.75328 5.49013C4.82315 5.32746 4.92473 5.18033 5.05208 5.05733C5.30355 4.81446 5.64035 4.68006 5.98995 4.6831C6.33954 4.68614 6.67396 4.82636 6.92117 5.07358C7.16838 5.32079 7.30861 5.6552 7.31164 6.0048C7.31468 6.35439 7.18029 6.6912 6.93741 6.94267Z" fill="#5C5D6F"/>
</svg>
