<svg width="21" height="21" viewBox="0 0 21 21" fill="none" xmlns="http://www.w3.org/2000/svg">
<path fill-rule="evenodd" clip-rule="evenodd" d="M16.4266 1.57754C14.8984 3.10653 14.8355 3.1784 14.8084 3.42834C14.7928 3.57137 14.8224 3.94834 14.874 4.26595C14.9257 4.58362 14.968 4.95661 14.968 5.0949V5.34627L11.7937 8.52254C9.07533 11.2427 8.61469 11.7283 8.58617 11.9042C8.5593 12.0698 8.58207 12.1412 8.70364 12.2724C8.80884 12.3858 8.91314 12.4351 9.04823 12.4351C9.22506 12.4351 9.52186 12.1555 12.4478 9.23294C15.6104 6.07388 15.6567 6.03077 15.8889 6.03183C16.0184 6.03243 16.3778 6.07198 16.6877 6.11972C16.9975 6.16745 17.37 6.207 17.5154 6.2076L17.7797 6.20866L19.3964 4.59595C20.2856 3.70895 21.0072 2.97784 20.9999 2.97126C20.9928 2.96468 20.4932 2.88931 19.8899 2.80368C19.2865 2.71805 18.7217 2.61962 18.6348 2.58498C18.5479 2.55029 18.4491 2.45085 18.4151 2.36392C18.3812 2.27704 18.2836 1.71263 18.1983 1.10967C18.113 0.506712 18.0372 0.00735046 18.0299 5.66139e-05C18.0226 -0.00729654 17.3011 0.702579 16.4266 1.57754ZM7.76309 2.97233C7.50217 3.01526 7.04853 3.11044 6.755 3.18373C6.46146 3.25709 6.02116 3.39591 5.77655 3.49227C5.53194 3.58857 5.08601 3.7963 4.78554 3.95392C4.48513 4.11148 4.03148 4.38698 3.77744 4.56618C3.52346 4.74533 3.08115 5.11144 2.79461 5.37972C2.50808 5.64805 2.06309 6.14794 1.80573 6.49069C1.54837 6.83345 1.17728 7.42454 0.980994 7.80418C0.784771 8.18388 0.544252 8.734 0.446526 9.02676C0.348801 9.31958 0.208319 9.83928 0.134432 10.1817C0.0206362 10.7089 0 10.9818 0 11.9607C0 12.9396 0.0206362 13.2126 0.134432 13.7397C0.208319 14.0822 0.346191 14.5943 0.440833 14.8777C0.535416 15.1611 0.750911 15.6681 0.919618 16.0044C1.08833 16.3407 1.334 16.7759 1.46553 16.9715C1.59712 17.1672 1.87156 17.5275 2.07537 17.7721C2.27924 18.0167 2.58831 18.3548 2.76223 18.5234C2.9361 18.6919 3.33193 19.0201 3.64177 19.2526C3.97977 19.5063 4.53719 19.8393 5.03531 20.0853C5.54475 20.3368 6.10608 20.562 6.48815 20.668C6.8306 20.763 7.31093 20.8774 7.55554 20.9223C7.8352 20.9736 8.4075 21.0027 9.09733 21.0008C10.004 20.9981 10.3024 20.9744 10.817 20.8638C11.1595 20.7901 11.6717 20.6525 11.9553 20.5578C12.239 20.4632 12.7193 20.2614 13.0227 20.1096C13.3262 19.9577 13.7914 19.6926 14.0564 19.5204C14.3215 19.3483 14.757 19.0148 15.0242 18.7793C15.2914 18.5438 15.6846 18.1475 15.898 17.8986C16.1114 17.6496 16.4207 17.2473 16.5854 17.0045C16.75 16.7617 17.0389 16.2409 17.2272 15.847C17.4156 15.4533 17.6353 14.9048 17.7154 14.6281C17.7955 14.3515 17.91 13.885 17.9697 13.5915C18.0531 13.1824 18.078 12.7948 18.0768 11.9311C18.0754 10.9998 18.0527 10.7008 17.9458 10.2075C17.8748 9.87931 17.7485 9.39898 17.6652 9.14014C17.5819 8.88136 17.3572 8.34938 17.1658 7.958C16.9745 7.56663 16.6628 7.02848 16.4734 6.76211C16.2055 6.38556 16.089 6.2698 15.9502 6.24205C15.7869 6.20938 15.7263 6.25178 15.2367 6.74123C14.837 7.14103 14.7167 7.29598 14.7608 7.35457C14.7932 7.39774 14.9784 7.67123 15.1723 7.96233C15.3663 8.25349 15.627 8.72676 15.7516 9.01407C15.8763 9.30144 16.0442 9.79 16.1247 10.0998C16.2052 10.4096 16.2993 10.9618 16.3339 11.3268C16.3685 11.6917 16.3809 12.1638 16.3615 12.3758C16.342 12.5878 16.2985 12.9481 16.2648 13.1764C16.231 13.4047 16.1491 13.7783 16.0828 14.0066C16.0166 14.2349 15.8639 14.6485 15.7437 14.9257C15.6234 15.2029 15.3769 15.6581 15.196 15.9371C15.015 16.2161 14.6963 16.6284 14.4875 16.8534C14.2789 17.0783 14.0177 17.3437 13.9072 17.4431C13.7967 17.5425 13.5581 17.7354 13.377 17.8717C13.1958 18.008 12.886 18.2153 12.6884 18.3323C12.4908 18.4493 12.0582 18.6512 11.727 18.7808C11.3957 18.9104 10.9554 19.0553 10.7485 19.1027C10.5416 19.1502 10.084 19.2196 9.73172 19.257C9.24848 19.3083 8.91629 19.3082 8.37939 19.2564C7.98795 19.2186 7.46232 19.1343 7.21131 19.0691C6.96035 19.0038 6.53108 18.8595 6.25741 18.7485C5.98374 18.6374 5.58199 18.4409 5.36472 18.3118C5.14738 18.1827 4.82497 17.9684 4.64826 17.8357C4.47149 17.7028 4.12209 17.3925 3.87173 17.146C3.62143 16.8995 3.3005 16.539 3.15853 16.3449C3.01663 16.1508 2.80303 15.8315 2.68384 15.6353C2.56465 15.4392 2.3721 15.0413 2.25594 14.7512C2.13983 14.461 1.99276 14.025 1.92925 13.7824C1.86568 13.5398 1.78166 13.0306 1.74252 12.651C1.68707 12.1132 1.68713 11.8075 1.74287 11.2669C1.78225 10.8852 1.86385 10.3799 1.92421 10.1438C1.98458 9.90771 2.139 9.45959 2.26726 9.14797C2.39559 8.83629 2.64393 8.34926 2.81916 8.06557C3.03122 7.72229 3.36573 7.31804 3.81967 6.85651C4.27544 6.39309 4.67649 6.05022 5.02896 5.82257C5.319 5.63524 5.73006 5.40314 5.94241 5.3069C6.15477 5.21059 6.55866 5.05659 6.83991 4.96468C7.12117 4.87276 7.56402 4.76425 7.82405 4.72351C8.08402 4.68283 8.63035 4.64891 9.03803 4.64826C9.44571 4.64754 9.99204 4.68087 10.252 4.72232C10.512 4.76371 10.9549 4.87276 11.2361 4.96468C11.5174 5.05659 11.9251 5.21231 12.1422 5.31075C12.3593 5.40919 12.7684 5.64479 13.0513 5.83437C13.3342 6.02395 13.6008 6.2054 13.6436 6.23766C13.7016 6.28125 13.8576 6.16087 14.2523 5.76795C14.742 5.28057 14.7803 5.22554 14.7469 5.05707C14.7271 4.95661 14.6686 4.83956 14.617 4.79692C14.5655 4.75428 14.2964 4.56945 14.0192 4.38609C13.742 4.20274 13.2216 3.913 12.8629 3.74228C12.5041 3.57155 11.9704 3.36323 11.6769 3.27944C11.3833 3.19559 10.9297 3.08393 10.6688 3.03127C10.3874 2.97452 9.79623 2.9272 9.21593 2.91493C8.58872 2.90164 8.06718 2.92228 7.76309 2.97233ZM8.41538 6.60028C8.31754 6.61481 8.03735 6.66847 7.79274 6.71959C7.54813 6.77071 7.10308 6.92761 6.80374 7.06821C6.5044 7.20875 6.13081 7.41162 5.97355 7.51889C5.81628 7.62622 5.51777 7.87564 5.31022 8.07322C5.10267 8.27075 4.81536 8.59648 4.6718 8.79697C4.5283 8.99752 4.29365 9.41114 4.15038 9.71612C4.00711 10.0212 3.84072 10.4842 3.78065 10.7451C3.70486 11.0743 3.67195 11.4463 3.6732 11.9607C3.67438 12.4564 3.71061 12.8592 3.78242 13.1764C3.84155 13.4373 4.00711 13.9003 4.15038 14.2053C4.29365 14.5103 4.5283 14.9239 4.6718 15.1245C4.81536 15.325 5.10267 15.6507 5.31022 15.8482C5.51777 16.0458 5.81628 16.2952 5.97355 16.4026C6.13081 16.5098 6.5044 16.7127 6.80374 16.8532C7.10308 16.9938 7.56147 17.158 7.82239 17.2181C8.15162 17.2939 8.52361 17.3268 9.03803 17.3256C9.54065 17.3243 9.93203 17.2886 10.2537 17.2147C10.5146 17.1547 10.9149 17.0242 11.1432 16.9248C11.3715 16.8254 11.7752 16.6022 12.0405 16.4288C12.311 16.2519 12.7145 15.9088 12.9596 15.6473C13.1999 15.3909 13.5192 14.9702 13.6691 14.7124C13.8189 14.4546 13.9987 14.097 14.0684 13.9176C14.1382 13.7382 14.2402 13.4047 14.2952 13.1764C14.3611 12.9032 14.3965 12.4977 14.399 11.9904C14.4017 11.4505 14.3708 11.0773 14.2959 10.7451C14.2331 10.4663 14.0569 10.0018 13.8683 9.61839C13.692 9.25963 13.4922 8.90134 13.4244 8.82218L13.3012 8.6782L12.7114 9.2658C12.387 9.58898 12.1216 9.8866 12.1216 9.92716C12.1216 9.96778 12.1754 10.0883 12.2412 10.1951C12.3069 10.3019 12.4248 10.5907 12.5032 10.8368C12.5816 11.0829 12.6644 11.4731 12.6871 11.7038C12.7167 12.0044 12.7002 12.2629 12.6288 12.615C12.5741 12.8853 12.4524 13.276 12.3585 13.4831C12.2646 13.6901 12.0639 14.0172 11.9126 14.2098C11.7612 14.4025 11.4862 14.6787 11.3013 14.8235C11.1165 14.9685 10.8585 15.1404 10.7281 15.2057C10.5976 15.271 10.3041 15.3871 10.0758 15.4637C9.75069 15.5727 9.53206 15.6029 9.06768 15.6031C8.61754 15.6033 8.36753 15.5705 8.02994 15.4672C7.78533 15.3924 7.42372 15.2416 7.22637 15.1321C7.02908 15.0227 6.71787 14.7893 6.53494 14.6135C6.352 14.4377 6.09286 14.1246 5.95914 13.9177C5.82541 13.7108 5.64503 13.3259 5.55833 13.0624C5.42728 12.6643 5.40089 12.4782 5.40231 11.9607C5.40368 11.4524 5.43262 11.2501 5.55999 10.8591C5.6458 10.5955 5.82263 10.2149 5.95303 10.0133C6.08337 9.81153 6.31013 9.52642 6.45696 9.37965C6.60372 9.23283 6.88883 9.00606 7.09057 8.87572C7.29225 8.74532 7.67283 8.56849 7.93636 8.48269C8.32555 8.35596 8.53215 8.32614 9.03803 8.3237C9.56829 8.32109 9.73106 8.34493 10.1351 8.48411C10.396 8.57401 10.6977 8.69919 10.8056 8.76234C10.9134 8.8255 11.0341 8.87715 11.0735 8.87715C11.113 8.87715 11.4117 8.60923 11.7373 8.28178L12.3292 7.68635L12.1809 7.56888C12.0994 7.50424 11.7658 7.31816 11.4397 7.15538C11.1135 6.99261 10.6332 6.8054 10.3723 6.7394C10.0924 6.66859 9.63037 6.61006 9.24558 6.59666C8.88682 6.58415 8.51323 6.58581 8.41538 6.60028ZM8.47468 10.3423C8.27176 10.4115 8.07453 10.5471 7.84967 10.7721C7.6082 11.0138 7.49434 11.1851 7.41974 11.419C7.364 11.594 7.31834 11.8377 7.31834 11.9607C7.31834 12.0837 7.364 12.3275 7.41974 12.5024C7.49434 12.7364 7.60932 12.9093 7.85447 13.1563C8.10934 13.413 8.26251 13.5141 8.5051 13.5862C8.67956 13.638 8.92121 13.6804 9.042 13.6804C9.1628 13.6804 9.4048 13.6348 9.57973 13.579C9.81343 13.5045 9.98522 13.3904 10.227 13.1491C10.482 12.8946 10.5806 12.7422 10.6646 12.473C10.7398 12.2315 10.7629 12.0282 10.7401 11.8074C10.7221 11.6324 10.6886 11.4591 10.6657 11.4222C10.6399 11.3804 10.3794 11.5989 9.97834 11.9988L9.33251 12.6427H9.04094C8.79935 12.6427 8.71823 12.6129 8.56826 12.4692C8.46869 12.3738 8.37103 12.2094 8.35116 12.1038C8.33136 11.9981 8.3345 11.8494 8.35816 11.7732C8.38176 11.697 8.6801 11.3507 9.02101 11.0037C9.42763 10.5898 9.61668 10.3578 9.57048 10.3292C9.53176 10.3053 9.33607 10.2757 9.13564 10.2634C8.895 10.2487 8.67043 10.2755 8.47468 10.3423Z" fill="#111827"/>
</svg>
