<svg width="29" height="44" viewBox="0 0 29 44" fill="none" xmlns="http://www.w3.org/2000/svg">
<path d="M7.80086 43.07C7.15419 43.07 6.55753 42.92 6.01086 42.62C5.47086 42.3133 5.04086 41.89 4.72086 41.35C4.40753 40.8033 4.25086 40.19 4.25086 39.51C4.25086 38.83 4.40753 38.22 4.72086 37.68C5.04086 37.14 5.47086 36.72 6.01086 36.42C6.55753 36.1133 7.15419 35.96 7.80086 35.96C8.45419 35.96 9.05086 36.1133 9.59086 36.42C10.1375 36.72 10.5675 37.14 10.8809 37.68C11.1942 38.22 11.3509 38.83 11.3509 39.51C11.3509 40.19 11.1942 40.8033 10.8809 41.35C10.5675 41.89 10.1375 42.3133 9.59086 42.62C9.05086 42.92 8.45419 43.07 7.80086 43.07ZM7.80086 42.08C8.26086 42.08 8.67086 41.9767 9.03086 41.77C9.39086 41.5567 9.67086 41.2567 9.87086 40.87C10.0775 40.4767 10.1809 40.0233 10.1809 39.51C10.1809 38.9967 10.0775 38.5467 9.87086 38.16C9.67086 37.7733 9.39086 37.4767 9.03086 37.27C8.67086 37.0633 8.26086 36.96 7.80086 36.96C7.34086 36.96 6.93086 37.0633 6.57086 37.27C6.21086 37.4767 5.92753 37.7733 5.72086 38.16C5.52086 38.5467 5.42086 38.9967 5.42086 39.51C5.42086 40.0233 5.52086 40.4767 5.72086 40.87C5.92753 41.2567 6.21086 41.5567 6.57086 41.77C6.93086 41.9767 7.34086 42.08 7.80086 42.08ZM16.3027 43L13.6127 39.89V43H12.4727V36.05H13.6127V39.22L16.3127 36.05H17.7427L14.7227 39.53L17.7927 43H16.3027ZM22.4108 43L20.8108 40.22H19.9408V43H18.8008V36.05H21.2008C21.7341 36.05 22.1841 36.1433 22.5508 36.33C22.9241 36.5167 23.2008 36.7667 23.3808 37.08C23.5674 37.3933 23.6608 37.7433 23.6608 38.13C23.6608 38.5833 23.5274 38.9967 23.2608 39.37C23.0008 39.7367 22.5974 39.9867 22.0508 40.12L23.7708 43H22.4108ZM19.9408 39.31H21.2008C21.6274 39.31 21.9474 39.2033 22.1608 38.99C22.3808 38.7767 22.4908 38.49 22.4908 38.13C22.4908 37.77 22.3841 37.49 22.1708 37.29C21.9574 37.0833 21.6341 36.98 21.2008 36.98H19.9408V39.31Z" fill="#2A8981"/>
<path fill-rule="evenodd" clip-rule="evenodd" d="M24.8296 0.0408647C24.7961 0.0628753 24.1933 0.726734 23.4898 1.51601C22.5074 2.61839 22.1856 3.01633 22.1022 3.23218C22.0355 3.40473 21.9692 3.79503 21.9306 4.24293C21.8959 4.64424 21.8676 5.01166 21.8676 5.05933C21.8676 5.10706 19.8781 7.06508 17.4465 9.41057L13.0254 13.675V13.9459C13.0254 14.1792 13.051 14.2415 13.2101 14.3949C13.3692 14.5484 13.4338 14.573 13.6761 14.573H13.9574L18.3786 10.3136L22.7998 6.05417L23.6581 5.98814C24.2741 5.94079 24.5997 5.88969 24.8112 5.80731C25.0265 5.72352 25.5066 5.36176 26.5906 4.46668C27.4072 3.79247 28.0922 3.19546 28.1128 3.14C28.1334 3.08454 28.1273 3.01709 28.0993 2.99007C28.0713 2.9631 27.5412 2.90306 26.9213 2.85675C26.2485 2.80652 25.72 2.74092 25.61 2.69401C25.4998 2.64705 25.3929 2.54413 25.3438 2.43784C25.2949 2.3322 25.2275 1.83952 25.1774 1.22219C25.131 0.651277 25.0765 0.142527 25.0562 0.0916961C25.036 0.0408102 24.9904 -0.00043243 24.9549 3.42305e-06C24.9193 0.000493758 24.8629 0.0188541 24.8296 0.0408647ZM12.3474 0.931204C12.0677 0.95632 11.4957 1.04197 11.0762 1.12156C10.6567 1.20122 9.99776 1.36346 9.61192 1.48212C9.22614 1.60078 8.65408 1.80405 8.34068 1.93383C8.02733 2.06355 7.50398 2.30986 7.17769 2.4811C6.85141 2.65233 6.36834 2.93509 6.1042 3.10944C5.84007 3.28378 5.40796 3.59307 5.14399 3.79672C4.87997 4.00037 4.40961 4.41231 4.09875 4.71212C3.78784 5.01188 3.36064 5.46544 3.14945 5.72003C2.93825 5.97457 2.61751 6.39125 2.43671 6.64595C2.25591 6.90065 1.96268 7.36647 1.7851 7.6811C1.60752 7.99573 1.3531 8.49833 1.21971 8.79798C1.08637 9.09762 0.882463 9.62473 0.766639 9.96933C0.650815 10.3139 0.484311 10.9307 0.396624 11.3399C0.308936 11.7491 0.20622 12.4233 0.168422 12.8381C0.126274 13.3003 0.113618 13.9193 0.135709 14.4368C0.155484 14.9013 0.210062 15.5215 0.256957 15.8151C0.303795 16.1087 0.393347 16.5704 0.455892 16.8411C0.518437 17.1119 0.661324 17.6072 0.773419 17.9418C0.88557 18.2764 1.08637 18.7954 1.21977 19.095C1.3531 19.3947 1.59357 19.8727 1.75414 20.1574C1.91465 20.4421 2.20721 20.9079 2.40422 21.1926C2.60118 21.4772 2.93588 21.9184 3.14792 22.173C3.35997 22.4275 3.78784 22.8811 4.09875 23.1809C4.40961 23.4807 4.87997 23.8933 5.14399 24.0977C5.40796 24.3022 5.86549 24.6246 6.1607 24.8141C6.45591 25.0035 6.93209 25.2834 7.21894 25.4359C7.50573 25.5884 8.00151 25.8207 8.32068 25.952C8.63979 26.0834 9.18964 26.2808 9.54254 26.3908C9.89538 26.5006 10.4674 26.6488 10.8138 26.72C11.1601 26.7912 11.6849 26.8819 11.9802 26.9215C12.2875 26.9628 13.0242 26.9934 13.7034 26.9931C14.3908 26.9927 15.1038 26.9622 15.3984 26.9204C15.678 26.8807 16.1988 26.7885 16.5555 26.7155C16.9123 26.6424 17.5598 26.4686 17.9944 26.3291C18.4302 26.1893 19.1779 25.887 19.6621 25.6548C20.1448 25.4233 20.8068 25.0621 21.1331 24.8522C21.4594 24.6422 21.9406 24.3039 22.2025 24.1002C22.4644 23.8966 22.9357 23.4821 23.2498 23.1792C23.564 22.8763 23.9938 22.4218 24.205 22.1693C24.4161 21.9167 24.767 21.4527 24.9848 21.1381C25.2024 20.8234 25.577 20.1851 25.8171 19.7196C26.0592 19.2502 26.3702 18.5344 26.5155 18.1124C26.6596 17.694 26.8294 17.126 26.8928 16.8502C26.9562 16.5745 27.0465 16.1087 27.0933 15.8151C27.1402 15.5215 27.1948 14.9013 27.2147 14.4368C27.2365 13.9273 27.2244 13.3007 27.1841 12.8569C27.1473 12.4523 27.0538 11.8149 26.9763 11.4403C26.8988 11.0658 26.7704 10.5509 26.6909 10.2962C26.6115 10.0415 26.457 9.60022 26.3476 9.31555C26.2383 9.03088 26.0113 8.53096 25.8433 8.20456C25.6754 7.87816 25.4086 7.40461 25.2504 7.15219C25.03 6.80035 24.9413 6.70136 24.8701 6.72794C24.819 6.74701 24.4248 6.79496 23.9941 6.83446L23.2109 6.90632L22.8571 7.24448L22.5033 7.58265L22.8692 8.10856C23.0705 8.39786 23.3839 8.92873 23.5657 9.28831C23.7475 9.64789 23.9978 10.2363 24.1218 10.5959C24.2459 10.9554 24.3982 11.4948 24.4602 11.7945C24.5223 12.0941 24.5999 12.5774 24.6328 12.8684C24.6656 13.1593 24.6921 13.6374 24.6916 13.9307C24.691 14.2241 24.6655 14.697 24.6349 14.9816C24.6043 15.2663 24.5258 15.7566 24.4606 16.0713C24.3953 16.3859 24.2461 16.9253 24.129 17.2699C24.0119 17.6145 23.8029 18.1293 23.6646 18.414C23.5263 18.6987 23.2688 19.1599 23.0922 19.439C22.9156 19.718 22.6139 20.1471 22.4217 20.3924C22.2294 20.6377 21.7909 21.1096 21.4472 21.441C21.1035 21.7724 20.6142 22.1952 20.3598 22.3806C20.1053 22.566 19.6604 22.857 19.371 23.0272C19.0816 23.1975 18.6033 23.4459 18.3081 23.5792C18.0129 23.7126 17.479 23.9141 17.1216 24.027C16.7642 24.1399 16.2049 24.2838 15.8786 24.3467C15.5523 24.4096 15.0438 24.4853 14.7486 24.5148C14.4534 24.5444 13.9794 24.5689 13.6953 24.5695C13.4111 24.57 12.9153 24.5446 12.5935 24.5132C12.2717 24.4816 11.7542 24.4056 11.4434 24.3441C11.1327 24.2826 10.5733 24.1361 10.2004 24.0185C9.82752 23.9008 9.2149 23.6586 8.83901 23.4801C8.46312 23.3016 7.90377 22.9933 7.59602 22.7949C7.28826 22.5965 6.82531 22.2614 6.56727 22.0502C6.30924 21.839 5.89335 21.4554 5.64305 21.1978C5.39276 20.9402 5.03574 20.5333 4.84969 20.2936C4.66364 20.0539 4.36854 19.6248 4.19396 19.3402C4.01932 19.0555 3.75614 18.5631 3.60907 18.2458C3.462 17.9286 3.24985 17.377 3.13764 17.02C3.02538 16.663 2.88351 16.089 2.82232 15.7444C2.76113 15.3998 2.69559 14.7869 2.67672 14.3823C2.65666 13.9527 2.66999 13.375 2.70892 12.9931C2.74548 12.6335 2.82785 12.0941 2.89187 11.7945C2.95588 11.4948 3.10453 10.9663 3.22211 10.62C3.33974 10.2736 3.56144 9.73424 3.71484 9.42135C3.86818 9.10847 4.12361 8.65093 4.28238 8.40462C4.4412 8.15825 4.72607 7.76043 4.91551 7.52043C5.10495 7.28044 5.48034 6.86083 5.74961 6.58793C6.01895 6.31503 6.4441 5.93257 6.6944 5.73807C6.94463 5.54351 7.37827 5.237 7.65794 5.05694C7.93761 4.87682 8.4734 4.58474 8.84855 4.40784C9.22377 4.23094 9.83396 3.99046 10.2045 3.87338C10.5752 3.75635 11.1327 3.61034 11.4434 3.54888C11.7542 3.48743 12.2717 3.41137 12.5935 3.37983C12.9153 3.34834 13.4185 3.32257 13.7116 3.32257C14.0048 3.32257 14.4915 3.3485 14.7932 3.38021C15.095 3.41192 15.5961 3.48678 15.9069 3.5466C16.2176 3.60642 16.777 3.75325 17.1499 3.87289C17.5228 3.99253 18.1329 4.23383 18.5058 4.40915C18.8787 4.58447 19.4293 4.88668 19.7293 5.08075L20.2747 5.43362L20.6266 5.09131L20.9784 4.74901L21.0502 3.99493C21.0897 3.58016 21.1392 3.19977 21.1602 3.14959C21.1904 3.0774 21.0762 2.98827 20.6149 2.72392C20.2939 2.54005 19.8187 2.29101 19.5588 2.17055C19.2989 2.05009 18.854 1.86486 18.5701 1.75894C18.2862 1.65298 17.8123 1.4958 17.5171 1.40955C17.2219 1.32336 16.6625 1.19326 16.2741 1.12042C15.8857 1.04763 15.2901 0.961659 14.9507 0.929461C14.6112 0.897262 14.001 0.874216 13.5947 0.878248C13.1883 0.88228 12.6271 0.906143 12.3474 0.931204ZM12.6581 5.82911C12.4562 5.85591 12.0494 5.93104 11.7542 5.99609C11.4589 6.06114 11.0394 6.17577 10.8219 6.25085C10.6044 6.32592 10.1976 6.49781 9.91792 6.63287C9.63825 6.76793 9.2045 7.00989 8.95398 7.17055C8.70352 7.33122 8.31537 7.62172 8.09152 7.81616C7.86761 8.01066 7.51946 8.34638 7.31776 8.56229C7.11611 8.77814 6.81485 9.15243 6.64824 9.39395C6.48162 9.63552 6.22653 10.0612 6.08143 10.34C5.93629 10.6188 5.74368 11.0601 5.65351 11.3207C5.56328 11.5813 5.43231 12.0519 5.36237 12.3665C5.25654 12.8429 5.23524 13.1071 5.23524 13.9465C5.23524 14.7858 5.25654 15.0501 5.36237 15.5265C5.43231 15.8411 5.56328 16.3117 5.65351 16.5723C5.74368 16.8329 5.93629 17.2742 6.08143 17.553C6.22653 17.8317 6.48162 18.2575 6.64824 18.499C6.81485 18.7406 7.11611 19.1148 7.31776 19.3307C7.51946 19.5466 7.86761 19.8823 8.09152 20.0768C8.31537 20.2713 8.70928 20.5655 8.96681 20.7308C9.22433 20.8961 9.69627 21.1545 10.0155 21.3051C10.3347 21.4557 10.8375 21.6504 11.1327 21.7376C11.4279 21.825 11.8982 21.9396 12.1779 21.9925C12.5527 22.0633 12.9539 22.088 13.7034 22.0863C14.5359 22.0845 14.828 22.062 15.3136 21.9622C15.6399 21.8952 16.1357 21.765 16.4154 21.6731C16.695 21.5812 17.1527 21.3954 17.4324 21.2603C17.712 21.1251 18.157 20.8777 18.4211 20.7105C18.7236 20.519 19.174 20.1436 19.6378 19.6962C20.1017 19.2489 20.4911 18.8146 20.6897 18.523C20.8631 18.2683 21.1196 17.8392 21.2598 17.5695C21.3999 17.2998 21.5926 16.8585 21.688 16.5889C21.7833 16.3192 21.9182 15.8411 21.9877 15.5265C22.0912 15.0582 22.1146 14.7765 22.1164 13.9737C22.1181 13.251 22.0925 12.8641 22.0191 12.5027C21.9643 12.233 21.8428 11.7714 21.7492 11.4768C21.6556 11.1822 21.4145 10.6306 21.2135 10.2509C21.0126 9.87132 20.8101 9.51245 20.7635 9.45344C20.6827 9.35113 20.6366 9.38681 19.7551 10.2357L18.8314 11.1252L18.9621 11.3509C19.034 11.475 19.1818 11.834 19.2905 12.1486C19.3992 12.4632 19.5184 12.9413 19.5554 13.211C19.5948 13.4982 19.6085 13.9383 19.5885 14.2734C19.5698 14.588 19.5054 15.0301 19.4453 15.2557C19.3852 15.4814 19.2579 15.8614 19.1623 16.1002C19.0667 16.339 18.8352 16.7628 18.6479 17.042C18.4606 17.3212 18.1058 17.744 17.8595 17.9815C17.6133 18.2189 17.1748 18.561 16.8853 18.7417C16.5958 18.9223 16.1563 19.1455 15.9086 19.2376C15.661 19.3298 15.2669 19.4554 15.0329 19.5166C14.6944 19.6052 14.4283 19.6287 13.7316 19.6317C13.1157 19.6343 12.7378 19.6094 12.4578 19.5475C12.2389 19.4992 11.8278 19.3756 11.5443 19.2729C11.2607 19.1702 10.8073 18.9534 10.5365 18.7909C10.2636 18.6273 9.82334 18.2882 9.54864 18.0303C9.24224 17.7424 8.92121 17.3682 8.70748 17.0496C8.5173 16.7662 8.28356 16.339 8.18802 16.1002C8.09242 15.8614 7.96185 15.4814 7.89778 15.2557C7.80213 14.9186 7.78139 14.6852 7.78139 13.9465C7.78139 13.2078 7.80213 12.9744 7.89778 12.6372C7.96185 12.4116 8.09242 12.0316 8.18802 11.7928C8.28356 11.554 8.51504 11.1302 8.70233 10.851C8.88969 10.5718 9.24445 10.149 9.49073 9.91153C9.73701 9.67404 10.1754 9.33195 10.465 9.15129C10.7545 8.97068 11.194 8.74747 11.4417 8.65534C11.6893 8.56316 12.0834 8.43742 12.3174 8.37591C12.6593 8.28607 12.9205 8.26329 13.6469 8.26002C14.4223 8.25659 14.6232 8.27419 15.0594 8.38391C15.339 8.4543 15.8058 8.61023 16.0967 8.73042L16.6256 8.949L17.5359 8.07114C18.4035 7.23451 18.441 7.18951 18.3348 7.11269C18.2735 7.06835 17.9303 6.88529 17.5723 6.70588C17.2142 6.52653 16.6829 6.30271 16.3916 6.20863C16.1003 6.11454 15.6178 5.98994 15.3194 5.9318C14.9772 5.86512 14.4535 5.81761 13.9011 5.80323C13.4195 5.79064 12.8601 5.8023 12.6581 5.82911ZM12.8391 10.7878C12.6123 10.8451 12.269 10.9716 12.0763 11.0689C11.8666 11.1749 11.555 11.4108 11.3002 11.6564C11.046 11.9016 10.8009 12.2026 10.6915 12.4039C10.5908 12.5892 10.4582 12.9303 10.3968 13.1617C10.3354 13.3932 10.2852 13.7463 10.2852 13.9465C10.2852 14.1467 10.3354 14.4998 10.3968 14.7312C10.4582 14.9627 10.5908 15.3037 10.6915 15.4891C10.8009 15.6904 11.046 15.9914 11.3002 16.2366C11.5545 16.4817 11.8666 16.7181 12.0754 16.8236C12.2676 16.9207 12.6213 17.0486 12.8613 17.1078C13.1013 17.167 13.4676 17.2154 13.6751 17.2154C13.8827 17.2154 14.2489 17.167 14.489 17.1078C14.729 17.0486 15.0827 16.9207 15.2749 16.8236C15.4836 16.7181 15.7957 16.4817 16.05 16.2366C16.3043 15.9914 16.5494 15.6904 16.6588 15.4891C16.7595 15.3037 16.8921 14.9627 16.9535 14.7312C17.0149 14.4998 17.0651 14.1562 17.0651 13.9677C17.0651 13.7792 17.0367 13.4951 17.0019 13.3362C16.9672 13.1775 16.9286 13.0369 16.9163 13.024C16.9039 13.011 16.3539 13.5171 15.6941 14.1486C14.5857 15.2095 14.471 15.3036 14.1875 15.3844C14.0187 15.4326 13.7881 15.472 13.6751 15.472C13.5621 15.472 13.3342 15.4332 13.1686 15.3857C12.9445 15.3216 12.7913 15.2261 12.5697 15.0124C12.3482 14.7988 12.2491 14.6511 12.1826 14.435C12.1334 14.2753 12.0932 14.0555 12.0932 13.9465C12.0932 13.8375 12.134 13.6152 12.1839 13.4525C12.2678 13.179 12.3653 13.0685 13.4655 11.9996C14.1205 11.3634 14.6453 10.833 14.6318 10.8211C14.6184 10.8092 14.4726 10.772 14.308 10.7385C14.1433 10.705 13.8382 10.679 13.63 10.6806C13.4217 10.6822 13.0658 10.7305 12.8391 10.7878Z" fill="#2A8981"/>
</svg>
