<svg width="29" height="44" viewBox="0 0 29 44" fill="none" xmlns="http://www.w3.org/2000/svg">
<path d="M7.92586 43.07C7.27919 43.07 6.68253 42.92 6.13586 42.62C5.59586 42.3133 5.16586 41.89 4.84586 41.35C4.53253 40.8033 4.37586 40.19 4.37586 39.51C4.37586 38.83 4.53253 38.22 4.84586 37.68C5.16586 37.14 5.59586 36.72 6.13586 36.42C6.68253 36.1133 7.27919 35.96 7.92586 35.96C8.57919 35.96 9.17586 36.1133 9.71586 36.42C10.2625 36.72 10.6925 37.14 11.0059 37.68C11.3192 38.22 11.4759 38.83 11.4759 39.51C11.4759 40.19 11.3192 40.8033 11.0059 41.35C10.6925 41.89 10.2625 42.3133 9.71586 42.62C9.17586 42.92 8.57919 43.07 7.92586 43.07ZM7.92586 42.08C8.38586 42.08 8.79586 41.9767 9.15586 41.77C9.51586 41.5567 9.79586 41.2567 9.99586 40.87C10.2025 40.4767 10.3059 40.0233 10.3059 39.51C10.3059 38.9967 10.2025 38.5467 9.99586 38.16C9.79586 37.7733 9.51586 37.4767 9.15586 37.27C8.79586 37.0633 8.38586 36.96 7.92586 36.96C7.46586 36.96 7.05586 37.0633 6.69586 37.27C6.33586 37.4767 6.05253 37.7733 5.84586 38.16C5.64586 38.5467 5.54586 38.9967 5.54586 39.51C5.54586 40.0233 5.64586 40.4767 5.84586 40.87C6.05253 41.2567 6.33586 41.5567 6.69586 41.77C7.05586 41.9767 7.46586 42.08 7.92586 42.08ZM16.4277 43L13.7377 39.89V43H12.5977V36.05H13.7377V39.22L16.4377 36.05H17.8677L14.8477 39.53L17.9177 43H16.4277ZM22.5358 43L20.9358 40.22H20.0658V43H18.9258V36.05H21.3258C21.8591 36.05 22.3091 36.1433 22.6758 36.33C23.0491 36.5167 23.3258 36.7667 23.5058 37.08C23.6924 37.3933 23.7858 37.7433 23.7858 38.13C23.7858 38.5833 23.6524 38.9967 23.3858 39.37C23.1258 39.7367 22.7224 39.9867 22.1758 40.12L23.8958 43H22.5358ZM20.0658 39.31H21.3258C21.7524 39.31 22.0724 39.2033 22.2858 38.99C22.5058 38.7767 22.6158 38.49 22.6158 38.13C22.6158 37.77 22.5091 37.49 22.2958 37.29C22.0824 37.0833 21.7591 36.98 21.3258 36.98H20.0658V39.31Z" fill="#C4C4C4"/>
<path fill-rule="evenodd" clip-rule="evenodd" d="M24.9546 0.0408647C24.9211 0.0628753 24.3183 0.726734 23.6148 1.51601C22.6324 2.61839 22.3106 3.01633 22.2272 3.23218C22.1605 3.40473 22.0942 3.79503 22.0556 4.24293C22.0209 4.64424 21.9926 5.01166 21.9926 5.05933C21.9926 5.10706 20.0031 7.06508 17.5715 9.41057L13.1504 13.675V13.9459C13.1504 14.1792 13.176 14.2415 13.3351 14.3949C13.4942 14.5484 13.5588 14.573 13.8011 14.573H14.0824L18.5036 10.3136L22.9248 6.05417L23.7831 5.98814C24.3991 5.94079 24.7247 5.88969 24.9362 5.80731C25.1515 5.72352 25.6316 5.36176 26.7156 4.46668C27.5322 3.79247 28.2172 3.19546 28.2378 3.14C28.2584 3.08454 28.2523 3.01709 28.2243 2.99007C28.1963 2.9631 27.6662 2.90306 27.0463 2.85675C26.3735 2.80652 25.845 2.74092 25.735 2.69401C25.6248 2.64705 25.5179 2.54413 25.4688 2.43784C25.4199 2.3322 25.3525 1.83952 25.3024 1.22219C25.256 0.651277 25.2015 0.142527 25.1812 0.0916961C25.161 0.0408102 25.1154 -0.00043243 25.0799 3.42305e-06C25.0443 0.000493758 24.9879 0.0188541 24.9546 0.0408647ZM12.4724 0.931204C12.1927 0.95632 11.6207 1.04197 11.2012 1.12156C10.7817 1.20122 10.1228 1.36346 9.73692 1.48212C9.35114 1.60078 8.77908 1.80405 8.46568 1.93383C8.15233 2.06355 7.62898 2.30986 7.30269 2.4811C6.97641 2.65233 6.49334 2.93509 6.2292 3.10944C5.96507 3.28378 5.53296 3.59307 5.26899 3.79672C5.00497 4.00037 4.53461 4.41231 4.22375 4.71212C3.91284 5.01188 3.48564 5.46544 3.27445 5.72003C3.06325 5.97457 2.74251 6.39125 2.56171 6.64595C2.38091 6.90065 2.08768 7.36647 1.9101 7.6811C1.73252 7.99573 1.4781 8.49833 1.34471 8.79798C1.21137 9.09762 1.00746 9.62473 0.891639 9.96933C0.775815 10.3139 0.609311 10.9307 0.521624 11.3399C0.433936 11.7491 0.33122 12.4233 0.293422 12.8381C0.251274 13.3003 0.238618 13.9193 0.260709 14.4368C0.280484 14.9013 0.335062 15.5215 0.381957 15.8151C0.428795 16.1087 0.518347 16.5704 0.580892 16.8411C0.643437 17.1119 0.786324 17.6072 0.898419 17.9418C1.01057 18.2764 1.21137 18.7954 1.34477 19.095C1.4781 19.3947 1.71857 19.8727 1.87914 20.1574C2.03965 20.4421 2.33221 20.9079 2.52922 21.1926C2.72618 21.4772 3.06088 21.9184 3.27292 22.173C3.48497 22.4275 3.91284 22.8811 4.22375 23.1809C4.53461 23.4807 5.00497 23.8933 5.26899 24.0977C5.53296 24.3022 5.99049 24.6246 6.2857 24.8141C6.58091 25.0035 7.05709 25.2834 7.34394 25.4359C7.63073 25.5884 8.12651 25.8207 8.44568 25.952C8.76479 26.0834 9.31464 26.2808 9.66754 26.3908C10.0204 26.5006 10.5924 26.6488 10.9388 26.72C11.2851 26.7912 11.8099 26.8819 12.1052 26.9215C12.4125 26.9628 13.1492 26.9934 13.8284 26.9931C14.5158 26.9927 15.2288 26.9622 15.5234 26.9204C15.803 26.8807 16.3238 26.7885 16.6805 26.7155C17.0373 26.6424 17.6848 26.4686 18.1194 26.3291C18.5552 26.1893 19.3029 25.887 19.7871 25.6548C20.2698 25.4233 20.9318 25.0621 21.2581 24.8522C21.5844 24.6422 22.0656 24.3039 22.3275 24.1002C22.5894 23.8966 23.0607 23.4821 23.3748 23.1792C23.689 22.8763 24.1188 22.4218 24.33 22.1693C24.5411 21.9167 24.892 21.4527 25.1098 21.1381C25.3274 20.8234 25.702 20.1851 25.9421 19.7196C26.1842 19.2502 26.4952 18.5344 26.6405 18.1124C26.7846 17.694 26.9544 17.126 27.0178 16.8502C27.0812 16.5745 27.1715 16.1087 27.2183 15.8151C27.2652 15.5215 27.3198 14.9013 27.3397 14.4368C27.3615 13.9273 27.3494 13.3007 27.3091 12.8569C27.2723 12.4523 27.1788 11.8149 27.1013 11.4403C27.0238 11.0658 26.8954 10.5509 26.8159 10.2962C26.7365 10.0415 26.582 9.60022 26.4726 9.31555C26.3633 9.03088 26.1363 8.53096 25.9683 8.20456C25.8004 7.87816 25.5336 7.40461 25.3754 7.15219C25.155 6.80035 25.0663 6.70136 24.9951 6.72794C24.944 6.74701 24.5498 6.79496 24.1191 6.83446L23.3359 6.90632L22.9821 7.24448L22.6283 7.58265L22.9942 8.10856C23.1955 8.39786 23.5089 8.92873 23.6907 9.28831C23.8725 9.64789 24.1228 10.2363 24.2468 10.5959C24.3709 10.9554 24.5232 11.4948 24.5852 11.7945C24.6473 12.0941 24.7249 12.5774 24.7578 12.8684C24.7906 13.1593 24.8171 13.6374 24.8166 13.9307C24.816 14.2241 24.7905 14.697 24.7599 14.9816C24.7293 15.2663 24.6508 15.7566 24.5856 16.0713C24.5203 16.3859 24.3711 16.9253 24.254 17.2699C24.1369 17.6145 23.9279 18.1293 23.7896 18.414C23.6513 18.6987 23.3938 19.1599 23.2172 19.439C23.0406 19.718 22.7389 20.1471 22.5467 20.3924C22.3544 20.6377 21.9159 21.1096 21.5722 21.441C21.2285 21.7724 20.7392 22.1952 20.4848 22.3806C20.2303 22.566 19.7854 22.857 19.496 23.0272C19.2066 23.1975 18.7283 23.4459 18.4331 23.5792C18.1379 23.7126 17.604 23.9141 17.2466 24.027C16.8892 24.1399 16.3299 24.2838 16.0036 24.3467C15.6773 24.4096 15.1688 24.4853 14.8736 24.5148C14.5784 24.5444 14.1044 24.5689 13.8203 24.5695C13.5361 24.57 13.0403 24.5446 12.7185 24.5132C12.3967 24.4816 11.8792 24.4056 11.5684 24.3441C11.2577 24.2826 10.6983 24.1361 10.3254 24.0185C9.95252 23.9008 9.3399 23.6586 8.96401 23.4801C8.58812 23.3016 8.02877 22.9933 7.72102 22.7949C7.41326 22.5965 6.95031 22.2614 6.69227 22.0502C6.43424 21.839 6.01835 21.4554 5.76805 21.1978C5.51776 20.9402 5.16074 20.5333 4.97469 20.2936C4.78864 20.0539 4.49354 19.6248 4.31896 19.3402C4.14432 19.0555 3.88114 18.5631 3.73407 18.2458C3.587 17.9286 3.37485 17.377 3.26264 17.02C3.15038 16.663 3.00851 16.089 2.94732 15.7444C2.88613 15.3998 2.82059 14.7869 2.80172 14.3823C2.78166 13.9527 2.79499 13.375 2.83392 12.9931C2.87048 12.6335 2.95285 12.0941 3.01687 11.7945C3.08088 11.4948 3.22953 10.9663 3.34711 10.62C3.46474 10.2736 3.68644 9.73424 3.83984 9.42135C3.99318 9.10847 4.24861 8.65093 4.40738 8.40462C4.5662 8.15825 4.85107 7.76043 5.04051 7.52043C5.22995 7.28044 5.60534 6.86083 5.87461 6.58793C6.14395 6.31503 6.5691 5.93257 6.8194 5.73807C7.06963 5.54351 7.50327 5.237 7.78294 5.05694C8.06261 4.87682 8.5984 4.58474 8.97355 4.40784C9.34877 4.23094 9.95896 3.99046 10.3295 3.87338C10.7002 3.75635 11.2577 3.61034 11.5684 3.54888C11.8792 3.48743 12.3967 3.41137 12.7185 3.37983C13.0403 3.34834 13.5435 3.32257 13.8366 3.32257C14.1298 3.32257 14.6165 3.3485 14.9182 3.38021C15.22 3.41192 15.7211 3.48678 16.0319 3.5466C16.3426 3.60642 16.902 3.75325 17.2749 3.87289C17.6478 3.99253 18.2579 4.23383 18.6308 4.40915C19.0037 4.58447 19.5543 4.88668 19.8543 5.08075L20.3997 5.43362L20.7516 5.09131L21.1034 4.74901L21.1752 3.99493C21.2147 3.58016 21.2642 3.19977 21.2852 3.14959C21.3154 3.0774 21.2012 2.98827 20.7399 2.72392C20.4189 2.54005 19.9437 2.29101 19.6838 2.17055C19.4239 2.05009 18.979 1.86486 18.6951 1.75894C18.4112 1.65298 17.9373 1.4958 17.6421 1.40955C17.3469 1.32336 16.7875 1.19326 16.3991 1.12042C16.0107 1.04763 15.4151 0.961659 15.0757 0.929461C14.7362 0.897262 14.126 0.874216 13.7197 0.878248C13.3133 0.88228 12.7521 0.906143 12.4724 0.931204ZM12.7831 5.82911C12.5812 5.85591 12.1744 5.93104 11.8792 5.99609C11.5839 6.06114 11.1644 6.17577 10.9469 6.25085C10.7294 6.32592 10.3226 6.49781 10.0429 6.63287C9.76325 6.76793 9.3295 7.00989 9.07898 7.17055C8.82852 7.33122 8.44037 7.62172 8.21652 7.81616C7.99261 8.01066 7.64446 8.34638 7.44276 8.56229C7.24111 8.77814 6.93985 9.15243 6.77324 9.39395C6.60662 9.63552 6.35153 10.0612 6.20643 10.34C6.06129 10.6188 5.86868 11.0601 5.77851 11.3207C5.68828 11.5813 5.55731 12.0519 5.48737 12.3665C5.38154 12.8429 5.36024 13.1071 5.36024 13.9465C5.36024 14.7858 5.38154 15.0501 5.48737 15.5265C5.55731 15.8411 5.68828 16.3117 5.77851 16.5723C5.86868 16.8329 6.06129 17.2742 6.20643 17.553C6.35153 17.8317 6.60662 18.2575 6.77324 18.499C6.93985 18.7406 7.24111 19.1148 7.44276 19.3307C7.64446 19.5466 7.99261 19.8823 8.21652 20.0768C8.44037 20.2713 8.83428 20.5655 9.09181 20.7308C9.34933 20.8961 9.82127 21.1545 10.1405 21.3051C10.4597 21.4557 10.9625 21.6504 11.2577 21.7376C11.5529 21.825 12.0232 21.9396 12.3029 21.9925C12.6777 22.0633 13.0789 22.088 13.8284 22.0863C14.6609 22.0845 14.953 22.062 15.4386 21.9622C15.7649 21.8952 16.2607 21.765 16.5404 21.6731C16.82 21.5812 17.2777 21.3954 17.5574 21.2603C17.837 21.1251 18.282 20.8777 18.5461 20.7105C18.8486 20.519 19.299 20.1436 19.7628 19.6962C20.2267 19.2489 20.6161 18.8146 20.8147 18.523C20.9881 18.2683 21.2446 17.8392 21.3848 17.5695C21.5249 17.2998 21.7176 16.8585 21.813 16.5889C21.9083 16.3192 22.0432 15.8411 22.1127 15.5265C22.2162 15.0582 22.2396 14.7765 22.2414 13.9737C22.2431 13.251 22.2175 12.8641 22.1441 12.5027C22.0893 12.233 21.9678 11.7714 21.8742 11.4768C21.7806 11.1822 21.5395 10.6306 21.3385 10.2509C21.1376 9.87132 20.9351 9.51245 20.8885 9.45344C20.8077 9.35113 20.7616 9.38681 19.8801 10.2357L18.9564 11.1252L19.0871 11.3509C19.159 11.475 19.3068 11.834 19.4155 12.1486C19.5242 12.4632 19.6434 12.9413 19.6804 13.211C19.7198 13.4982 19.7335 13.9383 19.7135 14.2734C19.6948 14.588 19.6304 15.0301 19.5703 15.2557C19.5102 15.4814 19.3829 15.8614 19.2873 16.1002C19.1917 16.339 18.9602 16.7628 18.7729 17.042C18.5856 17.3212 18.2308 17.744 17.9845 17.9815C17.7383 18.2189 17.2998 18.561 17.0103 18.7417C16.7208 18.9223 16.2813 19.1455 16.0336 19.2376C15.786 19.3298 15.3919 19.4554 15.1579 19.5166C14.8194 19.6052 14.5533 19.6287 13.8566 19.6317C13.2407 19.6343 12.8628 19.6094 12.5828 19.5475C12.3639 19.4992 11.9528 19.3756 11.6693 19.2729C11.3857 19.1702 10.9323 18.9534 10.6615 18.7909C10.3886 18.6273 9.94834 18.2882 9.67364 18.0303C9.36724 17.7424 9.04621 17.3682 8.83248 17.0496C8.6423 16.7662 8.40856 16.339 8.31302 16.1002C8.21742 15.8614 8.08685 15.4814 8.02278 15.2557C7.92713 14.9186 7.90639 14.6852 7.90639 13.9465C7.90639 13.2078 7.92713 12.9744 8.02278 12.6372C8.08685 12.4116 8.21742 12.0316 8.31302 11.7928C8.40856 11.554 8.64004 11.1302 8.82733 10.851C9.01469 10.5718 9.36945 10.149 9.61573 9.91153C9.86201 9.67404 10.3004 9.33195 10.59 9.15129C10.8795 8.97068 11.319 8.74747 11.5667 8.65534C11.8143 8.56316 12.2084 8.43742 12.4424 8.37591C12.7843 8.28607 13.0455 8.26329 13.7719 8.26002C14.5473 8.25659 14.7482 8.27419 15.1844 8.38391C15.464 8.4543 15.9308 8.61023 16.2217 8.73042L16.7506 8.949L17.6609 8.07114C18.5285 7.23451 18.566 7.18951 18.4598 7.11269C18.3985 7.06835 18.0553 6.88529 17.6973 6.70588C17.3392 6.52653 16.8079 6.30271 16.5166 6.20863C16.2253 6.11454 15.7428 5.98994 15.4444 5.9318C15.1022 5.86512 14.5785 5.81761 14.0261 5.80323C13.5445 5.79064 12.9851 5.8023 12.7831 5.82911ZM12.9641 10.7878C12.7373 10.8451 12.394 10.9716 12.2013 11.0689C11.9916 11.1749 11.68 11.4108 11.4252 11.6564C11.171 11.9016 10.9259 12.2026 10.8165 12.4039C10.7158 12.5892 10.5832 12.9303 10.5218 13.1617C10.4604 13.3932 10.4102 13.7463 10.4102 13.9465C10.4102 14.1467 10.4604 14.4998 10.5218 14.7312C10.5832 14.9627 10.7158 15.3037 10.8165 15.4891C10.9259 15.6904 11.171 15.9914 11.4252 16.2366C11.6795 16.4817 11.9916 16.7181 12.2004 16.8236C12.3926 16.9207 12.7463 17.0486 12.9863 17.1078C13.2263 17.167 13.5926 17.2154 13.8001 17.2154C14.0077 17.2154 14.3739 17.167 14.614 17.1078C14.854 17.0486 15.2077 16.9207 15.3999 16.8236C15.6086 16.7181 15.9207 16.4817 16.175 16.2366C16.4293 15.9914 16.6744 15.6904 16.7838 15.4891C16.8845 15.3037 17.0171 14.9627 17.0785 14.7312C17.1399 14.4998 17.1901 14.1562 17.1901 13.9677C17.1901 13.7792 17.1617 13.4951 17.1269 13.3362C17.0922 13.1775 17.0536 13.0369 17.0413 13.024C17.0289 13.011 16.4789 13.5171 15.8191 14.1486C14.7107 15.2095 14.596 15.3036 14.3125 15.3844C14.1437 15.4326 13.9131 15.472 13.8001 15.472C13.6871 15.472 13.4592 15.4332 13.2936 15.3857C13.0695 15.3216 12.9163 15.2261 12.6947 15.0124C12.4732 14.7988 12.3741 14.6511 12.3076 14.435C12.2584 14.2753 12.2182 14.0555 12.2182 13.9465C12.2182 13.8375 12.259 13.6152 12.3089 13.4525C12.3928 13.179 12.4903 13.0685 13.5905 11.9996C14.2455 11.3634 14.7703 10.833 14.7568 10.8211C14.7434 10.8092 14.5976 10.772 14.433 10.7385C14.2683 10.705 13.9632 10.679 13.755 10.6806C13.5467 10.6822 13.1908 10.7305 12.9641 10.7878Z" fill="#C4C4C4"/>
</svg>
