<svg width="208" height="208" viewBox="0 0 208 208" fill="none" xmlns="http://www.w3.org/2000/svg">
<path fill-rule="evenodd" clip-rule="evenodd" d="M103.997 18.6666V-6.86646e-05C75.3589 -6.86646e-05 49.4317 11.8463 30.6641 30.6666L43.6576 43.6602C59.0999 28.2179 80.4333 18.6666 103.997 18.6666Z" fill="#C4C4C4" fill-opacity="0.2"/>
<path fill-rule="evenodd" clip-rule="evenodd" d="M18.6686 103.999H0.00188446C0.00188446 75.3609 11.8483 49.4337 30.6686 30.666L43.6621 43.6596C28.2198 59.1019 18.6686 80.4352 18.6686 103.999Z" fill="#C4C4C4" fill-opacity="0.2"/>
<path fill-rule="evenodd" clip-rule="evenodd" d="M18.6686 104.001H0.00188446C0.00188446 132.639 11.8483 158.566 30.6686 177.334L43.6621 164.34C28.2198 148.898 18.6686 127.565 18.6686 104.001Z" fill="#C4C4C4" fill-opacity="0.2"/>
<path fill-rule="evenodd" clip-rule="evenodd" d="M103.997 189.333V208C75.3589 208 49.4317 196.154 30.6641 177.333L43.6576 164.34C59.0999 179.782 80.4333 189.333 103.997 189.333Z" fill="#C4C4C4" fill-opacity="0.2"/>
<path fill-rule="evenodd" clip-rule="evenodd" d="M104.003 189.333V208C132.641 208 158.568 196.154 177.336 177.333L164.342 164.34C148.9 179.782 127.567 189.333 104.003 189.333Z" fill="#C4C4C4" fill-opacity="0.2"/>
<path fill-rule="evenodd" clip-rule="evenodd" d="M189.331 104.001H207.998C207.998 132.639 196.152 158.566 177.331 177.334L164.338 164.34C179.78 148.898 189.331 127.565 189.331 104.001Z" fill="#C4C4C4" fill-opacity="0.2"/>
<path fill-rule="evenodd" clip-rule="evenodd" d="M189.331 103.999H207.998C207.998 75.3609 196.152 49.4337 177.331 30.666L164.338 43.6596C179.78 59.1019 189.331 80.4352 189.331 103.999Z" fill="#FEBF01"/>
<path fill-rule="evenodd" clip-rule="evenodd" d="M104.003 18.6666V-6.86646e-05C132.641 -6.86646e-05 158.568 11.8463 177.336 30.6666L164.342 43.6602C148.9 28.2179 127.567 18.6666 104.003 18.6666Z" fill="#FEBF01"/>
<path d="M80.4074 107.334H58.0127V101.123L67.7594 92.782C68.6358 92.0264 69.3763 91.3464 69.9807 90.742C70.5851 90.1073 71.0687 89.5029 71.4314 88.9286C71.8243 88.3242 72.0963 87.7349 72.2474 87.1606C72.4287 86.5864 72.5194 85.9669 72.5194 85.302V84.6673C72.5194 84.0629 72.3985 83.534 72.1567 83.0806C71.9149 82.6273 71.5976 82.2495 71.2047 81.9473C70.8118 81.6451 70.3585 81.4184 69.8447 81.2673C69.3611 81.1162 68.8625 81.0406 68.3487 81.0406C67.5931 81.0406 66.9283 81.1615 66.354 81.4033C65.81 81.6451 65.3265 81.9775 64.9034 82.4006C64.5105 82.7935 64.178 83.262 63.906 83.806C63.634 84.3198 63.4225 84.8789 63.2714 85.4833L57.3327 83.2166C57.6954 82.1286 58.194 81.1011 58.8287 80.134C59.4634 79.1366 60.2491 78.2753 61.186 77.55C62.1531 76.7944 63.2865 76.2051 64.586 75.782C65.8856 75.3589 67.3514 75.1473 68.9834 75.1473C70.706 75.1473 72.2323 75.3891 73.562 75.8726C74.8918 76.3562 76.01 77.0211 76.9167 77.8673C77.8536 78.7135 78.5638 79.726 79.0474 80.9046C79.5309 82.0531 79.7727 83.3073 79.7727 84.6673C79.7727 86.0273 79.546 87.2664 79.0927 88.3846C78.6394 89.5029 78.0198 90.5606 77.234 91.558C76.4785 92.5251 75.5869 93.4469 74.5594 94.3233C73.5318 95.1998 72.4589 96.0913 71.3407 96.998L65.4474 101.622H80.4074V107.334ZM86.419 107.334V101.849H94.9417V80.6326H94.5337L88.0963 89.0646L83.7443 85.6646L91.315 75.6913H101.742V101.849H108.451V107.334H86.419ZM117.001 107.334L138.943 75.6913H144.927L122.985 107.334H117.001ZM119.313 93.0993C116.654 93.0993 114.629 92.3438 113.239 90.8326C111.848 89.3215 111.153 87.0851 111.153 84.1233C111.153 81.1615 111.848 78.9251 113.239 77.414C114.629 75.9029 116.654 75.1473 119.313 75.1473C121.973 75.1473 123.998 75.9029 125.388 77.414C126.778 78.9251 127.473 81.1615 127.473 84.1233C127.473 87.0851 126.778 89.3215 125.388 90.8326C123.998 92.3438 121.973 93.0993 119.313 93.0993ZM119.313 89.2006C120.099 89.2006 120.688 88.8984 121.081 88.294C121.474 87.6593 121.671 86.662 121.671 85.302V82.9446C121.671 81.5846 121.474 80.6024 121.081 79.998C120.688 79.3633 120.099 79.046 119.313 79.046C118.528 79.046 117.938 79.3633 117.545 79.998C117.152 80.6024 116.956 81.5846 116.956 82.9446V85.302C116.956 86.662 117.152 87.6593 117.545 88.294C117.938 88.8984 118.528 89.2006 119.313 89.2006ZM142.615 107.878C139.955 107.878 137.93 107.122 136.54 105.611C135.15 104.1 134.455 101.864 134.455 98.902C134.455 95.9402 135.15 93.7038 136.54 92.1926C137.93 90.6815 139.955 89.926 142.615 89.926C145.274 89.926 147.299 90.6815 148.689 92.1926C150.08 93.7038 150.775 95.9402 150.775 98.902C150.775 101.864 150.08 104.1 148.689 105.611C147.299 107.122 145.274 107.878 142.615 107.878ZM142.615 103.979C143.4 103.979 143.99 103.677 144.383 103.073C144.776 102.438 144.972 101.441 144.972 100.081V97.7233C144.972 96.3633 144.776 95.3811 144.383 94.7766C143.99 94.142 143.4 93.8246 142.615 93.8246C141.829 93.8246 141.24 94.142 140.847 94.7766C140.454 95.3811 140.257 96.3633 140.257 97.7233V100.081C140.257 101.441 140.454 102.438 140.847 103.073C141.24 103.677 141.829 103.979 142.615 103.979Z" fill="#263238"/>
<path d="M45.8698 128V126.387H47.0698V120.307H45.8698V118.693H50.2965V120.307H49.0965V126.387H50.2965V128H45.8698ZM56.825 123.6L55.9317 121.733H55.8917V128H53.985V118.693H56.1983L58.745 123.093L59.6383 124.96H59.6783V118.693H61.585V128H59.3717L56.825 123.6ZM69.3934 128.16C68.7623 128.16 68.1934 128.062 67.6868 127.867C67.1801 127.662 66.749 127.364 66.3934 126.973C66.0379 126.573 65.7623 126.08 65.5668 125.493C65.3712 124.898 65.2734 124.204 65.2734 123.413C65.2734 122.631 65.3712 121.938 65.5668 121.333C65.7623 120.72 66.0379 120.209 66.3934 119.8C66.749 119.382 67.1801 119.067 67.6868 118.853C68.1934 118.64 68.7623 118.533 69.3934 118.533C70.2557 118.533 70.9668 118.711 71.5268 119.067C72.0868 119.413 72.5357 119.964 72.8734 120.72L71.1268 121.627C71.0023 121.236 70.8068 120.924 70.5401 120.693C70.2823 120.453 69.9001 120.333 69.3934 120.333C68.7979 120.333 68.3179 120.529 67.9534 120.92C67.5979 121.302 67.4201 121.862 67.4201 122.6V124.093C67.4201 124.831 67.5979 125.396 67.9534 125.787C68.3179 126.169 68.7979 126.36 69.3934 126.36C69.8912 126.36 70.2868 126.227 70.5801 125.96C70.8823 125.684 71.1046 125.356 71.2468 124.973L72.9001 125.933C72.5534 126.644 72.0957 127.196 71.5268 127.587C70.9668 127.969 70.2557 128.16 69.3934 128.16ZM78.345 128H76.3183V118.693H80.7317C81.1583 118.693 81.545 118.764 81.8917 118.907C82.2383 119.049 82.5317 119.253 82.7717 119.52C83.0206 119.778 83.2117 120.089 83.345 120.453C83.4783 120.818 83.545 121.222 83.545 121.667C83.545 122.298 83.4028 122.849 83.1183 123.32C82.8428 123.791 82.4206 124.133 81.8517 124.347L83.6783 128H81.425L79.7983 124.587H78.345V128ZM80.4783 122.88C80.7806 122.88 81.0161 122.804 81.185 122.653C81.3628 122.493 81.4517 122.262 81.4517 121.96V121.373C81.4517 121.071 81.3628 120.844 81.185 120.693C81.0161 120.533 80.7806 120.453 80.4783 120.453H78.345V122.88H80.4783ZM87.3027 128V118.693H93.636V120.493H89.3294V122.4H93.0227V124.187H89.3294V126.2H93.636V128H87.3027ZM103.135 128L102.468 125.787H99.3617L98.695 128H96.6417L99.7083 118.693H102.215L105.242 128H103.135ZM100.935 120.533H100.868L99.8417 124.067H101.975L100.935 120.533ZM111.543 128.16C110.725 128.16 110.031 128.022 109.463 127.747C108.894 127.462 108.409 127.098 108.009 126.653L109.343 125.307C109.974 126.018 110.751 126.373 111.676 126.373C112.174 126.373 112.543 126.271 112.783 126.067C113.023 125.862 113.143 125.591 113.143 125.253C113.143 124.996 113.071 124.782 112.929 124.613C112.787 124.436 112.498 124.316 112.063 124.253L111.143 124.133C110.156 124.009 109.431 123.711 108.969 123.24C108.516 122.769 108.289 122.142 108.289 121.36C108.289 120.942 108.369 120.56 108.529 120.213C108.689 119.867 108.916 119.569 109.209 119.32C109.511 119.071 109.876 118.88 110.303 118.747C110.738 118.604 111.231 118.533 111.783 118.533C112.485 118.533 113.103 118.644 113.636 118.867C114.169 119.089 114.627 119.413 115.009 119.84L113.663 121.2C113.44 120.942 113.169 120.733 112.849 120.573C112.538 120.404 112.143 120.32 111.663 120.32C111.209 120.32 110.871 120.4 110.649 120.56C110.427 120.72 110.316 120.942 110.316 121.227C110.316 121.547 110.4 121.778 110.569 121.92C110.747 122.062 111.031 122.164 111.423 122.227L112.343 122.373C113.303 122.524 114.014 122.822 114.476 123.267C114.938 123.702 115.169 124.324 115.169 125.133C115.169 125.578 115.089 125.987 114.929 126.36C114.769 126.733 114.534 127.053 114.223 127.32C113.92 127.587 113.543 127.796 113.089 127.947C112.636 128.089 112.12 128.16 111.543 128.16ZM118.85 128V118.693H125.183V120.493H120.876V122.4H124.57V124.187H120.876V126.2H125.183V128H118.85ZM131.962 128.16C131.144 128.16 130.451 128.022 129.882 127.747C129.313 127.462 128.829 127.098 128.429 126.653L129.762 125.307C130.393 126.018 131.171 126.373 132.095 126.373C132.593 126.373 132.962 126.271 133.202 126.067C133.442 125.862 133.562 125.591 133.562 125.253C133.562 124.996 133.491 124.782 133.349 124.613C133.206 124.436 132.917 124.316 132.482 124.253L131.562 124.133C130.575 124.009 129.851 123.711 129.389 123.24C128.935 122.769 128.709 122.142 128.709 121.36C128.709 120.942 128.789 120.56 128.949 120.213C129.109 119.867 129.335 119.569 129.629 119.32C129.931 119.071 130.295 118.88 130.722 118.747C131.157 118.604 131.651 118.533 132.202 118.533C132.904 118.533 133.522 118.644 134.055 118.867C134.589 119.089 135.046 119.413 135.429 119.84L134.082 121.2C133.86 120.942 133.589 120.733 133.269 120.573C132.957 120.404 132.562 120.32 132.082 120.32C131.629 120.32 131.291 120.4 131.069 120.56C130.846 120.72 130.735 120.942 130.735 121.227C130.735 121.547 130.82 121.778 130.989 121.92C131.166 122.062 131.451 122.164 131.842 122.227L132.762 122.373C133.722 122.524 134.433 122.822 134.895 123.267C135.357 123.702 135.589 124.324 135.589 125.133C135.589 125.578 135.509 125.987 135.349 126.36C135.189 126.733 134.953 127.053 134.642 127.32C134.34 127.587 133.962 127.796 133.509 127.947C133.055 128.089 132.54 128.16 131.962 128.16ZM144.06 128V126.387H145.26V120.307H144.06V118.693H148.487V120.307H147.287V126.387H148.487V128H144.06ZM155.015 123.6L154.122 121.733H154.082V128H152.175V118.693H154.388L156.935 123.093L157.828 124.96H157.868V118.693H159.775V128H157.562L155.015 123.6ZM41.7402 149V139.693H46.1402C46.5758 139.693 46.9669 139.769 47.3135 139.92C47.6602 140.062 47.9535 140.262 48.1935 140.52C48.4424 140.778 48.6335 141.093 48.7669 141.467C48.9002 141.831 48.9669 142.231 48.9669 142.667C48.9669 143.111 48.9002 143.516 48.7669 143.88C48.6335 144.244 48.4424 144.556 48.1935 144.813C47.9535 145.071 47.6602 145.276 47.3135 145.427C46.9669 145.569 46.5758 145.64 46.1402 145.64H43.7669V149H41.7402ZM43.7669 143.88H45.9002C46.2024 143.88 46.438 143.804 46.6069 143.653C46.7847 143.493 46.8735 143.262 46.8735 142.96V142.373C46.8735 142.071 46.7847 141.844 46.6069 141.693C46.438 141.533 46.2024 141.453 45.9002 141.453H43.7669V143.88ZM54.5169 149H52.4902V139.693H56.9035C57.3302 139.693 57.7169 139.764 58.0635 139.907C58.4102 140.049 58.7035 140.253 58.9435 140.52C59.1924 140.778 59.3835 141.089 59.5169 141.453C59.6502 141.818 59.7169 142.222 59.7169 142.667C59.7169 143.298 59.5747 143.849 59.2902 144.32C59.0147 144.791 58.5924 145.133 58.0235 145.347L59.8502 149H57.5969L55.9702 145.587H54.5169V149ZM56.6502 143.88C56.9524 143.88 57.188 143.804 57.3569 143.653C57.5347 143.493 57.6235 143.262 57.6235 142.96V142.373C57.6235 142.071 57.5347 141.844 57.3569 141.693C57.188 141.533 56.9524 141.453 56.6502 141.453H54.5169V143.88H56.6502ZM67.0777 149.16C66.4644 149.16 65.9044 149.058 65.3977 148.853C64.891 148.649 64.4599 148.347 64.1044 147.947C63.7488 147.538 63.4733 147.036 63.2777 146.44C63.0822 145.836 62.9844 145.138 62.9844 144.347C62.9844 143.556 63.0822 142.862 63.2777 142.267C63.4733 141.662 63.7488 141.16 64.1044 140.76C64.4599 140.351 64.891 140.044 65.3977 139.84C65.9044 139.636 66.4644 139.533 67.0777 139.533C67.691 139.533 68.251 139.636 68.7577 139.84C69.2644 140.044 69.6955 140.351 70.051 140.76C70.4066 141.16 70.6822 141.662 70.8777 142.267C71.0733 142.862 71.171 143.556 71.171 144.347C71.171 145.138 71.0733 145.836 70.8777 146.44C70.6822 147.036 70.4066 147.538 70.051 147.947C69.6955 148.347 69.2644 148.649 68.7577 148.853C68.251 149.058 67.691 149.16 67.0777 149.16ZM67.0777 147.36C67.691 147.36 68.1666 147.16 68.5044 146.76C68.851 146.36 69.0244 145.787 69.0244 145.04V143.653C69.0244 142.907 68.851 142.333 68.5044 141.933C68.1666 141.533 67.691 141.333 67.0777 141.333C66.4644 141.333 65.9844 141.533 65.6377 141.933C65.2999 142.333 65.131 142.907 65.131 143.653V145.04C65.131 145.787 65.2999 146.36 65.6377 146.76C65.9844 147.16 66.4644 147.36 67.0777 147.36ZM74.8626 149V139.693H81.0359V141.493H76.8893V143.4H80.4226V145.187H76.8893V149H74.8626ZM84.3021 149V147.387H85.5021V141.307H84.3021V139.693H88.7287V141.307H87.5287V147.387H88.7287V149H84.3021ZM96.2452 141.493V149H94.2185V141.493H91.6985V139.693H98.7652V141.493H96.2452ZM107.013 149L106.346 146.787H103.239L102.573 149H100.519L103.586 139.693H106.093L109.119 149H107.013ZM104.813 141.533H104.746L103.719 145.067H105.853L104.813 141.533ZM112.407 139.693H116.927C117.7 139.693 118.3 139.911 118.727 140.347C119.162 140.782 119.38 141.36 119.38 142.08C119.38 142.436 119.331 142.738 119.234 142.987C119.145 143.236 119.02 143.44 118.86 143.6C118.709 143.76 118.527 143.88 118.314 143.96C118.109 144.031 117.887 144.071 117.647 144.08V144.16C117.869 144.16 118.1 144.2 118.34 144.28C118.589 144.36 118.816 144.489 119.02 144.667C119.225 144.836 119.394 145.058 119.527 145.333C119.669 145.609 119.74 145.947 119.74 146.347C119.74 146.711 119.678 147.058 119.554 147.387C119.438 147.707 119.274 147.987 119.06 148.227C118.847 148.467 118.594 148.658 118.3 148.8C118.007 148.933 117.687 149 117.34 149H112.407V139.693ZM114.434 147.293H116.767C117.034 147.293 117.242 147.222 117.394 147.08C117.554 146.929 117.634 146.72 117.634 146.453V146C117.634 145.733 117.554 145.529 117.394 145.387C117.242 145.236 117.034 145.16 116.767 145.16H114.434V147.293ZM114.434 143.507H116.447C116.714 143.507 116.922 143.431 117.074 143.28C117.225 143.129 117.3 142.92 117.3 142.653V142.253C117.3 141.987 117.225 141.778 117.074 141.627C116.922 141.476 116.714 141.4 116.447 141.4H114.434V143.507ZM122.94 149V147.387H124.14V141.307H122.94V139.693H127.367V141.307H126.167V147.387H127.367V149H122.94ZM131.055 149V139.693H133.082V147.2H136.629V149H131.055ZM139.766 149V147.387H140.966V141.307H139.766V139.693H144.192V141.307H142.992V147.387H144.192V149H139.766ZM151.709 141.493V149H149.682V141.493H147.162V139.693H154.229V141.493H151.709ZM159.934 149V145.36L156.748 139.693H159.014L161.014 143.4H161.041L162.961 139.693H165.161L161.974 145.347V149H159.934Z" fill="#263238"/>
</svg>
