<svg width="208" height="208" viewBox="0 0 208 208" fill="none" xmlns="http://www.w3.org/2000/svg">
<path fill-rule="evenodd" clip-rule="evenodd" d="M103.997 18.6666V-6.86646e-05C75.3589 -6.86646e-05 49.4317 11.8463 30.6641 30.6666L43.6576 43.6602C59.0999 28.2179 80.4333 18.6666 103.997 18.6666Z" fill="#C4C4C4" fill-opacity="0.2"/>
<path fill-rule="evenodd" clip-rule="evenodd" d="M18.6686 103.999H0.00188446C0.00188446 75.3609 11.8483 49.4337 30.6686 30.666L43.6621 43.6596C28.2198 59.1019 18.6686 80.4352 18.6686 103.999Z" fill="#C4C4C4" fill-opacity="0.2"/>
<path fill-rule="evenodd" clip-rule="evenodd" d="M18.6686 104.001H0.00188446C0.00188446 132.639 11.8483 158.566 30.6686 177.334L43.6621 164.34C28.2198 148.898 18.6686 127.565 18.6686 104.001Z" fill="#C4C4C4" fill-opacity="0.2"/>
<path fill-rule="evenodd" clip-rule="evenodd" d="M103.997 189.333V208C75.3589 208 49.4317 196.154 30.6641 177.333L43.6576 164.34C59.0999 179.782 80.4333 189.333 103.997 189.333Z" fill="#C4C4C4" fill-opacity="0.2"/>
<path fill-rule="evenodd" clip-rule="evenodd" d="M104.003 189.333V208C132.641 208 158.568 196.154 177.336 177.333L164.342 164.34C148.9 179.782 127.567 189.333 104.003 189.333Z" fill="#C4C4C4" fill-opacity="0.2"/>
<path fill-rule="evenodd" clip-rule="evenodd" d="M189.331 104.001H207.998C207.998 132.639 196.152 158.566 177.331 177.334L164.338 164.34C179.78 148.898 189.331 127.565 189.331 104.001Z" fill="#C4C4C4" fill-opacity="0.2"/>
<path fill-rule="evenodd" clip-rule="evenodd" d="M189.331 103.999H207.998C207.998 75.3609 196.152 49.4337 177.331 30.666L164.338 43.6596C179.78 59.1019 189.331 80.4352 189.331 103.999Z" fill="#3EC52A"/>
<path fill-rule="evenodd" clip-rule="evenodd" d="M104.003 18.6666V-6.86646e-05C132.641 -6.86646e-05 158.568 11.8463 177.336 30.6666L164.342 43.6602C148.9 28.2179 127.567 18.6666 104.003 18.6666Z" fill="#3EC52A"/>
<path d="M80.4074 107.334H58.0127V101.123L67.7594 92.782C68.6358 92.0264 69.3763 91.3464 69.9807 90.742C70.5851 90.1073 71.0687 89.5029 71.4314 88.9286C71.8243 88.3242 72.0963 87.7349 72.2474 87.1606C72.4287 86.5864 72.5194 85.9669 72.5194 85.302V84.6673C72.5194 84.0629 72.3985 83.534 72.1567 83.0806C71.9149 82.6273 71.5976 82.2495 71.2047 81.9473C70.8118 81.6451 70.3585 81.4184 69.8447 81.2673C69.3611 81.1162 68.8625 81.0406 68.3487 81.0406C67.5931 81.0406 66.9283 81.1615 66.354 81.4033C65.81 81.6451 65.3265 81.9775 64.9034 82.4006C64.5105 82.7935 64.178 83.262 63.906 83.806C63.634 84.3198 63.4225 84.8789 63.2714 85.4833L57.3327 83.2166C57.6954 82.1286 58.194 81.1011 58.8287 80.134C59.4634 79.1366 60.2491 78.2753 61.186 77.55C62.1531 76.7944 63.2865 76.2051 64.586 75.782C65.8856 75.3589 67.3514 75.1473 68.9834 75.1473C70.706 75.1473 72.2323 75.3891 73.562 75.8726C74.8918 76.3562 76.01 77.0211 76.9167 77.8673C77.8536 78.7135 78.5638 79.726 79.0474 80.9046C79.5309 82.0531 79.7727 83.3073 79.7727 84.6673C79.7727 86.0273 79.546 87.2664 79.0927 88.3846C78.6394 89.5029 78.0198 90.5606 77.234 91.558C76.4785 92.5251 75.5869 93.4469 74.5594 94.3233C73.5318 95.1998 72.4589 96.0913 71.3407 96.998L65.4474 101.622H80.4074V107.334ZM95.7577 107.878C91.6172 107.878 88.5497 106.442 86.555 103.571C84.5603 100.7 83.563 96.6807 83.563 91.5126C83.563 86.3446 84.5603 82.3251 86.555 79.454C88.5497 76.5829 91.6172 75.1473 95.7577 75.1473C99.8981 75.1473 102.966 76.5829 104.96 79.454C106.955 82.3251 107.952 86.3446 107.952 91.5126C107.952 96.6807 106.955 100.7 104.96 103.571C102.966 106.442 99.8981 107.878 95.7577 107.878ZM95.7577 102.121C97.571 102.121 98.8252 101.456 99.5203 100.126C100.215 98.7962 100.563 96.9224 100.563 94.5046V88.5206C100.563 86.1029 100.215 84.2291 99.5203 82.8993C98.8252 81.5695 97.571 80.9046 95.7577 80.9046C93.9443 80.9046 92.6901 81.5695 91.995 82.8993C91.2999 84.2291 90.9523 86.1029 90.9523 88.5206V94.5046C90.9523 96.9224 91.2999 98.7962 91.995 100.126C92.6901 101.456 93.9443 102.121 95.7577 102.121ZM117.001 107.334L138.943 75.6913H144.927L122.985 107.334H117.001ZM119.313 93.0993C116.654 93.0993 114.629 92.3438 113.239 90.8326C111.848 89.3215 111.153 87.0851 111.153 84.1233C111.153 81.1615 111.848 78.9251 113.239 77.414C114.629 75.9029 116.654 75.1473 119.313 75.1473C121.973 75.1473 123.998 75.9029 125.388 77.414C126.778 78.9251 127.473 81.1615 127.473 84.1233C127.473 87.0851 126.778 89.3215 125.388 90.8326C123.998 92.3438 121.973 93.0993 119.313 93.0993ZM119.313 89.2006C120.099 89.2006 120.688 88.8984 121.081 88.294C121.474 87.6593 121.671 86.662 121.671 85.302V82.9446C121.671 81.5846 121.474 80.6024 121.081 79.998C120.688 79.3633 120.099 79.046 119.313 79.046C118.528 79.046 117.938 79.3633 117.545 79.998C117.152 80.6024 116.956 81.5846 116.956 82.9446V85.302C116.956 86.662 117.152 87.6593 117.545 88.294C117.938 88.8984 118.528 89.2006 119.313 89.2006ZM142.615 107.878C139.955 107.878 137.93 107.122 136.54 105.611C135.15 104.1 134.455 101.864 134.455 98.902C134.455 95.9402 135.15 93.7038 136.54 92.1926C137.93 90.6815 139.955 89.926 142.615 89.926C145.274 89.926 147.299 90.6815 148.689 92.1926C150.08 93.7038 150.775 95.9402 150.775 98.902C150.775 101.864 150.08 104.1 148.689 105.611C147.299 107.122 145.274 107.878 142.615 107.878ZM142.615 103.979C143.4 103.979 143.99 103.677 144.383 103.073C144.776 102.438 144.972 101.441 144.972 100.081V97.7233C144.972 96.3633 144.776 95.3811 144.383 94.7766C143.99 94.142 143.4 93.8246 142.615 93.8246C141.829 93.8246 141.24 94.142 140.847 94.7766C140.454 95.3811 140.257 96.3633 140.257 97.7233V100.081C140.257 101.441 140.454 102.438 140.847 103.073C141.24 103.677 141.829 103.979 142.615 103.979Z" fill="#263238"/>
<path d="M47.8698 128V126.387H49.0698V120.307H47.8698V118.693H52.2965V120.307H51.0965V126.387H52.2965V128H47.8698ZM58.825 123.6L57.9317 121.733H57.8917V128H55.985V118.693H58.1983L60.745 123.093L61.6383 124.96H61.6783V118.693H63.585V128H61.3717L58.825 123.6ZM71.3934 128.16C70.7623 128.16 70.1934 128.062 69.6868 127.867C69.1801 127.662 68.749 127.364 68.3934 126.973C68.0379 126.573 67.7623 126.08 67.5668 125.493C67.3712 124.898 67.2734 124.204 67.2734 123.413C67.2734 122.631 67.3712 121.938 67.5668 121.333C67.7623 120.72 68.0379 120.209 68.3934 119.8C68.749 119.382 69.1801 119.067 69.6868 118.853C70.1934 118.64 70.7623 118.533 71.3934 118.533C72.2557 118.533 72.9668 118.711 73.5268 119.067C74.0868 119.413 74.5357 119.964 74.8734 120.72L73.1268 121.627C73.0023 121.236 72.8068 120.924 72.5401 120.693C72.2823 120.453 71.9001 120.333 71.3934 120.333C70.7979 120.333 70.3179 120.529 69.9534 120.92C69.5979 121.302 69.4201 121.862 69.4201 122.6V124.093C69.4201 124.831 69.5979 125.396 69.9534 125.787C70.3179 126.169 70.7979 126.36 71.3934 126.36C71.8912 126.36 72.2868 126.227 72.5801 125.96C72.8823 125.684 73.1046 125.356 73.2468 124.973L74.9001 125.933C74.5534 126.644 74.0957 127.196 73.5268 127.587C72.9668 127.969 72.2557 128.16 71.3934 128.16ZM80.345 128H78.3183V118.693H82.7317C83.1583 118.693 83.545 118.764 83.8917 118.907C84.2383 119.049 84.5317 119.253 84.7717 119.52C85.0206 119.778 85.2117 120.089 85.345 120.453C85.4783 120.818 85.545 121.222 85.545 121.667C85.545 122.298 85.4028 122.849 85.1183 123.32C84.8428 123.791 84.4206 124.133 83.8517 124.347L85.6783 128H83.425L81.7983 124.587H80.345V128ZM82.4783 122.88C82.7806 122.88 83.0161 122.804 83.185 122.653C83.3628 122.493 83.4517 122.262 83.4517 121.96V121.373C83.4517 121.071 83.3628 120.844 83.185 120.693C83.0161 120.533 82.7806 120.453 82.4783 120.453H80.345V122.88H82.4783ZM89.3027 128V118.693H95.636V120.493H91.3294V122.4H95.0227V124.187H91.3294V126.2H95.636V128H89.3027ZM105.135 128L104.468 125.787H101.362L100.695 128H98.6417L101.708 118.693H104.215L107.242 128H105.135ZM102.935 120.533H102.868L101.842 124.067H103.975L102.935 120.533ZM113.543 128.16C112.725 128.16 112.031 128.022 111.463 127.747C110.894 127.462 110.409 127.098 110.009 126.653L111.343 125.307C111.974 126.018 112.751 126.373 113.676 126.373C114.174 126.373 114.543 126.271 114.783 126.067C115.023 125.862 115.143 125.591 115.143 125.253C115.143 124.996 115.071 124.782 114.929 124.613C114.787 124.436 114.498 124.316 114.063 124.253L113.143 124.133C112.156 124.009 111.431 123.711 110.969 123.24C110.516 122.769 110.289 122.142 110.289 121.36C110.289 120.942 110.369 120.56 110.529 120.213C110.689 119.867 110.916 119.569 111.209 119.32C111.511 119.071 111.876 118.88 112.303 118.747C112.738 118.604 113.231 118.533 113.783 118.533C114.485 118.533 115.103 118.644 115.636 118.867C116.169 119.089 116.627 119.413 117.009 119.84L115.663 121.2C115.44 120.942 115.169 120.733 114.849 120.573C114.538 120.404 114.143 120.32 113.663 120.32C113.209 120.32 112.871 120.4 112.649 120.56C112.427 120.72 112.316 120.942 112.316 121.227C112.316 121.547 112.4 121.778 112.569 121.92C112.747 122.062 113.031 122.164 113.423 122.227L114.343 122.373C115.303 122.524 116.014 122.822 116.476 123.267C116.938 123.702 117.169 124.324 117.169 125.133C117.169 125.578 117.089 125.987 116.929 126.36C116.769 126.733 116.534 127.053 116.223 127.32C115.92 127.587 115.543 127.796 115.089 127.947C114.636 128.089 114.12 128.16 113.543 128.16ZM120.85 128V118.693H127.183V120.493H122.876V122.4H126.57V124.187H122.876V126.2H127.183V128H120.85ZM133.962 128.16C133.144 128.16 132.451 128.022 131.882 127.747C131.313 127.462 130.829 127.098 130.429 126.653L131.762 125.307C132.393 126.018 133.171 126.373 134.095 126.373C134.593 126.373 134.962 126.271 135.202 126.067C135.442 125.862 135.562 125.591 135.562 125.253C135.562 124.996 135.491 124.782 135.349 124.613C135.206 124.436 134.917 124.316 134.482 124.253L133.562 124.133C132.575 124.009 131.851 123.711 131.389 123.24C130.935 122.769 130.709 122.142 130.709 121.36C130.709 120.942 130.789 120.56 130.949 120.213C131.109 119.867 131.335 119.569 131.629 119.32C131.931 119.071 132.295 118.88 132.722 118.747C133.157 118.604 133.651 118.533 134.202 118.533C134.904 118.533 135.522 118.644 136.055 118.867C136.589 119.089 137.046 119.413 137.429 119.84L136.082 121.2C135.86 120.942 135.589 120.733 135.269 120.573C134.957 120.404 134.562 120.32 134.082 120.32C133.629 120.32 133.291 120.4 133.069 120.56C132.846 120.72 132.735 120.942 132.735 121.227C132.735 121.547 132.82 121.778 132.989 121.92C133.166 122.062 133.451 122.164 133.842 122.227L134.762 122.373C135.722 122.524 136.433 122.822 136.895 123.267C137.357 123.702 137.589 124.324 137.589 125.133C137.589 125.578 137.509 125.987 137.349 126.36C137.189 126.733 136.953 127.053 136.642 127.32C136.34 127.587 135.962 127.796 135.509 127.947C135.055 128.089 134.54 128.16 133.962 128.16ZM146.06 128V126.387H147.26V120.307H146.06V118.693H150.487V120.307H149.287V126.387H150.487V128H146.06ZM157.015 123.6L156.122 121.733H156.082V128H154.175V118.693H156.388L158.935 123.093L159.828 124.96H159.868V118.693H161.775V128H159.562L157.015 123.6ZM45.6712 149V139.693H50.0712C50.5068 139.693 50.8979 139.769 51.2445 139.92C51.5912 140.062 51.8845 140.262 52.1245 140.52C52.3734 140.778 52.5645 141.093 52.6979 141.467C52.8312 141.831 52.8979 142.231 52.8979 142.667C52.8979 143.111 52.8312 143.516 52.6979 143.88C52.5645 144.244 52.3734 144.556 52.1245 144.813C51.8845 145.071 51.5912 145.276 51.2445 145.427C50.8979 145.569 50.5068 145.64 50.0712 145.64H47.6979V149H45.6712ZM47.6979 143.88H49.8312C50.1334 143.88 50.369 143.804 50.5379 143.653C50.7156 143.493 50.8045 143.262 50.8045 142.96V142.373C50.8045 142.071 50.7156 141.844 50.5379 141.693C50.369 141.533 50.1334 141.453 49.8312 141.453H47.6979V143.88ZM58.4479 149H56.4212V139.693H60.8345C61.2612 139.693 61.6479 139.764 61.9945 139.907C62.3412 140.049 62.6345 140.253 62.8745 140.52C63.1234 140.778 63.3145 141.089 63.4479 141.453C63.5812 141.818 63.6479 142.222 63.6479 142.667C63.6479 143.298 63.5056 143.849 63.2212 144.32C62.9456 144.791 62.5234 145.133 61.9545 145.347L63.7812 149H61.5279L59.9012 145.587H58.4479V149ZM60.5812 143.88C60.8834 143.88 61.119 143.804 61.2879 143.653C61.4656 143.493 61.5545 143.262 61.5545 142.96V142.373C61.5545 142.071 61.4656 141.844 61.2879 141.693C61.119 141.533 60.8834 141.453 60.5812 141.453H58.4479V143.88H60.5812ZM71.0087 149.16C70.3954 149.16 69.8354 149.058 69.3287 148.853C68.822 148.649 68.3909 148.347 68.0354 147.947C67.6798 147.538 67.4043 147.036 67.2087 146.44C67.0131 145.836 66.9154 145.138 66.9154 144.347C66.9154 143.556 67.0131 142.862 67.2087 142.267C67.4043 141.662 67.6798 141.16 68.0354 140.76C68.3909 140.351 68.822 140.044 69.3287 139.84C69.8354 139.636 70.3954 139.533 71.0087 139.533C71.622 139.533 72.182 139.636 72.6887 139.84C73.1954 140.044 73.6265 140.351 73.982 140.76C74.3376 141.16 74.6131 141.662 74.8087 142.267C75.0043 142.862 75.102 143.556 75.102 144.347C75.102 145.138 75.0043 145.836 74.8087 146.44C74.6131 147.036 74.3376 147.538 73.982 147.947C73.6265 148.347 73.1954 148.649 72.6887 148.853C72.182 149.058 71.622 149.16 71.0087 149.16ZM71.0087 147.36C71.622 147.36 72.0976 147.16 72.4354 146.76C72.782 146.36 72.9554 145.787 72.9554 145.04V143.653C72.9554 142.907 72.782 142.333 72.4354 141.933C72.0976 141.533 71.622 141.333 71.0087 141.333C70.3954 141.333 69.9154 141.533 69.5687 141.933C69.2309 142.333 69.062 142.907 69.062 143.653V145.04C69.062 145.787 69.2309 146.36 69.5687 146.76C69.9154 147.16 70.3954 147.36 71.0087 147.36ZM78.7936 139.693H82.3003C82.9136 139.693 83.4736 139.791 83.9803 139.987C84.4869 140.182 84.918 140.476 85.2736 140.867C85.6292 141.249 85.9047 141.733 86.1003 142.32C86.2958 142.898 86.3936 143.573 86.3936 144.347C86.3936 145.12 86.2958 145.8 86.1003 146.387C85.9047 146.964 85.6292 147.449 85.2736 147.84C84.918 148.222 84.4869 148.511 83.9803 148.707C83.4736 148.902 82.9136 149 82.3003 149H78.7936V139.693ZM82.3003 147.2C82.9047 147.2 83.3803 147.031 83.7269 146.693C84.0736 146.356 84.2469 145.813 84.2469 145.067V143.627C84.2469 142.88 84.0736 142.338 83.7269 142C83.3803 141.662 82.9047 141.493 82.3003 141.493H80.8203V147.2H82.3003ZM92.0105 139.693V145.4C92.0105 146.058 92.1394 146.551 92.3971 146.88C92.6549 147.2 93.086 147.36 93.6905 147.36C94.2949 147.36 94.726 147.2 94.9838 146.88C95.2416 146.551 95.3705 146.058 95.3705 145.4V139.693H97.3438V145.187C97.3438 145.871 97.2771 146.467 97.1438 146.973C97.0194 147.471 96.8105 147.884 96.5171 148.213C96.2238 148.533 95.846 148.773 95.3838 148.933C94.9216 149.084 94.3571 149.16 93.6905 149.16C93.0238 149.16 92.4594 149.084 91.9971 148.933C91.5349 148.773 91.1571 148.533 90.8638 148.213C90.5705 147.884 90.3571 147.471 90.2238 146.973C90.0994 146.467 90.0371 145.871 90.0371 145.187V139.693H92.0105ZM105.108 149.16C104.477 149.16 103.908 149.062 103.402 148.867C102.895 148.662 102.464 148.364 102.108 147.973C101.753 147.573 101.477 147.08 101.282 146.493C101.086 145.898 100.988 145.204 100.988 144.413C100.988 143.631 101.086 142.938 101.282 142.333C101.477 141.72 101.753 141.209 102.108 140.8C102.464 140.382 102.895 140.067 103.402 139.853C103.908 139.64 104.477 139.533 105.108 139.533C105.971 139.533 106.682 139.711 107.242 140.067C107.802 140.413 108.251 140.964 108.588 141.72L106.842 142.627C106.717 142.236 106.522 141.924 106.255 141.693C105.997 141.453 105.615 141.333 105.108 141.333C104.513 141.333 104.033 141.529 103.668 141.92C103.313 142.302 103.135 142.862 103.135 143.6V145.093C103.135 145.831 103.313 146.396 103.668 146.787C104.033 147.169 104.513 147.36 105.108 147.36C105.606 147.36 106.002 147.227 106.295 146.96C106.597 146.684 106.819 146.356 106.962 145.973L108.615 146.933C108.268 147.644 107.811 148.196 107.242 148.587C106.682 148.969 105.971 149.16 105.108 149.16ZM115.913 141.493V149H113.887V141.493H111.367V139.693H118.433V141.493H115.913ZM121.408 149V147.387H122.608V141.307H121.408V139.693H125.834V141.307H124.634V147.387H125.834V149H121.408ZM131.683 149L128.683 139.693H130.736L132.123 144.16L132.856 147.08H132.896L133.603 144.16L134.989 139.693H136.976L133.949 149H131.683ZM139.835 149V147.387H141.035V141.307H139.835V139.693H144.261V141.307H143.061V147.387H144.261V149H139.835ZM151.778 141.493V149H149.751V141.493H147.231V139.693H154.298V141.493H151.778ZM160.003 149V145.36L156.817 139.693H159.083L161.083 143.4H161.11L163.03 139.693H165.23L162.043 145.347V149H160.003Z" fill="#263238"/>
</svg>
