<svg width="208" height="208" viewBox="0 0 208 208" fill="none" xmlns="http://www.w3.org/2000/svg">
<path fill-rule="evenodd" clip-rule="evenodd" d="M103.997 18.6666V-6.86646e-05C75.3589 -6.86646e-05 49.4317 11.8463 30.6641 30.6666L43.6576 43.6602C59.0999 28.2179 80.4333 18.6666 103.997 18.6666Z" fill="#C4C4C4" fill-opacity="0.2"/>
<path fill-rule="evenodd" clip-rule="evenodd" d="M18.6686 103.999H0.00188446C0.00188446 75.3609 11.8483 49.4337 30.6686 30.666L43.6621 43.6596C28.2198 59.1019 18.6686 80.4352 18.6686 103.999Z" fill="#C4C4C4" fill-opacity="0.2"/>
<path fill-rule="evenodd" clip-rule="evenodd" d="M18.6686 104.001H0.00188446C0.00188446 132.639 11.8483 158.566 30.6686 177.334L43.6621 164.34C28.2198 148.898 18.6686 127.565 18.6686 104.001Z" fill="#C4C4C4" fill-opacity="0.2"/>
<path fill-rule="evenodd" clip-rule="evenodd" d="M103.997 189.333V208C75.3589 208 49.4317 196.154 30.6641 177.333L43.6576 164.34C59.0999 179.782 80.4333 189.333 103.997 189.333Z" fill="#C4C4C4" fill-opacity="0.2"/>
<path fill-rule="evenodd" clip-rule="evenodd" d="M103.999 189.333V208C132.637 208 158.564 196.154 177.332 177.333L164.338 164.34C148.896 179.782 127.563 189.333 103.999 189.333Z" fill="#C4C4C4" fill-opacity="0.2"/>
<path fill-rule="evenodd" clip-rule="evenodd" d="M189.331 104.001H207.998C207.998 132.639 196.152 158.566 177.331 177.334L164.338 164.34C179.78 148.898 189.331 127.565 189.331 104.001Z" fill="#01A8FE"/>
<path fill-rule="evenodd" clip-rule="evenodd" d="M189.331 103.999H207.998C207.998 75.3609 196.152 49.4337 177.331 30.666L164.338 43.6596C179.78 59.1019 189.331 80.4352 189.331 103.999Z" fill="#01A8FE"/>
<path fill-rule="evenodd" clip-rule="evenodd" d="M103.999 18.6666V-6.86646e-05C132.637 -6.86646e-05 158.564 11.8463 177.332 30.6666L164.338 43.6602C148.896 28.2179 127.563 18.6666 103.999 18.6666Z" fill="#01A8FE"/>
<path d="M70.706 107.334V101.259H56.7887V95.4566L69.1194 75.6913H77.1887V96.0007H81.178V101.259H77.1887V107.334H70.706ZM62.2287 96.0007H70.706V82.718H70.2527L62.2287 96.0007ZM95.7577 107.878C91.6172 107.878 88.5497 106.442 86.555 103.571C84.5603 100.7 83.563 96.6807 83.563 91.5126C83.563 86.3446 84.5603 82.3251 86.555 79.454C88.5497 76.5829 91.6172 75.1473 95.7577 75.1473C99.8981 75.1473 102.966 76.5829 104.96 79.454C106.955 82.3251 107.952 86.3446 107.952 91.5126C107.952 96.6807 106.955 100.7 104.96 103.571C102.966 106.442 99.8981 107.878 95.7577 107.878ZM95.7577 102.121C97.571 102.121 98.8252 101.456 99.5203 100.126C100.215 98.7962 100.563 96.9224 100.563 94.5046V88.5206C100.563 86.1029 100.215 84.2291 99.5203 82.8993C98.8252 81.5695 97.571 80.9046 95.7577 80.9046C93.9443 80.9046 92.6901 81.5695 91.995 82.8993C91.2999 84.2291 90.9523 86.1029 90.9523 88.5206V94.5046C90.9523 96.9224 91.2999 98.7962 91.995 100.126C92.6901 101.456 93.9443 102.121 95.7577 102.121ZM117.001 107.334L138.943 75.6913H144.927L122.985 107.334H117.001ZM119.313 93.0993C116.654 93.0993 114.629 92.3438 113.239 90.8326C111.848 89.3215 111.153 87.0851 111.153 84.1233C111.153 81.1615 111.848 78.9251 113.239 77.414C114.629 75.9029 116.654 75.1473 119.313 75.1473C121.973 75.1473 123.998 75.9029 125.388 77.414C126.778 78.9251 127.473 81.1615 127.473 84.1233C127.473 87.0851 126.778 89.3215 125.388 90.8326C123.998 92.3438 121.973 93.0993 119.313 93.0993ZM119.313 89.2006C120.099 89.2006 120.688 88.8984 121.081 88.294C121.474 87.6593 121.671 86.662 121.671 85.302V82.9446C121.671 81.5846 121.474 80.6024 121.081 79.998C120.688 79.3633 120.099 79.046 119.313 79.046C118.528 79.046 117.938 79.3633 117.545 79.998C117.152 80.6024 116.956 81.5846 116.956 82.9446V85.302C116.956 86.662 117.152 87.6593 117.545 88.294C117.938 88.8984 118.528 89.2006 119.313 89.2006ZM142.615 107.878C139.955 107.878 137.93 107.122 136.54 105.611C135.15 104.1 134.455 101.864 134.455 98.902C134.455 95.9402 135.15 93.7038 136.54 92.1926C137.93 90.6815 139.955 89.926 142.615 89.926C145.274 89.926 147.299 90.6815 148.689 92.1926C150.08 93.7038 150.775 95.9402 150.775 98.902C150.775 101.864 150.08 104.1 148.689 105.611C147.299 107.122 145.274 107.878 142.615 107.878ZM142.615 103.979C143.4 103.979 143.99 103.677 144.383 103.073C144.776 102.438 144.972 101.441 144.972 100.081V97.7233C144.972 96.3633 144.776 95.3811 144.383 94.7766C143.99 94.142 143.4 93.8246 142.615 93.8246C141.829 93.8246 141.24 94.142 140.847 94.7766C140.454 95.3811 140.257 96.3633 140.257 97.7233V100.081C140.257 101.441 140.454 102.438 140.847 103.073C141.24 103.677 141.829 103.979 142.615 103.979Z" fill="#263238"/>
<path d="M46.7864 128H44.7597V118.693H49.1731C49.5997 118.693 49.9864 118.764 50.3331 118.907C50.6797 119.049 50.9731 119.253 51.2131 119.52C51.462 119.778 51.6531 120.089 51.7864 120.453C51.9197 120.818 51.9864 121.222 51.9864 121.667C51.9864 122.298 51.8442 122.849 51.5597 123.32C51.2842 123.791 50.862 124.133 50.2931 124.347L52.1197 128H49.8664L48.2397 124.587H46.7864V128ZM48.9197 122.88C49.222 122.88 49.4575 122.804 49.6264 122.653C49.8042 122.493 49.8931 122.262 49.8931 121.96V121.373C49.8931 121.071 49.8042 120.844 49.6264 120.693C49.4575 120.533 49.222 120.453 48.9197 120.453H46.7864V122.88H48.9197ZM55.7441 128V118.693H62.0774V120.493H57.7708V122.4H61.4641V124.187H57.7708V126.2H62.0774V128H55.7441ZM65.8431 118.693H69.3497C69.9631 118.693 70.5231 118.791 71.0297 118.987C71.5364 119.182 71.9675 119.476 72.3231 119.867C72.6786 120.249 72.9542 120.733 73.1497 121.32C73.3453 121.898 73.4431 122.573 73.4431 123.347C73.4431 124.12 73.3453 124.8 73.1497 125.387C72.9542 125.964 72.6786 126.449 72.3231 126.84C71.9675 127.222 71.5364 127.511 71.0297 127.707C70.5231 127.902 69.9631 128 69.3497 128H65.8431V118.693ZM69.3497 126.2C69.9542 126.2 70.4297 126.031 70.7764 125.693C71.1231 125.356 71.2964 124.813 71.2964 124.067V122.627C71.2964 121.88 71.1231 121.338 70.7764 121C70.4297 120.662 69.9542 120.493 69.3497 120.493H67.8697V126.2H69.3497ZM79.0599 118.693V124.4C79.0599 125.058 79.1888 125.551 79.4466 125.88C79.7044 126.2 80.1355 126.36 80.7399 126.36C81.3444 126.36 81.7755 126.2 82.0333 125.88C82.2911 125.551 82.4199 125.058 82.4199 124.4V118.693H84.3933V124.187C84.3933 124.871 84.3266 125.467 84.1933 125.973C84.0688 126.471 83.8599 126.884 83.5666 127.213C83.2733 127.533 82.8955 127.773 82.4333 127.933C81.9711 128.084 81.4066 128.16 80.7399 128.16C80.0733 128.16 79.5088 128.084 79.0466 127.933C78.5844 127.773 78.2066 127.533 77.9133 127.213C77.6199 126.884 77.4066 126.471 77.2733 125.973C77.1488 125.467 77.0866 124.871 77.0866 124.187V118.693H79.0599ZM92.1578 128.16C91.5266 128.16 90.9578 128.062 90.4511 127.867C89.9444 127.662 89.5133 127.364 89.1578 126.973C88.8022 126.573 88.5266 126.08 88.3311 125.493C88.1355 124.898 88.0378 124.204 88.0378 123.413C88.0378 122.631 88.1355 121.938 88.3311 121.333C88.5266 120.72 88.8022 120.209 89.1578 119.8C89.5133 119.382 89.9444 119.067 90.4511 118.853C90.9578 118.64 91.5266 118.533 92.1578 118.533C93.02 118.533 93.7311 118.711 94.2911 119.067C94.8511 119.413 95.3 119.964 95.6378 120.72L93.8911 121.627C93.7666 121.236 93.5711 120.924 93.3044 120.693C93.0466 120.453 92.6644 120.333 92.1578 120.333C91.5622 120.333 91.0822 120.529 90.7178 120.92C90.3622 121.302 90.1844 121.862 90.1844 122.6V124.093C90.1844 124.831 90.3622 125.396 90.7178 125.787C91.0822 126.169 91.5622 126.36 92.1578 126.36C92.6555 126.36 93.0511 126.227 93.3444 125.96C93.6466 125.684 93.8689 125.356 94.0111 124.973L95.6644 125.933C95.3178 126.644 94.86 127.196 94.2911 127.587C93.7311 127.969 93.02 128.16 92.1578 128.16ZM102.963 120.493V128H100.936V120.493H98.416V118.693H105.483V120.493H102.963ZM108.457 128V126.387H109.657V120.307H108.457V118.693H112.884V120.307H111.684V126.387H112.884V128H108.457ZM120.306 128.16C119.692 128.16 119.132 128.058 118.626 127.853C118.119 127.649 117.688 127.347 117.332 126.947C116.977 126.538 116.701 126.036 116.506 125.44C116.31 124.836 116.212 124.138 116.212 123.347C116.212 122.556 116.31 121.862 116.506 121.267C116.701 120.662 116.977 120.16 117.332 119.76C117.688 119.351 118.119 119.044 118.626 118.84C119.132 118.636 119.692 118.533 120.306 118.533C120.919 118.533 121.479 118.636 121.986 118.84C122.492 119.044 122.923 119.351 123.279 119.76C123.634 120.16 123.91 120.662 124.106 121.267C124.301 121.862 124.399 122.556 124.399 123.347C124.399 124.138 124.301 124.836 124.106 125.44C123.91 126.036 123.634 126.538 123.279 126.947C122.923 127.347 122.492 127.649 121.986 127.853C121.479 128.058 120.919 128.16 120.306 128.16ZM120.306 126.36C120.919 126.36 121.394 126.16 121.732 125.76C122.079 125.36 122.252 124.787 122.252 124.04V122.653C122.252 121.907 122.079 121.333 121.732 120.933C121.394 120.533 120.919 120.333 120.306 120.333C119.692 120.333 119.212 120.533 118.866 120.933C118.528 121.333 118.359 121.907 118.359 122.653V124.04C118.359 124.787 118.528 125.36 118.866 125.76C119.212 126.16 119.692 126.36 120.306 126.36ZM130.93 123.6L130.037 121.733H129.997V128H128.09V118.693H130.304L132.85 123.093L133.744 124.96H133.784V118.693H135.69V128H133.477L130.93 123.6ZM144.53 128V126.387H145.73V120.307H144.53V118.693H148.957V120.307H147.757V126.387H148.957V128H144.53ZM155.485 123.6L154.592 121.733H154.552V128H152.645V118.693H154.858L157.405 123.093L158.298 124.96H158.338V118.693H160.245V128H158.032L155.485 123.6ZM36.8733 149.16C36.0556 149.16 35.3622 149.022 34.7933 148.747C34.2244 148.462 33.74 148.098 33.34 147.653L34.6733 146.307C35.3044 147.018 36.0822 147.373 37.0067 147.373C37.5044 147.373 37.8733 147.271 38.1133 147.067C38.3533 146.862 38.4733 146.591 38.4733 146.253C38.4733 145.996 38.4022 145.782 38.26 145.613C38.1178 145.436 37.8289 145.316 37.3933 145.253L36.4733 145.133C35.4867 145.009 34.7622 144.711 34.3 144.24C33.8467 143.769 33.62 143.142 33.62 142.36C33.62 141.942 33.7 141.56 33.86 141.213C34.02 140.867 34.2467 140.569 34.54 140.32C34.8422 140.071 35.2067 139.88 35.6333 139.747C36.0689 139.604 36.5622 139.533 37.1133 139.533C37.8156 139.533 38.4333 139.644 38.9667 139.867C39.5 140.089 39.9578 140.413 40.34 140.84L38.9933 142.2C38.7711 141.942 38.5 141.733 38.18 141.573C37.8689 141.404 37.4733 141.32 36.9933 141.32C36.54 141.32 36.2022 141.4 35.98 141.56C35.7578 141.72 35.6467 141.942 35.6467 142.227C35.6467 142.547 35.7311 142.778 35.9 142.92C36.0778 143.062 36.3622 143.164 36.7533 143.227L37.6733 143.373C38.6333 143.524 39.3444 143.822 39.8067 144.267C40.2689 144.702 40.5 145.324 40.5 146.133C40.5 146.578 40.42 146.987 40.26 147.36C40.1 147.733 39.8644 148.053 39.5533 148.32C39.2511 148.587 38.8733 148.796 38.42 148.947C37.9667 149.089 37.4511 149.16 36.8733 149.16ZM47.7478 141.493V149H45.7211V141.493H43.2011V139.693H50.2678V141.493H47.7478ZM58.5152 149L57.8485 146.787H54.7419L54.0752 149H52.0219L55.0885 139.693H57.5952L60.6219 149H58.5152ZM56.3152 141.533H56.2485L55.2219 145.067H57.3552L56.3152 141.533ZM63.9095 149V139.693H70.0828V141.493H65.9362V143.4H69.4695V145.187H65.9362V149H63.9095ZM73.709 149V139.693H79.8823V141.493H75.7356V143.4H79.269V145.187H75.7356V149H73.709ZM92.5395 141.493V149H90.5128V141.493H87.9928V139.693H95.0595V141.493H92.5395ZM100.366 139.693V145.4C100.366 146.058 100.495 146.551 100.753 146.88C101.01 147.2 101.441 147.36 102.046 147.36C102.65 147.36 103.081 147.2 103.339 146.88C103.597 146.551 103.726 146.058 103.726 145.4V139.693H105.699V145.187C105.699 145.871 105.633 146.467 105.499 146.973C105.375 147.471 105.166 147.884 104.873 148.213C104.579 148.533 104.201 148.773 103.739 148.933C103.277 149.084 102.713 149.16 102.046 149.16C101.379 149.16 100.815 149.084 100.353 148.933C99.8904 148.773 99.5126 148.533 99.2193 148.213C98.9259 147.884 98.7126 147.471 98.5793 146.973C98.4548 146.467 98.3926 145.871 98.3926 145.187V139.693H100.366ZM111.73 149H109.704V139.693H114.117C114.544 139.693 114.93 139.764 115.277 139.907C115.624 140.049 115.917 140.253 116.157 140.52C116.406 140.778 116.597 141.089 116.73 141.453C116.864 141.818 116.93 142.222 116.93 142.667C116.93 143.298 116.788 143.849 116.504 144.32C116.228 144.791 115.806 145.133 115.237 145.347L117.064 149H114.81L113.184 145.587H111.73V149ZM113.864 143.88C114.166 143.88 114.402 143.804 114.57 143.653C114.748 143.493 114.837 143.262 114.837 142.96V142.373C114.837 142.071 114.748 141.844 114.57 141.693C114.402 141.533 114.166 141.453 113.864 141.453H111.73V143.88H113.864ZM123.528 144.6L122.635 142.733H122.595V149H120.688V139.693H122.901L125.448 144.093L126.341 145.96H126.381V139.693H128.288V149H126.075L123.528 144.6ZM136.07 149.16C135.457 149.16 134.897 149.058 134.39 148.853C133.883 148.649 133.452 148.347 133.097 147.947C132.741 147.538 132.465 147.036 132.27 146.44C132.074 145.836 131.977 145.138 131.977 144.347C131.977 143.556 132.074 142.862 132.27 142.267C132.465 141.662 132.741 141.16 133.097 140.76C133.452 140.351 133.883 140.044 134.39 139.84C134.897 139.636 135.457 139.533 136.07 139.533C136.683 139.533 137.243 139.636 137.75 139.84C138.257 140.044 138.688 140.351 139.043 140.76C139.399 141.16 139.674 141.662 139.87 142.267C140.065 142.862 140.163 143.556 140.163 144.347C140.163 145.138 140.065 145.836 139.87 146.44C139.674 147.036 139.399 147.538 139.043 147.947C138.688 148.347 138.257 148.649 137.75 148.853C137.243 149.058 136.683 149.16 136.07 149.16ZM136.07 147.36C136.683 147.36 137.159 147.16 137.497 146.76C137.843 146.36 138.017 145.787 138.017 145.04V143.653C138.017 142.907 137.843 142.333 137.497 141.933C137.159 141.533 136.683 141.333 136.07 141.333C135.457 141.333 134.977 141.533 134.63 141.933C134.292 142.333 134.123 142.907 134.123 143.653V145.04C134.123 145.787 134.292 146.36 134.63 146.76C134.977 147.16 135.457 147.36 136.07 147.36ZM145.598 149L142.598 139.693H144.651L146.038 144.16L146.771 147.08H146.811L147.518 144.16L148.905 139.693H150.891L147.865 149H145.598ZM154.11 149V139.693H160.443V141.493H156.137V143.4H159.83V145.187H156.137V147.2H160.443V149H154.11ZM166.236 149H164.209V139.693H168.622C169.049 139.693 169.436 139.764 169.782 139.907C170.129 140.049 170.422 140.253 170.662 140.52C170.911 140.778 171.102 141.089 171.236 141.453C171.369 141.818 171.436 142.222 171.436 142.667C171.436 143.298 171.293 143.849 171.009 144.32C170.733 144.791 170.311 145.133 169.742 145.347L171.569 149H169.316L167.689 145.587H166.236V149ZM168.369 143.88C168.671 143.88 168.907 143.804 169.076 143.653C169.253 143.493 169.342 143.262 169.342 142.96V142.373C169.342 142.071 169.253 141.844 169.076 141.693C168.907 141.533 168.671 141.453 168.369 141.453H166.236V143.88H168.369Z" fill="#263238"/>
</svg>
