<svg width="40" height="40" viewBox="0 0 40 40" fill="none" xmlns="http://www.w3.org/2000/svg">
<path d="M20 39.9995C8.954 39.9995 0 31.0455 0 19.9995C0 8.95351 8.954 -0.000488281 20 -0.000488281C31.046 -0.000488281 40 8.95351 40 19.9995C40 31.0455 31.046 39.9995 20 39.9995ZM17.244 12.8295C17.1236 12.7492 16.9837 12.703 16.8392 12.696C16.6947 12.6889 16.5509 12.7211 16.4233 12.7892C16.2956 12.8574 16.1889 12.9589 16.1143 13.0829C16.0398 13.2069 16.0003 13.3488 16 13.4935V26.5055C16.0003 26.6502 16.0398 26.7921 16.1143 26.9161C16.1889 27.0402 16.2956 27.1417 16.4233 27.2098C16.5509 27.2779 16.6947 27.3102 16.8392 27.3031C16.9837 27.296 17.1236 27.2498 17.244 27.1695L27.002 20.6655C27.1117 20.5925 27.2017 20.4935 27.264 20.3773C27.3262 20.2611 27.3588 20.1313 27.3588 19.9995C27.3588 19.8677 27.3262 19.7379 27.264 19.6217C27.2017 19.5055 27.1117 19.4065 27.002 19.3335L17.242 12.8295H17.244Z" fill="#2A8981"/>
</svg>
