<svg width="40" height="40" viewBox="0 0 40 40" fill="none" xmlns="http://www.w3.org/2000/svg">
<path d="M20 0C31.046 0 40 8.954 40 20C40 31.046 31.046 40 20 40C8.954 40 0 31.046 0 20C0 8.954 8.954 0 20 0ZM22.756 27.17C22.8764 27.2503 23.0163 27.2965 23.1608 27.3036C23.3053 27.3107 23.4491 27.2784 23.5767 27.2103C23.7044 27.1421 23.8111 27.0407 23.8857 26.9166C23.9602 26.7926 23.9997 26.6507 24 26.506L24 13.494C23.9997 13.3493 23.9602 13.2074 23.8857 13.0834C23.8111 12.9593 23.7044 12.8579 23.5767 12.7897C23.4491 12.7216 23.3053 12.6893 23.1608 12.6964C23.0163 12.7035 22.8764 12.7497 22.756 12.83L12.998 19.334C12.8883 19.407 12.7983 19.506 12.736 19.6222C12.6738 19.7384 12.6412 19.8682 12.6412 20C12.6412 20.1318 12.6738 20.2616 12.736 20.3778C12.7983 20.494 12.8883 20.593 12.998 20.666L22.758 27.17H22.756Z" fill="#2A8981"/>
</svg>
