<svg width="14" height="14" viewBox="0 0 14 14" fill="none" xmlns="http://www.w3.org/2000/svg">
<path d="M12.763 0.160034L13.8 1.1978L11.9835 3.01427L13.8 4.83074L11.9835 6.6472L13.8 8.4644L11.9835 10.2809L13.8 12.0973L12.7622 13.1351L9.90799 10.2801L11.7245 8.4644L9.90799 6.6472L11.7245 4.83074L9.90799 3.01427L12.763 0.160034ZM7.99025 0.584243C8.04378 0.649687 8.07308 0.731611 8.07318 0.816163V12.4782C8.07323 12.5478 8.05353 12.6159 8.01637 12.6746C7.97922 12.7334 7.92614 12.7804 7.86331 12.8101C7.80048 12.8399 7.7305 12.8512 7.6615 12.8427C7.5925 12.8342 7.52732 12.8063 7.47356 12.7623L3.5889 9.58217L0.733925 9.5829C0.539276 9.5829 0.352599 9.50558 0.214962 9.36794C0.077324 9.2303 0 9.04363 0 8.84898V4.44542C0 4.25078 0.077324 4.0641 0.214962 3.92646C0.352599 3.78882 0.539276 3.7115 0.733925 3.7115H3.58816L7.47356 0.532134C7.51085 0.501558 7.5538 0.478631 7.59996 0.464664C7.64611 0.450697 7.69457 0.445964 7.74255 0.450735C7.79054 0.455506 7.83711 0.469689 7.87961 0.492471C7.92211 0.515253 7.95971 0.546189 7.99025 0.583509V0.584243Z" fill="#5C5D6F"/>
</svg>
