<svg width="100" height="100" viewBox="0 0 100 100" fill="none" xmlns="http://www.w3.org/2000/svg">
<rect width="100" height="100" rx="50" fill="#D1EDDE"/>
<g clip-path="url(#clip0_2215_10273)">
<path d="M63.9307 44.5339C64.4505 44.0453 64.3569 43.4482 63.6864 43.2257L61.2847 42.3843C61.1261 42.3312 60.9798 42.2446 60.8547 42.1298C60.7296 42.015 60.6286 41.8745 60.5578 41.7171C60.4871 41.5597 60.4482 41.3888 60.4436 41.215C60.4389 41.0412 60.4687 40.8682 60.5309 40.707L61.4614 38.248C61.7214 37.5586 61.3575 37.0917 60.6609 37.2112L58.1605 37.6291C57.9966 37.6591 57.8285 37.6535 57.6667 37.6126C57.5049 37.5717 57.353 37.4965 57.2203 37.3916C57.0877 37.2866 56.9771 37.1543 56.8956 37.0028C56.8141 36.8512 56.7633 36.6838 56.7466 36.5109L56.471 33.8782C56.3983 33.1454 55.868 32.9065 55.3014 33.3354L53.2792 34.9204C53.1467 35.0259 52.9949 35.1018 52.8332 35.1434C52.6715 35.1851 52.5033 35.1916 52.339 35.1626C52.1748 35.1336 52.018 35.0697 51.8784 34.9748C51.7388 34.8799 51.6193 34.7561 51.5274 34.611L50.1134 32.4397C50.0603 32.3022 49.9666 32.1859 49.846 32.1075C49.7255 32.0291 49.5842 31.9927 49.4425 32.0036C49.3009 32.0145 49.1662 32.072 49.0579 32.1679C48.9496 32.2639 48.8732 32.3933 48.8398 32.5374L47.7534 34.9259C47.6835 35.0833 47.5833 35.2241 47.459 35.3394C47.3347 35.4547 47.1891 35.5421 47.0311 35.5961C46.8731 35.65 46.7062 35.6695 46.5407 35.6532C46.3752 35.6369 46.2146 35.5851 46.0691 35.5013L43.865 34.2419C43.2412 33.8891 42.7577 34.2039 42.7837 34.9476L42.8825 37.5857C42.8906 37.7614 42.8636 37.937 42.803 38.1011C42.7425 38.2653 42.6498 38.4145 42.5309 38.5391C42.412 38.6638 42.2696 38.7612 42.1126 38.8251C41.9556 38.889 41.7876 38.918 41.6193 38.9102H39.0877C38.3807 38.9102 38.0896 39.4205 38.4431 40.061L39.7063 42.3246C39.7903 42.4752 39.8435 42.6423 39.8627 42.8155C39.8819 42.9886 39.8666 43.164 39.8178 43.3307C39.769 43.4974 39.6877 43.6517 39.5791 43.784C39.4704 43.9163 39.3368 44.0238 39.1865 44.0996L36.9356 45.2993C36.7991 45.3381 36.6778 45.4211 36.5892 45.5363C36.5006 45.6515 36.4491 45.793 36.4422 45.9406C36.4353 46.0882 36.4733 46.2343 36.5507 46.3579C36.6281 46.4816 36.741 46.5766 36.8732 46.6292L39.0097 48.046C39.1512 48.1376 39.2732 48.2586 39.3681 48.4014C39.463 48.5442 39.5288 48.7059 39.5614 48.8764C39.5941 49.0468 39.5929 49.2225 39.5579 49.3924C39.5229 49.5624 39.4549 49.723 39.358 49.8644L37.8921 52.0357C37.4814 52.6437 37.7257 53.1865 38.4119 53.2463L40.9331 53.458C41.0994 53.4704 41.2615 53.5184 41.4093 53.599C41.5571 53.6796 41.6875 53.791 41.7923 53.9265C41.8971 54.0619 41.9741 54.2183 42.0186 54.3861C42.0631 54.5539 42.074 54.7295 42.0508 54.9019L41.7129 57.5237C41.6193 58.2565 42.0768 58.6094 42.7525 58.3271L45.0866 57.2957C45.2391 57.2253 45.4039 57.1887 45.5706 57.1881C45.7373 57.1875 45.9023 57.223 46.0551 57.2924C46.208 57.3618 46.3455 57.4635 46.4589 57.5911C46.5722 57.7188 46.659 57.8696 46.7137 58.034L47.5818 60.5147C47.8262 61.2095 48.3928 61.3127 48.8398 60.7373L50.4409 58.6908C50.5451 58.5546 50.675 58.4424 50.8227 58.3611C50.9703 58.2799 51.1324 58.2313 51.2989 58.2186C51.4653 58.2059 51.6325 58.2292 51.7899 58.2871C51.9473 58.345 52.0915 58.4362 52.2136 58.5551L54.085 60.3301C54.6048 60.8295 55.1558 60.6395 55.3014 59.9176L55.8212 57.3283C55.8533 57.1576 55.9187 56.9956 56.0132 56.8523C56.1078 56.709 56.2295 56.5876 56.3708 56.4954C56.5121 56.4033 56.6701 56.3425 56.8349 56.3168C56.9997 56.291 57.1678 56.3009 57.3288 56.3458L59.7772 57.008C60.4634 57.1926 60.8689 56.7638 60.6713 56.0527L59.9799 53.5014C59.9324 53.3345 59.9183 53.1592 59.9383 52.9864C59.9584 52.8136 60.0123 52.647 60.0966 52.4968C60.1809 52.3466 60.2939 52.2162 60.4286 52.1135C60.5632 52.0109 60.7166 51.9382 60.8792 51.9L63.3432 51.2975C64.0346 51.1292 64.1958 50.5538 63.7071 50.0219L61.9345 48.1383C61.8172 48.0144 61.7258 47.8666 61.6661 47.704C61.6063 47.5414 61.5795 47.3676 61.5873 47.1937C61.5951 47.0197 61.6374 46.8494 61.7115 46.6933C61.7856 46.5373 61.8898 46.399 62.0177 46.2872L63.9307 44.5339Z" fill="#2A8881"/>
<path d="M60.859 54.359L61.5608 56.894C61.7584 57.6105 61.3581 58.0393 60.6719 57.8494L58.2235 57.1871C58.0625 57.1422 57.8944 57.1323 57.7296 57.1581C57.5648 57.1838 57.4069 57.2446 57.2655 57.3367C57.1242 57.4289 57.0025 57.5503 56.9079 57.6936C56.8134 57.8369 56.748 57.9989 56.7159 58.1696L56.2793 60.3952L63.4478 68.6896L64.0145 63.6359L68.9997 63.4622L60.8122 53.979C60.8076 54.1075 60.8234 54.2359 60.859 54.359Z" fill="#2A8881"/>
<path d="M44.1986 58.2946L41.8698 59.3314C41.2148 59.6191 40.7573 59.2554 40.8301 58.5226L41.168 55.9007C41.1912 55.7287 41.1804 55.5536 41.1363 55.3861C41.0921 55.2187 41.0155 55.0625 40.9113 54.9271C40.807 54.7918 40.6773 54.6803 40.5301 54.5994C40.3829 54.5185 40.2214 54.4699 40.0555 54.4568H39.6916L31 62.6318L35.8449 63.2234L36.0112 68.4291L45.8881 59.1468L45.8465 59.0328C45.7921 58.8656 45.7047 58.7122 45.5899 58.5826C45.4751 58.453 45.3354 58.35 45.18 58.2804C45.0246 58.2108 44.857 58.1761 44.6879 58.1785C44.5188 58.181 44.3521 58.2205 44.1986 58.2946Z" fill="#2A8881"/>
</g>
<defs>
<clipPath id="clip0_2215_10273">
<rect width="38" height="36.6896" fill="white" transform="translate(31 32)"/>
</clipPath>
</defs>
</svg>
