<svg width="100" height="100" viewBox="0 0 100 100" fill="none" xmlns="http://www.w3.org/2000/svg">
<rect width="100" height="100" rx="50" fill="#D1EDDE"/>
<g clip-path="url(#clip0_2215_10271)">
<path d="M65.9973 34.724C64.6068 33.2814 62.3185 33.3081 60.9499 33.4844L61.1689 31H39.8732L40.0922 33.4844C38.7236 33.3081 36.4353 33.276 35.0448 34.724C33.8623 35.9582 33.6871 37.8282 34.5302 40.2859C36.0466 44.7258 41.3842 45.9814 43.99 46.334C45.79 47.8831 48.1074 48.7379 50.5073 48.7379C52.9072 48.7379 55.2246 47.8831 57.0247 46.334C59.6305 45.9814 64.9681 44.7311 66.4845 40.2859C67.3221 37.8282 67.1524 35.9582 65.9973 34.724ZM37.125 39.4524C36.6378 38.0259 36.6104 36.9893 37.0484 36.5352C37.6287 35.9208 39.2984 36.0009 40.3331 36.2039L40.6561 39.9012C40.753 40.9972 41.0418 42.0689 41.5101 43.0695C39.6707 42.4658 37.7546 41.3812 37.0977 39.4524H37.125ZM54.2874 44.5976H47.6086V43.0535H49.979V36.22L47.7893 37.5129V35.8032L50.8057 34.0187H51.9444V43.0535H54.3039L54.2874 44.5976ZM63.9444 39.4524C63.2874 41.3812 61.3714 42.4658 59.532 43.0695C60.0042 42.0699 60.295 40.9979 60.3915 39.9012L60.7144 36.2039C61.771 35.9742 63.4517 35.9261 63.9991 36.5352C64.4316 36.9893 64.4042 38.0259 63.917 39.4524H63.9444Z" fill="#41978E"/>
<path d="M50.4997 49.8923C49.8394 49.8922 49.1797 49.8565 48.5234 49.7854V57.7142H52.4815V49.7854C51.8234 49.8565 51.1618 49.8922 50.4997 49.8923Z" fill="#41978E"/>
<path d="M56.5756 58.9539H43.9843C43.6518 58.9537 43.3299 59.0676 43.0747 59.2756C42.8195 59.4836 42.6474 59.7726 42.5883 60.0919L41.0391 68.4H59.5208L57.9715 60.0919C57.9125 59.7726 57.7403 59.4836 57.4852 59.2756C57.23 59.0676 56.908 58.9537 56.5756 58.9539Z" fill="#41978E"/>
<path d="M51.8951 34.0188H50.751L47.74 35.8033V37.513L49.9462 36.2201V43.0375H47.5703V44.5977H54.2546V43.0375H51.8951V34.0188Z" fill="white"/>
</g>
<defs>
<clipPath id="clip0_2215_10271">
<rect width="33" height="37.4" fill="white" transform="translate(34 31)"/>
</clipPath>
</defs>
</svg>
