<svg width="14" height="14" viewBox="0 0 14 14" fill="none" xmlns="http://www.w3.org/2000/svg">
<path fill-rule="evenodd" clip-rule="evenodd" d="M2.44837 0.0362476C2.33924 0.0609491 2.16111 0.112379 2.05252 0.150571C1.94392 0.188764 1.78381 0.255743 1.69672 0.299383C1.60963 0.342991 1.45287 0.436286 1.34836 0.506622C1.24386 0.57699 1.0554 0.733845 0.929512 0.855199C0.803661 0.976554 0.630972 1.17711 0.545752 1.30084C0.460532 1.4246 0.358812 1.58903 0.319701 1.66623C0.28059 1.74344 0.215702 1.89396 0.175514 2.00072C0.135358 2.10751 0.0795568 2.30581 0.05153 2.44145C0.0224898 2.58206 0.000321328 2.84301 4.64144e-06 3.04848C-0.000312045 3.24669 0.0156174 3.49808 0.0353787 3.60708C0.0551399 3.71612 0.107203 3.91224 0.151096 4.04294C0.194957 4.17363 0.266941 4.35193 0.311055 4.43914C0.355138 4.52636 0.448908 4.68321 0.519403 4.78772C0.589897 4.89223 0.73399 5.06846 0.839605 5.17937C0.945252 5.29027 1.11256 5.44348 1.21143 5.51987C1.3103 5.59622 1.49556 5.71454 1.62312 5.78278C1.75068 5.85103 1.9621 5.94239 2.09292 5.98581C2.22375 6.02923 2.42326 6.08196 2.53629 6.10295C2.64931 6.12395 2.89449 6.14016 3.08115 6.13899C3.2678 6.13779 3.50991 6.12059 3.61917 6.1008C3.72845 6.08097 3.92477 6.02888 4.05546 5.98499C4.18616 5.94113 4.36446 5.86946 4.45167 5.82576C4.53889 5.78205 4.69574 5.68933 4.80025 5.61969C4.90476 5.55005 5.08058 5.40561 5.19098 5.29873C5.30134 5.19184 5.45459 5.02353 5.53145 4.92466C5.60834 4.82579 5.72672 4.64052 5.79455 4.51296C5.86238 4.3854 5.94833 4.1932 5.98558 4.08588C6.02282 3.97859 6.07393 3.79332 6.09917 3.67419C6.12527 3.55115 6.14506 3.28669 6.14506 3.06178C6.14506 2.83687 6.12527 2.5724 6.09917 2.44937C6.07393 2.33023 6.02241 2.14497 5.98469 2.03768C5.94694 1.93035 5.8805 1.77128 5.83702 1.68419C5.79354 1.5971 5.70638 1.44747 5.64336 1.35167C5.58031 1.25587 5.42184 1.06516 5.29118 0.92788C5.16051 0.790596 4.94795 0.606885 4.81884 0.51967C4.68972 0.432423 4.48214 0.31395 4.35752 0.256377C4.2329 0.198803 4.02503 0.120708 3.89557 0.0828639C3.70857 0.0281721 3.55599 0.0117044 3.15348 0.00267885C2.79401 -0.005365 2.58914 0.00438888 2.44837 0.0362476ZM3.3757 1.76441C3.56957 2.15168 3.66565 2.31113 3.71629 2.32966C3.75509 2.34388 4.02503 2.38857 4.31613 2.42894C4.60726 2.46935 4.86378 2.51464 4.88617 2.52962C4.91552 2.54925 4.80047 2.68039 4.47504 2.99835L4.02313 3.43981L4.0877 3.81289C4.12324 4.01811 4.16681 4.2644 4.18458 4.36019C4.20234 4.45599 4.22372 4.56642 4.23205 4.60563C4.24193 4.65189 4.23224 4.67688 4.20437 4.67688C4.18081 4.67688 3.92537 4.55575 3.63674 4.4077C3.34811 4.25965 3.08498 4.13851 3.05198 4.13851C3.01898 4.13851 2.97841 4.15102 2.96188 4.16629C2.94532 4.18158 2.70527 4.31013 2.42839 4.45197C2.15151 4.59378 1.92036 4.70522 1.91472 4.69959C1.90909 4.69395 1.93195 4.53336 1.96552 4.34268C1.99906 4.152 2.04868 3.87075 2.07576 3.71767L2.12501 3.43933L1.67335 2.99809C1.34808 2.68033 1.23309 2.54925 1.26245 2.52962C1.28483 2.51464 1.54135 2.46935 1.83248 2.42894C2.12358 2.38857 2.39352 2.34388 2.43232 2.32966C2.48296 2.31113 2.57904 2.15168 2.77291 1.76441C2.92147 1.46773 3.05708 1.22499 3.07431 1.22499C3.09153 1.22499 3.22714 1.46773 3.3757 1.76441ZM6.66867 2.86049C6.63843 2.89074 6.6212 2.96893 6.6212 3.076C6.6212 3.17759 6.63792 3.25793 6.66354 3.27915C6.69321 3.30379 7.1146 3.31335 8.07457 3.3112C8.82736 3.30952 9.45026 3.31513 9.45881 3.32368C9.46736 3.33223 9.47442 3.658 9.47451 4.04762C9.47461 4.43727 9.47394 4.77683 9.47303 4.80223C9.47204 4.82994 9.4158 4.79386 9.33248 4.7121C9.21496 4.59676 9.18395 4.58092 9.13097 4.6093C9.09655 4.6277 9.02368 4.6937 8.96902 4.75596C8.91439 4.81819 8.86967 4.8795 8.86967 4.8922C8.86967 4.9049 9.06206 5.10726 9.2972 5.34192L9.72473 5.76856L10.1523 5.34192C10.3874 5.10726 10.5798 4.89907 10.5798 4.87927C10.5798 4.85948 10.516 4.78446 10.438 4.71257C10.36 4.64068 10.2857 4.58187 10.2729 4.58187C10.2601 4.58187 10.1885 4.64186 10.1139 4.71514C10.0392 4.78845 9.9776 4.83475 9.977 4.81806C9.9764 4.80137 9.9752 4.36358 9.97437 3.84523C9.97311 3.07562 9.96462 2.89447 9.92795 2.85783C9.89042 2.8203 9.62386 2.81296 8.29961 2.81299C6.93491 2.81302 6.70955 2.81958 6.66867 2.86049ZM7.25368 4.75159C7.15741 4.77233 7.0149 4.82686 6.937 4.87278C6.85912 4.91867 6.75791 4.9967 6.71212 5.04617C6.66629 5.0956 6.59428 5.19308 6.552 5.26275C6.50976 5.33242 6.45817 5.44808 6.43736 5.51977C6.41655 5.59147 6.39952 5.72116 6.39952 5.80799C6.39952 5.89479 6.41516 6.01428 6.43432 6.0735C6.45345 6.13269 6.49003 6.22804 6.51558 6.28536C6.54114 6.34265 6.60508 6.43854 6.65765 6.49846L6.75326 6.60734L6.10927 6.61592L5.46529 6.6245L5.45674 7.31897C5.45018 7.85246 5.45747 8.01916 5.48828 8.03819C5.51032 8.05181 6.24013 8.06201 7.1101 8.06087C7.98004 8.05973 8.71044 8.05162 8.73325 8.04288C8.76561 8.03047 8.77467 7.87618 8.77467 7.33705C8.77467 6.81391 8.7651 6.64363 8.73508 6.63267C8.71333 6.62469 8.41133 6.61655 8.06402 6.61453L7.43255 6.61085L7.21594 6.39601C7.0968 6.27783 6.96952 6.11964 6.9331 6.04446C6.88373 5.94258 6.87068 5.86826 6.88183 5.75232C6.89098 5.65718 6.92933 5.54761 6.9807 5.46999C7.02687 5.40026 7.12106 5.3144 7.19 5.27922C7.26607 5.24042 7.37738 5.21525 7.47293 5.21525C7.55957 5.21525 7.6706 5.23038 7.71963 5.24891C7.76865 5.26741 8.13297 5.60547 8.52924 6.00012L9.2497 6.71767V7.37572C9.2497 7.73766 9.2604 8.03572 9.27345 8.03813C9.2865 8.04054 9.48066 8.04655 9.70487 8.05149C9.92909 8.0564 10.1322 8.05292 10.1562 8.0437C10.1912 8.03024 10.1998 7.89904 10.1998 7.37233V6.71767L10.9202 6.00012C11.3165 5.60547 11.6808 5.26741 11.7298 5.24891C11.7789 5.23038 11.8899 5.21525 11.9765 5.21525C12.071 5.21525 12.1832 5.24033 12.2568 5.27786C12.3243 5.31231 12.4064 5.37999 12.4392 5.42828C12.472 5.47658 12.5159 5.55597 12.5369 5.60468C12.5578 5.65338 12.5749 5.7451 12.5749 5.80843C12.5749 5.8718 12.5468 5.98157 12.5125 6.05238C12.4782 6.12319 12.3518 6.27868 12.2316 6.39788L12.0131 6.61462L11.3811 6.61431C11.0335 6.61412 10.7321 6.62447 10.7113 6.63733C10.6835 6.65456 10.6758 6.8433 10.6821 7.35513L10.6906 8.04959L12.3019 8.05495C13.1881 8.05789 13.9327 8.05279 13.9566 8.04364C13.9915 8.03024 14 7.89185 14 7.33578C14 6.70409 13.9952 6.64338 13.9446 6.63027C13.9141 6.62235 13.6326 6.61466 13.3191 6.6131C13.0056 6.61158 12.7357 6.60997 12.7194 6.60949C12.7031 6.60905 12.7257 6.56946 12.7696 6.52158C12.8135 6.4737 12.8775 6.38461 12.9119 6.32365C12.9463 6.26269 12.9932 6.14552 13.0161 6.06327C13.039 5.981 13.0516 5.83136 13.0442 5.73075C13.0366 5.62704 12.9953 5.47066 12.949 5.36979C12.904 5.2719 12.8164 5.13563 12.7544 5.06697C12.6924 4.99832 12.5661 4.90027 12.4737 4.84909C12.3178 4.76273 12.2819 4.75605 11.9732 4.75605C11.6853 4.75605 11.6216 4.76606 11.4982 4.83073C11.4095 4.87715 11.0474 5.21208 10.5402 5.71663L9.72473 6.52788L8.90926 5.71663C8.42983 5.23966 8.04119 4.87905 7.9661 4.84153C7.89589 4.80641 7.75433 4.7621 7.65154 4.7431C7.54874 4.7241 7.45655 4.70975 7.44667 4.71121C7.43682 4.71267 7.34999 4.73084 7.25368 4.75159ZM1.49758 7.39421C1.45192 7.42936 1.40711 7.5199 1.37645 7.63895C1.34969 7.74288 1.29174 7.90237 1.24769 7.99338C1.2036 8.08437 1.09286 8.23409 1.00159 8.32609C0.910321 8.41812 0.765755 8.53105 0.680313 8.5771C0.594871 8.62315 0.432346 8.68541 0.319131 8.71546C0.205915 8.74554 0.0883294 8.79843 0.0578641 8.83298C0.0273989 8.86756 0.00244396 8.94414 0.00244396 9.00317C0.00244396 9.06575 0.0271144 9.13516 0.0616333 9.16968C0.0941887 9.20224 0.197492 9.2467 0.291231 9.26852C0.384939 9.29034 0.546701 9.35276 0.650701 9.40726C0.754669 9.46176 0.913204 9.5809 1.00295 9.67204C1.09273 9.76315 1.20256 9.91279 1.24699 10.0046C1.29145 10.0963 1.34976 10.2569 1.37655 10.3614C1.40505 10.4726 1.45347 10.5744 1.49325 10.6068C1.53065 10.6373 1.59883 10.6619 1.64481 10.6616C1.69077 10.6612 1.76037 10.6362 1.79945 10.6061C1.84477 10.5713 1.89287 10.4709 1.93208 10.3293C1.96593 10.2072 2.02971 10.0433 2.0738 9.96514C2.11791 9.88698 2.20072 9.77104 2.25789 9.70745C2.31502 9.64389 2.43796 9.54059 2.53106 9.47795C2.6242 9.41527 2.8201 9.32749 2.96641 9.28287C3.13486 9.2315 3.24408 9.17994 3.26422 9.14235C3.28167 9.1097 3.29599 9.04247 3.29599 8.99294C3.29599 8.94341 3.27553 8.87371 3.25054 8.83802C3.22172 8.79688 3.13767 8.75834 3.02094 8.73269C2.91967 8.71042 2.75328 8.64813 2.65121 8.59423C2.54914 8.54033 2.39033 8.42034 2.29826 8.32755C2.2062 8.23476 2.09483 8.08437 2.05074 7.99338C2.00669 7.90237 1.94874 7.74288 1.92198 7.63895C1.89132 7.5199 1.84651 7.42936 1.80085 7.39421C1.76101 7.36356 1.69276 7.33844 1.64922 7.33844C1.60567 7.33844 1.53742 7.36356 1.49758 7.39421ZM5.48904 8.53074C5.45779 8.54258 5.44946 9.11901 5.44946 11.2666V13.9875H7.11225H8.77502L8.76694 11.256L8.75883 8.52462L7.14373 8.52019C6.25542 8.51775 5.51083 8.5225 5.48904 8.53074ZM9.28928 8.53178C9.25803 8.5428 9.2497 9.11844 9.2497 11.2666V13.9875H9.72473H10.1998V11.2674C10.1998 9.12031 10.1914 8.5441 10.1602 8.53235C10.1384 8.52418 9.94245 8.51756 9.72473 8.51766C9.50701 8.51775 9.31107 8.52412 9.28928 8.53178ZM10.7144 8.53029C10.6831 8.54248 10.6748 9.11927 10.6748 11.2666V13.9875H12.3374H14V11.2674C14 9.00662 13.9927 8.54445 13.9571 8.53074C13.9334 8.52168 13.2031 8.51439 12.334 8.51459C11.465 8.51474 10.7362 8.5218 10.7144 8.53029ZM13.0499 10.8998V11.1373H12.8124H12.5749V10.8998V10.6623H12.8124H13.0499V10.8998ZM13.0499 11.8498V12.0873H12.8124H12.5749V11.8498V11.6123H12.8124H13.0499V11.8498ZM13.0499 12.7999V13.0374H12.8124H12.5749V12.7999V12.5624H12.8124H13.0499V12.7999Z" fill="#5C5D6F"/>
</svg>
