<svg width="14" height="14" viewBox="0 0 14 14" fill="none" xmlns="http://www.w3.org/2000/svg">
<path d="M8.39655 0L12.598 4.19932L12.5987 7.18084C11.9102 6.60939 11.0431 6.29734 10.1484 6.29899L9.99369 6.30179C9.15694 6.33554 8.354 6.64109 7.70649 7.17216C7.05899 7.70322 6.60221 8.43085 6.40537 9.24481L6.39417 9.2966L6.37317 9.3106C6.00415 9.55789 5.68843 9.87663 5.44466 10.248C5.20089 10.6193 5.03401 11.0358 4.9539 11.4727C4.87378 11.9097 4.88204 12.3582 4.97819 12.7919C5.07434 13.2256 5.25644 13.6356 5.51371 13.9977H0.694988C0.524856 13.9977 0.360639 13.9353 0.233452 13.8223C0.106266 13.7093 0.024945 13.5536 0.00489919 13.3846L0 13.3035V0.694288C0 0.345744 0.270856 0.0454927 0.6194 0.00489919L0.701287 0H8.39655ZM10.1484 7.69876C10.798 7.69876 11.4211 7.95684 11.8805 8.41623C12.3399 8.87562 12.598 9.49869 12.598 10.1484L12.5973 10.2205C13.0351 10.3438 13.4151 10.6183 13.6699 10.9951C13.9246 11.372 14.0377 11.8269 13.9889 12.2792C13.9402 12.7315 13.7328 13.1519 13.4036 13.4658C13.0745 13.7798 12.6447 13.967 12.1906 13.9942L12.0731 13.9977H8.22368L8.1061 13.9942C7.65211 13.9667 7.22255 13.7793 6.89357 13.4653C6.56459 13.1512 6.35745 12.7308 6.30889 12.2786C6.26033 11.8264 6.37349 11.3716 6.62829 10.9948C6.88309 10.6181 7.26307 10.3437 7.70086 10.2205L7.69876 10.1484C7.69876 9.49869 7.95684 8.87562 8.41623 8.41623C8.87562 7.95684 9.49869 7.69876 10.1484 7.69876Z" fill="#5C5D6F"/>
</svg>
