<svg width="15" height="10" viewBox="0 0 15 10" fill="none" xmlns="http://www.w3.org/2000/svg">
<g clip-path="url(#clip0_1839_15868)">
<path d="M3.28942 0.751956C2.8651 0.751271 2.44797 0.859552 2.07945 1.06605C1.71093 1.27255 1.40383 1.57009 1.18863 1.92912C0.973434 2.28816 0.857628 2.69621 0.852703 3.11277C0.847778 3.52933 0.953906 3.93991 1.16056 4.30376C1.36721 4.6676 1.66719 4.97205 2.03073 5.18689C2.39427 5.40173 2.80872 5.51949 3.23294 5.52848C3.65717 5.53746 4.0764 5.43735 4.44904 5.2381C4.82168 5.03885 5.13475 4.74739 5.35719 4.39263C5.08429 3.97376 4.91829 3.49645 4.87326 3.00119C4.82823 2.50593 4.9055 2.00731 5.09852 1.5476C4.87101 1.29742 4.59226 1.09723 4.2805 0.960117C3.96875 0.823007 3.63102 0.752072 3.28942 0.751956Z" fill="#5C5D6F"/>
<path d="M4.95729 5.1964L4.85087 5.27355C4.73121 5.58758 4.51637 5.85805 4.2353 6.04849C3.95422 6.23892 3.62044 6.34018 3.27894 6.3386C2.93744 6.33703 2.60463 6.23268 2.3254 6.03966C2.04616 5.84663 1.83392 5.57421 1.71728 5.25909C1.64196 5.20605 1.58466 5.16104 1.55356 5.13371L1.5159 5.10156L1.49461 5.11925C-0.0197939 6.40514 0.0014921 8.65544 0.0031293 8.75027V8.83064H3.85709C3.91603 7.95945 4.18453 6.40674 5.23889 5.25909C5.18161 5.20635 5.12031 5.15799 5.05552 5.11442L4.99003 5.16908L4.95729 5.1964Z" fill="#5C5D6F"/>
<path d="M9.954 5.03157L9.88032 5.09587L9.84267 5.1248C9.40304 5.45904 8.88526 5.68007 8.33644 5.76776C8.26441 5.7774 8.19401 5.78864 8.12033 5.79346C8.04666 5.79828 7.99754 5.79346 7.93369 5.79346C7.71331 5.79227 7.49372 5.76748 7.27881 5.71953C6.79192 5.58756 6.33853 5.35706 5.94777 5.04283L5.9052 5.00586L5.88228 5.02676C4.14685 6.4991 4.17141 9.07568 4.17305 9.18498V9.27501H11.5945V9.17857C11.4635 6.21299 10.252 5.22928 9.954 5.03157ZM8.92256 7.04721L7.87966 6.52643L6.83677 7.04721V5.78061L7.87966 6.32711L8.92256 5.78061V7.04721Z" fill="#5C5D6F"/>
<path d="M5.16211 2.73642C5.16211 3.46113 5.45534 4.15615 5.9773 4.6686C6.49925 5.18104 7.20719 5.46893 7.94534 5.46893C8.49582 5.46893 9.03392 5.30867 9.49162 5.00841C9.94933 4.70816 10.3061 4.28141 10.5167 3.78211C10.7274 3.2828 10.7825 2.73339 10.6751 2.20333C10.5677 1.67328 10.3026 1.18639 9.91339 0.804242C9.52415 0.422094 9.02822 0.161849 8.48833 0.0564141C7.94843 -0.0490205 7.38881 0.00508407 6.88024 0.211901C6.37167 0.418719 5.93699 0.768957 5.63116 1.21832C5.32534 1.66768 5.16211 2.19598 5.16211 2.73642Z" fill="#5C5D6F"/>
<path d="M11.8701 8.69357H14.9988V8.62122C14.9988 8.53603 14.9693 6.6249 13.6088 5.4692L13.5908 5.45312C13.5461 5.49384 13.5002 5.53242 13.4533 5.56885L12.4857 7.41892L12.3138 6.33395L12.5905 5.89515C12.4109 5.93777 12.2268 5.95935 12.042 5.95945C11.9929 5.95945 11.9454 5.95945 11.8963 5.95945C11.809 5.95422 11.7221 5.94401 11.636 5.9289L11.5361 5.90961L11.8063 6.33717L11.6262 7.37071C11.7479 7.80354 11.8296 8.2463 11.8701 8.69357Z" fill="#5C5D6F"/>
<path d="M12.1368 5.66788C12.4845 5.66991 12.8276 5.59052 13.1378 5.43633C13.448 5.28214 13.7163 5.05758 13.9204 4.78126C14.1245 4.50495 14.2586 4.18484 14.3116 3.84748C14.3645 3.51011 14.3348 3.16522 14.2248 2.84139C14.1149 2.51757 13.9279 2.22415 13.6794 1.98544C13.4308 1.74674 13.1279 1.56964 12.7958 1.46883C12.4636 1.36802 12.1117 1.34641 11.7694 1.40578C11.427 1.46515 11.1039 1.60379 10.827 1.81021C11.0056 2.29105 11.0499 2.81001 10.9555 3.31334C10.8611 3.81667 10.6313 4.28606 10.29 4.67292C10.4873 4.97829 10.7601 5.22966 11.0831 5.40363C11.406 5.5776 11.7685 5.66852 12.1368 5.66788Z" fill="#5C5D6F"/>
</g>
<defs>
<clipPath id="clip0_1839_15868">
<rect width="15" height="9.28572" fill="white"/>
</clipPath>
</defs>
</svg>
