<svg width="17" height="20" viewBox="0 0 17 20" fill="none" xmlns="http://www.w3.org/2000/svg">
<g clip-path="url(#clip0_1833_10399)">
<path d="M16.4843 1.9184C15.768 1.17526 14.5892 1.18904 13.8842 1.27986L13.997 0H3.02649L3.13929 1.27986C2.43424 1.18904 1.25542 1.17251 0.539095 1.9184C-0.0700625 2.5542 -0.160309 3.51754 0.273998 4.78364C1.05519 7.07087 3.80485 7.71768 5.14725 7.89933C6.07454 8.69736 7.26836 9.13769 8.50467 9.13769C9.74098 9.13769 10.9348 8.69736 11.8621 7.89933C13.2045 7.71768 15.9542 7.07362 16.7353 4.78364C17.1668 3.51754 17.0794 2.5542 16.4843 1.9184ZM1.61076 4.35427C1.35976 3.61938 1.34566 3.08541 1.57127 2.85146C1.87021 2.53494 2.73036 2.57623 3.26337 2.68082L3.42977 4.58546C3.47969 5.15007 3.6285 5.70214 3.86972 6.21763C2.92214 5.90662 1.93508 5.34788 1.59666 4.35427H1.61076ZM10.452 7.00481H7.01138V6.20937H8.23252V2.68908L7.10445 3.35515V2.47439L8.65837 1.5551H9.24497V6.20937H10.4605L10.452 7.00481ZM15.4268 4.35427C15.0884 5.34788 14.1013 5.90662 13.1537 6.21763C13.397 5.70269 13.5468 5.15042 13.5965 4.58546L13.7629 2.68082C14.3072 2.56246 15.173 2.53769 15.455 2.85146C15.6778 3.08541 15.6637 3.61938 15.4127 4.35427H15.4268Z" fill="#5C5D6F"/>
<path d="M8.49855 9.73279C8.15841 9.73275 7.81853 9.71437 7.48047 9.67773V13.7623H9.51945V9.67773C9.18044 9.71436 8.83963 9.73274 8.49855 9.73279Z" fill="#5C5D6F"/>
<path d="M11.6286 14.4004H5.14225C4.97098 14.4003 4.80512 14.459 4.67367 14.5661C4.54221 14.6733 4.45353 14.8221 4.42311 14.9866L3.625 19.2666H13.1459L12.3478 14.9866C12.3174 14.8221 12.2287 14.6733 12.0972 14.5661C11.9658 14.459 11.7999 14.4003 11.6286 14.4004Z" fill="#5C5D6F"/>
<path d="M9.22012 1.55469H8.63071L7.07961 2.47398V3.35474L8.21614 2.68867V6.20071H6.99219V7.0044H10.4356V6.20071H9.22012V1.55469Z" fill="white"/>
</g>
<defs>
<clipPath id="clip0_1833_10399">
<rect width="17" height="19.2667" fill="white"/>
</clipPath>
</defs>
</svg>
