<svg width="38" height="28" viewBox="0 0 38 28" fill="none" xmlns="http://www.w3.org/2000/svg">
<path d="M8.94079 11.2675C8.52946 11.2675 8.13474 11.3289 7.74186 11.3848C7.86913 10.9663 8.00009 10.5407 8.21036 10.1583C8.42064 9.6028 8.74896 9.12124 9.07544 8.63607C9.34843 8.11122 9.82984 7.75591 10.184 7.30681C10.5547 6.87034 11.0601 6.57996 11.4604 6.21743C11.8533 5.83868 12.3679 5.6493 12.7774 5.38236C13.2053 5.14248 13.5779 4.87735 13.9763 4.7511L14.9705 4.3507L15.8448 3.99539L14.9502 0.5L13.849 0.759719C13.4967 0.846292 13.067 0.947294 12.5782 1.06814C12.0783 1.15832 11.5452 1.40541 10.9513 1.63086C10.3648 1.88697 9.68597 2.06012 9.05515 2.47134C8.42064 2.86453 7.68837 3.19279 7.04279 3.71944C6.4175 4.26232 5.66309 4.73307 5.10605 5.42385C4.49736 6.06954 3.89606 6.74769 3.42939 7.51964C2.88895 8.25551 2.5219 9.06353 2.13455 9.86252C1.78409 10.6615 1.50188 11.4786 1.27132 12.2721C0.834169 13.8629 0.638651 15.3743 0.563026 16.6675C0.500313 17.9625 0.537203 19.0393 0.614672 19.8184C0.64234 20.1864 0.693986 20.5435 0.730876 20.7906L0.776989 21.0936L0.824946 21.0828C1.15301 22.5813 1.90823 23.9583 3.00324 25.0546C4.09826 26.151 5.48831 26.9217 7.01261 27.2778C8.53691 27.6339 10.1332 27.5608 11.6167 27.0668C13.1003 26.5729 14.4105 25.6783 15.3959 24.4867C16.3812 23.295 17.0014 21.8549 17.1847 20.333C17.368 18.8111 17.1069 17.2695 16.4316 15.8866C15.7563 14.5037 14.6944 13.336 13.3688 12.5186C12.0432 11.7012 10.508 11.2674 8.94079 11.2675ZM29.2304 11.2675C28.8191 11.2675 28.4243 11.3289 28.0315 11.3848C28.1587 10.9663 28.2897 10.5407 28.5 10.1583C28.7102 9.6028 29.0386 9.12124 29.365 8.63607C29.638 8.11122 30.1195 7.75591 30.4736 7.30681C30.8443 6.87034 31.3497 6.57996 31.75 6.21743C32.1429 5.83868 32.6575 5.6493 33.067 5.38236C33.4949 5.14248 33.8675 4.87735 34.2659 4.7511L35.2601 4.3507L36.1344 3.99539L35.2398 0.5L34.1386 0.759719C33.7863 0.846292 33.3566 0.947294 32.8678 1.06814C32.3679 1.15832 31.8348 1.40541 31.2409 1.63086C30.6562 1.88878 29.9756 2.06012 29.3448 2.47315C28.7102 2.86633 27.978 3.19459 27.3324 3.72124C26.7071 4.26413 25.9527 4.73487 25.3957 5.42385C24.787 6.06954 24.1857 6.74769 23.719 7.51964C23.1786 8.25551 22.8115 9.06353 22.4242 9.86252C22.0737 10.6615 21.7915 11.4786 21.5609 12.2721C21.1238 13.8629 20.9283 15.3743 20.8526 16.6675C20.7899 17.9625 20.8268 19.0393 20.9043 19.8184C20.9319 20.1864 20.9836 20.5435 21.0205 20.7906L21.0666 21.0936L21.1146 21.0828C21.4426 22.5813 22.1978 23.9583 23.2929 25.0546C24.3879 26.151 25.7779 26.9217 27.3022 27.2778C28.8265 27.6339 30.4228 27.5608 31.9063 27.0668C33.3899 26.5729 34.7001 25.6783 35.6855 24.4867C36.6708 23.295 37.291 21.8549 37.4743 20.333C37.6576 18.8111 37.3965 17.2695 36.7212 15.8866C36.0459 14.5037 34.984 13.336 33.6584 12.5186C32.3328 11.7012 30.7976 11.2674 29.2304 11.2675Z" fill="white"/>
</svg>
