<svg width="16" height="16" viewBox="0 0 16 16" fill="none" xmlns="http://www.w3.org/2000/svg">
<path fill-rule="evenodd" clip-rule="evenodd" d="M7.36519 1.01563C7.23719 1.02886 7.00924 1.05961 6.85864 1.08395C6.70805 1.10829 6.42397 1.16995 6.22737 1.22099C6.03078 1.272 5.74738 1.35779 5.59761 1.41162C5.44784 1.46545 5.12816 1.60695 4.88721 1.72612C4.64625 1.84525 4.30941 2.03629 4.13869 2.15066C3.96797 2.26503 3.74002 2.42781 3.63214 2.51242C3.52426 2.59703 3.25111 2.85238 3.02513 3.07984C2.79913 3.30732 2.52573 3.61158 2.4176 3.75596C2.30944 3.90034 2.15151 4.12828 2.06663 4.26251C1.98175 4.39673 1.82272 4.6865 1.71322 4.90648C1.6037 5.12646 1.46206 5.45298 1.39842 5.63208C1.33479 5.81118 1.24186 6.12406 1.19191 6.32737C1.14197 6.53067 1.07836 6.85719 1.05055 7.05297C1.01402 7.31027 1 7.57208 1 7.99761C1 8.42314 1.01402 8.68496 1.05055 8.94226C1.07836 9.13803 1.14197 9.46455 1.19191 9.66786C1.24186 9.87116 1.33479 10.184 1.39842 10.3631C1.46206 10.5422 1.6037 10.8688 1.71322 11.0887C1.82272 11.3087 1.98175 11.5985 2.06663 11.7327C2.15151 11.8669 2.30953 12.0943 2.41776 12.238C2.526 12.3817 2.76244 12.6526 2.94315 12.8399C3.12387 13.0272 3.39494 13.2816 3.54554 13.4053C3.69613 13.529 3.95406 13.7202 4.1187 13.8303C4.28337 13.9403 4.57909 14.1134 4.77585 14.2149C4.97264 14.3164 5.27533 14.4556 5.44852 14.5242C5.6217 14.5929 5.92358 14.6929 6.11936 14.7466C6.31513 14.8002 6.6118 14.8679 6.77864 14.8968C6.94544 14.9258 7.24732 14.9642 7.44947 14.9822C7.67093 15.0019 7.98562 15.008 8.24139 14.9977C8.47481 14.9883 8.8286 14.9564 9.02758 14.9268C9.22656 14.8973 9.5346 14.836 9.71211 14.7907C9.88962 14.7454 10.1211 14.6785 10.2265 14.6419C10.3319 14.6054 10.5134 14.5373 10.6299 14.4906C10.7463 14.444 10.9799 14.3364 11.1489 14.2516C11.3179 14.1669 11.5734 14.0237 11.7166 13.9334C11.8599 13.8432 12.0946 13.6816 12.2381 13.5744C12.3817 13.4672 12.6966 13.182 12.938 12.9407C13.1794 12.6993 13.4651 12.3836 13.5729 12.2393C13.6807 12.0949 13.838 11.8669 13.9224 11.7327C14.0068 11.5985 14.1494 11.3445 14.2394 11.1682C14.3294 10.9919 14.4585 10.7057 14.5264 10.5322C14.5942 10.3586 14.6929 10.0593 14.7456 9.86695C14.7983 9.67462 14.8652 9.38077 14.8942 9.21394C14.9232 9.04713 14.9616 8.74525 14.9795 8.5431C14.9992 8.32164 15.0054 8.00695 14.995 7.75118C14.9856 7.51776 14.9535 7.16279 14.9238 6.96236C14.894 6.76196 14.8257 6.4307 14.7719 6.22625C14.7181 6.0218 14.6307 5.73602 14.5776 5.59123C14.5245 5.44644 14.3904 5.14314 14.2794 4.91724C14.1685 4.69135 14.0083 4.39673 13.9234 4.26251C13.8384 4.12828 13.6807 3.90034 13.5729 3.75596C13.4651 3.61158 13.1794 3.29596 12.938 3.05456C12.6966 2.8132 12.381 2.52751 12.2366 2.41968C12.0922 2.31185 11.8643 2.15416 11.7301 2.06928C11.5958 1.9844 11.3061 1.82537 11.0861 1.71588C10.8661 1.60635 10.5401 1.46493 10.3616 1.4016C10.1831 1.33824 9.89129 1.24947 9.71318 1.20429C9.53509 1.15911 9.22656 1.09756 9.02758 1.06752C8.79597 1.03255 8.47369 1.00906 8.13186 1.00224C7.8382 0.996383 7.4932 1.00241 7.36519 1.01563ZM7.66417 1.47635C7.56505 1.50222 7.41281 1.56621 7.32582 1.61854C7.23883 1.67086 7.10538 1.78143 7.0292 1.86425C6.95305 1.94708 6.85621 2.08878 6.81396 2.17914C6.77174 2.26949 6.72196 2.43277 6.70334 2.54194C6.67651 2.69951 6.67651 2.78138 6.70334 2.93896C6.72196 3.04813 6.77174 3.2114 6.81396 3.30176C6.85621 3.39212 6.95305 3.53381 7.0292 3.61664C7.10538 3.69947 7.23883 3.81003 7.32582 3.86236C7.41281 3.91469 7.56505 3.97867 7.66417 4.00455C7.82618 4.04683 8.04411 4.05175 9.82388 4.05315L11.8034 4.05474L11.8706 4.12196L11.9378 4.18915V5.54578V6.90237H12.1578H12.3778L12.37 5.49909C12.3628 4.19107 12.3588 4.08929 12.3112 3.99998C12.2831 3.94727 12.2277 3.86912 12.188 3.82633C12.1483 3.78356 12.0665 3.72195 12.0063 3.68942C11.8985 3.63129 11.873 3.6302 10.4362 3.62256L8.97558 3.61481L9.04828 3.51949C9.08826 3.46706 9.15055 3.35962 9.18667 3.28068C9.22281 3.20176 9.26766 3.04794 9.28639 2.93882C9.31341 2.78111 9.31347 2.69976 9.28658 2.54194C9.26796 2.43274 9.21637 2.2655 9.17193 2.17024C9.11912 2.05702 9.03007 1.93596 8.91477 1.82064C8.79865 1.70454 8.67817 1.6161 8.56221 1.56183C8.46531 1.51649 8.33194 1.46775 8.26581 1.45354C8.17159 1.43328 8.20185 1.43073 8.40567 1.44174C8.54874 1.44946 8.80133 1.47506 8.96699 1.49861C9.13264 1.52218 9.43011 1.58258 9.62805 1.63286C9.82599 1.68313 10.1094 1.76941 10.2578 1.82455C10.4062 1.87972 10.6879 2.0025 10.8837 2.09743C11.0794 2.19233 11.332 2.32883 11.445 2.40073C11.5579 2.47263 11.792 2.63665 11.9652 2.7652C12.1384 2.89373 12.4407 3.15946 12.6369 3.3557C12.8331 3.55191 13.0993 3.85417 13.2285 4.02736C13.3577 4.20054 13.5413 4.47162 13.6364 4.62974C13.7316 4.78787 13.8672 5.04057 13.9379 5.19133C14.0086 5.34206 14.1118 5.58674 14.1673 5.73503C14.2229 5.8833 14.3094 6.16659 14.3597 6.36452C14.41 6.56246 14.4714 6.86584 14.4963 7.03876C14.5211 7.21164 14.5471 7.51352 14.554 7.70959C14.5665 8.06568 14.5665 8.0659 14.5262 7.90925C14.504 7.823 14.455 7.6916 14.4173 7.61724C14.3796 7.5429 14.2794 7.40711 14.1946 7.3155C14.0861 7.19828 13.9818 7.12 13.8426 7.05119C13.7211 6.99111 13.5683 6.94158 13.4463 6.92269C13.296 6.89944 13.2001 6.89999 13.0514 6.92496C12.9435 6.94311 12.775 6.99689 12.6771 7.04448C12.5675 7.09776 12.4347 7.19521 12.3315 7.29811C12.2394 7.39003 12.1315 7.52931 12.0918 7.60768C12.0521 7.68602 12.0014 7.82739 11.9791 7.9218C11.9455 8.06429 11.9386 8.40866 11.9382 9.94975L11.9378 11.8061L11.8706 11.8733L11.8034 11.9405H10.5563H9.30925V12.1605V12.3806L10.603 12.3728C11.804 12.3655 11.9036 12.3612 11.9926 12.3139C12.0453 12.2858 12.1234 12.2303 12.1662 12.1906C12.209 12.1509 12.2706 12.0692 12.3032 12.0089C12.3611 11.9016 12.3624 11.8727 12.3701 10.5521L12.3779 9.20485L12.546 9.31349C12.6385 9.37327 12.7767 9.44101 12.8531 9.46401C12.9295 9.48701 13.0659 9.51283 13.1563 9.5214C13.2466 9.52994 13.3945 9.52334 13.4849 9.50672C13.5752 9.49013 13.7372 9.43331 13.8448 9.38047C13.9825 9.31284 14.086 9.2351 14.1944 9.11802C14.2791 9.02654 14.3749 8.90029 14.4072 8.83745C14.4395 8.77461 14.4815 8.67393 14.5006 8.61369C14.5324 8.51366 14.5355 8.51098 14.5372 8.5828C14.5382 8.62604 14.5199 8.79238 14.4965 8.95245C14.4732 9.11249 14.4166 9.39747 14.3708 9.58572C14.3249 9.77396 14.2376 10.0635 14.1767 10.2292C14.1159 10.3948 14.0083 10.6536 13.9377 10.8042C13.8672 10.9548 13.7316 11.2074 13.6364 11.3655C13.5413 11.5236 13.3577 11.7947 13.2285 11.9679C13.0993 12.1411 12.8331 12.4433 12.6369 12.6395C12.4407 12.8358 12.1384 13.102 11.9652 13.2312C11.792 13.3604 11.521 13.5439 11.3628 13.6391C11.2047 13.7342 10.9521 13.8698 10.8015 13.9404C10.6509 14.011 10.3922 14.1185 10.2265 14.1793C10.0609 14.2401 9.77131 14.3277 9.58306 14.3739C9.39482 14.4201 9.11142 14.4761 8.9533 14.4982C8.79517 14.5204 8.54874 14.545 8.40567 14.5529C8.20374 14.564 8.17247 14.5614 8.26581 14.5415C8.33194 14.5274 8.46531 14.4787 8.56221 14.4334C8.67817 14.3791 8.79865 14.2907 8.91477 14.1746C9.03007 14.0593 9.11912 13.9382 9.17193 13.825C9.21637 13.7297 9.26796 13.5625 9.28658 13.4533C9.31341 13.2957 9.31341 13.2138 9.28658 13.0563C9.26796 12.9471 9.21637 12.7798 9.17193 12.6846C9.11912 12.5713 9.03007 12.4503 8.91477 12.335C8.79977 12.22 8.67803 12.1303 8.56506 12.0775C8.46975 12.0329 8.32542 11.9838 8.24437 11.9684C8.15276 11.9511 7.3572 11.9405 6.14175 11.9405H4.1865L4.11931 11.8733L4.05209 11.8061V10.4495V9.09286H3.83208H3.6121L3.61988 10.4961C3.62754 11.8742 3.62875 11.9014 3.68677 12.0089C3.7193 12.0692 3.7809 12.1509 3.82367 12.1906C3.86647 12.2303 3.94461 12.2858 3.99732 12.3139C4.08683 12.3615 4.18976 12.3654 5.55375 12.3727L7.01433 12.3804L6.94164 12.4757C6.90166 12.5282 6.83937 12.6356 6.80325 12.7146C6.76711 12.7935 6.72226 12.9473 6.70353 13.0564C6.67651 13.2141 6.67645 13.2955 6.70334 13.4533C6.72196 13.5625 6.77354 13.7297 6.81798 13.825C6.87025 13.9371 6.9596 14.059 7.07115 14.1706C7.16594 14.2654 7.30813 14.3757 7.38713 14.4157C7.46609 14.4557 7.6013 14.5065 7.68755 14.5286L7.84436 14.5687L7.58424 14.5536C7.44118 14.5453 7.19475 14.5203 7.03662 14.4979C6.8785 14.4756 6.58251 14.4159 6.37887 14.3654C6.17521 14.3148 5.88566 14.2279 5.73542 14.1722C5.58515 14.1165 5.30203 13.9927 5.10626 13.8971C4.91048 13.8015 4.61619 13.6357 4.45226 13.5287C4.28833 13.4217 4.04806 13.252 3.91833 13.1516C3.7886 13.0512 3.52818 12.8147 3.33963 12.6259C3.15106 12.4372 2.89099 12.1411 2.76167 11.9679C2.63232 11.7947 2.44865 11.5236 2.3535 11.3655C2.25832 11.2074 2.12268 10.9547 2.05204 10.8039C1.98136 10.6532 1.87814 10.4085 1.82258 10.2602C1.76705 10.1119 1.68047 9.82864 1.6302 9.6307C1.57993 9.43277 1.51821 9.12914 1.49305 8.95595C1.46789 8.78277 1.44196 8.48089 1.43541 8.28511L1.42353 7.92916L1.46381 8.08597C1.48596 8.17222 1.53683 8.30743 1.57686 8.3864C1.6169 8.46539 1.72505 8.6052 1.81722 8.69712C1.92041 8.80002 2.05319 8.89747 2.16279 8.95075C2.26068 8.99834 2.42913 9.05211 2.53709 9.07027C2.68577 9.09524 2.78163 9.09579 2.93195 9.07254C3.05396 9.05365 3.20672 9.00411 3.32827 8.94404C3.4675 8.87523 3.57177 8.79695 3.68028 8.67973C3.7651 8.58811 3.86505 8.45285 3.90242 8.37911C3.93977 8.3054 3.98853 8.16784 4.01079 8.07343C4.04439 7.93094 4.05135 7.58657 4.05167 6.04548L4.05209 4.18915L4.11931 4.12196L4.1865 4.05474H5.4336H6.68067V3.83468V3.61462L5.38691 3.62247C4.12119 3.63017 4.09077 3.63162 3.98363 3.68942C3.92339 3.72195 3.84163 3.78356 3.80193 3.82633C3.76223 3.86912 3.70678 3.94727 3.67872 3.99998C3.63124 4.08913 3.62713 4.18976 3.61985 5.44181L3.61204 6.78784L3.47651 6.69663C3.40195 6.64644 3.27271 6.57988 3.18928 6.54866C3.10585 6.51745 2.95337 6.48407 2.85039 6.47451C2.71961 6.46236 2.60157 6.47082 2.45895 6.50252C2.33732 6.5296 2.185 6.58916 2.08221 6.64986C1.98728 6.70591 1.84895 6.81809 1.7748 6.89914C1.70065 6.98019 1.61388 7.09724 1.58198 7.15926C1.55009 7.22128 1.50838 7.3213 1.48927 7.38154L1.45455 7.49106L1.45272 7.4029C1.45171 7.3544 1.47046 7.1819 1.49439 7.01956C1.5183 6.85722 1.57922 6.56246 1.62974 6.36452C1.68028 6.16659 1.76705 5.8833 1.82258 5.73503C1.87814 5.58674 1.98136 5.34206 2.05204 5.19133C2.12268 5.04057 2.25832 4.78787 2.3535 4.62974C2.44865 4.47162 2.63249 4.20054 2.76197 4.02736C2.89148 3.85417 3.14542 3.56344 3.32624 3.3813C3.50709 3.19916 3.75363 2.97215 3.87411 2.87683C3.99459 2.78149 4.24101 2.60634 4.42173 2.48756C4.60244 2.36878 4.91048 2.19346 5.10626 2.09798C5.30203 2.00247 5.57926 1.88098 5.72233 1.828C5.8654 1.77502 6.12415 1.69403 6.29733 1.64803C6.47052 1.60203 6.76623 1.53992 6.95448 1.51C7.14272 1.4801 7.35219 1.45113 7.41996 1.44568C7.48772 1.4402 7.61094 1.43429 7.69377 1.43251L7.84436 1.42931L7.66417 1.47635ZM8.35628 1.93977C8.42701 1.97112 8.53856 2.05044 8.60416 2.11605C8.66977 2.18166 8.75358 2.2966 8.79043 2.37152C8.84561 2.48361 8.85746 2.54886 8.85746 2.74045C8.85746 2.93203 8.84561 2.99728 8.79043 3.10938C8.75358 3.1843 8.66977 3.29924 8.60416 3.36485C8.53856 3.43045 8.42701 3.51073 8.35628 3.54326C8.25675 3.58904 8.1751 3.60249 7.99496 3.60268C7.80304 3.6029 7.73834 3.59121 7.62603 3.53592C7.55111 3.49907 7.43959 3.41865 7.37817 3.35723C7.31676 3.29582 7.23823 3.1872 7.20367 3.11584C7.16915 3.04449 7.13426 2.91306 7.12616 2.82382C7.11808 2.73456 7.1261 2.60228 7.14398 2.52986C7.16189 2.45744 7.21849 2.33441 7.26977 2.25652C7.32106 2.17859 7.42075 2.07509 7.49131 2.02654C7.5619 1.97797 7.67019 1.9217 7.73199 1.90144C7.79751 1.87997 7.92426 1.86842 8.03603 1.8737C8.15314 1.87923 8.27772 1.90494 8.35628 1.93977ZM4.49018 4.71188V4.93093H4.70923H4.92828V4.71188V4.49284H4.70923H4.49018V4.71188ZM11.0616 4.71188V4.93093H11.2807H11.4997V4.71188V4.49284H11.2807H11.0616V4.71188ZM7.64851 5.61806C7.57088 5.63101 7.43904 5.66721 7.35547 5.69848C7.27089 5.7301 7.1416 5.81102 7.06381 5.88095C6.98695 5.95006 6.8921 6.06952 6.853 6.14643C6.81393 6.22337 6.76503 6.3479 6.74433 6.4232C6.72366 6.4985 6.69929 6.68332 6.69022 6.83392C6.68083 6.99015 6.68683 7.19119 6.70419 7.30205C6.72094 7.40895 6.75901 7.57529 6.7888 7.6717C6.81859 7.76813 6.88509 7.91695 6.9366 8.00246L7.03021 8.15788L6.41586 8.56377L5.80154 8.96964L5.81055 9.38036C5.8189 9.76175 5.82498 9.80279 5.89562 9.95536C5.93749 10.0457 6.01109 10.1612 6.05923 10.212C6.10736 10.2628 6.19602 10.3272 6.25626 10.3551C6.35908 10.4028 6.46553 10.4059 7.99496 10.4059C9.52438 10.4059 9.63084 10.4028 9.73366 10.3551C9.79389 10.3272 9.88256 10.2628 9.93069 10.212C9.97883 10.1612 10.0524 10.0457 10.0943 9.95536C10.1649 9.80279 10.171 9.76175 10.1794 9.38036L10.1884 8.96964L9.57405 8.56377L8.9597 8.15788L9.04765 8.01185C9.09601 7.93154 9.16219 7.78473 9.19474 7.68563C9.22727 7.58651 9.2679 7.41596 9.28502 7.3066C9.30336 7.18949 9.30914 6.99514 9.29904 6.83392C9.28962 6.68332 9.26528 6.4985 9.24493 6.4232C9.22462 6.3479 9.17653 6.22444 9.13812 6.14884C9.0997 6.07324 9.00789 5.95493 8.9341 5.8859C8.85437 5.81132 8.73701 5.73684 8.64488 5.70237C8.55958 5.67047 8.41236 5.63178 8.3177 5.61642C8.22302 5.60106 8.06546 5.58983 7.96758 5.59147C7.86969 5.59314 7.7261 5.60508 7.64851 5.61806ZM8.3657 6.06843C8.45545 6.09164 8.57202 6.14515 8.62472 6.18731C8.68584 6.23619 8.74394 6.32211 8.78504 6.42438C8.83055 6.53749 8.85379 6.66183 8.86395 6.84635C8.87228 6.99747 8.86434 7.19116 8.84514 7.30495C8.82688 7.4133 8.77146 7.58575 8.72198 7.68818C8.6725 7.79059 8.58658 7.9207 8.531 7.9773C8.47544 8.03392 8.37829 8.10755 8.31515 8.14095C8.22606 8.18808 8.15429 8.20171 7.99496 8.20171C7.83429 8.20171 7.76403 8.18819 7.67211 8.13958C7.60749 8.10544 7.5084 8.02987 7.45191 7.97168C7.39542 7.91347 7.31585 7.79773 7.27508 7.71444C7.23429 7.63115 7.18114 7.47904 7.15699 7.37645C7.12501 7.24066 7.11652 7.10787 7.12588 6.88868C7.13582 6.65627 7.15368 6.55055 7.20406 6.42575C7.2457 6.3226 7.30411 6.23613 7.36519 6.18718C7.4179 6.14493 7.5288 6.09222 7.61162 6.07007C7.69445 6.04792 7.86128 6.02897 7.98236 6.02798C8.10344 6.027 8.27594 6.04518 8.3657 6.06843ZM3.1096 6.98555C3.18293 7.02107 3.29316 7.10036 3.35458 7.16178C3.416 7.22319 3.49641 7.33472 3.53327 7.40963C3.58844 7.52173 3.6003 7.58698 3.6003 7.77856C3.6003 7.97015 3.58844 8.0354 3.53327 8.1475C3.49641 8.22241 3.4126 8.33736 3.347 8.40296C3.28139 8.46857 3.16984 8.54885 3.09911 8.58138C2.99958 8.62716 2.91793 8.6406 2.73779 8.64079C2.54588 8.64101 2.48118 8.62932 2.36886 8.57404C2.29395 8.53719 2.18242 8.45677 2.12101 8.39535C2.05959 8.33394 1.98106 8.22531 1.94651 8.15396C1.91198 8.0826 1.8771 7.95118 1.86899 7.86194C1.86092 7.77268 1.86894 7.6404 1.88682 7.56798C1.90473 7.49555 1.96132 7.37253 2.01261 7.29463C2.06389 7.21671 2.16359 7.1132 2.23415 7.06466C2.30474 7.01608 2.41303 6.95982 2.47483 6.93955C2.54081 6.91795 2.66748 6.90653 2.78174 6.9119C2.91536 6.91817 3.01801 6.94122 3.1096 6.98555ZM13.6239 7.42365C13.6973 7.45916 13.8075 7.53846 13.8689 7.59988C13.9303 7.66129 14.0107 7.77282 14.0476 7.84773C14.1028 7.95983 14.1146 8.02508 14.1146 8.21666C14.1146 8.40825 14.1028 8.4735 14.0476 8.58559C14.0107 8.66051 13.9269 8.77545 13.8613 8.84106C13.7957 8.90666 13.6842 8.98695 13.6134 9.01947C13.5139 9.06526 13.4323 9.0787 13.2521 9.07889C13.0602 9.07911 12.9955 9.06742 12.8832 9.01214C12.8083 8.97528 12.6968 8.89486 12.6353 8.83345C12.5739 8.77203 12.4954 8.66341 12.4608 8.59206C12.4263 8.5207 12.3914 8.38927 12.3833 8.30004C12.3752 8.21078 12.3833 8.0785 12.4011 8.00607C12.4191 7.93365 12.4757 7.81063 12.5269 7.73273C12.5782 7.6548 12.6779 7.5513 12.7485 7.50276C12.8191 7.45418 12.9274 7.39791 12.9892 7.37765C13.0551 7.35605 13.1818 7.34463 13.2961 7.35C13.4297 7.35627 13.5323 7.37932 13.6239 7.42365ZM7.51327 8.54299C7.5872 8.57787 7.7258 8.61977 7.82131 8.63614C7.94811 8.65785 8.04383 8.6575 8.17611 8.63485C8.27575 8.61779 8.41912 8.57322 8.49466 8.53582L8.63206 8.46783L9.1897 8.83947L9.74735 9.21111L9.74718 9.41897C9.7471 9.53325 9.73467 9.67131 9.71955 9.72574C9.70444 9.78018 9.66197 9.8572 9.62517 9.89687L9.55828 9.96905H7.99496H6.43164L6.36475 9.89687C6.32794 9.8572 6.28548 9.78018 6.27036 9.72574C6.25525 9.67131 6.24282 9.53325 6.24273 9.41897L6.24257 9.21111L6.79704 8.83906C7.10198 8.63441 7.35766 8.46983 7.36519 8.47328C7.37272 8.47676 7.43937 8.50811 7.51327 8.54299ZM4.49018 11.2833V11.5024H4.70923H4.92828V11.2833V11.0643H4.70923H4.49018V11.2833ZM11.0616 11.2833V11.5024H11.2807H11.4997V11.2833V11.0643H11.2807H11.0616V11.2833ZM8.35628 12.4541C8.42701 12.4855 8.53856 12.5648 8.60416 12.6304C8.66977 12.696 8.75358 12.8109 8.79043 12.8858C8.84561 12.9979 8.85746 13.0632 8.85746 13.2548C8.85746 13.4464 8.84561 13.5116 8.79043 13.6237C8.75358 13.6986 8.66977 13.8136 8.60416 13.8792C8.53856 13.9448 8.42701 14.0251 8.35628 14.0576C8.25675 14.1034 8.1751 14.1168 7.99496 14.117C7.80304 14.1172 7.73834 14.1055 7.62603 14.0503C7.55111 14.0134 7.43959 13.933 7.37817 13.8716C7.31676 13.8102 7.23823 13.7015 7.20367 13.6302C7.16915 13.5588 7.13426 13.4274 7.12616 13.3382C7.11808 13.2489 7.1261 13.1166 7.14398 13.0442C7.16189 12.9718 7.21849 12.8487 7.26977 12.7708C7.32106 12.6929 7.42075 12.5894 7.49131 12.5409C7.5619 12.4923 7.67019 12.436 7.73199 12.4158C7.79751 12.3943 7.92426 12.3827 8.03603 12.388C8.15314 12.3936 8.27772 12.4193 8.35628 12.4541Z" fill="#5C5D6F" stroke="#5C5D6F" stroke-width="0.5"/>
</svg>
