<svg width="41" height="40" viewBox="0 0 41 40" fill="none" xmlns="http://www.w3.org/2000/svg">
<circle cx="20.0625" cy="20" r="20" fill="#1DA1F2"/>
<path fill-rule="evenodd" clip-rule="evenodd" d="M32.0625 12.5567C31.1802 12.9487 30.2306 13.2126 29.2347 13.3318C30.2514 12.7223 31.0322 11.7575 31.3993 10.608C30.449 11.1728 29.3939 11.5816 28.2732 11.8031C27.3748 10.8464 26.0941 10.248 24.679 10.248C21.96 10.248 19.7553 12.4527 19.7553 15.1717C19.7553 15.5573 19.7993 15.9333 19.8833 16.294C15.7908 16.0893 12.163 14.1286 9.73439 11.1496C9.31042 11.8767 9.06803 12.7223 9.06803 13.6246C9.06803 15.3325 9.93597 16.8396 11.2583 17.7228C10.4503 17.6972 9.69199 17.4756 9.02723 17.1068V17.1684C9.02723 19.5546 10.7255 21.5441 12.9766 21.9977C12.5638 22.1097 12.1286 22.1705 11.6799 22.1705C11.3623 22.1705 11.0535 22.1393 10.7527 22.0817C11.3791 24.0375 13.1982 25.4614 15.3524 25.5014C13.6677 26.8213 11.5447 27.6093 9.23762 27.6093C8.83925 27.6093 8.44727 27.5861 8.0625 27.5397C10.2416 28.9364 12.8294 29.7523 15.61 29.7523C24.6662 29.7523 29.6187 22.2496 29.6187 15.7437C29.6187 15.5301 29.6147 15.3173 29.6043 15.1069C30.5674 14.411 31.4025 13.5438 32.0625 12.5567Z" fill="white"/>
</svg>
