<svg width="17" height="16" viewBox="0 0 17 16" fill="none" xmlns="http://www.w3.org/2000/svg">
<path d="M10.1 12V13.6L11.7 14.4V15.2H5.30002L5.29682 14.4032L6.90002 13.6V12H1.29363C1.18858 11.9993 1.08469 11.978 0.987902 11.9371C0.891119 11.8963 0.803349 11.8367 0.729625 11.7619C0.655901 11.6871 0.597671 11.5984 0.558273 11.501C0.518875 11.4036 0.499083 11.2994 0.500033 11.1944V0.805598C0.500033 0.360799 0.864032 0 1.29363 0H15.7064C16.1448 0 16.5 0.359199 16.5 0.805598V11.1944C16.5 11.6392 16.136 12 15.7064 12H10.1ZM2.10003 8.79998V10.4H14.9V8.79998H2.10003Z" fill="#5C5D6F"/>
</svg>
