<svg width="41" height="40" viewBox="0 0 41 40" fill="none" xmlns="http://www.w3.org/2000/svg">
<circle cx="20.0625" cy="20" r="20" fill="#FF0000"/>
<path fill-rule="evenodd" clip-rule="evenodd" d="M31.363 12.3781C31.7621 12.7772 32.0497 13.2739 32.1971 13.8187C33.046 17.2357 32.8498 22.6324 32.2136 26.1813C32.0662 26.7261 31.7786 27.2228 31.3795 27.6219C30.9804 28.021 30.4837 28.3086 29.9389 28.456C27.9444 29 19.9169 29 19.9169 29C19.9169 29 11.8894 29 9.8949 28.456C9.35009 28.3086 8.85339 28.021 8.45429 27.6219C8.05519 27.2228 7.76761 26.7261 7.62018 26.1813C6.76633 22.7791 7.0004 17.3791 7.6037 13.8352C7.75112 13.2903 8.03871 12.7936 8.43781 12.3945C8.83691 11.9954 9.3336 11.7079 9.87842 11.5604C11.8729 11.0165 19.9004 11 19.9004 11C19.9004 11 27.9279 11 29.9224 11.544C30.4672 11.6914 30.9639 11.979 31.363 12.3781ZM24.0048 20L17.3455 23.8571V16.1428L24.0048 20Z" fill="white"/>
</svg>
