<svg width="25" height="25" viewBox="0 0 25 25" fill="none" xmlns="http://www.w3.org/2000/svg">
<rect width="25" height="25" rx="12.5" transform="matrix(1 0 0 -1 0 25)" fill="#B3B3B3"/>
<path d="M16.2002 19.0625C16.2 18.814 16.1011 18.5757 15.9252 18.4L11.1302 13.605C10.9851 13.4599 10.8699 13.2876 10.7914 13.098C10.7128 12.9085 10.6724 12.7052 10.6724 12.5C10.6724 12.2948 10.7128 12.0916 10.7914 11.902C10.8699 11.7124 10.9851 11.5401 11.1302 11.395L15.9189 6.60314C16.0897 6.42632 16.1842 6.18951 16.1821 5.9437C16.1799 5.69789 16.0813 5.46275 15.9075 5.28893C15.7337 5.11511 15.4986 5.01651 15.2528 5.01438C15.0069 5.01224 14.7701 5.10674 14.5933 5.27751L9.80457 10.0656C9.16067 10.7108 8.79904 11.5851 8.79904 12.4966C8.79904 13.4081 9.16067 14.2823 9.80457 14.9275L14.5996 19.7225C14.7305 19.8535 14.8973 19.9428 15.0789 19.9791C15.2605 20.0154 15.4488 19.9971 15.6201 19.9265C15.7913 19.8559 15.9378 19.7362 16.041 19.5824C16.1443 19.4286 16.1997 19.2477 16.2002 19.0625Z" fill="#2F2F2F"/>
</svg>
