<svg width="20" height="20" viewBox="0 0 20 20" fill="none" xmlns="http://www.w3.org/2000/svg">
<g clip-path="url(#clip0_1_913)">
<path fill-rule="evenodd" clip-rule="evenodd" d="M19.2324 13.8453C19.2324 18.0921 15.3857 20.0001 10.0002 20.0001C4.6148 20.0001 0.768066 18.0921 0.768066 13.8761C0.768066 9.26001 3.0761 6.92103 7.69219 4.58221L6.0575 1.53911C5.96 1.38661 5.90571 1.2105 5.90044 1.02956C5.89516 0.848628 5.93909 0.669653 6.02753 0.511718C6.11597 0.353784 6.24561 0.222813 6.40264 0.132769C6.55967 0.0427252 6.7382 -0.00301512 6.91917 0.000424804H13.4432C13.6129 0.00473807 13.7787 0.0521575 13.925 0.138219C14.0712 0.224281 14.1932 0.346153 14.2794 0.492364C14.3655 0.638574 14.4131 0.804313 14.4177 0.973976C14.4221 1.14364 14.3832 1.31165 14.305 1.46218L12.3083 4.58221C16.9244 6.89026 19.2324 9.22923 19.2324 13.8453ZM10.8931 6.98214C10.8931 6.48903 10.4933 6.08928 10.0002 6.08928C9.50709 6.08928 9.10734 6.48903 9.10734 6.98214V7.87721C7.78304 7.93271 6.72644 9.02388 6.72644 10.3618C6.72644 11.5305 7.54019 12.5415 8.68186 12.7912L10.7863 13.2516C11.1959 13.3412 11.4883 13.7044 11.4883 14.1243C11.4883 14.6178 11.0882 15.0178 10.5955 15.0178H9.40501C9.01766 15.0178 8.68573 14.7706 8.56274 14.4226C8.39841 13.9577 7.8883 13.7141 7.42337 13.8784C6.95844 14.0427 6.71477 14.5528 6.8791 15.0178C7.21473 15.9674 8.07117 16.6726 9.10734 16.7872V17.6964C9.10734 18.1895 9.50709 18.5892 10.0002 18.5892C10.4933 18.5892 10.8931 18.1895 10.8931 17.6964V16.7872C12.2327 16.6391 13.274 15.5026 13.274 14.1243C13.274 12.8659 12.3979 11.7762 11.1679 11.5071L9.06346 11.0468C8.74159 10.9763 8.51216 10.6913 8.51216 10.3618C8.51216 9.97461 8.82606 9.66071 9.21329 9.66071H10.5955C10.8598 9.66071 11.0964 9.77447 11.2612 9.95856C11.3386 10.045 11.3989 10.1459 11.4377 10.2559C11.6021 10.7208 12.1122 10.9645 12.5771 10.8001C13.042 10.6358 13.2857 10.1257 13.1214 9.66078C13.0035 9.32714 12.8218 9.02466 12.5918 8.76763C12.1646 8.29036 11.5662 7.96596 10.8931 7.89138V6.98214Z" fill="#6ECEFF"/>
</g>
<defs>
<clipPath id="clip0_1_913">
<rect width="20" height="20" fill="white"/>
</clipPath>
</defs>
</svg>
