<svg width="25" height="25" viewBox="0 0 25 25" fill="none" xmlns="http://www.w3.org/2000/svg">
<rect width="25" height="25" rx="12.5" fill="#B3B3B3"/>
<path d="M8.7998 19.0625C8.80002 18.814 8.89894 18.5757 9.0748 18.4L13.8698 13.605C14.0149 13.4599 14.1301 13.2876 14.2086 13.098C14.2872 12.9085 14.3276 12.7052 14.3276 12.5C14.3276 12.2948 14.2872 12.0916 14.2086 11.902C14.1301 11.7124 14.0149 11.5401 13.8698 11.395L9.08105 6.60314C8.91028 6.42632 8.81579 6.18951 8.81792 5.9437C8.82006 5.69789 8.91865 5.46275 9.09247 5.28893C9.26629 5.11511 9.50143 5.01651 9.74724 5.01438C9.99305 5.01224 10.2299 5.10674 10.4067 5.27751L15.1954 10.0656C15.8393 10.7108 16.201 11.5851 16.201 12.4966C16.201 13.4081 15.8393 14.2823 15.1954 14.9275L10.4004 19.7225C10.2695 19.8535 10.1027 19.9428 9.92108 19.9791C9.73946 20.0154 9.55115 19.9971 9.37992 19.9265C9.20869 19.8559 9.06221 19.7362 8.95897 19.5824C8.85572 19.4286 8.80034 19.2477 8.7998 19.0625Z" fill="#2F2F2F"/>
</svg>
