<svg width="14" height="15" viewBox="0 0 14 15" fill="none" xmlns="http://www.w3.org/2000/svg">
<path d="M6.61564 4.452C6.43886 4.23986 6.12358 4.2112 5.91144 4.38798C5.6993 4.56477 5.67064 4.88005 5.84742 5.09219L6.61564 4.452ZM8.6254 7.64474L9.00951 7.96483C9.16403 7.77941 9.16403 7.51007 9.00951 7.32464L8.6254 7.64474ZM5.84742 10.1973C5.67064 10.4094 5.6993 10.7247 5.91144 10.9015C6.12358 11.0783 6.43886 11.0496 6.61564 10.8375L5.84742 10.1973ZM5.84742 5.09219L8.24129 7.96483L9.00951 7.32464L6.61564 4.452L5.84742 5.09219ZM8.24129 7.32464L5.84742 10.1973L6.61564 10.8375L9.00951 7.96483L8.24129 7.32464ZM7 13.5C3.68629 13.5 1 10.8137 1 7.5H0C0 11.366 3.13401 14.5 7 14.5V13.5ZM1 7.5C1 4.18629 3.68629 1.5 7 1.5V0.5C3.13401 0.5 0 3.63401 0 7.5H1ZM7 1.5C10.3137 1.5 13 4.18629 13 7.5H14C14 3.63401 10.866 0.5 7 0.5V1.5ZM13 7.5C13 10.8137 10.3137 13.5 7 13.5V14.5C10.866 14.5 14 11.366 14 7.5H13Z" fill="#0C5FFF"/>
</svg>
